M48
INCH,TZ
T1C0.0157
T2C0.0315
T3C0.0394
T4C0.0433
%
G90
G05
T1
X50394Y-17126
X50394Y-19882
X50394Y-23031
X50591Y-17535
X50591Y-18717
X50787Y-21276
X50787Y-22457
X52953Y-19882
X52953Y-22638
X53150Y-17520
X53937Y-15945
X54331Y-14567
X56299Y-18110
X56299Y-21063
X58465Y-22047
X58661Y-15354
X59055Y-21063
X59055Y-22441
X59449Y-19291
X62795Y-22156
X63386Y-19488
X63386Y-21850
X64173Y-21457
X64961Y-19291
X65157Y-17520
T2
X46850Y-14370
X46850Y-16339
X48819Y-14370
X48819Y-16339
T3
X42717Y-15827
X42717Y-16827
X42717Y-17827
X42717Y-18827
X46803Y-12402
X47803Y-12402
X48803Y-12402
X49803Y-12402
X70866Y-15827
X70866Y-16827
X70866Y-17827
X70866Y-18827
T4
X52921Y-12992
X53921Y-12992
X54921Y-12992
X58843Y-12970
X59843Y-12970
X60843Y-12970
X64961Y-12970
X65961Y-12970
X66961Y-12970
T0
M30
