G04 #@! TF.GenerationSoftware,KiCad,Pcbnew,7.0.7*
G04 #@! TF.CreationDate,2023-09-05T10:46:26+02:00*
G04 #@! TF.ProjectId,lt15t3,6c743135-7433-42e6-9b69-6361645f7063,rev?*
G04 #@! TF.SameCoordinates,Original*
G04 #@! TF.FileFunction,Copper,L1,Top*
G04 #@! TF.FilePolarity,Positive*
%FSLAX46Y46*%
G04 Gerber Fmt 4.6, Leading zero omitted, Abs format (unit mm)*
G04 Created by KiCad (PCBNEW 7.0.7) date 2023-09-05 10:46:26*
%MOMM*%
%LPD*%
G01*
G04 APERTURE LIST*
G04 Aperture macros list*
%AMRoundRect*
0 Rectangle with rounded corners*
0 $1 Rounding radius*
0 $2 $3 $4 $5 $6 $7 $8 $9 X,Y pos of 4 corners*
0 Add a 4 corners polygon primitive as box body*
4,1,4,$2,$3,$4,$5,$6,$7,$8,$9,$2,$3,0*
0 Add four circle primitives for the rounded corners*
1,1,$1+$1,$2,$3*
1,1,$1+$1,$4,$5*
1,1,$1+$1,$6,$7*
1,1,$1+$1,$8,$9*
0 Add four rect primitives between the rounded corners*
20,1,$1+$1,$2,$3,$4,$5,0*
20,1,$1+$1,$4,$5,$6,$7,0*
20,1,$1+$1,$6,$7,$8,$9,0*
20,1,$1+$1,$8,$9,$2,$3,0*%
G04 Aperture macros list end*
G04 #@! TA.AperFunction,ComponentPad*
%ADD10C,7.500000*%
G04 #@! TD*
G04 #@! TA.AperFunction,SMDPad,CuDef*
%ADD11RoundRect,0.250000X0.650000X-1.000000X0.650000X1.000000X-0.650000X1.000000X-0.650000X-1.000000X0*%
G04 #@! TD*
G04 #@! TA.AperFunction,SMDPad,CuDef*
%ADD12RoundRect,0.250000X0.475000X-0.250000X0.475000X0.250000X-0.475000X0.250000X-0.475000X-0.250000X0*%
G04 #@! TD*
G04 #@! TA.AperFunction,SMDPad,CuDef*
%ADD13RoundRect,0.250000X-0.250000X-0.475000X0.250000X-0.475000X0.250000X0.475000X-0.250000X0.475000X0*%
G04 #@! TD*
G04 #@! TA.AperFunction,SMDPad,CuDef*
%ADD14RoundRect,0.250000X-0.325000X-0.650000X0.325000X-0.650000X0.325000X0.650000X-0.325000X0.650000X0*%
G04 #@! TD*
G04 #@! TA.AperFunction,ComponentPad*
%ADD15R,1.700000X1.700000*%
G04 #@! TD*
G04 #@! TA.AperFunction,ComponentPad*
%ADD16O,1.700000X1.700000*%
G04 #@! TD*
G04 #@! TA.AperFunction,SMDPad,CuDef*
%ADD17RoundRect,0.150000X-0.150000X0.512500X-0.150000X-0.512500X0.150000X-0.512500X0.150000X0.512500X0*%
G04 #@! TD*
G04 #@! TA.AperFunction,SMDPad,CuDef*
%ADD18RoundRect,0.250000X0.450000X-0.262500X0.450000X0.262500X-0.450000X0.262500X-0.450000X-0.262500X0*%
G04 #@! TD*
G04 #@! TA.AperFunction,SMDPad,CuDef*
%ADD19RoundRect,0.250000X-1.000000X-0.650000X1.000000X-0.650000X1.000000X0.650000X-1.000000X0.650000X0*%
G04 #@! TD*
G04 #@! TA.AperFunction,SMDPad,CuDef*
%ADD20RoundRect,0.250000X-0.475000X0.250000X-0.475000X-0.250000X0.475000X-0.250000X0.475000X0.250000X0*%
G04 #@! TD*
G04 #@! TA.AperFunction,SMDPad,CuDef*
%ADD21RoundRect,0.250000X1.000000X0.650000X-1.000000X0.650000X-1.000000X-0.650000X1.000000X-0.650000X0*%
G04 #@! TD*
G04 #@! TA.AperFunction,SMDPad,CuDef*
%ADD22RoundRect,0.218750X-0.218750X-0.256250X0.218750X-0.256250X0.218750X0.256250X-0.218750X0.256250X0*%
G04 #@! TD*
G04 #@! TA.AperFunction,SMDPad,CuDef*
%ADD23RoundRect,0.250000X0.250000X0.475000X-0.250000X0.475000X-0.250000X-0.475000X0.250000X-0.475000X0*%
G04 #@! TD*
G04 #@! TA.AperFunction,ComponentPad*
%ADD24C,1.600000*%
G04 #@! TD*
G04 #@! TA.AperFunction,ComponentPad*
%ADD25R,1.905000X2.000000*%
G04 #@! TD*
G04 #@! TA.AperFunction,ComponentPad*
%ADD26O,1.905000X2.000000*%
G04 #@! TD*
G04 #@! TA.AperFunction,SMDPad,CuDef*
%ADD27RoundRect,0.250000X-0.262500X-0.450000X0.262500X-0.450000X0.262500X0.450000X-0.262500X0.450000X0*%
G04 #@! TD*
G04 #@! TA.AperFunction,SMDPad,CuDef*
%ADD28RoundRect,0.243750X-0.243750X-0.456250X0.243750X-0.456250X0.243750X0.456250X-0.243750X0.456250X0*%
G04 #@! TD*
G04 #@! TA.AperFunction,SMDPad,CuDef*
%ADD29R,1.700000X0.650000*%
G04 #@! TD*
G04 #@! TA.AperFunction,ViaPad*
%ADD30C,0.800000*%
G04 #@! TD*
G04 #@! TA.AperFunction,Conductor*
%ADD31C,0.250000*%
G04 #@! TD*
G04 APERTURE END LIST*
D10*
G04 #@! TO.P,,1*
G04 #@! TO.N,GND*
X110500000Y-33000000D03*
G04 #@! TD*
G04 #@! TO.P,,1*
G04 #@! TO.N,GND*
X110500000Y-58500000D03*
G04 #@! TD*
G04 #@! TO.P,,1*
G04 #@! TO.N,GND*
X178000000Y-58500000D03*
G04 #@! TD*
G04 #@! TO.P,REF\u002A\u002A,1*
G04 #@! TO.N,GND*
X178000000Y-33000000D03*
G04 #@! TD*
D11*
G04 #@! TO.P,D1,1,A1*
G04 #@! TO.N,GND*
X125000000Y-59040000D03*
G04 #@! TO.P,D1,2,A2*
G04 #@! TO.N,IN2*
X125000000Y-55040000D03*
G04 #@! TD*
D12*
G04 #@! TO.P,C1,1*
G04 #@! TO.N,GND*
X133000000Y-52490000D03*
G04 #@! TO.P,C1,2*
G04 #@! TO.N,+15V*
X133000000Y-50590000D03*
G04 #@! TD*
D13*
G04 #@! TO.P,C8,1*
G04 #@! TO.N,GND*
X139550000Y-37000000D03*
G04 #@! TO.P,C8,2*
G04 #@! TO.N,-15V*
X141450000Y-37000000D03*
G04 #@! TD*
D14*
G04 #@! TO.P,C5,1*
G04 #@! TO.N,Net-(D3-K)*
X149025000Y-37000000D03*
G04 #@! TO.P,C5,2*
G04 #@! TO.N,GND*
X151975000Y-37000000D03*
G04 #@! TD*
D15*
G04 #@! TO.P,J1,1,Pin_1*
G04 #@! TO.N,VCC*
X118880000Y-31500000D03*
D16*
G04 #@! TO.P,J1,2,Pin_2*
G04 #@! TO.N,GND*
X121420000Y-31500000D03*
G04 #@! TO.P,J1,3,Pin_3*
G04 #@! TO.N,VSS*
X123960000Y-31500000D03*
G04 #@! TO.P,J1,4,Pin_4*
G04 #@! TO.N,GND*
X126500000Y-31500000D03*
G04 #@! TD*
D17*
G04 #@! TO.P,U2,1*
G04 #@! TO.N,Net-(U2--)*
X131950000Y-45402500D03*
G04 #@! TO.P,U2,2,V-*
G04 #@! TO.N,-15V*
X131000000Y-45402500D03*
G04 #@! TO.P,U2,3,+*
G04 #@! TO.N,IN1*
X130050000Y-45402500D03*
G04 #@! TO.P,U2,4,-*
G04 #@! TO.N,Net-(U2--)*
X130050000Y-47677500D03*
G04 #@! TO.P,U2,5,V+*
G04 #@! TO.N,+15V*
X131950000Y-47677500D03*
G04 #@! TD*
D18*
G04 #@! TO.P,R7,1*
G04 #@! TO.N,GND*
X140000000Y-52372500D03*
G04 #@! TO.P,R7,2*
G04 #@! TO.N,O1*
X140000000Y-50547500D03*
G04 #@! TD*
D19*
G04 #@! TO.P,D5,1,K*
G04 #@! TO.N,+15V*
X166000000Y-42000000D03*
G04 #@! TO.P,D5,2,A*
G04 #@! TO.N,+3.3V*
X170000000Y-42000000D03*
G04 #@! TD*
D20*
G04 #@! TO.P,C3,1*
G04 #@! TO.N,+15V*
X133000000Y-59590000D03*
G04 #@! TO.P,C3,2*
G04 #@! TO.N,GND*
X133000000Y-61490000D03*
G04 #@! TD*
D12*
G04 #@! TO.P,C4,1*
G04 #@! TO.N,GND*
X130500000Y-61490000D03*
G04 #@! TO.P,C4,2*
G04 #@! TO.N,-15V*
X130500000Y-59590000D03*
G04 #@! TD*
D21*
G04 #@! TO.P,D6,1,K*
G04 #@! TO.N,-15V*
X138500000Y-42000000D03*
G04 #@! TO.P,D6,2,A*
G04 #@! TO.N,Net-(D4-A)*
X134500000Y-42000000D03*
G04 #@! TD*
D22*
G04 #@! TO.P,D3,1,K*
G04 #@! TO.N,Net-(D3-K)*
X118712500Y-44000000D03*
G04 #@! TO.P,D3,2,A*
G04 #@! TO.N,GND*
X120287500Y-44000000D03*
G04 #@! TD*
D12*
G04 #@! TO.P,C2,1*
G04 #@! TO.N,GND*
X130500000Y-52490000D03*
G04 #@! TO.P,C2,2*
G04 #@! TO.N,-15V*
X130500000Y-50590000D03*
G04 #@! TD*
D11*
G04 #@! TO.P,D2,1,A1*
G04 #@! TO.N,GND*
X125000000Y-51040000D03*
G04 #@! TO.P,D2,2,A2*
G04 #@! TO.N,IN1*
X125000000Y-47040000D03*
G04 #@! TD*
D18*
G04 #@! TO.P,R3,1*
G04 #@! TO.N,Net-(U6A-+)*
X164500000Y-52372500D03*
G04 #@! TO.P,R3,2*
G04 #@! TO.N,+3.3V*
X164500000Y-50547500D03*
G04 #@! TD*
D19*
G04 #@! TO.P,D9,1,K*
G04 #@! TO.N,Net-(D3-K)*
X150500000Y-42000000D03*
G04 #@! TO.P,D9,2,A*
G04 #@! TO.N,+15V*
X154500000Y-42000000D03*
G04 #@! TD*
D23*
G04 #@! TO.P,C10,1*
G04 #@! TO.N,+3.3V*
X171450000Y-37000000D03*
G04 #@! TO.P,C10,2*
G04 #@! TO.N,GND*
X169550000Y-37000000D03*
G04 #@! TD*
D24*
G04 #@! TO.P,F1,1*
G04 #@! TO.N,VSS*
X124000000Y-36500000D03*
G04 #@! TO.P,F1,2*
G04 #@! TO.N,Net-(D4-A)*
X124000000Y-41500000D03*
G04 #@! TD*
D25*
G04 #@! TO.P,U3,1,VI*
G04 #@! TO.N,Net-(D3-K)*
X149460000Y-32945000D03*
D26*
G04 #@! TO.P,U3,2,GND*
G04 #@! TO.N,GND*
X152000000Y-32945000D03*
G04 #@! TO.P,U3,3,VO*
G04 #@! TO.N,+15V*
X154540000Y-32945000D03*
G04 #@! TD*
D27*
G04 #@! TO.P,R1,1*
G04 #@! TO.N,Net-(U1--)*
X136000000Y-55000000D03*
G04 #@! TO.P,R1,2*
G04 #@! TO.N,Net-(U6B--)*
X137825000Y-55000000D03*
G04 #@! TD*
D18*
G04 #@! TO.P,R8,1*
G04 #@! TO.N,GND*
X161000000Y-53872500D03*
G04 #@! TO.P,R8,2*
G04 #@! TO.N,O2*
X161000000Y-52047500D03*
G04 #@! TD*
D15*
G04 #@! TO.P,J2,1,Pin_1*
G04 #@! TO.N,O1*
X180000000Y-40200000D03*
D16*
G04 #@! TO.P,J2,2,Pin_2*
G04 #@! TO.N,GND*
X180000000Y-42740000D03*
G04 #@! TO.P,J2,3,Pin_3*
G04 #@! TO.N,O2*
X180000000Y-45280000D03*
G04 #@! TO.P,J2,4,Pin_4*
G04 #@! TO.N,GND*
X180000000Y-47820000D03*
G04 #@! TD*
D15*
G04 #@! TO.P,J3,1,Pin_1*
G04 #@! TO.N,IN1*
X108500000Y-40200000D03*
D16*
G04 #@! TO.P,J3,2,Pin_2*
G04 #@! TO.N,GND*
X108500000Y-42740000D03*
G04 #@! TO.P,J3,3,Pin_3*
G04 #@! TO.N,IN2*
X108500000Y-45280000D03*
G04 #@! TO.P,J3,4,Pin_4*
G04 #@! TO.N,GND*
X108500000Y-47820000D03*
G04 #@! TD*
D23*
G04 #@! TO.P,C7,1*
G04 #@! TO.N,+15V*
X156450000Y-37000000D03*
G04 #@! TO.P,C7,2*
G04 #@! TO.N,GND*
X154550000Y-37000000D03*
G04 #@! TD*
D18*
G04 #@! TO.P,R4,1*
G04 #@! TO.N,GND*
X164500000Y-56372500D03*
G04 #@! TO.P,R4,2*
G04 #@! TO.N,Net-(U6A-+)*
X164500000Y-54547500D03*
G04 #@! TD*
D28*
G04 #@! TO.P,D8,1,K*
G04 #@! TO.N,+3.3V*
X158062500Y-48960000D03*
G04 #@! TO.P,D8,2,A*
G04 #@! TO.N,GND*
X159937500Y-48960000D03*
G04 #@! TD*
D24*
G04 #@! TO.P,F2,1*
G04 #@! TO.N,VCC*
X119000000Y-36500000D03*
G04 #@! TO.P,F2,2*
G04 #@! TO.N,Net-(D3-K)*
X119000000Y-41500000D03*
G04 #@! TD*
D13*
G04 #@! TO.P,C9,1*
G04 #@! TO.N,+15V*
X165050000Y-37000000D03*
G04 #@! TO.P,C9,2*
G04 #@! TO.N,GND*
X166950000Y-37000000D03*
G04 #@! TD*
D25*
G04 #@! TO.P,U4,1,ADJ*
G04 #@! TO.N,GND*
X134420000Y-33000000D03*
D26*
G04 #@! TO.P,U4,2,VI*
G04 #@! TO.N,Net-(D4-A)*
X136960000Y-33000000D03*
G04 #@! TO.P,U4,3,VO*
G04 #@! TO.N,-15V*
X139500000Y-33000000D03*
G04 #@! TD*
D17*
G04 #@! TO.P,U1,1*
G04 #@! TO.N,Net-(U1--)*
X131950000Y-54902500D03*
G04 #@! TO.P,U1,2,V-*
G04 #@! TO.N,-15V*
X131000000Y-54902500D03*
G04 #@! TO.P,U1,3,+*
G04 #@! TO.N,IN2*
X130050000Y-54902500D03*
G04 #@! TO.P,U1,4,-*
G04 #@! TO.N,Net-(U1--)*
X130050000Y-57177500D03*
G04 #@! TO.P,U1,5,V+*
G04 #@! TO.N,+15V*
X131950000Y-57177500D03*
G04 #@! TD*
D18*
G04 #@! TO.P,R6,1*
G04 #@! TO.N,Net-(U6B--)*
X158000000Y-53872500D03*
G04 #@! TO.P,R6,2*
G04 #@! TO.N,O2*
X158000000Y-52047500D03*
G04 #@! TD*
D29*
G04 #@! TO.P,U6,1*
G04 #@! TO.N,O1*
X146850000Y-51055000D03*
G04 #@! TO.P,U6,2,-*
G04 #@! TO.N,Net-(U6A--)*
X146850000Y-52325000D03*
G04 #@! TO.P,U6,3,+*
G04 #@! TO.N,Net-(U6A-+)*
X146850000Y-53595000D03*
G04 #@! TO.P,U6,4,V-*
G04 #@! TO.N,GND*
X146850000Y-54865000D03*
G04 #@! TO.P,U6,5,+*
G04 #@! TO.N,Net-(U6A-+)*
X154150000Y-54865000D03*
G04 #@! TO.P,U6,6,-*
G04 #@! TO.N,Net-(U6B--)*
X154150000Y-53595000D03*
G04 #@! TO.P,U6,7*
G04 #@! TO.N,O2*
X154150000Y-52325000D03*
G04 #@! TO.P,U6,8,V+*
G04 #@! TO.N,+3.3V*
X154150000Y-51055000D03*
G04 #@! TD*
D14*
G04 #@! TO.P,C6,1*
G04 #@! TO.N,GND*
X133025000Y-37000000D03*
G04 #@! TO.P,C6,2*
G04 #@! TO.N,Net-(D4-A)*
X135975000Y-37000000D03*
G04 #@! TD*
D25*
G04 #@! TO.P,U5,1,IN*
G04 #@! TO.N,+15V*
X165000000Y-32945000D03*
D26*
G04 #@! TO.P,U5,2,GND*
G04 #@! TO.N,GND*
X167540000Y-32945000D03*
G04 #@! TO.P,U5,3,OUT*
G04 #@! TO.N,+3.3V*
X170080000Y-32945000D03*
G04 #@! TD*
D22*
G04 #@! TO.P,D4,1,K*
G04 #@! TO.N,GND*
X123212500Y-44000000D03*
G04 #@! TO.P,D4,2,A*
G04 #@! TO.N,Net-(D4-A)*
X124787500Y-44000000D03*
G04 #@! TD*
D18*
G04 #@! TO.P,R5,1*
G04 #@! TO.N,Net-(U6A--)*
X143000000Y-52372500D03*
G04 #@! TO.P,R5,2*
G04 #@! TO.N,O1*
X143000000Y-50547500D03*
G04 #@! TD*
D23*
G04 #@! TO.P,C11,1*
G04 #@! TO.N,+3.3V*
X154950000Y-48460000D03*
G04 #@! TO.P,C11,2*
G04 #@! TO.N,GND*
X153050000Y-48460000D03*
G04 #@! TD*
D27*
G04 #@! TO.P,R2,1*
G04 #@! TO.N,Net-(U2--)*
X136087500Y-46000000D03*
G04 #@! TO.P,R2,2*
G04 #@! TO.N,Net-(U6A--)*
X137912500Y-46000000D03*
G04 #@! TD*
D30*
G04 #@! TO.N,GND*
X161000000Y-49500000D03*
X159500000Y-56275000D03*
X151000000Y-49000000D03*
X148500000Y-56000000D03*
X138000000Y-37000000D03*
G04 #@! TO.N,+15V*
X135000000Y-44500000D03*
X134500000Y-57500000D03*
X134500000Y-50500000D03*
G04 #@! TO.N,-15V*
X128000000Y-50500000D03*
X128000000Y-43500000D03*
X128000000Y-58500000D03*
G04 #@! TO.N,Net-(D3-K)*
X149000000Y-39000000D03*
G04 #@! TO.N,Net-(D4-A)*
X137000000Y-40500000D03*
G04 #@! TO.N,+3.3V*
X165000000Y-49000000D03*
X165500000Y-44500000D03*
G04 #@! TO.N,Net-(U1--)*
X129000000Y-54040000D03*
X129000000Y-57040000D03*
G04 #@! TO.N,Net-(U6B--)*
X150000000Y-53500000D03*
X150000000Y-57000000D03*
G04 #@! TO.N,Net-(U2--)*
X128500000Y-44540000D03*
X128500000Y-47540000D03*
G04 #@! TO.N,Net-(U6A--)*
X143000000Y-53500000D03*
X143000000Y-46000000D03*
G04 #@! TO.N,Net-(U6A-+)*
X161000000Y-55500000D03*
X163000000Y-54500000D03*
G04 #@! TD*
D31*
G04 #@! TO.N,GND*
X142492500Y-54865000D02*
X140000000Y-52372500D01*
X178797919Y-47820000D02*
X180000000Y-47820000D01*
X125000000Y-51040000D02*
X126450000Y-52490000D01*
X164500000Y-56372500D02*
X164402500Y-56275000D01*
X160460000Y-48960000D02*
X161000000Y-49500000D01*
X159500000Y-56275000D02*
X148775000Y-56275000D01*
X170245419Y-56372500D02*
X178797919Y-47820000D01*
X167540000Y-32945000D02*
X167540000Y-36410000D01*
X153050000Y-48460000D02*
X151540000Y-48460000D01*
X108500000Y-47820000D02*
X113780000Y-47820000D01*
X133025000Y-37000000D02*
X134420000Y-35605000D01*
X163500000Y-56372500D02*
X161000000Y-53872500D01*
X108500000Y-42740000D02*
X111376396Y-42740000D01*
X121420000Y-43920000D02*
X121500000Y-44000000D01*
X130500000Y-52490000D02*
X133000000Y-52490000D01*
X164402500Y-56275000D02*
X159500000Y-56275000D01*
X111376396Y-42740000D02*
X119676396Y-51040000D01*
X147985000Y-56000000D02*
X146850000Y-54865000D01*
X166950000Y-37000000D02*
X169550000Y-37000000D01*
X167540000Y-36410000D02*
X166950000Y-37000000D01*
X152000000Y-36975000D02*
X152000000Y-32945000D01*
X151975000Y-37000000D02*
X154550000Y-37000000D01*
X164500000Y-56372500D02*
X163500000Y-56372500D01*
X125500000Y-59040000D02*
X127950000Y-61490000D01*
X127950000Y-61490000D02*
X133000000Y-61490000D01*
X164500000Y-56372500D02*
X170245419Y-56372500D01*
X124040000Y-52000000D02*
X125000000Y-51040000D01*
X113780000Y-47820000D02*
X125000000Y-59040000D01*
X139882500Y-52490000D02*
X140000000Y-52372500D01*
X151975000Y-37000000D02*
X152000000Y-36975000D01*
X121420000Y-31500000D02*
X121420000Y-43920000D01*
X146850000Y-54865000D02*
X142492500Y-54865000D01*
X125000000Y-59040000D02*
X125500000Y-59040000D01*
X148775000Y-56275000D02*
X148500000Y-56000000D01*
X134420000Y-35605000D02*
X134420000Y-33000000D01*
X148500000Y-56000000D02*
X147985000Y-56000000D01*
X133000000Y-52490000D02*
X139882500Y-52490000D01*
X121500000Y-44000000D02*
X120287500Y-44000000D01*
X126450000Y-52490000D02*
X130500000Y-52490000D01*
X164872500Y-56000000D02*
X164500000Y-56372500D01*
X123212500Y-44000000D02*
X121500000Y-44000000D01*
X119676396Y-51040000D02*
X125000000Y-51040000D01*
X159937500Y-48960000D02*
X160460000Y-48960000D01*
X139550000Y-37000000D02*
X138000000Y-37000000D01*
X151540000Y-48460000D02*
X151000000Y-49000000D01*
G04 #@! TO.N,+15V*
X165000000Y-32945000D02*
X165000000Y-36950000D01*
X165050000Y-37000000D02*
X165050000Y-40950000D01*
X156450000Y-37000000D02*
X156450000Y-40450000D01*
X165050000Y-40950000D02*
X165600000Y-41500000D01*
X165000000Y-36950000D02*
X165050000Y-37000000D01*
X134500000Y-50500000D02*
X133090000Y-50500000D01*
X131950000Y-49540000D02*
X133000000Y-50590000D01*
X156450000Y-40450000D02*
X155400000Y-41500000D01*
X131950000Y-58540000D02*
X133000000Y-59590000D01*
X131950000Y-57177500D02*
X134177500Y-57177500D01*
X135000000Y-44500000D02*
X152400000Y-44500000D01*
X156450000Y-37000000D02*
X156450000Y-34950000D01*
X131950000Y-47677500D02*
X131950000Y-49540000D01*
X156450000Y-34950000D02*
X154540000Y-33040000D01*
X154540000Y-32945000D02*
X165000000Y-32945000D01*
X152400000Y-44500000D02*
X155400000Y-41500000D01*
X131950000Y-57177500D02*
X131950000Y-58540000D01*
X134177500Y-57177500D02*
X134500000Y-57500000D01*
X133090000Y-50500000D02*
X133000000Y-50590000D01*
X154540000Y-33040000D02*
X154540000Y-32945000D01*
G04 #@! TO.N,-15V*
X141450000Y-37000000D02*
X141450000Y-33950000D01*
X129090000Y-59590000D02*
X128000000Y-58500000D01*
X131000000Y-45402500D02*
X131000000Y-50090000D01*
X131000000Y-50090000D02*
X130500000Y-50590000D01*
X130410000Y-50500000D02*
X130500000Y-50590000D01*
X137400000Y-43500000D02*
X139400000Y-41500000D01*
X141450000Y-39450000D02*
X141450000Y-37000000D01*
X128000000Y-43500000D02*
X137400000Y-43500000D01*
X139400000Y-41500000D02*
X141450000Y-39450000D01*
X141450000Y-33950000D02*
X140500000Y-33000000D01*
X128000000Y-50500000D02*
X130410000Y-50500000D01*
X131000000Y-59090000D02*
X130500000Y-59590000D01*
X140500000Y-33000000D02*
X139500000Y-33000000D01*
X130500000Y-59590000D02*
X129090000Y-59590000D01*
X131000000Y-54902500D02*
X131000000Y-59090000D01*
G04 #@! TO.N,Net-(D3-K)*
X149000000Y-39000000D02*
X149000000Y-39900000D01*
X149000000Y-39900000D02*
X150600000Y-41500000D01*
X119000000Y-41500000D02*
X119000000Y-43712500D01*
X119000000Y-43712500D02*
X118712500Y-44000000D01*
X149460000Y-38540000D02*
X149460000Y-32945000D01*
X149000000Y-39000000D02*
X149460000Y-38540000D01*
G04 #@! TO.N,Net-(D4-A)*
X125000000Y-42500000D02*
X125000000Y-43787500D01*
X136960000Y-36015000D02*
X136960000Y-33000000D01*
X125000000Y-43787500D02*
X124787500Y-44000000D01*
X137000000Y-40500000D02*
X136960000Y-40460000D01*
X135975000Y-37000000D02*
X136960000Y-36015000D01*
X137000000Y-40500000D02*
X135600000Y-40500000D01*
X135600000Y-40500000D02*
X134600000Y-41500000D01*
X137000000Y-38025000D02*
X135975000Y-37000000D01*
X124000000Y-41500000D02*
X125000000Y-42500000D01*
X137000000Y-40500000D02*
X137000000Y-38025000D01*
G04 #@! TO.N,+3.3V*
X171450000Y-37000000D02*
X171450000Y-40450000D01*
X157562500Y-48460000D02*
X158062500Y-48960000D01*
X164500000Y-49500000D02*
X165000000Y-49000000D01*
X170080000Y-32945000D02*
X170080000Y-33080000D01*
X159087500Y-47935000D02*
X158062500Y-48960000D01*
X170080000Y-33080000D02*
X171500000Y-34500000D01*
X154150000Y-51055000D02*
X154150000Y-49260000D01*
X154950000Y-48460000D02*
X157562500Y-48460000D01*
X171500000Y-36950000D02*
X171450000Y-37000000D01*
X161887500Y-47935000D02*
X159087500Y-47935000D01*
X154150000Y-49260000D02*
X154950000Y-48460000D01*
X167400000Y-44500000D02*
X170400000Y-41500000D01*
X171450000Y-40450000D02*
X170400000Y-41500000D01*
X164500000Y-50547500D02*
X164500000Y-49500000D01*
X171500000Y-34500000D02*
X171500000Y-36950000D01*
X164500000Y-50547500D02*
X161887500Y-47935000D01*
X165500000Y-44500000D02*
X167400000Y-44500000D01*
G04 #@! TO.N,IN2*
X125000000Y-55040000D02*
X123040000Y-55040000D01*
X125000000Y-55040000D02*
X129912500Y-55040000D01*
X129912500Y-55040000D02*
X130050000Y-54902500D01*
X113280000Y-45280000D02*
X108500000Y-45280000D01*
X123040000Y-55040000D02*
X113280000Y-45280000D01*
X125000000Y-55040000D02*
X124500000Y-54540000D01*
G04 #@! TO.N,IN1*
X112200000Y-40200000D02*
X108500000Y-40200000D01*
X125000000Y-47040000D02*
X126637500Y-45402500D01*
X125000000Y-47040000D02*
X119040000Y-47040000D01*
X125500000Y-47540000D02*
X125000000Y-47040000D01*
X119040000Y-47040000D02*
X112200000Y-40200000D01*
X126637500Y-45402500D02*
X130050000Y-45402500D01*
G04 #@! TO.N,VSS*
X124000000Y-35500000D02*
X124000000Y-36500000D01*
X123960000Y-35460000D02*
X124000000Y-35500000D01*
X123960000Y-31500000D02*
X123960000Y-35460000D01*
G04 #@! TO.N,VCC*
X118880000Y-31500000D02*
X118880000Y-35380000D01*
X119000000Y-35500000D02*
X119000000Y-36500000D01*
X118880000Y-35380000D02*
X119000000Y-35500000D01*
G04 #@! TO.N,O1*
X146850000Y-51055000D02*
X146850000Y-50650000D01*
X177300000Y-40200000D02*
X180000000Y-40200000D01*
X140087500Y-50460000D02*
X140000000Y-50547500D01*
X146850000Y-50650000D02*
X151000000Y-46500000D01*
X145000000Y-50460000D02*
X140087500Y-50460000D01*
X145595000Y-51055000D02*
X145000000Y-50460000D01*
X151000000Y-46500000D02*
X171000000Y-46500000D01*
X171000000Y-46500000D02*
X177300000Y-40200000D01*
X146850000Y-51055000D02*
X145595000Y-51055000D01*
G04 #@! TO.N,O2*
X157722500Y-52325000D02*
X154150000Y-52325000D01*
X177220000Y-45280000D02*
X180000000Y-45280000D01*
X158000000Y-52047500D02*
X157722500Y-52325000D01*
X161000000Y-52047500D02*
X158000000Y-52047500D01*
X170965000Y-51535000D02*
X177220000Y-45280000D01*
X161000000Y-52047500D02*
X161512500Y-51535000D01*
X161512500Y-51535000D02*
X170965000Y-51535000D01*
G04 #@! TO.N,Net-(U1--)*
X129125000Y-53915000D02*
X131375000Y-53915000D01*
X130050000Y-57177500D02*
X129137500Y-57177500D01*
X129000000Y-54040000D02*
X129125000Y-53915000D01*
X129137500Y-57177500D02*
X129000000Y-57040000D01*
X131950000Y-54902500D02*
X135902500Y-54902500D01*
X131950000Y-54490000D02*
X131950000Y-54902500D01*
X135902500Y-54902500D02*
X136000000Y-55000000D01*
X131375000Y-53915000D02*
X131950000Y-54490000D01*
G04 #@! TO.N,Net-(U6B--)*
X154150000Y-53595000D02*
X157722500Y-53595000D01*
X157722500Y-53595000D02*
X158000000Y-53872500D01*
X150095000Y-53595000D02*
X154150000Y-53595000D01*
X137825000Y-55000000D02*
X139825000Y-57000000D01*
X150000000Y-53500000D02*
X150095000Y-53595000D01*
X139825000Y-57000000D02*
X150000000Y-57000000D01*
G04 #@! TO.N,Net-(U2--)*
X135490000Y-45402500D02*
X136087500Y-46000000D01*
X128637500Y-47677500D02*
X128500000Y-47540000D01*
X128500000Y-44540000D02*
X128625000Y-44415000D01*
X131950000Y-45402500D02*
X135490000Y-45402500D01*
X131950000Y-44990000D02*
X131950000Y-45402500D01*
X131375000Y-44415000D02*
X131950000Y-44990000D01*
X128625000Y-44415000D02*
X131375000Y-44415000D01*
X130050000Y-47677500D02*
X128637500Y-47677500D01*
G04 #@! TO.N,Net-(U6A--)*
X143047500Y-52325000D02*
X143000000Y-52372500D01*
X146850000Y-52325000D02*
X143047500Y-52325000D01*
X137912500Y-46000000D02*
X143000000Y-46000000D01*
X143000000Y-53500000D02*
X143000000Y-52372500D01*
G04 #@! TO.N,Net-(U6A-+)*
X163000000Y-54500000D02*
X164452500Y-54500000D01*
X164452500Y-54500000D02*
X164500000Y-54547500D01*
X148645000Y-54865000D02*
X154150000Y-54865000D01*
X164500000Y-52372500D02*
X164500000Y-54547500D01*
X160365000Y-54865000D02*
X161000000Y-55500000D01*
X147375000Y-53595000D02*
X148645000Y-54865000D01*
X154150000Y-54865000D02*
X160365000Y-54865000D01*
X146850000Y-53595000D02*
X147375000Y-53595000D01*
G04 #@! TD*
G04 #@! TA.AperFunction,Conductor*
G04 #@! TO.N,GND*
G36*
X108846961Y-59901998D02*
G01*
X108899814Y-59939923D01*
X108912166Y-59955104D01*
X108925031Y-59970918D01*
X108947473Y-59991877D01*
X109067876Y-60104327D01*
X109103435Y-60164471D01*
X109100832Y-60234292D01*
X109070920Y-60282631D01*
X107674929Y-61678623D01*
X107674929Y-61678624D01*
X107713673Y-61715567D01*
X107713685Y-61715578D01*
X108031968Y-61965877D01*
X108372594Y-62184782D01*
X108528745Y-62265284D01*
X108579312Y-62313500D01*
X108595785Y-62381400D01*
X108572932Y-62447427D01*
X108518011Y-62490618D01*
X108471925Y-62499500D01*
X106624500Y-62499500D01*
X106557461Y-62479815D01*
X106511706Y-62427011D01*
X106500500Y-62375500D01*
X106500500Y-60535436D01*
X106520185Y-60468397D01*
X106572989Y-60422642D01*
X106642147Y-60412698D01*
X106705703Y-60441723D01*
X106731887Y-60473436D01*
X106920621Y-60800335D01*
X106920627Y-60800343D01*
X107155476Y-61130143D01*
X107155487Y-61130156D01*
X107322986Y-61323458D01*
X108715946Y-59930499D01*
X108777269Y-59897014D01*
X108846961Y-59901998D01*
G37*
G04 #@! TD.AperFunction*
G04 #@! TA.AperFunction,Conductor*
G36*
X167718210Y-33495545D02*
G01*
X167770729Y-33541627D01*
X167790000Y-33608018D01*
X167790000Y-34423365D01*
X167897792Y-34405379D01*
X168125454Y-34327221D01*
X168125468Y-34327215D01*
X168337159Y-34212655D01*
X168337168Y-34212649D01*
X168527116Y-34064806D01*
X168527126Y-34064797D01*
X168690154Y-33887702D01*
X168690155Y-33887701D01*
X168705891Y-33863616D01*
X168759036Y-33818258D01*
X168828267Y-33808833D01*
X168891604Y-33838333D01*
X168913510Y-33863614D01*
X168929446Y-33888007D01*
X168971664Y-33933868D01*
X169092537Y-34065171D01*
X169212538Y-34158571D01*
X169282017Y-34212649D01*
X169282561Y-34213072D01*
X169384190Y-34268071D01*
X169493478Y-34327215D01*
X169494336Y-34327679D01*
X169597467Y-34363084D01*
X169722083Y-34405865D01*
X169722085Y-34405865D01*
X169722087Y-34405866D01*
X169959601Y-34445500D01*
X169959602Y-34445500D01*
X170200398Y-34445500D01*
X170200399Y-34445500D01*
X170333047Y-34423365D01*
X170442972Y-34405022D01*
X170443233Y-34406590D01*
X170505926Y-34408934D01*
X170554251Y-34438842D01*
X170838181Y-34722771D01*
X170871666Y-34784094D01*
X170874500Y-34810452D01*
X170874500Y-35774781D01*
X170854815Y-35841820D01*
X170815597Y-35880319D01*
X170731347Y-35932285D01*
X170731343Y-35932288D01*
X170607288Y-36056343D01*
X170607283Y-36056349D01*
X170605241Y-36059661D01*
X170603247Y-36061453D01*
X170602807Y-36062011D01*
X170602711Y-36061935D01*
X170553291Y-36106383D01*
X170484328Y-36117602D01*
X170420247Y-36089755D01*
X170394168Y-36059656D01*
X170392319Y-36056659D01*
X170392316Y-36056655D01*
X170268345Y-35932684D01*
X170119124Y-35840643D01*
X170119119Y-35840641D01*
X169952697Y-35785494D01*
X169952690Y-35785493D01*
X169849986Y-35775000D01*
X169800000Y-35775000D01*
X169800000Y-38224999D01*
X169849972Y-38224999D01*
X169849986Y-38224998D01*
X169952697Y-38214505D01*
X170119119Y-38159358D01*
X170119124Y-38159356D01*
X170268345Y-38067315D01*
X170392318Y-37943342D01*
X170394165Y-37940348D01*
X170395969Y-37938724D01*
X170396798Y-37937677D01*
X170396976Y-37937818D01*
X170446110Y-37893621D01*
X170515073Y-37882396D01*
X170579156Y-37910236D01*
X170605242Y-37940339D01*
X170607288Y-37943656D01*
X170607289Y-37943657D01*
X170731345Y-38067713D01*
X170754994Y-38082299D01*
X170758291Y-38084333D01*
X170765594Y-38088837D01*
X170812320Y-38140784D01*
X170824500Y-38194377D01*
X170824500Y-40139546D01*
X170804815Y-40206585D01*
X170788181Y-40227227D01*
X170452227Y-40563181D01*
X170390904Y-40596666D01*
X170364546Y-40599500D01*
X168949998Y-40599500D01*
X168949981Y-40599501D01*
X168847203Y-40610000D01*
X168847200Y-40610001D01*
X168680668Y-40665185D01*
X168680663Y-40665187D01*
X168531342Y-40757289D01*
X168407289Y-40881342D01*
X168315187Y-41030663D01*
X168315185Y-41030666D01*
X168315186Y-41030666D01*
X168260001Y-41197203D01*
X168260001Y-41197204D01*
X168260000Y-41197204D01*
X168249500Y-41299983D01*
X168249500Y-42700000D01*
X168249502Y-42700034D01*
X168249622Y-42701204D01*
X168249575Y-42701455D01*
X168249662Y-42703162D01*
X168249253Y-42703182D01*
X168236840Y-42769894D01*
X168213943Y-42801464D01*
X167853466Y-43161942D01*
X167792143Y-43195427D01*
X167722452Y-43190443D01*
X167666518Y-43148572D01*
X167642101Y-43083107D01*
X167656953Y-43014834D01*
X167660233Y-43009186D01*
X167684814Y-42969334D01*
X167739999Y-42802797D01*
X167750500Y-42700009D01*
X167750499Y-41299992D01*
X167749716Y-41292331D01*
X167739999Y-41197203D01*
X167739998Y-41197200D01*
X167726837Y-41157482D01*
X167684814Y-41030666D01*
X167592712Y-40881344D01*
X167468656Y-40757288D01*
X167319334Y-40665186D01*
X167152797Y-40610001D01*
X167152795Y-40610000D01*
X167050016Y-40599500D01*
X167050009Y-40599500D01*
X165799500Y-40599500D01*
X165732461Y-40579815D01*
X165686706Y-40527011D01*
X165675500Y-40475500D01*
X165675500Y-38194377D01*
X165695185Y-38127338D01*
X165734406Y-38088837D01*
X165741707Y-38084334D01*
X165768656Y-38067712D01*
X165892712Y-37943656D01*
X165894752Y-37940347D01*
X165896745Y-37938555D01*
X165897193Y-37937989D01*
X165897289Y-37938065D01*
X165946694Y-37893623D01*
X166015656Y-37882395D01*
X166079740Y-37910234D01*
X166105829Y-37940339D01*
X166107681Y-37943341D01*
X166107683Y-37943344D01*
X166231654Y-38067315D01*
X166380875Y-38159356D01*
X166380880Y-38159358D01*
X166547302Y-38214505D01*
X166547309Y-38214506D01*
X166650019Y-38224999D01*
X166699998Y-38224998D01*
X166699999Y-38224998D01*
X166700000Y-37250000D01*
X167199999Y-37250000D01*
X167199999Y-38224998D01*
X167200000Y-38224999D01*
X167249972Y-38224999D01*
X167249986Y-38224998D01*
X167352697Y-38214505D01*
X167519119Y-38159358D01*
X167519124Y-38159356D01*
X167668345Y-38067315D01*
X167792315Y-37943345D01*
X167884356Y-37794124D01*
X167884358Y-37794119D01*
X167939505Y-37627697D01*
X167939506Y-37627690D01*
X167949999Y-37524986D01*
X167950000Y-37524973D01*
X167950000Y-37250000D01*
X168550001Y-37250000D01*
X168550001Y-37524986D01*
X168560494Y-37627697D01*
X168615641Y-37794119D01*
X168615643Y-37794124D01*
X168707684Y-37943345D01*
X168831654Y-38067315D01*
X168980875Y-38159356D01*
X168980880Y-38159358D01*
X169147302Y-38214505D01*
X169147309Y-38214506D01*
X169250019Y-38224999D01*
X169299999Y-38224998D01*
X169300000Y-38224998D01*
X169300000Y-37250000D01*
X168550001Y-37250000D01*
X167950000Y-37250000D01*
X167199999Y-37250000D01*
X166700000Y-37250000D01*
X166699999Y-35775000D01*
X167199999Y-35775000D01*
X167199999Y-36749999D01*
X167200001Y-36750000D01*
X167949999Y-36750000D01*
X168550000Y-36750000D01*
X169300000Y-36750000D01*
X169300000Y-35775000D01*
X169299999Y-35774999D01*
X169250029Y-35775000D01*
X169250011Y-35775001D01*
X169147302Y-35785494D01*
X168980880Y-35840641D01*
X168980875Y-35840643D01*
X168831654Y-35932684D01*
X168707684Y-36056654D01*
X168615643Y-36205875D01*
X168615641Y-36205880D01*
X168560494Y-36372302D01*
X168560493Y-36372309D01*
X168550000Y-36475013D01*
X168550000Y-36750000D01*
X167949999Y-36750000D01*
X167949999Y-36475028D01*
X167949998Y-36475013D01*
X167939505Y-36372302D01*
X167884358Y-36205880D01*
X167884356Y-36205875D01*
X167792315Y-36056654D01*
X167668345Y-35932684D01*
X167519124Y-35840643D01*
X167519119Y-35840641D01*
X167352697Y-35785494D01*
X167352690Y-35785493D01*
X167249986Y-35775000D01*
X167199999Y-35775000D01*
X166699999Y-35775000D01*
X166699998Y-35774999D01*
X166650029Y-35775000D01*
X166650011Y-35775001D01*
X166547302Y-35785494D01*
X166380880Y-35840641D01*
X166380875Y-35840643D01*
X166231654Y-35932684D01*
X166107683Y-36056655D01*
X166107679Y-36056660D01*
X166105826Y-36059665D01*
X166104018Y-36061290D01*
X166103202Y-36062323D01*
X166103025Y-36062183D01*
X166053874Y-36106385D01*
X165984911Y-36117601D01*
X165920831Y-36089752D01*
X165894753Y-36059653D01*
X165894737Y-36059628D01*
X165892712Y-36056344D01*
X165768656Y-35932288D01*
X165768652Y-35932285D01*
X165684403Y-35880319D01*
X165637678Y-35828371D01*
X165625500Y-35774781D01*
X165625500Y-34569499D01*
X165645185Y-34502460D01*
X165697989Y-34456705D01*
X165749500Y-34445499D01*
X166000371Y-34445499D01*
X166000372Y-34445499D01*
X166059983Y-34439091D01*
X166194831Y-34388796D01*
X166310046Y-34302546D01*
X166396296Y-34187331D01*
X166396297Y-34187328D01*
X166396298Y-34187327D01*
X166402308Y-34171209D01*
X166407907Y-34156197D01*
X166449776Y-34100264D01*
X166515240Y-34075844D01*
X166583513Y-34090694D01*
X166600252Y-34101675D01*
X166742831Y-34212649D01*
X166742840Y-34212655D01*
X166954531Y-34327215D01*
X166954545Y-34327221D01*
X167182207Y-34405379D01*
X167289999Y-34423366D01*
X167289999Y-33609652D01*
X167309683Y-33542613D01*
X167362487Y-33496858D01*
X167431646Y-33486914D01*
X167447453Y-33490250D01*
X167464404Y-33495000D01*
X167464406Y-33495000D01*
X167577622Y-33495000D01*
X167649116Y-33485173D01*
X167718210Y-33495545D01*
G37*
G04 #@! TD.AperFunction*
G04 #@! TA.AperFunction,Conductor*
G36*
X138311904Y-33893791D02*
G01*
X138333808Y-33919070D01*
X138349449Y-33943010D01*
X138512537Y-34120171D01*
X138645895Y-34223967D01*
X138692770Y-34260452D01*
X138702561Y-34268072D01*
X138914336Y-34382679D01*
X139032598Y-34423278D01*
X139142083Y-34460865D01*
X139142085Y-34460865D01*
X139142087Y-34460866D01*
X139379601Y-34500500D01*
X139379602Y-34500500D01*
X139620398Y-34500500D01*
X139620399Y-34500500D01*
X139857913Y-34460866D01*
X140085664Y-34382679D01*
X140297439Y-34268072D01*
X140487463Y-34120171D01*
X140518864Y-34086060D01*
X140578748Y-34050071D01*
X140648586Y-34052170D01*
X140697771Y-34082362D01*
X140715674Y-34100264D01*
X140788181Y-34172771D01*
X140821666Y-34234094D01*
X140824500Y-34260452D01*
X140824500Y-35805621D01*
X140804815Y-35872660D01*
X140765599Y-35911158D01*
X140731346Y-35932285D01*
X140607288Y-36056343D01*
X140607283Y-36056349D01*
X140605241Y-36059661D01*
X140603247Y-36061453D01*
X140602807Y-36062011D01*
X140602711Y-36061935D01*
X140553291Y-36106383D01*
X140484328Y-36117602D01*
X140420247Y-36089755D01*
X140394168Y-36059656D01*
X140392319Y-36056659D01*
X140392316Y-36056655D01*
X140268345Y-35932684D01*
X140119124Y-35840643D01*
X140119119Y-35840641D01*
X139952697Y-35785494D01*
X139952690Y-35785493D01*
X139849986Y-35775000D01*
X139800000Y-35775000D01*
X139800000Y-38224999D01*
X139849972Y-38224999D01*
X139849986Y-38224998D01*
X139952697Y-38214505D01*
X140119119Y-38159358D01*
X140119124Y-38159356D01*
X140268345Y-38067315D01*
X140392318Y-37943342D01*
X140394165Y-37940348D01*
X140395969Y-37938724D01*
X140396798Y-37937677D01*
X140396976Y-37937818D01*
X140446110Y-37893621D01*
X140515073Y-37882396D01*
X140579156Y-37910236D01*
X140605242Y-37940339D01*
X140607288Y-37943656D01*
X140607289Y-37943657D01*
X140731345Y-38067713D01*
X140754994Y-38082299D01*
X140758291Y-38084333D01*
X140765594Y-38088837D01*
X140812320Y-38140784D01*
X140824500Y-38194377D01*
X140824500Y-39139546D01*
X140804815Y-39206585D01*
X140788181Y-39227227D01*
X139452228Y-40563181D01*
X139390905Y-40596666D01*
X139364547Y-40599500D01*
X138027568Y-40599500D01*
X137960529Y-40579815D01*
X137914774Y-40527011D01*
X137904247Y-40488462D01*
X137902286Y-40469804D01*
X137885674Y-40311744D01*
X137827179Y-40131716D01*
X137732533Y-39967784D01*
X137715737Y-39949130D01*
X137657350Y-39884284D01*
X137627120Y-39821292D01*
X137625500Y-39801312D01*
X137625500Y-38107742D01*
X137627224Y-38092122D01*
X137626939Y-38092096D01*
X137627671Y-38084340D01*
X137627673Y-38084333D01*
X137625500Y-38015185D01*
X137625500Y-37985650D01*
X137624631Y-37978772D01*
X137624172Y-37972943D01*
X137622709Y-37926372D01*
X137617122Y-37907144D01*
X137613174Y-37888084D01*
X137612456Y-37882396D01*
X137610664Y-37868208D01*
X137610663Y-37868206D01*
X137610663Y-37868204D01*
X137593512Y-37824887D01*
X137591619Y-37819358D01*
X137578618Y-37774609D01*
X137578616Y-37774606D01*
X137568423Y-37757371D01*
X137559861Y-37739894D01*
X137552487Y-37721270D01*
X137552486Y-37721268D01*
X137525079Y-37683545D01*
X137521888Y-37678686D01*
X137498172Y-37638583D01*
X137498165Y-37638574D01*
X137484006Y-37624415D01*
X137471368Y-37609619D01*
X137459594Y-37593413D01*
X137423688Y-37563709D01*
X137419376Y-37559786D01*
X137198729Y-37339139D01*
X137109591Y-37250000D01*
X138550001Y-37250000D01*
X138550001Y-37524986D01*
X138560494Y-37627697D01*
X138615641Y-37794119D01*
X138615643Y-37794124D01*
X138707684Y-37943345D01*
X138831654Y-38067315D01*
X138980875Y-38159356D01*
X138980880Y-38159358D01*
X139147302Y-38214505D01*
X139147309Y-38214506D01*
X139250019Y-38224999D01*
X139299999Y-38224998D01*
X139300000Y-38224998D01*
X139300000Y-37250000D01*
X138550001Y-37250000D01*
X137109591Y-37250000D01*
X137086818Y-37227227D01*
X137053333Y-37165904D01*
X137050499Y-37139546D01*
X137050499Y-36860452D01*
X137070184Y-36793413D01*
X137086813Y-36772776D01*
X137109589Y-36750000D01*
X138550000Y-36750000D01*
X139300000Y-36750000D01*
X139300000Y-35775000D01*
X139299999Y-35774999D01*
X139250029Y-35775000D01*
X139250011Y-35775001D01*
X139147302Y-35785494D01*
X138980880Y-35840641D01*
X138980875Y-35840643D01*
X138831654Y-35932684D01*
X138707684Y-36056654D01*
X138615643Y-36205875D01*
X138615641Y-36205880D01*
X138560494Y-36372302D01*
X138560493Y-36372309D01*
X138550000Y-36475013D01*
X138550000Y-36750000D01*
X137109589Y-36750000D01*
X137343788Y-36515801D01*
X137356042Y-36505986D01*
X137355859Y-36505764D01*
X137361866Y-36500792D01*
X137361877Y-36500786D01*
X137392775Y-36467882D01*
X137409227Y-36450364D01*
X137419671Y-36439918D01*
X137430120Y-36429471D01*
X137434379Y-36423978D01*
X137438152Y-36419561D01*
X137470062Y-36385582D01*
X137479713Y-36368024D01*
X137490396Y-36351761D01*
X137502673Y-36335936D01*
X137521185Y-36293153D01*
X137523738Y-36287941D01*
X137546197Y-36247092D01*
X137551180Y-36227680D01*
X137557481Y-36209280D01*
X137565437Y-36190896D01*
X137572729Y-36144852D01*
X137573906Y-36139171D01*
X137585500Y-36094019D01*
X137585500Y-36073982D01*
X137587027Y-36054582D01*
X137587198Y-36053502D01*
X137590160Y-36034804D01*
X137585775Y-35988415D01*
X137585500Y-35982577D01*
X137585500Y-34435008D01*
X137605185Y-34367969D01*
X137650483Y-34325953D01*
X137693740Y-34302544D01*
X137757439Y-34268072D01*
X137947463Y-34120171D01*
X138110551Y-33943010D01*
X138126190Y-33919071D01*
X138179336Y-33873714D01*
X138248567Y-33864290D01*
X138311904Y-33893791D01*
G37*
G04 #@! TD.AperFunction*
G04 #@! TA.AperFunction,Conductor*
G36*
X152394629Y-47145185D02*
G01*
X152440384Y-47197989D01*
X152450328Y-47267147D01*
X152421303Y-47330703D01*
X152392687Y-47355038D01*
X152331659Y-47392680D01*
X152331655Y-47392683D01*
X152207684Y-47516654D01*
X152115643Y-47665875D01*
X152115641Y-47665880D01*
X152060494Y-47832302D01*
X152060493Y-47832309D01*
X152050000Y-47935013D01*
X152050000Y-48210000D01*
X153176000Y-48210000D01*
X153243039Y-48229685D01*
X153288794Y-48282489D01*
X153300000Y-48334000D01*
X153300000Y-49684999D01*
X153349972Y-49684999D01*
X153349984Y-49684998D01*
X153387897Y-49681125D01*
X153456590Y-49693894D01*
X153507475Y-49741774D01*
X153524500Y-49804483D01*
X153524500Y-50105500D01*
X153504815Y-50172539D01*
X153452011Y-50218294D01*
X153400501Y-50229500D01*
X153252130Y-50229500D01*
X153252123Y-50229501D01*
X153192516Y-50235908D01*
X153057671Y-50286202D01*
X153057664Y-50286206D01*
X152942455Y-50372452D01*
X152942452Y-50372455D01*
X152856206Y-50487664D01*
X152856202Y-50487671D01*
X152805910Y-50622513D01*
X152805909Y-50622517D01*
X152799500Y-50682127D01*
X152799500Y-50682134D01*
X152799500Y-50682135D01*
X152799500Y-51427870D01*
X152799501Y-51427876D01*
X152805908Y-51487483D01*
X152856202Y-51622328D01*
X152860454Y-51630114D01*
X152857280Y-51631846D01*
X152875659Y-51681302D01*
X152860725Y-51749557D01*
X152860117Y-51750502D01*
X152856202Y-51757671D01*
X152805910Y-51892513D01*
X152805909Y-51892517D01*
X152799500Y-51952127D01*
X152799500Y-51952134D01*
X152799500Y-51952135D01*
X152799500Y-52697870D01*
X152799501Y-52697876D01*
X152805908Y-52757483D01*
X152822575Y-52802167D01*
X152827559Y-52871858D01*
X152794074Y-52933181D01*
X152732751Y-52966666D01*
X152706393Y-52969500D01*
X150789287Y-52969500D01*
X150722248Y-52949815D01*
X150697138Y-52928473D01*
X150605871Y-52827112D01*
X150605870Y-52827111D01*
X150452734Y-52715851D01*
X150452729Y-52715848D01*
X150279807Y-52638857D01*
X150279802Y-52638855D01*
X150134001Y-52607865D01*
X150094646Y-52599500D01*
X149905354Y-52599500D01*
X149872897Y-52606398D01*
X149720197Y-52638855D01*
X149720192Y-52638857D01*
X149547270Y-52715848D01*
X149547265Y-52715851D01*
X149394129Y-52827111D01*
X149267466Y-52967785D01*
X149172821Y-53131715D01*
X149172818Y-53131722D01*
X149117552Y-53301814D01*
X149114326Y-53311744D01*
X149094540Y-53500000D01*
X149114326Y-53688256D01*
X149114327Y-53688259D01*
X149172818Y-53868277D01*
X149172821Y-53868284D01*
X149267467Y-54032216D01*
X149267748Y-54032528D01*
X149267854Y-54032748D01*
X149271285Y-54037471D01*
X149270421Y-54038098D01*
X149297978Y-54095519D01*
X149289353Y-54164854D01*
X149244612Y-54218520D01*
X149177959Y-54239478D01*
X149175598Y-54239500D01*
X148955453Y-54239500D01*
X148888414Y-54219815D01*
X148867772Y-54203181D01*
X148236818Y-53572227D01*
X148203333Y-53510904D01*
X148200499Y-53484546D01*
X148200499Y-53222129D01*
X148200498Y-53222123D01*
X148194091Y-53162516D01*
X148143797Y-53027671D01*
X148139546Y-53019886D01*
X148142724Y-53018150D01*
X148124344Y-52968741D01*
X148139253Y-52900480D01*
X148139866Y-52899526D01*
X148143793Y-52892335D01*
X148143792Y-52892335D01*
X148143796Y-52892331D01*
X148194091Y-52757483D01*
X148200500Y-52697873D01*
X148200499Y-51952128D01*
X148195299Y-51903757D01*
X148194091Y-51892516D01*
X148143797Y-51757670D01*
X148139547Y-51749888D01*
X148142757Y-51748134D01*
X148124361Y-51699001D01*
X148139127Y-51630709D01*
X148139752Y-51629736D01*
X148143797Y-51622329D01*
X148166858Y-51560499D01*
X148194091Y-51487483D01*
X148200500Y-51427873D01*
X148200499Y-50682128D01*
X148194091Y-50622517D01*
X148143796Y-50487669D01*
X148102495Y-50432498D01*
X148078078Y-50367036D01*
X148092929Y-50298763D01*
X148114077Y-50270511D01*
X149674589Y-48710000D01*
X152050001Y-48710000D01*
X152050001Y-48984986D01*
X152060494Y-49087697D01*
X152115641Y-49254119D01*
X152115643Y-49254124D01*
X152207684Y-49403345D01*
X152331654Y-49527315D01*
X152480875Y-49619356D01*
X152480880Y-49619358D01*
X152647302Y-49674505D01*
X152647309Y-49674506D01*
X152750019Y-49684999D01*
X152799999Y-49684998D01*
X152800000Y-49684998D01*
X152800000Y-48710000D01*
X152050001Y-48710000D01*
X149674589Y-48710000D01*
X151222771Y-47161819D01*
X151284095Y-47128334D01*
X151310453Y-47125500D01*
X152327590Y-47125500D01*
X152394629Y-47145185D01*
G37*
G04 #@! TD.AperFunction*
G04 #@! TA.AperFunction,Conductor*
G36*
X159889951Y-52692685D02*
G01*
X159928449Y-52731901D01*
X159944230Y-52757485D01*
X159957289Y-52778657D01*
X160051304Y-52872672D01*
X160084789Y-52933995D01*
X160079805Y-53003687D01*
X160051305Y-53048034D01*
X159957682Y-53141657D01*
X159865643Y-53290875D01*
X159865641Y-53290880D01*
X159810494Y-53457302D01*
X159810493Y-53457309D01*
X159800000Y-53560013D01*
X159800000Y-53622500D01*
X161126000Y-53622500D01*
X161193039Y-53642185D01*
X161238794Y-53694989D01*
X161250000Y-53746500D01*
X161250000Y-53998500D01*
X161230315Y-54065539D01*
X161177511Y-54111294D01*
X161126000Y-54122500D01*
X159800001Y-54122500D01*
X159797091Y-54125409D01*
X159780316Y-54182539D01*
X159727512Y-54228294D01*
X159676001Y-54239500D01*
X159324500Y-54239500D01*
X159257461Y-54219815D01*
X159211706Y-54167011D01*
X159200500Y-54115500D01*
X159200499Y-53559998D01*
X159200498Y-53559980D01*
X159189999Y-53457203D01*
X159189998Y-53457200D01*
X159186713Y-53447288D01*
X159134814Y-53290666D01*
X159042712Y-53141344D01*
X158949048Y-53047680D01*
X158915564Y-52986356D01*
X158920548Y-52916665D01*
X158949045Y-52872322D01*
X159042712Y-52778656D01*
X159071549Y-52731902D01*
X159123497Y-52685179D01*
X159177088Y-52673000D01*
X159822912Y-52673000D01*
X159889951Y-52692685D01*
G37*
G04 #@! TD.AperFunction*
G04 #@! TA.AperFunction,Conductor*
G36*
X161644087Y-48580185D02*
G01*
X161664729Y-48596819D01*
X163263181Y-50195271D01*
X163296666Y-50256594D01*
X163299500Y-50282952D01*
X163299501Y-50785500D01*
X163279817Y-50852539D01*
X163227013Y-50898294D01*
X163175501Y-50909500D01*
X161595237Y-50909500D01*
X161579620Y-50907776D01*
X161579593Y-50908062D01*
X161571831Y-50907327D01*
X161502703Y-50909500D01*
X161473150Y-50909500D01*
X161472429Y-50909590D01*
X161466257Y-50910369D01*
X161460445Y-50910826D01*
X161413872Y-50912290D01*
X161413869Y-50912291D01*
X161394626Y-50917881D01*
X161375583Y-50921825D01*
X161355704Y-50924336D01*
X161355703Y-50924337D01*
X161312378Y-50941490D01*
X161306852Y-50943382D01*
X161262108Y-50956383D01*
X161262104Y-50956385D01*
X161244865Y-50966580D01*
X161227398Y-50975137D01*
X161208770Y-50982512D01*
X161171069Y-51009902D01*
X161166190Y-51013107D01*
X161159225Y-51017227D01*
X161096095Y-51034500D01*
X160499998Y-51034500D01*
X160499980Y-51034501D01*
X160397203Y-51045000D01*
X160397200Y-51045001D01*
X160230668Y-51100185D01*
X160230663Y-51100187D01*
X160081342Y-51192289D01*
X159957289Y-51316342D01*
X159957287Y-51316344D01*
X159957288Y-51316344D01*
X159929656Y-51361144D01*
X159928451Y-51363097D01*
X159876503Y-51409821D01*
X159822912Y-51422000D01*
X159177088Y-51422000D01*
X159110049Y-51402315D01*
X159071549Y-51363097D01*
X159042712Y-51316344D01*
X158918656Y-51192288D01*
X158816586Y-51129331D01*
X158769336Y-51100187D01*
X158769331Y-51100185D01*
X158761768Y-51097679D01*
X158602797Y-51045001D01*
X158602795Y-51045000D01*
X158500010Y-51034500D01*
X157499998Y-51034500D01*
X157499980Y-51034501D01*
X157397203Y-51045000D01*
X157397200Y-51045001D01*
X157230668Y-51100185D01*
X157230663Y-51100187D01*
X157081342Y-51192289D01*
X156957289Y-51316342D01*
X156865187Y-51465663D01*
X156865185Y-51465668D01*
X156855527Y-51494814D01*
X156815864Y-51614507D01*
X156776095Y-51671949D01*
X156711579Y-51698772D01*
X156698161Y-51699500D01*
X155593607Y-51699500D01*
X155526568Y-51679815D01*
X155480813Y-51627011D01*
X155470869Y-51557853D01*
X155477425Y-51532167D01*
X155488047Y-51503687D01*
X155494091Y-51487483D01*
X155500500Y-51427873D01*
X155500499Y-50682128D01*
X155494091Y-50622517D01*
X155443796Y-50487669D01*
X155443795Y-50487668D01*
X155443793Y-50487664D01*
X155357547Y-50372455D01*
X155357544Y-50372452D01*
X155242335Y-50286206D01*
X155242328Y-50286202D01*
X155107482Y-50235908D01*
X155107483Y-50235908D01*
X155047883Y-50229501D01*
X155047881Y-50229500D01*
X155047873Y-50229500D01*
X155047865Y-50229500D01*
X154899500Y-50229500D01*
X154832461Y-50209815D01*
X154786706Y-50157011D01*
X154775500Y-50105500D01*
X154775500Y-49809499D01*
X154795185Y-49742460D01*
X154847989Y-49696705D01*
X154899500Y-49685499D01*
X155250002Y-49685499D01*
X155250008Y-49685499D01*
X155352797Y-49674999D01*
X155519334Y-49619814D01*
X155668656Y-49527712D01*
X155792712Y-49403656D01*
X155884814Y-49254334D01*
X155912595Y-49170495D01*
X155952368Y-49113051D01*
X156016884Y-49086228D01*
X156030301Y-49085500D01*
X156950500Y-49085500D01*
X157017539Y-49105185D01*
X157063294Y-49157989D01*
X157074500Y-49209500D01*
X157074500Y-49465855D01*
X157084913Y-49567776D01*
X157139637Y-49732922D01*
X157139642Y-49732933D01*
X157230971Y-49880999D01*
X157230974Y-49881003D01*
X157353996Y-50004025D01*
X157354000Y-50004028D01*
X157502066Y-50095357D01*
X157502069Y-50095358D01*
X157502075Y-50095362D01*
X157667225Y-50150087D01*
X157769152Y-50160500D01*
X157769157Y-50160500D01*
X158355843Y-50160500D01*
X158355848Y-50160500D01*
X158457775Y-50150087D01*
X158622925Y-50095362D01*
X158771003Y-50004026D01*
X158894026Y-49881003D01*
X158894755Y-49879821D01*
X158895466Y-49879181D01*
X158898507Y-49875336D01*
X158899163Y-49875855D01*
X158946701Y-49833097D01*
X159015664Y-49821873D01*
X159079746Y-49849715D01*
X159101761Y-49875123D01*
X159101888Y-49875023D01*
X159104113Y-49877838D01*
X159105833Y-49879822D01*
X159106365Y-49880685D01*
X159106368Y-49880689D01*
X159229308Y-50003629D01*
X159377285Y-50094903D01*
X159377290Y-50094905D01*
X159542326Y-50149592D01*
X159644184Y-50159999D01*
X159644197Y-50160000D01*
X159687500Y-50160000D01*
X159687500Y-49210000D01*
X160187500Y-49210000D01*
X160187500Y-50160000D01*
X160230803Y-50160000D01*
X160230815Y-50159999D01*
X160332673Y-50149592D01*
X160497709Y-50094905D01*
X160497714Y-50094903D01*
X160645691Y-50003629D01*
X160768629Y-49880691D01*
X160859903Y-49732714D01*
X160859905Y-49732709D01*
X160914592Y-49567673D01*
X160924999Y-49465815D01*
X160925000Y-49465802D01*
X160925000Y-49210000D01*
X160187500Y-49210000D01*
X159687500Y-49210000D01*
X159687500Y-48834000D01*
X159707185Y-48766961D01*
X159759989Y-48721206D01*
X159811500Y-48710000D01*
X160925000Y-48710000D01*
X160925000Y-48684500D01*
X160944685Y-48617461D01*
X160997489Y-48571706D01*
X161049000Y-48560500D01*
X161577048Y-48560500D01*
X161644087Y-48580185D01*
G37*
G04 #@! TD.AperFunction*
G04 #@! TA.AperFunction,Conductor*
G36*
X178592540Y-40845185D02*
G01*
X178638295Y-40897989D01*
X178649501Y-40949500D01*
X178649501Y-41097876D01*
X178655908Y-41157483D01*
X178706202Y-41292328D01*
X178706206Y-41292335D01*
X178792452Y-41407544D01*
X178792455Y-41407547D01*
X178907664Y-41493793D01*
X178907671Y-41493797D01*
X178924305Y-41500001D01*
X179039598Y-41543002D01*
X179095531Y-41584873D01*
X179119949Y-41650337D01*
X179105098Y-41718610D01*
X179083947Y-41746865D01*
X178961886Y-41868926D01*
X178826400Y-42062420D01*
X178826399Y-42062422D01*
X178726570Y-42276507D01*
X178726567Y-42276513D01*
X178669364Y-42489999D01*
X178669364Y-42490000D01*
X179386653Y-42490000D01*
X179453692Y-42509685D01*
X179499447Y-42562489D01*
X179509391Y-42631647D01*
X179505631Y-42648933D01*
X179500000Y-42668111D01*
X179500000Y-42811888D01*
X179505631Y-42831067D01*
X179505630Y-42900936D01*
X179467855Y-42959714D01*
X179404299Y-42988738D01*
X179386653Y-42990000D01*
X178669364Y-42990000D01*
X178726567Y-43203486D01*
X178726570Y-43203492D01*
X178826399Y-43417578D01*
X178961894Y-43611082D01*
X179128917Y-43778105D01*
X179314595Y-43908119D01*
X179358219Y-43962696D01*
X179365412Y-44032195D01*
X179333890Y-44094549D01*
X179314595Y-44111269D01*
X179128594Y-44241508D01*
X178961505Y-44408597D01*
X178826348Y-44601623D01*
X178771771Y-44645248D01*
X178724773Y-44654500D01*
X177302743Y-44654500D01*
X177287122Y-44652775D01*
X177287096Y-44653061D01*
X177279334Y-44652327D01*
X177279333Y-44652327D01*
X177210186Y-44654500D01*
X177180649Y-44654500D01*
X177173766Y-44655369D01*
X177167949Y-44655826D01*
X177121373Y-44657290D01*
X177102129Y-44662881D01*
X177083079Y-44666825D01*
X177063211Y-44669334D01*
X177019884Y-44686488D01*
X177014358Y-44688379D01*
X176969614Y-44701379D01*
X176969610Y-44701381D01*
X176952366Y-44711579D01*
X176934905Y-44720133D01*
X176916274Y-44727510D01*
X176916262Y-44727517D01*
X176878570Y-44754902D01*
X176873687Y-44758109D01*
X176833580Y-44781829D01*
X176819414Y-44795995D01*
X176804624Y-44808627D01*
X176788414Y-44820404D01*
X176788411Y-44820407D01*
X176758710Y-44856309D01*
X176754777Y-44860631D01*
X170742228Y-50873181D01*
X170680905Y-50906666D01*
X170654547Y-50909500D01*
X165824500Y-50909500D01*
X165757461Y-50889815D01*
X165711706Y-50837011D01*
X165700500Y-50785500D01*
X165700499Y-50234998D01*
X165700498Y-50234980D01*
X165689999Y-50132203D01*
X165689998Y-50132200D01*
X165677789Y-50095357D01*
X165634814Y-49965666D01*
X165561503Y-49846809D01*
X165543064Y-49779419D01*
X165563987Y-49712756D01*
X165594159Y-49681396D01*
X165605871Y-49672888D01*
X165732533Y-49532216D01*
X165827179Y-49368284D01*
X165885674Y-49188256D01*
X165905460Y-49000000D01*
X165885674Y-48811744D01*
X165827179Y-48631716D01*
X165732533Y-48467784D01*
X165605871Y-48327112D01*
X165601796Y-48324151D01*
X165452734Y-48215851D01*
X165452729Y-48215848D01*
X165279807Y-48138857D01*
X165279802Y-48138855D01*
X165134001Y-48107865D01*
X165094646Y-48099500D01*
X164905354Y-48099500D01*
X164872897Y-48106398D01*
X164720197Y-48138855D01*
X164720192Y-48138857D01*
X164547270Y-48215848D01*
X164547265Y-48215851D01*
X164394129Y-48327111D01*
X164267466Y-48467785D01*
X164172821Y-48631715D01*
X164172818Y-48631722D01*
X164120824Y-48791744D01*
X164114326Y-48811744D01*
X164098271Y-48964500D01*
X164097229Y-48974418D01*
X164070644Y-49039032D01*
X164013347Y-49079017D01*
X163943528Y-49081677D01*
X163886227Y-49049137D01*
X163171090Y-48334000D01*
X162388303Y-47551212D01*
X162378480Y-47538950D01*
X162378259Y-47539134D01*
X162373286Y-47533123D01*
X162360859Y-47521453D01*
X162322864Y-47485773D01*
X162312419Y-47475328D01*
X162301975Y-47464883D01*
X162296486Y-47460625D01*
X162292061Y-47456847D01*
X162258082Y-47424938D01*
X162258080Y-47424936D01*
X162258077Y-47424935D01*
X162240529Y-47415288D01*
X162224263Y-47404604D01*
X162208436Y-47392327D01*
X162208435Y-47392326D01*
X162208433Y-47392325D01*
X162165669Y-47373819D01*
X162160424Y-47371249D01*
X162136620Y-47358164D01*
X162087355Y-47308620D01*
X162072695Y-47240305D01*
X162097297Y-47174910D01*
X162153348Y-47133196D01*
X162196354Y-47125500D01*
X170917257Y-47125500D01*
X170932877Y-47127224D01*
X170932904Y-47126939D01*
X170940660Y-47127671D01*
X170940667Y-47127673D01*
X171009814Y-47125500D01*
X171039350Y-47125500D01*
X171046228Y-47124630D01*
X171052041Y-47124172D01*
X171098627Y-47122709D01*
X171117869Y-47117117D01*
X171136912Y-47113174D01*
X171156792Y-47110664D01*
X171200122Y-47093507D01*
X171205646Y-47091617D01*
X171209396Y-47090527D01*
X171250390Y-47078618D01*
X171267629Y-47068422D01*
X171285103Y-47059862D01*
X171303727Y-47052488D01*
X171303727Y-47052487D01*
X171303732Y-47052486D01*
X171341449Y-47025082D01*
X171346305Y-47021892D01*
X171386420Y-46998170D01*
X171400589Y-46983999D01*
X171415379Y-46971368D01*
X171431587Y-46959594D01*
X171461299Y-46923676D01*
X171465212Y-46919376D01*
X177522771Y-40861819D01*
X177584095Y-40828334D01*
X177610453Y-40825500D01*
X178525501Y-40825500D01*
X178592540Y-40845185D01*
G37*
G04 #@! TD.AperFunction*
G04 #@! TA.AperFunction,Conductor*
G36*
X176038964Y-29020185D02*
G01*
X176084719Y-29072989D01*
X176094663Y-29142147D01*
X176065638Y-29205703D01*
X176028745Y-29234716D01*
X175872594Y-29315217D01*
X175531974Y-29534119D01*
X175213681Y-29784426D01*
X175174928Y-29821375D01*
X176570921Y-31217368D01*
X176604406Y-31278691D01*
X176599422Y-31348383D01*
X176567877Y-31395672D01*
X176425026Y-31529086D01*
X176399815Y-31560075D01*
X176342237Y-31599655D01*
X176272401Y-31601823D01*
X176215947Y-31569500D01*
X174822985Y-30176539D01*
X174655485Y-30369845D01*
X174420627Y-30699656D01*
X174420621Y-30699664D01*
X174218168Y-31050324D01*
X174049966Y-31418634D01*
X174049956Y-31418659D01*
X173917534Y-31801266D01*
X173917531Y-31801277D01*
X173822071Y-32194768D01*
X173764447Y-32595549D01*
X173745181Y-32999999D01*
X173764447Y-33404450D01*
X173822071Y-33805231D01*
X173917531Y-34198722D01*
X173917534Y-34198733D01*
X174049956Y-34581340D01*
X174049966Y-34581365D01*
X174218168Y-34949675D01*
X174420621Y-35300335D01*
X174420627Y-35300343D01*
X174655476Y-35630143D01*
X174655487Y-35630156D01*
X174822986Y-35823458D01*
X176215946Y-34430499D01*
X176277269Y-34397014D01*
X176346961Y-34401998D01*
X176399814Y-34439923D01*
X176412166Y-34455104D01*
X176425031Y-34470918D01*
X176475430Y-34517987D01*
X176567876Y-34604327D01*
X176603435Y-34664471D01*
X176600832Y-34734292D01*
X176570920Y-34782631D01*
X175174929Y-36178623D01*
X175174929Y-36178624D01*
X175213673Y-36215567D01*
X175213685Y-36215578D01*
X175531968Y-36465877D01*
X175872594Y-36684782D01*
X176232485Y-36870319D01*
X176608383Y-37020806D01*
X176608395Y-37020810D01*
X176996882Y-37134880D01*
X176996899Y-37134884D01*
X177394460Y-37211508D01*
X177394472Y-37211510D01*
X177797554Y-37250000D01*
X178202446Y-37250000D01*
X178605527Y-37211510D01*
X178605539Y-37211508D01*
X179003100Y-37134884D01*
X179003117Y-37134880D01*
X179391604Y-37020810D01*
X179391616Y-37020806D01*
X179767507Y-36870322D01*
X179767511Y-36870320D01*
X180127406Y-36684782D01*
X180468031Y-36465877D01*
X180786304Y-36215585D01*
X180786323Y-36215568D01*
X180825070Y-36178623D01*
X179429078Y-34782631D01*
X179395593Y-34721308D01*
X179400577Y-34651616D01*
X179432121Y-34604328D01*
X179574969Y-34470918D01*
X179600183Y-34439925D01*
X179657758Y-34400345D01*
X179727594Y-34398175D01*
X179784052Y-34430499D01*
X181177012Y-35823459D01*
X181177013Y-35823458D01*
X181344503Y-35630168D01*
X181344523Y-35630143D01*
X181579372Y-35300343D01*
X181579378Y-35300335D01*
X181768113Y-34973436D01*
X181818680Y-34925220D01*
X181887287Y-34911997D01*
X181952152Y-34937965D01*
X181992680Y-34994879D01*
X181999500Y-35035436D01*
X181999500Y-56464563D01*
X181979815Y-56531602D01*
X181927011Y-56577357D01*
X181857853Y-56587301D01*
X181794297Y-56558276D01*
X181768113Y-56526563D01*
X181579378Y-56199664D01*
X181579372Y-56199656D01*
X181344523Y-55869856D01*
X181344512Y-55869843D01*
X181177012Y-55676540D01*
X179784052Y-57069499D01*
X179722729Y-57102984D01*
X179653037Y-57098000D01*
X179600184Y-57060074D01*
X179574972Y-57029086D01*
X179574973Y-57029086D01*
X179574969Y-57029082D01*
X179494703Y-56954119D01*
X179432122Y-56895671D01*
X179396563Y-56835527D01*
X179399166Y-56765706D01*
X179429078Y-56717367D01*
X180825069Y-55321375D01*
X180825069Y-55321374D01*
X180786326Y-55284432D01*
X180786314Y-55284421D01*
X180468031Y-55034122D01*
X180127406Y-54815217D01*
X179767511Y-54629679D01*
X179767507Y-54629677D01*
X179391616Y-54479193D01*
X179391604Y-54479189D01*
X179003117Y-54365119D01*
X179003100Y-54365115D01*
X178605539Y-54288491D01*
X178605527Y-54288489D01*
X178202446Y-54250000D01*
X177797554Y-54250000D01*
X177394472Y-54288489D01*
X177394460Y-54288491D01*
X176996899Y-54365115D01*
X176996882Y-54365119D01*
X176608395Y-54479189D01*
X176608383Y-54479193D01*
X176232485Y-54629680D01*
X175872594Y-54815217D01*
X175531974Y-55034119D01*
X175213681Y-55284426D01*
X175174928Y-55321375D01*
X176570921Y-56717368D01*
X176604406Y-56778691D01*
X176599422Y-56848383D01*
X176567877Y-56895672D01*
X176425026Y-57029086D01*
X176399815Y-57060075D01*
X176342237Y-57099655D01*
X176272401Y-57101823D01*
X176215947Y-57069500D01*
X174822985Y-55676539D01*
X174655485Y-55869845D01*
X174420627Y-56199656D01*
X174420621Y-56199664D01*
X174218168Y-56550324D01*
X174049966Y-56918634D01*
X174049956Y-56918659D01*
X173917534Y-57301266D01*
X173917531Y-57301277D01*
X173822071Y-57694768D01*
X173764447Y-58095549D01*
X173745181Y-58499999D01*
X173764447Y-58904450D01*
X173822071Y-59305231D01*
X173917531Y-59698722D01*
X173917534Y-59698733D01*
X174049956Y-60081340D01*
X174049966Y-60081365D01*
X174218168Y-60449675D01*
X174420621Y-60800335D01*
X174420627Y-60800343D01*
X174655476Y-61130143D01*
X174655487Y-61130156D01*
X174822986Y-61323458D01*
X176215946Y-59930499D01*
X176277269Y-59897014D01*
X176346961Y-59901998D01*
X176399814Y-59939923D01*
X176412166Y-59955104D01*
X176425031Y-59970918D01*
X176447473Y-59991877D01*
X176567876Y-60104327D01*
X176603435Y-60164471D01*
X176600832Y-60234292D01*
X176570920Y-60282631D01*
X175174929Y-61678623D01*
X175174929Y-61678624D01*
X175213673Y-61715567D01*
X175213685Y-61715578D01*
X175531968Y-61965877D01*
X175872594Y-62184782D01*
X176028745Y-62265284D01*
X176079312Y-62313500D01*
X176095785Y-62381400D01*
X176072932Y-62447427D01*
X176018011Y-62490618D01*
X175971925Y-62499500D01*
X134075523Y-62499500D01*
X134008484Y-62479815D01*
X133962729Y-62427011D01*
X133952785Y-62357853D01*
X133981810Y-62294297D01*
X133987842Y-62287819D01*
X134067315Y-62208345D01*
X134159356Y-62059124D01*
X134159358Y-62059119D01*
X134214505Y-61892697D01*
X134214506Y-61892690D01*
X134224999Y-61789986D01*
X134225000Y-61789973D01*
X134225000Y-61740000D01*
X129275001Y-61740000D01*
X129275001Y-61789986D01*
X129285494Y-61892697D01*
X129340641Y-62059119D01*
X129340643Y-62059124D01*
X129432684Y-62208345D01*
X129512158Y-62287819D01*
X129545643Y-62349142D01*
X129540659Y-62418834D01*
X129498787Y-62474767D01*
X129433323Y-62499184D01*
X129424477Y-62499500D01*
X112528075Y-62499500D01*
X112461036Y-62479815D01*
X112415281Y-62427011D01*
X112405337Y-62357853D01*
X112434362Y-62294297D01*
X112471255Y-62265284D01*
X112627406Y-62184782D01*
X112968031Y-61965877D01*
X113286304Y-61715585D01*
X113286323Y-61715568D01*
X113325070Y-61678623D01*
X111929078Y-60282631D01*
X111895593Y-60221308D01*
X111900577Y-60151616D01*
X111932121Y-60104328D01*
X112074969Y-59970918D01*
X112100183Y-59939925D01*
X112157758Y-59900345D01*
X112227594Y-59898175D01*
X112284052Y-59930499D01*
X113677012Y-61323459D01*
X113677013Y-61323458D01*
X113844503Y-61130168D01*
X113844523Y-61130143D01*
X114079372Y-60800343D01*
X114079378Y-60800335D01*
X114281831Y-60449675D01*
X114450033Y-60081365D01*
X114450043Y-60081340D01*
X114582465Y-59698733D01*
X114582468Y-59698722D01*
X114677928Y-59305231D01*
X114680118Y-59290000D01*
X123600001Y-59290000D01*
X123600001Y-60089986D01*
X123610494Y-60192697D01*
X123665641Y-60359119D01*
X123665643Y-60359124D01*
X123757684Y-60508345D01*
X123881654Y-60632315D01*
X124030875Y-60724356D01*
X124030880Y-60724358D01*
X124197302Y-60779505D01*
X124197309Y-60779506D01*
X124300019Y-60789999D01*
X124749999Y-60789999D01*
X124749999Y-60789998D01*
X124750000Y-59290000D01*
X125250000Y-59290000D01*
X125250000Y-60789999D01*
X125699972Y-60789999D01*
X125699986Y-60789998D01*
X125802697Y-60779505D01*
X125969119Y-60724358D01*
X125969124Y-60724356D01*
X126118345Y-60632315D01*
X126242315Y-60508345D01*
X126334356Y-60359124D01*
X126334358Y-60359119D01*
X126389505Y-60192697D01*
X126389506Y-60192690D01*
X126399999Y-60089986D01*
X126400000Y-60089973D01*
X126400000Y-59290000D01*
X125250000Y-59290000D01*
X124750000Y-59290000D01*
X123600001Y-59290000D01*
X114680118Y-59290000D01*
X114735552Y-58904450D01*
X114741004Y-58790000D01*
X123600000Y-58790000D01*
X124750000Y-58790000D01*
X124750000Y-57290000D01*
X125250000Y-57290000D01*
X125250000Y-58790000D01*
X126399999Y-58790000D01*
X126399999Y-57990028D01*
X126399998Y-57990013D01*
X126389505Y-57887302D01*
X126334358Y-57720880D01*
X126334356Y-57720875D01*
X126242315Y-57571654D01*
X126118345Y-57447684D01*
X125969124Y-57355643D01*
X125969119Y-57355641D01*
X125802697Y-57300494D01*
X125802690Y-57300493D01*
X125699986Y-57290000D01*
X125250000Y-57290000D01*
X124750000Y-57290000D01*
X124300028Y-57290000D01*
X124300012Y-57290001D01*
X124197302Y-57300494D01*
X124030880Y-57355641D01*
X124030875Y-57355643D01*
X123881654Y-57447684D01*
X123757684Y-57571654D01*
X123665643Y-57720875D01*
X123665641Y-57720880D01*
X123610494Y-57887302D01*
X123610493Y-57887309D01*
X123600000Y-57990013D01*
X123600000Y-58790000D01*
X114741004Y-58790000D01*
X114754818Y-58499999D01*
X114735552Y-58095549D01*
X114677928Y-57694768D01*
X114582468Y-57301277D01*
X114582465Y-57301266D01*
X114450043Y-56918659D01*
X114450033Y-56918634D01*
X114281831Y-56550324D01*
X114079378Y-56199664D01*
X114079372Y-56199656D01*
X113844523Y-55869856D01*
X113844512Y-55869843D01*
X113677012Y-55676540D01*
X112284052Y-57069499D01*
X112222729Y-57102984D01*
X112153037Y-57098000D01*
X112100184Y-57060074D01*
X112074972Y-57029086D01*
X112074973Y-57029086D01*
X112074969Y-57029082D01*
X111994703Y-56954119D01*
X111932122Y-56895671D01*
X111896563Y-56835527D01*
X111899166Y-56765706D01*
X111929078Y-56717367D01*
X113325069Y-55321375D01*
X113325069Y-55321374D01*
X113286326Y-55284432D01*
X113286314Y-55284421D01*
X112968031Y-55034122D01*
X112627406Y-54815217D01*
X112267511Y-54629679D01*
X112267507Y-54629677D01*
X111891616Y-54479193D01*
X111891604Y-54479189D01*
X111503117Y-54365119D01*
X111503100Y-54365115D01*
X111105539Y-54288491D01*
X111105527Y-54288489D01*
X110702446Y-54250000D01*
X110297554Y-54250000D01*
X109894472Y-54288489D01*
X109894460Y-54288491D01*
X109496899Y-54365115D01*
X109496882Y-54365119D01*
X109108395Y-54479189D01*
X109108383Y-54479193D01*
X108732485Y-54629680D01*
X108372594Y-54815217D01*
X108031974Y-55034119D01*
X107713681Y-55284426D01*
X107674928Y-55321375D01*
X109070921Y-56717368D01*
X109104406Y-56778691D01*
X109099422Y-56848383D01*
X109067877Y-56895672D01*
X108925026Y-57029086D01*
X108899815Y-57060075D01*
X108842237Y-57099655D01*
X108772401Y-57101823D01*
X108715947Y-57069500D01*
X107322985Y-55676539D01*
X107155485Y-55869845D01*
X106920627Y-56199656D01*
X106920621Y-56199664D01*
X106731887Y-56526563D01*
X106681320Y-56574779D01*
X106612713Y-56588002D01*
X106547848Y-56562034D01*
X106507320Y-56505119D01*
X106500500Y-56464563D01*
X106500500Y-45280000D01*
X107144341Y-45280000D01*
X107164936Y-45515403D01*
X107164938Y-45515413D01*
X107226094Y-45743655D01*
X107226096Y-45743659D01*
X107226097Y-45743663D01*
X107302885Y-45908334D01*
X107325965Y-45957830D01*
X107325967Y-45957834D01*
X107410499Y-46078557D01*
X107461501Y-46151396D01*
X107461506Y-46151402D01*
X107628597Y-46318493D01*
X107628603Y-46318498D01*
X107699695Y-46368277D01*
X107792814Y-46433480D01*
X107814594Y-46448730D01*
X107858219Y-46503307D01*
X107865413Y-46572805D01*
X107833890Y-46635160D01*
X107814595Y-46651880D01*
X107628922Y-46781890D01*
X107628920Y-46781891D01*
X107461891Y-46948920D01*
X107461886Y-46948926D01*
X107326400Y-47142420D01*
X107326399Y-47142422D01*
X107226570Y-47356507D01*
X107226567Y-47356513D01*
X107169364Y-47569999D01*
X107169364Y-47570000D01*
X107886653Y-47570000D01*
X107953692Y-47589685D01*
X107999447Y-47642489D01*
X108009391Y-47711647D01*
X108005631Y-47728933D01*
X108000000Y-47748111D01*
X108000000Y-47891888D01*
X108005631Y-47911067D01*
X108005630Y-47980936D01*
X107967855Y-48039714D01*
X107904299Y-48068738D01*
X107886653Y-48070000D01*
X107169364Y-48070000D01*
X107226567Y-48283486D01*
X107226570Y-48283492D01*
X107326399Y-48497578D01*
X107461894Y-48691082D01*
X107628917Y-48858105D01*
X107822421Y-48993600D01*
X108036507Y-49093429D01*
X108036516Y-49093433D01*
X108250000Y-49150634D01*
X108250000Y-48432301D01*
X108269685Y-48365262D01*
X108322489Y-48319507D01*
X108391647Y-48309563D01*
X108464237Y-48320000D01*
X108464238Y-48320000D01*
X108535762Y-48320000D01*
X108535763Y-48320000D01*
X108608353Y-48309563D01*
X108677512Y-48319507D01*
X108730315Y-48365262D01*
X108750000Y-48432301D01*
X108750000Y-49150633D01*
X108963483Y-49093433D01*
X108963492Y-49093429D01*
X109177578Y-48993600D01*
X109371082Y-48858105D01*
X109538105Y-48691082D01*
X109673600Y-48497578D01*
X109773429Y-48283492D01*
X109773432Y-48283486D01*
X109830636Y-48070000D01*
X109113347Y-48070000D01*
X109046308Y-48050315D01*
X109000553Y-47997511D01*
X108990609Y-47928353D01*
X108994369Y-47911067D01*
X109000000Y-47891888D01*
X109000000Y-47748111D01*
X108994369Y-47728933D01*
X108994370Y-47659064D01*
X109032145Y-47600286D01*
X109095701Y-47571262D01*
X109113347Y-47570000D01*
X109830636Y-47570000D01*
X109830635Y-47569999D01*
X109773432Y-47356513D01*
X109773429Y-47356507D01*
X109673600Y-47142422D01*
X109673599Y-47142420D01*
X109538113Y-46948926D01*
X109538108Y-46948920D01*
X109371078Y-46781890D01*
X109185405Y-46651879D01*
X109141780Y-46597302D01*
X109134588Y-46527804D01*
X109166110Y-46465449D01*
X109185406Y-46448730D01*
X109371401Y-46318495D01*
X109538495Y-46151401D01*
X109673651Y-45958377D01*
X109728229Y-45914752D01*
X109775227Y-45905500D01*
X112969548Y-45905500D01*
X113036587Y-45925185D01*
X113057228Y-45941818D01*
X117803665Y-50688256D01*
X122539197Y-55423788D01*
X122549022Y-55436051D01*
X122549243Y-55435869D01*
X122554214Y-55441878D01*
X122572028Y-55458606D01*
X122604635Y-55489226D01*
X122625529Y-55510120D01*
X122631011Y-55514373D01*
X122635443Y-55518157D01*
X122669418Y-55550062D01*
X122686976Y-55559714D01*
X122703235Y-55570395D01*
X122719064Y-55582673D01*
X122761838Y-55601182D01*
X122767056Y-55603738D01*
X122807908Y-55626197D01*
X122827316Y-55631180D01*
X122845717Y-55637480D01*
X122864104Y-55645437D01*
X122907488Y-55652308D01*
X122910119Y-55652725D01*
X122915839Y-55653909D01*
X122960981Y-55665500D01*
X122981016Y-55665500D01*
X123000414Y-55667026D01*
X123020194Y-55670159D01*
X123020195Y-55670160D01*
X123020195Y-55670159D01*
X123020196Y-55670160D01*
X123066583Y-55665775D01*
X123072422Y-55665500D01*
X123475501Y-55665500D01*
X123542540Y-55685185D01*
X123588295Y-55737989D01*
X123599501Y-55789500D01*
X123599501Y-56090018D01*
X123610000Y-56192796D01*
X123610001Y-56192799D01*
X123662093Y-56350000D01*
X123665186Y-56359334D01*
X123757288Y-56508656D01*
X123881344Y-56632712D01*
X124030666Y-56724814D01*
X124197203Y-56779999D01*
X124299991Y-56790500D01*
X125700008Y-56790499D01*
X125802797Y-56779999D01*
X125969334Y-56724814D01*
X126118656Y-56632712D01*
X126242712Y-56508656D01*
X126334814Y-56359334D01*
X126389999Y-56192797D01*
X126400500Y-56090009D01*
X126400500Y-55789500D01*
X126420185Y-55722461D01*
X126472989Y-55676706D01*
X126524500Y-55665500D01*
X129221674Y-55665500D01*
X129288713Y-55685185D01*
X129328406Y-55726379D01*
X129381917Y-55816862D01*
X129381923Y-55816870D01*
X129498132Y-55933079D01*
X129498134Y-55933080D01*
X129498135Y-55933081D01*
X129498445Y-55933264D01*
X129498638Y-55933470D01*
X129504298Y-55937861D01*
X129503589Y-55938773D01*
X129546130Y-55984330D01*
X129558638Y-56053071D01*
X129531996Y-56117662D01*
X129504083Y-56141853D01*
X129504302Y-56142136D01*
X129499112Y-56146161D01*
X129498467Y-56146721D01*
X129498148Y-56146909D01*
X129498135Y-56146919D01*
X129469036Y-56176018D01*
X129407712Y-56209502D01*
X129338021Y-56204516D01*
X129330921Y-56201615D01*
X129279804Y-56178856D01*
X129279802Y-56178855D01*
X129125984Y-56146161D01*
X129094646Y-56139500D01*
X128905354Y-56139500D01*
X128874016Y-56146161D01*
X128720197Y-56178855D01*
X128720192Y-56178857D01*
X128547270Y-56255848D01*
X128547265Y-56255851D01*
X128394129Y-56367111D01*
X128267466Y-56507785D01*
X128172821Y-56671715D01*
X128172818Y-56671722D01*
X128119595Y-56835527D01*
X128114326Y-56851744D01*
X128094540Y-57040000D01*
X128114326Y-57228256D01*
X128114327Y-57228259D01*
X128172818Y-57408277D01*
X128172820Y-57408282D01*
X128172821Y-57408284D01*
X128175832Y-57413500D01*
X128192306Y-57481398D01*
X128169454Y-57547426D01*
X128114534Y-57590617D01*
X128068446Y-57599500D01*
X127905354Y-57599500D01*
X127872897Y-57606398D01*
X127720197Y-57638855D01*
X127720192Y-57638857D01*
X127547270Y-57715848D01*
X127547265Y-57715851D01*
X127394129Y-57827111D01*
X127267466Y-57967785D01*
X127172821Y-58131715D01*
X127172818Y-58131722D01*
X127120824Y-58291744D01*
X127114326Y-58311744D01*
X127094540Y-58500000D01*
X127114326Y-58688256D01*
X127114327Y-58688259D01*
X127172818Y-58868277D01*
X127172821Y-58868284D01*
X127267467Y-59032216D01*
X127394128Y-59172887D01*
X127394129Y-59172888D01*
X127547265Y-59284148D01*
X127547270Y-59284151D01*
X127720192Y-59361142D01*
X127720197Y-59361144D01*
X127905354Y-59400500D01*
X127964548Y-59400500D01*
X128031587Y-59420185D01*
X128052229Y-59436819D01*
X128589194Y-59973784D01*
X128599019Y-59986048D01*
X128599240Y-59985866D01*
X128604210Y-59991873D01*
X128604213Y-59991876D01*
X128604214Y-59991877D01*
X128654651Y-60039241D01*
X128675529Y-60060119D01*
X128681004Y-60064366D01*
X128685446Y-60068160D01*
X128719415Y-60100060D01*
X128719417Y-60100061D01*
X128719418Y-60100062D01*
X128736976Y-60109714D01*
X128753235Y-60120395D01*
X128769064Y-60132673D01*
X128811823Y-60151176D01*
X128817073Y-60153748D01*
X128849684Y-60171676D01*
X128857908Y-60176197D01*
X128857912Y-60176198D01*
X128877311Y-60181179D01*
X128895722Y-60187483D01*
X128914097Y-60195435D01*
X128914100Y-60195435D01*
X128914105Y-60195438D01*
X128960149Y-60202729D01*
X128965832Y-60203906D01*
X129010981Y-60215500D01*
X129031016Y-60215500D01*
X129050413Y-60217026D01*
X129070196Y-60220160D01*
X129116583Y-60215775D01*
X129122422Y-60215500D01*
X129305622Y-60215500D01*
X129372661Y-60235185D01*
X129411159Y-60274401D01*
X129432288Y-60308656D01*
X129556344Y-60432712D01*
X129559628Y-60434737D01*
X129559653Y-60434753D01*
X129561445Y-60436746D01*
X129562011Y-60437193D01*
X129561934Y-60437289D01*
X129606379Y-60486699D01*
X129617603Y-60555661D01*
X129589761Y-60619744D01*
X129559665Y-60645826D01*
X129556660Y-60647679D01*
X129556655Y-60647683D01*
X129432684Y-60771654D01*
X129340643Y-60920875D01*
X129340641Y-60920880D01*
X129285494Y-61087302D01*
X129285493Y-61087309D01*
X129275000Y-61190013D01*
X129275000Y-61240000D01*
X134224999Y-61240000D01*
X134224999Y-61190028D01*
X134224998Y-61190013D01*
X134214505Y-61087302D01*
X134159358Y-60920880D01*
X134159356Y-60920875D01*
X134067315Y-60771654D01*
X133943344Y-60647683D01*
X133943341Y-60647681D01*
X133940339Y-60645829D01*
X133938713Y-60644021D01*
X133937677Y-60643202D01*
X133937817Y-60643024D01*
X133893617Y-60593880D01*
X133882397Y-60524917D01*
X133910243Y-60460836D01*
X133940344Y-60434754D01*
X133943656Y-60432712D01*
X134067712Y-60308656D01*
X134159814Y-60159334D01*
X134214999Y-59992797D01*
X134225500Y-59890009D01*
X134225499Y-59289992D01*
X134224902Y-59284151D01*
X134214999Y-59187203D01*
X134214998Y-59187200D01*
X134163641Y-59032216D01*
X134159814Y-59020666D01*
X134067712Y-58871344D01*
X133943656Y-58747288D01*
X133794334Y-58655186D01*
X133627797Y-58600001D01*
X133627795Y-58600000D01*
X133525016Y-58589500D01*
X133525009Y-58589500D01*
X132935453Y-58589500D01*
X132868414Y-58569815D01*
X132847772Y-58553181D01*
X132611819Y-58317228D01*
X132578334Y-58255905D01*
X132575500Y-58229547D01*
X132575500Y-58185808D01*
X132595185Y-58118769D01*
X132611817Y-58098128D01*
X132618081Y-58091865D01*
X132701744Y-57950398D01*
X132716241Y-57900500D01*
X132718593Y-57892405D01*
X132756199Y-57833519D01*
X132819672Y-57804313D01*
X132837669Y-57803000D01*
X133563538Y-57803000D01*
X133630577Y-57822685D01*
X133670925Y-57865000D01*
X133672820Y-57868283D01*
X133672821Y-57868284D01*
X133767467Y-58032216D01*
X133857063Y-58131722D01*
X133894129Y-58172888D01*
X134047265Y-58284148D01*
X134047270Y-58284151D01*
X134220192Y-58361142D01*
X134220197Y-58361144D01*
X134405354Y-58400500D01*
X134405355Y-58400500D01*
X134594644Y-58400500D01*
X134594646Y-58400500D01*
X134779803Y-58361144D01*
X134952730Y-58284151D01*
X135105871Y-58172888D01*
X135232533Y-58032216D01*
X135327179Y-57868284D01*
X135385674Y-57688256D01*
X135405460Y-57500000D01*
X135385674Y-57311744D01*
X135327179Y-57131716D01*
X135232533Y-56967784D01*
X135105871Y-56827112D01*
X135084719Y-56811744D01*
X134952734Y-56715851D01*
X134952729Y-56715848D01*
X134779807Y-56638857D01*
X134779802Y-56638855D01*
X134634000Y-56607865D01*
X134594646Y-56599500D01*
X134594645Y-56599500D01*
X134453949Y-56599500D01*
X134417335Y-56592515D01*
X134417149Y-56593243D01*
X134390193Y-56586322D01*
X134371781Y-56580018D01*
X134353398Y-56572062D01*
X134353392Y-56572060D01*
X134307374Y-56564772D01*
X134301652Y-56563587D01*
X134256521Y-56552000D01*
X134256519Y-56552000D01*
X134236484Y-56552000D01*
X134217086Y-56550473D01*
X134209662Y-56549297D01*
X134197305Y-56547340D01*
X134197304Y-56547340D01*
X134150916Y-56551725D01*
X134145078Y-56552000D01*
X132837669Y-56552000D01*
X132770630Y-56532315D01*
X132724875Y-56479511D01*
X132718593Y-56462595D01*
X132701745Y-56404607D01*
X132701743Y-56404600D01*
X132618082Y-56263137D01*
X132618081Y-56263135D01*
X132618079Y-56263133D01*
X132618076Y-56263129D01*
X132501870Y-56146923D01*
X132501866Y-56146920D01*
X132501865Y-56146919D01*
X132501861Y-56146916D01*
X132501856Y-56146913D01*
X132501539Y-56146725D01*
X132501340Y-56146512D01*
X132495702Y-56142139D01*
X132496408Y-56141228D01*
X132453860Y-56095652D01*
X132441363Y-56026909D01*
X132468015Y-55962322D01*
X132495922Y-55938145D01*
X132495702Y-55937861D01*
X132500938Y-55933799D01*
X132501558Y-55933262D01*
X132501865Y-55933081D01*
X132618081Y-55816865D01*
X132701744Y-55675398D01*
X132713830Y-55633797D01*
X132718593Y-55617405D01*
X132756199Y-55558519D01*
X132819672Y-55529313D01*
X132837669Y-55528000D01*
X134883174Y-55528000D01*
X134950213Y-55547685D01*
X134995968Y-55600489D01*
X135000880Y-55612995D01*
X135052686Y-55769333D01*
X135052687Y-55769336D01*
X135082001Y-55816862D01*
X135144788Y-55918656D01*
X135268844Y-56042712D01*
X135418166Y-56134814D01*
X135584703Y-56189999D01*
X135687491Y-56200500D01*
X136312508Y-56200499D01*
X136312516Y-56200498D01*
X136312519Y-56200498D01*
X136368802Y-56194748D01*
X136415297Y-56189999D01*
X136581834Y-56134814D01*
X136731156Y-56042712D01*
X136824818Y-55949049D01*
X136886142Y-55915564D01*
X136955834Y-55920548D01*
X137000181Y-55949049D01*
X137093844Y-56042712D01*
X137243166Y-56134814D01*
X137409703Y-56189999D01*
X137512491Y-56200500D01*
X138089547Y-56200499D01*
X138156586Y-56220183D01*
X138177228Y-56236818D01*
X139324197Y-57383788D01*
X139334022Y-57396051D01*
X139334243Y-57395869D01*
X139339214Y-57401878D01*
X139365217Y-57426295D01*
X139389635Y-57449226D01*
X139410529Y-57470120D01*
X139416011Y-57474373D01*
X139420443Y-57478157D01*
X139454418Y-57510062D01*
X139471976Y-57519714D01*
X139488235Y-57530395D01*
X139504064Y-57542673D01*
X139546838Y-57561182D01*
X139552056Y-57563738D01*
X139592908Y-57586197D01*
X139612316Y-57591180D01*
X139630717Y-57597480D01*
X139649104Y-57605437D01*
X139692488Y-57612308D01*
X139695119Y-57612725D01*
X139700839Y-57613909D01*
X139745981Y-57625500D01*
X139766016Y-57625500D01*
X139785414Y-57627026D01*
X139805194Y-57630159D01*
X139805195Y-57630160D01*
X139805195Y-57630159D01*
X139805196Y-57630160D01*
X139851583Y-57625775D01*
X139857422Y-57625500D01*
X149296252Y-57625500D01*
X149363291Y-57645185D01*
X149388400Y-57666526D01*
X149394126Y-57672885D01*
X149394130Y-57672889D01*
X149547265Y-57784148D01*
X149547270Y-57784151D01*
X149720192Y-57861142D01*
X149720197Y-57861144D01*
X149905354Y-57900500D01*
X149905355Y-57900500D01*
X150094644Y-57900500D01*
X150094646Y-57900500D01*
X150279803Y-57861144D01*
X150452730Y-57784151D01*
X150605871Y-57672888D01*
X150732533Y-57532216D01*
X150827179Y-57368284D01*
X150885674Y-57188256D01*
X150905460Y-57000000D01*
X150885674Y-56811744D01*
X150827179Y-56631716D01*
X150821858Y-56622500D01*
X163300001Y-56622500D01*
X163300001Y-56684986D01*
X163310494Y-56787697D01*
X163365641Y-56954119D01*
X163365643Y-56954124D01*
X163457684Y-57103345D01*
X163581654Y-57227315D01*
X163730875Y-57319356D01*
X163730880Y-57319358D01*
X163897302Y-57374505D01*
X163897309Y-57374506D01*
X164000019Y-57384999D01*
X164249999Y-57384999D01*
X164250000Y-57384998D01*
X164250000Y-56622500D01*
X164750000Y-56622500D01*
X164750000Y-57384999D01*
X164999972Y-57384999D01*
X164999986Y-57384998D01*
X165102697Y-57374505D01*
X165269119Y-57319358D01*
X165269124Y-57319356D01*
X165418345Y-57227315D01*
X165542315Y-57103345D01*
X165634356Y-56954124D01*
X165634358Y-56954119D01*
X165689505Y-56787697D01*
X165689506Y-56787690D01*
X165699999Y-56684986D01*
X165700000Y-56684973D01*
X165700000Y-56622500D01*
X164750000Y-56622500D01*
X164250000Y-56622500D01*
X163300001Y-56622500D01*
X150821858Y-56622500D01*
X150732533Y-56467784D01*
X150605871Y-56327112D01*
X150605870Y-56327111D01*
X150452734Y-56215851D01*
X150452729Y-56215848D01*
X150279807Y-56138857D01*
X150279802Y-56138855D01*
X150134001Y-56107865D01*
X150094646Y-56099500D01*
X149905354Y-56099500D01*
X149872897Y-56106398D01*
X149720197Y-56138855D01*
X149720192Y-56138857D01*
X149547270Y-56215848D01*
X149547265Y-56215851D01*
X149394130Y-56327110D01*
X149394126Y-56327114D01*
X149388400Y-56333474D01*
X149328913Y-56370121D01*
X149296252Y-56374500D01*
X140135453Y-56374500D01*
X140068414Y-56354815D01*
X140047772Y-56338181D01*
X138874318Y-55164727D01*
X138847165Y-55115000D01*
X145500000Y-55115000D01*
X145500000Y-55237844D01*
X145506401Y-55297372D01*
X145506403Y-55297379D01*
X145556645Y-55432086D01*
X145556649Y-55432093D01*
X145642809Y-55547187D01*
X145642812Y-55547190D01*
X145757906Y-55633350D01*
X145757913Y-55633354D01*
X145892620Y-55683596D01*
X145892627Y-55683598D01*
X145952155Y-55689999D01*
X145952172Y-55690000D01*
X146600000Y-55690000D01*
X146600000Y-55115000D01*
X145500000Y-55115000D01*
X138847165Y-55115000D01*
X138840833Y-55103404D01*
X138837999Y-55077046D01*
X138837999Y-54499998D01*
X138837998Y-54499981D01*
X138827499Y-54397203D01*
X138827498Y-54397200D01*
X138815550Y-54361144D01*
X138772314Y-54230666D01*
X138680212Y-54081344D01*
X138556156Y-53957288D01*
X138442531Y-53887204D01*
X138406836Y-53865187D01*
X138406831Y-53865185D01*
X138405362Y-53864698D01*
X138240297Y-53810001D01*
X138240295Y-53810000D01*
X138137510Y-53799500D01*
X137512498Y-53799500D01*
X137512480Y-53799501D01*
X137409703Y-53810000D01*
X137409700Y-53810001D01*
X137243168Y-53865185D01*
X137243163Y-53865187D01*
X137093842Y-53957289D01*
X137000181Y-54050951D01*
X136938858Y-54084436D01*
X136869166Y-54079452D01*
X136824819Y-54050951D01*
X136731157Y-53957289D01*
X136731156Y-53957288D01*
X136617531Y-53887204D01*
X136581836Y-53865187D01*
X136581831Y-53865185D01*
X136580362Y-53864698D01*
X136415297Y-53810001D01*
X136415295Y-53810000D01*
X136312510Y-53799500D01*
X135687498Y-53799500D01*
X135687480Y-53799501D01*
X135584703Y-53810000D01*
X135584700Y-53810001D01*
X135418168Y-53865185D01*
X135418163Y-53865187D01*
X135268842Y-53957289D01*
X135144789Y-54081342D01*
X135119403Y-54122500D01*
X135068819Y-54204511D01*
X135060439Y-54218097D01*
X135008491Y-54264821D01*
X134954900Y-54277000D01*
X132837669Y-54277000D01*
X132770630Y-54257315D01*
X132724875Y-54204511D01*
X132718593Y-54187595D01*
X132709695Y-54156971D01*
X132701744Y-54129602D01*
X132681587Y-54095519D01*
X132619179Y-53989992D01*
X132618081Y-53988135D01*
X132618079Y-53988133D01*
X132618076Y-53988129D01*
X132501870Y-53871923D01*
X132501862Y-53871917D01*
X132379412Y-53799501D01*
X132360398Y-53788256D01*
X132360397Y-53788255D01*
X132360396Y-53788255D01*
X132360393Y-53788254D01*
X132202573Y-53742402D01*
X132202567Y-53742401D01*
X132165696Y-53739500D01*
X132165694Y-53739500D01*
X132135453Y-53739500D01*
X132068414Y-53719815D01*
X132047772Y-53703181D01*
X131875803Y-53531212D01*
X131865980Y-53518950D01*
X131865759Y-53519134D01*
X131860786Y-53513123D01*
X131855101Y-53507784D01*
X131810364Y-53465773D01*
X131799919Y-53455328D01*
X131789475Y-53444883D01*
X131783986Y-53440625D01*
X131779561Y-53436847D01*
X131745582Y-53404938D01*
X131745580Y-53404936D01*
X131745577Y-53404935D01*
X131728029Y-53395288D01*
X131711763Y-53384604D01*
X131698745Y-53374506D01*
X131695936Y-53372327D01*
X131695935Y-53372326D01*
X131695933Y-53372325D01*
X131653169Y-53353819D01*
X131647925Y-53351250D01*
X131636148Y-53344776D01*
X131586882Y-53295233D01*
X131572221Y-53226918D01*
X131590342Y-53171013D01*
X131644462Y-53083272D01*
X131696410Y-53036548D01*
X131765373Y-53025327D01*
X131829455Y-53053170D01*
X131855539Y-53083273D01*
X131932684Y-53208345D01*
X132056654Y-53332315D01*
X132205875Y-53424356D01*
X132205880Y-53424358D01*
X132372302Y-53479505D01*
X132372309Y-53479506D01*
X132475019Y-53489999D01*
X132749999Y-53489999D01*
X132750000Y-53489998D01*
X132750000Y-52740000D01*
X133250000Y-52740000D01*
X133250000Y-53489999D01*
X133524972Y-53489999D01*
X133524986Y-53489998D01*
X133627697Y-53479505D01*
X133794119Y-53424358D01*
X133794124Y-53424356D01*
X133943345Y-53332315D01*
X134067315Y-53208345D01*
X134159356Y-53059124D01*
X134159358Y-53059119D01*
X134214505Y-52892697D01*
X134214506Y-52892690D01*
X134224999Y-52789986D01*
X134225000Y-52789973D01*
X134225000Y-52740000D01*
X133250000Y-52740000D01*
X132750000Y-52740000D01*
X129275001Y-52740000D01*
X129275001Y-52789986D01*
X129285494Y-52892697D01*
X129319921Y-52996590D01*
X129322323Y-53066418D01*
X129286591Y-53126460D01*
X129224071Y-53157653D01*
X129176436Y-53156885D01*
X129094646Y-53139500D01*
X128905354Y-53139500D01*
X128872897Y-53146398D01*
X128720197Y-53178855D01*
X128720192Y-53178857D01*
X128547270Y-53255848D01*
X128547265Y-53255851D01*
X128394129Y-53367111D01*
X128267466Y-53507785D01*
X128172821Y-53671715D01*
X128172818Y-53671722D01*
X128114327Y-53851740D01*
X128114326Y-53851744D01*
X128099992Y-53988129D01*
X128095856Y-54027483D01*
X128094540Y-54040000D01*
X128114326Y-54228256D01*
X128114327Y-54228259D01*
X128122100Y-54252182D01*
X128124095Y-54322023D01*
X128088015Y-54381856D01*
X128025314Y-54412684D01*
X128004169Y-54414500D01*
X126524499Y-54414500D01*
X126457460Y-54394815D01*
X126411705Y-54342011D01*
X126400499Y-54290500D01*
X126400499Y-53989998D01*
X126400498Y-53989981D01*
X126389999Y-53887203D01*
X126389998Y-53887200D01*
X126383730Y-53868284D01*
X126334814Y-53720666D01*
X126242712Y-53571344D01*
X126118656Y-53447288D01*
X126017667Y-53384998D01*
X125969336Y-53355187D01*
X125969331Y-53355185D01*
X125957456Y-53351250D01*
X125802797Y-53300001D01*
X125802795Y-53300000D01*
X125700010Y-53289500D01*
X124299998Y-53289500D01*
X124299981Y-53289501D01*
X124197203Y-53300000D01*
X124197200Y-53300001D01*
X124030668Y-53355185D01*
X124030663Y-53355187D01*
X123881342Y-53447289D01*
X123757289Y-53571342D01*
X123665187Y-53720663D01*
X123665185Y-53720668D01*
X123642789Y-53788255D01*
X123610001Y-53887203D01*
X123610001Y-53887204D01*
X123610000Y-53887204D01*
X123599500Y-53989983D01*
X123599500Y-54290500D01*
X123579815Y-54357539D01*
X123527011Y-54403294D01*
X123475500Y-54414500D01*
X123350453Y-54414500D01*
X123283414Y-54394815D01*
X123262772Y-54378181D01*
X120174591Y-51290000D01*
X123600001Y-51290000D01*
X123600001Y-52089986D01*
X123610494Y-52192697D01*
X123665641Y-52359119D01*
X123665643Y-52359124D01*
X123757684Y-52508345D01*
X123881654Y-52632315D01*
X124030875Y-52724356D01*
X124030880Y-52724358D01*
X124197302Y-52779505D01*
X124197309Y-52779506D01*
X124300019Y-52789999D01*
X124749999Y-52789999D01*
X124749999Y-52789998D01*
X124750000Y-51290000D01*
X125250000Y-51290000D01*
X125250000Y-52789999D01*
X125699972Y-52789999D01*
X125699986Y-52789998D01*
X125802697Y-52779505D01*
X125969119Y-52724358D01*
X125969124Y-52724356D01*
X126118345Y-52632315D01*
X126128160Y-52622500D01*
X138800001Y-52622500D01*
X138800001Y-52684986D01*
X138810494Y-52787697D01*
X138865641Y-52954119D01*
X138865643Y-52954124D01*
X138957684Y-53103345D01*
X139081654Y-53227315D01*
X139230875Y-53319356D01*
X139230880Y-53319358D01*
X139397302Y-53374505D01*
X139397309Y-53374506D01*
X139500019Y-53384999D01*
X139749999Y-53384999D01*
X139750000Y-53384998D01*
X139750000Y-52622500D01*
X140250000Y-52622500D01*
X140250000Y-53384999D01*
X140499972Y-53384999D01*
X140499986Y-53384998D01*
X140602697Y-53374505D01*
X140769119Y-53319358D01*
X140769124Y-53319356D01*
X140918345Y-53227315D01*
X141042315Y-53103345D01*
X141134356Y-52954124D01*
X141134358Y-52954119D01*
X141189505Y-52787697D01*
X141189506Y-52787690D01*
X141199999Y-52684986D01*
X141200000Y-52684973D01*
X141200000Y-52622500D01*
X140250000Y-52622500D01*
X139750000Y-52622500D01*
X138800001Y-52622500D01*
X126128160Y-52622500D01*
X126242315Y-52508345D01*
X126334356Y-52359124D01*
X126334358Y-52359119D01*
X126389505Y-52192697D01*
X126389506Y-52192690D01*
X126399999Y-52089986D01*
X126400000Y-52089973D01*
X126400000Y-51290000D01*
X125250000Y-51290000D01*
X124750000Y-51290000D01*
X123600001Y-51290000D01*
X120174591Y-51290000D01*
X119674591Y-50790000D01*
X123600000Y-50790000D01*
X124750000Y-50790000D01*
X124750000Y-49290000D01*
X125250000Y-49290000D01*
X125250000Y-50790000D01*
X126399999Y-50790000D01*
X126399999Y-49990028D01*
X126399998Y-49990013D01*
X126389505Y-49887302D01*
X126334358Y-49720880D01*
X126334356Y-49720875D01*
X126242315Y-49571654D01*
X126118345Y-49447684D01*
X125969124Y-49355643D01*
X125969119Y-49355641D01*
X125802697Y-49300494D01*
X125802690Y-49300493D01*
X125699986Y-49290000D01*
X125250000Y-49290000D01*
X124750000Y-49290000D01*
X124300028Y-49290000D01*
X124300012Y-49290001D01*
X124197302Y-49300494D01*
X124030880Y-49355641D01*
X124030875Y-49355643D01*
X123881654Y-49447684D01*
X123757684Y-49571654D01*
X123665643Y-49720875D01*
X123665641Y-49720880D01*
X123610494Y-49887302D01*
X123610493Y-49887309D01*
X123600000Y-49990013D01*
X123600000Y-50790000D01*
X119674591Y-50790000D01*
X113780803Y-44896212D01*
X113770980Y-44883950D01*
X113770759Y-44884134D01*
X113765786Y-44878123D01*
X113765018Y-44877402D01*
X113715364Y-44830773D01*
X113700926Y-44816335D01*
X113694475Y-44809883D01*
X113688986Y-44805625D01*
X113684561Y-44801847D01*
X113650582Y-44769938D01*
X113650580Y-44769936D01*
X113650577Y-44769935D01*
X113633029Y-44760288D01*
X113616763Y-44749604D01*
X113600933Y-44737325D01*
X113558168Y-44718818D01*
X113552922Y-44716248D01*
X113512093Y-44693803D01*
X113512092Y-44693802D01*
X113492693Y-44688822D01*
X113474281Y-44682518D01*
X113455898Y-44674562D01*
X113455892Y-44674560D01*
X113409874Y-44667272D01*
X113404152Y-44666087D01*
X113359021Y-44654500D01*
X113359019Y-44654500D01*
X113338984Y-44654500D01*
X113319586Y-44652973D01*
X113312162Y-44651797D01*
X113299805Y-44649840D01*
X113299804Y-44649840D01*
X113253416Y-44654225D01*
X113247578Y-44654500D01*
X109775227Y-44654500D01*
X109708188Y-44634815D01*
X109673652Y-44601623D01*
X109538494Y-44408597D01*
X109371402Y-44241506D01*
X109371401Y-44241505D01*
X109185405Y-44111269D01*
X109141781Y-44056692D01*
X109134588Y-43987193D01*
X109166110Y-43924839D01*
X109185405Y-43908119D01*
X109371082Y-43778105D01*
X109538105Y-43611082D01*
X109673600Y-43417578D01*
X109773429Y-43203492D01*
X109773432Y-43203486D01*
X109830636Y-42990000D01*
X109113347Y-42990000D01*
X109046308Y-42970315D01*
X109000553Y-42917511D01*
X108990609Y-42848353D01*
X108994369Y-42831067D01*
X109000000Y-42811888D01*
X109000000Y-42668111D01*
X108994369Y-42648933D01*
X108994370Y-42579064D01*
X109032145Y-42520286D01*
X109095701Y-42491262D01*
X109113347Y-42490000D01*
X109830636Y-42490000D01*
X109830635Y-42489999D01*
X109773432Y-42276513D01*
X109773429Y-42276507D01*
X109673600Y-42062422D01*
X109673599Y-42062420D01*
X109538113Y-41868926D01*
X109538108Y-41868920D01*
X109416053Y-41746865D01*
X109382568Y-41685542D01*
X109387552Y-41615850D01*
X109429424Y-41559917D01*
X109460400Y-41543002D01*
X109575703Y-41499998D01*
X109592326Y-41493798D01*
X109592326Y-41493797D01*
X109592331Y-41493796D01*
X109707546Y-41407546D01*
X109793796Y-41292331D01*
X109844091Y-41157483D01*
X109850500Y-41097873D01*
X109850500Y-40949500D01*
X109870185Y-40882461D01*
X109922989Y-40836706D01*
X109974500Y-40825500D01*
X111889548Y-40825500D01*
X111956587Y-40845185D01*
X111977229Y-40861819D01*
X118539194Y-47423784D01*
X118549019Y-47436048D01*
X118549240Y-47435866D01*
X118554210Y-47441873D01*
X118554213Y-47441876D01*
X118554214Y-47441877D01*
X118604651Y-47489241D01*
X118625530Y-47510120D01*
X118631004Y-47514366D01*
X118635442Y-47518156D01*
X118669418Y-47550062D01*
X118669422Y-47550064D01*
X118686973Y-47559713D01*
X118703231Y-47570392D01*
X118719064Y-47582674D01*
X118741015Y-47592172D01*
X118761837Y-47601183D01*
X118767081Y-47603752D01*
X118807908Y-47626197D01*
X118827312Y-47631179D01*
X118845710Y-47637478D01*
X118864105Y-47645438D01*
X118910129Y-47652726D01*
X118915832Y-47653907D01*
X118960981Y-47665500D01*
X118981016Y-47665500D01*
X119000413Y-47667026D01*
X119020196Y-47670160D01*
X119066583Y-47665775D01*
X119072422Y-47665500D01*
X123475501Y-47665500D01*
X123542540Y-47685185D01*
X123588295Y-47737989D01*
X123599501Y-47789500D01*
X123599501Y-48090018D01*
X123610000Y-48192796D01*
X123610001Y-48192799D01*
X123652152Y-48320000D01*
X123665186Y-48359334D01*
X123757288Y-48508656D01*
X123881344Y-48632712D01*
X124030666Y-48724814D01*
X124197203Y-48779999D01*
X124299991Y-48790500D01*
X125700008Y-48790499D01*
X125802797Y-48779999D01*
X125969334Y-48724814D01*
X126118656Y-48632712D01*
X126242712Y-48508656D01*
X126334814Y-48359334D01*
X126389999Y-48192797D01*
X126400500Y-48090009D01*
X126400499Y-46575451D01*
X126420184Y-46508413D01*
X126436818Y-46487771D01*
X126860271Y-46064319D01*
X126921594Y-46030834D01*
X126947952Y-46028000D01*
X129162331Y-46028000D01*
X129229370Y-46047685D01*
X129275125Y-46100489D01*
X129281407Y-46117405D01*
X129298254Y-46175392D01*
X129298256Y-46175399D01*
X129381917Y-46316862D01*
X129381923Y-46316870D01*
X129498129Y-46433076D01*
X129498140Y-46433085D01*
X129498455Y-46433271D01*
X129498650Y-46433480D01*
X129504298Y-46437861D01*
X129503591Y-46438772D01*
X129546136Y-46484343D01*
X129558637Y-46553085D01*
X129531988Y-46617673D01*
X129504078Y-46641856D01*
X129504298Y-46642139D01*
X129499092Y-46646176D01*
X129498455Y-46646729D01*
X129498140Y-46646914D01*
X129498129Y-46646923D01*
X129381923Y-46763129D01*
X129381916Y-46763138D01*
X129321299Y-46865637D01*
X129270230Y-46913321D01*
X129201488Y-46925824D01*
X129136899Y-46899178D01*
X129122422Y-46885493D01*
X129105871Y-46867112D01*
X128991685Y-46784151D01*
X128952734Y-46755851D01*
X128952729Y-46755848D01*
X128779807Y-46678857D01*
X128779802Y-46678855D01*
X128621392Y-46645185D01*
X128594646Y-46639500D01*
X128405354Y-46639500D01*
X128378608Y-46645185D01*
X128220197Y-46678855D01*
X128220192Y-46678857D01*
X128047270Y-46755848D01*
X128047265Y-46755851D01*
X127894129Y-46867111D01*
X127767466Y-47007785D01*
X127672821Y-47171715D01*
X127672818Y-47171722D01*
X127614327Y-47351740D01*
X127614326Y-47351744D01*
X127594540Y-47540000D01*
X127614326Y-47728256D01*
X127614327Y-47728259D01*
X127672818Y-47908277D01*
X127672821Y-47908284D01*
X127767467Y-48072216D01*
X127827471Y-48138857D01*
X127894129Y-48212888D01*
X128047265Y-48324148D01*
X128047270Y-48324151D01*
X128220192Y-48401142D01*
X128220197Y-48401144D01*
X128405354Y-48440500D01*
X128405355Y-48440500D01*
X128594644Y-48440500D01*
X128594646Y-48440500D01*
X128779803Y-48401144D01*
X128952730Y-48324151D01*
X128952733Y-48324148D01*
X128958363Y-48320899D01*
X128959574Y-48322997D01*
X129015048Y-48303203D01*
X129022132Y-48303000D01*
X129162331Y-48303000D01*
X129229370Y-48322685D01*
X129275125Y-48375489D01*
X129281407Y-48392405D01*
X129298254Y-48450392D01*
X129298256Y-48450399D01*
X129381917Y-48591862D01*
X129381923Y-48591870D01*
X129498129Y-48708076D01*
X129498133Y-48708079D01*
X129498135Y-48708081D01*
X129639602Y-48791744D01*
X129681224Y-48803836D01*
X129797426Y-48837597D01*
X129797429Y-48837597D01*
X129797431Y-48837598D01*
X129809722Y-48838565D01*
X129834304Y-48840500D01*
X130250500Y-48840500D01*
X130317539Y-48860185D01*
X130363294Y-48912989D01*
X130374500Y-48964500D01*
X130374500Y-49465500D01*
X130354815Y-49532539D01*
X130302011Y-49578294D01*
X130250500Y-49589500D01*
X129974999Y-49589500D01*
X129974980Y-49589501D01*
X129872203Y-49600000D01*
X129872200Y-49600001D01*
X129705668Y-49655185D01*
X129705663Y-49655187D01*
X129556342Y-49747289D01*
X129465451Y-49838181D01*
X129404128Y-49871666D01*
X129377770Y-49874500D01*
X128703748Y-49874500D01*
X128636709Y-49854815D01*
X128611600Y-49833474D01*
X128605873Y-49827114D01*
X128605869Y-49827110D01*
X128452734Y-49715851D01*
X128452729Y-49715848D01*
X128279807Y-49638857D01*
X128279802Y-49638855D01*
X128134001Y-49607865D01*
X128094646Y-49599500D01*
X127905354Y-49599500D01*
X127872897Y-49606398D01*
X127720197Y-49638855D01*
X127720192Y-49638857D01*
X127547270Y-49715848D01*
X127547265Y-49715851D01*
X127394129Y-49827111D01*
X127267466Y-49967785D01*
X127172821Y-50131715D01*
X127172818Y-50131722D01*
X127116104Y-50306271D01*
X127114326Y-50311744D01*
X127094540Y-50500000D01*
X127114326Y-50688256D01*
X127114327Y-50688259D01*
X127172818Y-50868277D01*
X127172821Y-50868284D01*
X127267467Y-51032216D01*
X127368481Y-51144403D01*
X127394129Y-51172888D01*
X127547265Y-51284148D01*
X127547270Y-51284151D01*
X127720192Y-51361142D01*
X127720197Y-51361144D01*
X127905354Y-51400500D01*
X127905355Y-51400500D01*
X128094644Y-51400500D01*
X128094646Y-51400500D01*
X128279803Y-51361144D01*
X128452730Y-51284151D01*
X128605871Y-51172888D01*
X128608788Y-51169647D01*
X128611600Y-51166526D01*
X128671087Y-51129879D01*
X128703748Y-51125500D01*
X129250111Y-51125500D01*
X129317150Y-51145185D01*
X129355647Y-51184401D01*
X129360513Y-51192289D01*
X129413784Y-51278657D01*
X129432288Y-51308656D01*
X129556344Y-51432712D01*
X129557849Y-51433640D01*
X129559653Y-51434753D01*
X129561445Y-51436746D01*
X129562011Y-51437193D01*
X129561934Y-51437289D01*
X129606379Y-51486699D01*
X129617603Y-51555661D01*
X129589761Y-51619744D01*
X129559665Y-51645826D01*
X129556660Y-51647679D01*
X129556655Y-51647683D01*
X129432684Y-51771654D01*
X129340643Y-51920875D01*
X129340641Y-51920880D01*
X129285494Y-52087302D01*
X129285493Y-52087309D01*
X129275000Y-52190013D01*
X129275000Y-52240000D01*
X134224999Y-52240000D01*
X134224999Y-52190028D01*
X134224998Y-52190013D01*
X134214505Y-52087302D01*
X134159358Y-51920880D01*
X134159356Y-51920875D01*
X134067315Y-51771654D01*
X133943344Y-51647683D01*
X133943341Y-51647681D01*
X133940339Y-51645829D01*
X133938713Y-51644021D01*
X133937677Y-51643202D01*
X133937817Y-51643024D01*
X133893617Y-51593880D01*
X133882397Y-51524917D01*
X133910243Y-51460836D01*
X133940344Y-51434754D01*
X133943656Y-51432712D01*
X134018108Y-51358260D01*
X134079431Y-51324775D01*
X134149123Y-51329759D01*
X134156225Y-51332662D01*
X134220192Y-51361142D01*
X134220197Y-51361144D01*
X134405354Y-51400500D01*
X134405355Y-51400500D01*
X134594644Y-51400500D01*
X134594646Y-51400500D01*
X134779803Y-51361144D01*
X134952730Y-51284151D01*
X135105871Y-51172888D01*
X135232533Y-51032216D01*
X135327179Y-50868284D01*
X135329870Y-50860001D01*
X138799500Y-50860001D01*
X138799501Y-50860019D01*
X138810000Y-50962796D01*
X138810001Y-50962799D01*
X138865185Y-51129331D01*
X138865187Y-51129336D01*
X138957289Y-51278657D01*
X139051304Y-51372672D01*
X139084789Y-51433995D01*
X139079805Y-51503687D01*
X139051305Y-51548034D01*
X138957682Y-51641657D01*
X138865643Y-51790875D01*
X138865641Y-51790880D01*
X138810494Y-51957302D01*
X138810493Y-51957309D01*
X138800000Y-52060013D01*
X138800000Y-52122500D01*
X141199999Y-52122500D01*
X141199999Y-52060028D01*
X141199998Y-52060013D01*
X141189505Y-51957302D01*
X141134358Y-51790880D01*
X141134356Y-51790875D01*
X141042315Y-51641654D01*
X140948695Y-51548034D01*
X140915210Y-51486711D01*
X140920194Y-51417019D01*
X140948691Y-51372676D01*
X141042712Y-51278656D01*
X141125519Y-51144402D01*
X141177467Y-51097679D01*
X141231058Y-51085500D01*
X141768942Y-51085500D01*
X141835981Y-51105185D01*
X141874479Y-51144401D01*
X141957288Y-51278656D01*
X142050953Y-51372321D01*
X142084436Y-51433640D01*
X142079452Y-51503332D01*
X142050952Y-51547680D01*
X141957287Y-51641345D01*
X141865187Y-51790663D01*
X141865185Y-51790668D01*
X141865115Y-51790880D01*
X141810001Y-51957203D01*
X141810001Y-51957204D01*
X141810000Y-51957204D01*
X141799500Y-52059983D01*
X141799500Y-52685001D01*
X141799501Y-52685019D01*
X141810000Y-52787796D01*
X141810001Y-52787799D01*
X141865185Y-52954331D01*
X141865187Y-52954336D01*
X141895627Y-53003687D01*
X141957096Y-53103345D01*
X141957289Y-53103657D01*
X142077358Y-53223726D01*
X142110843Y-53285049D01*
X142112998Y-53324367D01*
X142098137Y-53465773D01*
X142094540Y-53500000D01*
X142114326Y-53688256D01*
X142114327Y-53688259D01*
X142172818Y-53868277D01*
X142172821Y-53868284D01*
X142267467Y-54032216D01*
X142357493Y-54132200D01*
X142394129Y-54172888D01*
X142547265Y-54284148D01*
X142547270Y-54284151D01*
X142720192Y-54361142D01*
X142720197Y-54361144D01*
X142905354Y-54400500D01*
X142905355Y-54400500D01*
X143094644Y-54400500D01*
X143094646Y-54400500D01*
X143279803Y-54361144D01*
X143452730Y-54284151D01*
X143605871Y-54172888D01*
X143732533Y-54032216D01*
X143827179Y-53868284D01*
X143885674Y-53688256D01*
X143905460Y-53500000D01*
X143887000Y-53324366D01*
X143899569Y-53255640D01*
X143922634Y-53223733D01*
X144042712Y-53103656D01*
X144100847Y-53009402D01*
X144152795Y-52962679D01*
X144206386Y-52950500D01*
X145406393Y-52950500D01*
X145473432Y-52970185D01*
X145519187Y-53022989D01*
X145529131Y-53092147D01*
X145522575Y-53117833D01*
X145508010Y-53156885D01*
X145505909Y-53162517D01*
X145499500Y-53222127D01*
X145499500Y-53222134D01*
X145499500Y-53222135D01*
X145499500Y-53967870D01*
X145499501Y-53967876D01*
X145505908Y-54027483D01*
X145556202Y-54162327D01*
X145560452Y-54170109D01*
X145557394Y-54171778D01*
X145575963Y-54221594D01*
X145561098Y-54289864D01*
X145560717Y-54290457D01*
X145556645Y-54297913D01*
X145506403Y-54432620D01*
X145506401Y-54432627D01*
X145500000Y-54492155D01*
X145500000Y-54615000D01*
X146976000Y-54615000D01*
X147043039Y-54634685D01*
X147088794Y-54687489D01*
X147100000Y-54739000D01*
X147100000Y-55690000D01*
X147747828Y-55690000D01*
X147747844Y-55689999D01*
X147807372Y-55683598D01*
X147807379Y-55683596D01*
X147942086Y-55633354D01*
X147942093Y-55633350D01*
X148057186Y-55547191D01*
X148145706Y-55428944D01*
X148201640Y-55387073D01*
X148271332Y-55382089D01*
X148320973Y-55405275D01*
X148324064Y-55407673D01*
X148366838Y-55426182D01*
X148372056Y-55428738D01*
X148412908Y-55451197D01*
X148432316Y-55456180D01*
X148450717Y-55462480D01*
X148469104Y-55470437D01*
X148512488Y-55477308D01*
X148515119Y-55477725D01*
X148520839Y-55478909D01*
X148565981Y-55490500D01*
X148586016Y-55490500D01*
X148605414Y-55492026D01*
X148625194Y-55495159D01*
X148625195Y-55495160D01*
X148625195Y-55495159D01*
X148625196Y-55495160D01*
X148671583Y-55490775D01*
X148677422Y-55490500D01*
X152837680Y-55490500D01*
X152904719Y-55510185D01*
X152936948Y-55540191D01*
X152942454Y-55547546D01*
X152942457Y-55547548D01*
X153057664Y-55633793D01*
X153057671Y-55633797D01*
X153192517Y-55684091D01*
X153192516Y-55684091D01*
X153199444Y-55684835D01*
X153252127Y-55690500D01*
X155047872Y-55690499D01*
X155107483Y-55684091D01*
X155242331Y-55633796D01*
X155357546Y-55547546D01*
X155363051Y-55540191D01*
X155418985Y-55498319D01*
X155462320Y-55490500D01*
X159981891Y-55490500D01*
X160048930Y-55510185D01*
X160094685Y-55562989D01*
X160105211Y-55601536D01*
X160114326Y-55688256D01*
X160114327Y-55688259D01*
X160172818Y-55868277D01*
X160172821Y-55868284D01*
X160267467Y-56032216D01*
X160370064Y-56146161D01*
X160394129Y-56172888D01*
X160547265Y-56284148D01*
X160547270Y-56284151D01*
X160720192Y-56361142D01*
X160720197Y-56361144D01*
X160905354Y-56400500D01*
X160905355Y-56400500D01*
X161094644Y-56400500D01*
X161094646Y-56400500D01*
X161279803Y-56361144D01*
X161452730Y-56284151D01*
X161605871Y-56172888D01*
X161732533Y-56032216D01*
X161827179Y-55868284D01*
X161885674Y-55688256D01*
X161905460Y-55500000D01*
X161885674Y-55311744D01*
X161827179Y-55131716D01*
X161825802Y-55129331D01*
X161739173Y-54979283D01*
X161722700Y-54911383D01*
X161745553Y-54845356D01*
X161781463Y-54811745D01*
X161918344Y-54727316D01*
X161932758Y-54712902D01*
X161994080Y-54679415D01*
X162063772Y-54684398D01*
X162119706Y-54726268D01*
X162138372Y-54762263D01*
X162172818Y-54868277D01*
X162172821Y-54868284D01*
X162267467Y-55032216D01*
X162357063Y-55131722D01*
X162394129Y-55172888D01*
X162547265Y-55284148D01*
X162547270Y-55284151D01*
X162720192Y-55361142D01*
X162720197Y-55361144D01*
X162905354Y-55400500D01*
X162905355Y-55400500D01*
X163094644Y-55400500D01*
X163094646Y-55400500D01*
X163279803Y-55361144D01*
X163369127Y-55321374D01*
X163381831Y-55315718D01*
X163451081Y-55306433D01*
X163514358Y-55336061D01*
X163519948Y-55341316D01*
X163551304Y-55372672D01*
X163584789Y-55433995D01*
X163579805Y-55503687D01*
X163551305Y-55548034D01*
X163457682Y-55641657D01*
X163365643Y-55790875D01*
X163365641Y-55790880D01*
X163310494Y-55957302D01*
X163310493Y-55957309D01*
X163300000Y-56060013D01*
X163300000Y-56060026D01*
X163299999Y-56122499D01*
X163300000Y-56122500D01*
X165699999Y-56122500D01*
X165699999Y-56060028D01*
X165699998Y-56060013D01*
X165689505Y-55957302D01*
X165634358Y-55790880D01*
X165634356Y-55790875D01*
X165542315Y-55641654D01*
X165448695Y-55548034D01*
X165415210Y-55486711D01*
X165420194Y-55417019D01*
X165448691Y-55372676D01*
X165542712Y-55278656D01*
X165634814Y-55129334D01*
X165689999Y-54962797D01*
X165700500Y-54860009D01*
X165700499Y-54234992D01*
X165700483Y-54234840D01*
X165689999Y-54132203D01*
X165689998Y-54132200D01*
X165677843Y-54095519D01*
X165634814Y-53965666D01*
X165542712Y-53816344D01*
X165418656Y-53692288D01*
X165269334Y-53600186D01*
X165210493Y-53580688D01*
X165153051Y-53540916D01*
X165126228Y-53476400D01*
X165125500Y-53462983D01*
X165125500Y-53457016D01*
X165145185Y-53389977D01*
X165197989Y-53344222D01*
X165210488Y-53339313D01*
X165269334Y-53319814D01*
X165418656Y-53227712D01*
X165542712Y-53103656D01*
X165634814Y-52954334D01*
X165689999Y-52787797D01*
X165700500Y-52685009D01*
X165700499Y-52284499D01*
X165720183Y-52217461D01*
X165772987Y-52171706D01*
X165824499Y-52160500D01*
X170882257Y-52160500D01*
X170897877Y-52162224D01*
X170897904Y-52161939D01*
X170905660Y-52162671D01*
X170905667Y-52162673D01*
X170974814Y-52160500D01*
X171004350Y-52160500D01*
X171011228Y-52159630D01*
X171017041Y-52159172D01*
X171063627Y-52157709D01*
X171082869Y-52152117D01*
X171101912Y-52148174D01*
X171121792Y-52145664D01*
X171165122Y-52128507D01*
X171170646Y-52126617D01*
X171174396Y-52125527D01*
X171215390Y-52113618D01*
X171232629Y-52103422D01*
X171250103Y-52094862D01*
X171268727Y-52087488D01*
X171268727Y-52087487D01*
X171268732Y-52087486D01*
X171306449Y-52060082D01*
X171311305Y-52056892D01*
X171351420Y-52033170D01*
X171365589Y-52018999D01*
X171380379Y-52006368D01*
X171396587Y-51994594D01*
X171426299Y-51958676D01*
X171430212Y-51954376D01*
X177442771Y-45941819D01*
X177504095Y-45908334D01*
X177530453Y-45905500D01*
X178724773Y-45905500D01*
X178791812Y-45925185D01*
X178826348Y-45958377D01*
X178961501Y-46151396D01*
X178961506Y-46151402D01*
X179128597Y-46318493D01*
X179128603Y-46318498D01*
X179199695Y-46368277D01*
X179292814Y-46433480D01*
X179314594Y-46448730D01*
X179358219Y-46503307D01*
X179365413Y-46572805D01*
X179333890Y-46635160D01*
X179314595Y-46651880D01*
X179128922Y-46781890D01*
X179128920Y-46781891D01*
X178961891Y-46948920D01*
X178961886Y-46948926D01*
X178826400Y-47142420D01*
X178826399Y-47142422D01*
X178726570Y-47356507D01*
X178726567Y-47356513D01*
X178669364Y-47569999D01*
X178669364Y-47570000D01*
X179386653Y-47570000D01*
X179453692Y-47589685D01*
X179499447Y-47642489D01*
X179509391Y-47711647D01*
X179505631Y-47728933D01*
X179500000Y-47748111D01*
X179500000Y-47891888D01*
X179505631Y-47911067D01*
X179505630Y-47980936D01*
X179467855Y-48039714D01*
X179404299Y-48068738D01*
X179386653Y-48070000D01*
X178669364Y-48070000D01*
X178726567Y-48283486D01*
X178726570Y-48283492D01*
X178826399Y-48497578D01*
X178961894Y-48691082D01*
X179128917Y-48858105D01*
X179322421Y-48993600D01*
X179536507Y-49093429D01*
X179536516Y-49093433D01*
X179750000Y-49150634D01*
X179750000Y-48432301D01*
X179769685Y-48365262D01*
X179822489Y-48319507D01*
X179891647Y-48309563D01*
X179964237Y-48320000D01*
X179964238Y-48320000D01*
X180035762Y-48320000D01*
X180035763Y-48320000D01*
X180108353Y-48309563D01*
X180177512Y-48319507D01*
X180230315Y-48365262D01*
X180250000Y-48432301D01*
X180250000Y-49150633D01*
X180463483Y-49093433D01*
X180463492Y-49093429D01*
X180677578Y-48993600D01*
X180871082Y-48858105D01*
X181038105Y-48691082D01*
X181173600Y-48497578D01*
X181273429Y-48283492D01*
X181273432Y-48283486D01*
X181330636Y-48070000D01*
X180613347Y-48070000D01*
X180546308Y-48050315D01*
X180500553Y-47997511D01*
X180490609Y-47928353D01*
X180494369Y-47911067D01*
X180500000Y-47891888D01*
X180500000Y-47748111D01*
X180494369Y-47728933D01*
X180494370Y-47659064D01*
X180532145Y-47600286D01*
X180595701Y-47571262D01*
X180613347Y-47570000D01*
X181330636Y-47570000D01*
X181330635Y-47569999D01*
X181273432Y-47356513D01*
X181273429Y-47356507D01*
X181173600Y-47142422D01*
X181173599Y-47142420D01*
X181038113Y-46948926D01*
X181038108Y-46948920D01*
X180871078Y-46781890D01*
X180685405Y-46651879D01*
X180641780Y-46597302D01*
X180634588Y-46527804D01*
X180666110Y-46465449D01*
X180685406Y-46448730D01*
X180871401Y-46318495D01*
X181038495Y-46151401D01*
X181174035Y-45957830D01*
X181273903Y-45743663D01*
X181335063Y-45515408D01*
X181355659Y-45280000D01*
X181354534Y-45267147D01*
X181350046Y-45215849D01*
X181335063Y-45044592D01*
X181278657Y-44834079D01*
X181273905Y-44816344D01*
X181273904Y-44816343D01*
X181273903Y-44816337D01*
X181174035Y-44602171D01*
X181173652Y-44601623D01*
X181038494Y-44408597D01*
X180871402Y-44241506D01*
X180871401Y-44241505D01*
X180685405Y-44111269D01*
X180641781Y-44056692D01*
X180634588Y-43987193D01*
X180666110Y-43924839D01*
X180685405Y-43908119D01*
X180871082Y-43778105D01*
X181038105Y-43611082D01*
X181173600Y-43417578D01*
X181273429Y-43203492D01*
X181273432Y-43203486D01*
X181330636Y-42990000D01*
X180613347Y-42990000D01*
X180546308Y-42970315D01*
X180500553Y-42917511D01*
X180490609Y-42848353D01*
X180494369Y-42831067D01*
X180500000Y-42811888D01*
X180500000Y-42668111D01*
X180494369Y-42648933D01*
X180494370Y-42579064D01*
X180532145Y-42520286D01*
X180595701Y-42491262D01*
X180613347Y-42490000D01*
X181330636Y-42490000D01*
X181330635Y-42489999D01*
X181273432Y-42276513D01*
X181273429Y-42276507D01*
X181173600Y-42062422D01*
X181173599Y-42062420D01*
X181038113Y-41868926D01*
X181038108Y-41868920D01*
X180916053Y-41746865D01*
X180882568Y-41685542D01*
X180887552Y-41615850D01*
X180929424Y-41559917D01*
X180960400Y-41543002D01*
X181075703Y-41499998D01*
X181092326Y-41493798D01*
X181092326Y-41493797D01*
X181092331Y-41493796D01*
X181207546Y-41407546D01*
X181293796Y-41292331D01*
X181344091Y-41157483D01*
X181350500Y-41097873D01*
X181350499Y-39302128D01*
X181344091Y-39242517D01*
X181338388Y-39227227D01*
X181293797Y-39107671D01*
X181293793Y-39107664D01*
X181207547Y-38992455D01*
X181207544Y-38992452D01*
X181092335Y-38906206D01*
X181092328Y-38906202D01*
X180957482Y-38855908D01*
X180957483Y-38855908D01*
X180897883Y-38849501D01*
X180897881Y-38849500D01*
X180897873Y-38849500D01*
X180897864Y-38849500D01*
X179102129Y-38849500D01*
X179102123Y-38849501D01*
X179042516Y-38855908D01*
X178907671Y-38906202D01*
X178907664Y-38906206D01*
X178792455Y-38992452D01*
X178792452Y-38992455D01*
X178706206Y-39107664D01*
X178706202Y-39107671D01*
X178655908Y-39242517D01*
X178649501Y-39302116D01*
X178649501Y-39302123D01*
X178649500Y-39302135D01*
X178649500Y-39450500D01*
X178629815Y-39517539D01*
X178577011Y-39563294D01*
X178525500Y-39574500D01*
X177382737Y-39574500D01*
X177367120Y-39572776D01*
X177367093Y-39573062D01*
X177359331Y-39572327D01*
X177290203Y-39574500D01*
X177260650Y-39574500D01*
X177259929Y-39574590D01*
X177253757Y-39575369D01*
X177247945Y-39575826D01*
X177201372Y-39577290D01*
X177201369Y-39577291D01*
X177182126Y-39582881D01*
X177163083Y-39586825D01*
X177143204Y-39589336D01*
X177143203Y-39589337D01*
X177099878Y-39606490D01*
X177094352Y-39608382D01*
X177049608Y-39621383D01*
X177049604Y-39621385D01*
X177032365Y-39631580D01*
X177014898Y-39640137D01*
X176996269Y-39647512D01*
X176996267Y-39647513D01*
X176958564Y-39674906D01*
X176953682Y-39678112D01*
X176913580Y-39701828D01*
X176899408Y-39716000D01*
X176884623Y-39728628D01*
X176868412Y-39740407D01*
X176838709Y-39776310D01*
X176834776Y-39780631D01*
X173803520Y-42811889D01*
X170777228Y-45838181D01*
X170715905Y-45871666D01*
X170689547Y-45874500D01*
X151082737Y-45874500D01*
X151067120Y-45872776D01*
X151067093Y-45873062D01*
X151059331Y-45872327D01*
X150990203Y-45874500D01*
X150960650Y-45874500D01*
X150959929Y-45874590D01*
X150953757Y-45875369D01*
X150947945Y-45875826D01*
X150901373Y-45877290D01*
X150901372Y-45877290D01*
X150882129Y-45882881D01*
X150863079Y-45886825D01*
X150843211Y-45889334D01*
X150843209Y-45889335D01*
X150799884Y-45906488D01*
X150794357Y-45908380D01*
X150749610Y-45921381D01*
X150749609Y-45921382D01*
X150732367Y-45931579D01*
X150714899Y-45940137D01*
X150696269Y-45947513D01*
X150696267Y-45947514D01*
X150658576Y-45974898D01*
X150653694Y-45978105D01*
X150613579Y-46001830D01*
X150599408Y-46016000D01*
X150584623Y-46028628D01*
X150568412Y-46040407D01*
X150538709Y-46076310D01*
X150534777Y-46080631D01*
X146466208Y-50149199D01*
X146453951Y-50159020D01*
X146454134Y-50159241D01*
X146448121Y-50164215D01*
X146423543Y-50190387D01*
X146363301Y-50225780D01*
X146333154Y-50229500D01*
X145952130Y-50229500D01*
X145952123Y-50229501D01*
X145892516Y-50235908D01*
X145798193Y-50271089D01*
X145728501Y-50276073D01*
X145667179Y-50242588D01*
X145500803Y-50076212D01*
X145490980Y-50063950D01*
X145490759Y-50064134D01*
X145485786Y-50058123D01*
X145435364Y-50010773D01*
X145424919Y-50000328D01*
X145414475Y-49989883D01*
X145408986Y-49985625D01*
X145404561Y-49981847D01*
X145370582Y-49949938D01*
X145370580Y-49949936D01*
X145370577Y-49949935D01*
X145353029Y-49940288D01*
X145336763Y-49929604D01*
X145320933Y-49917325D01*
X145278168Y-49898818D01*
X145272922Y-49896248D01*
X145232093Y-49873803D01*
X145232092Y-49873802D01*
X145212693Y-49868822D01*
X145194281Y-49862518D01*
X145175898Y-49854562D01*
X145175892Y-49854560D01*
X145129874Y-49847272D01*
X145124152Y-49846087D01*
X145079021Y-49834500D01*
X145079019Y-49834500D01*
X145058984Y-49834500D01*
X145039586Y-49832973D01*
X145031333Y-49831666D01*
X145019805Y-49829840D01*
X145019804Y-49829840D01*
X144973416Y-49834225D01*
X144967578Y-49834500D01*
X144112231Y-49834500D01*
X144045192Y-49814815D01*
X144024550Y-49798182D01*
X143973656Y-49747288D01*
X143918656Y-49692288D01*
X143769334Y-49600186D01*
X143602797Y-49545001D01*
X143602795Y-49545000D01*
X143500010Y-49534500D01*
X142499998Y-49534500D01*
X142499980Y-49534501D01*
X142397203Y-49545000D01*
X142397200Y-49545001D01*
X142230668Y-49600185D01*
X142230663Y-49600187D01*
X142081345Y-49692287D01*
X141975450Y-49798182D01*
X141914127Y-49831666D01*
X141887769Y-49834500D01*
X141112231Y-49834500D01*
X141045192Y-49814815D01*
X141024550Y-49798182D01*
X140973656Y-49747288D01*
X140918656Y-49692288D01*
X140769334Y-49600186D01*
X140602797Y-49545001D01*
X140602795Y-49545000D01*
X140500010Y-49534500D01*
X139499998Y-49534500D01*
X139499980Y-49534501D01*
X139397203Y-49545000D01*
X139397200Y-49545001D01*
X139230668Y-49600185D01*
X139230663Y-49600187D01*
X139081342Y-49692289D01*
X138957289Y-49816342D01*
X138865187Y-49965663D01*
X138865185Y-49965668D01*
X138859165Y-49983836D01*
X138810001Y-50132203D01*
X138810001Y-50132204D01*
X138810000Y-50132204D01*
X138799500Y-50234983D01*
X138799500Y-50860001D01*
X135329870Y-50860001D01*
X135385674Y-50688256D01*
X135405460Y-50500000D01*
X135385674Y-50311744D01*
X135327179Y-50131716D01*
X135232533Y-49967784D01*
X135105871Y-49827112D01*
X135105870Y-49827111D01*
X134952734Y-49715851D01*
X134952729Y-49715848D01*
X134779807Y-49638857D01*
X134779802Y-49638855D01*
X134634000Y-49607865D01*
X134594646Y-49599500D01*
X134405354Y-49599500D01*
X134372897Y-49606398D01*
X134220197Y-49638855D01*
X134220192Y-49638857D01*
X134047270Y-49715848D01*
X134047263Y-49715852D01*
X134043523Y-49718570D01*
X133977715Y-49742043D01*
X133909662Y-49726212D01*
X133905551Y-49723784D01*
X133794340Y-49655189D01*
X133794335Y-49655187D01*
X133794334Y-49655186D01*
X133627797Y-49600001D01*
X133627795Y-49600000D01*
X133525016Y-49589500D01*
X133525009Y-49589500D01*
X132935453Y-49589500D01*
X132868414Y-49569815D01*
X132847772Y-49553181D01*
X132611818Y-49317227D01*
X132578333Y-49255904D01*
X132575499Y-49229546D01*
X132575499Y-48964500D01*
X132575499Y-48685804D01*
X132595184Y-48618769D01*
X132611816Y-48598129D01*
X132618081Y-48591865D01*
X132701744Y-48450398D01*
X132737563Y-48327111D01*
X132747597Y-48292573D01*
X132747598Y-48292567D01*
X132750500Y-48255696D01*
X132750500Y-47099304D01*
X132747598Y-47062432D01*
X132747597Y-47062426D01*
X132701745Y-46904606D01*
X132701744Y-46904603D01*
X132701744Y-46904602D01*
X132618081Y-46763135D01*
X132618079Y-46763133D01*
X132618076Y-46763129D01*
X132501870Y-46646923D01*
X132501866Y-46646920D01*
X132501865Y-46646919D01*
X132501857Y-46646914D01*
X132501856Y-46646913D01*
X132501539Y-46646725D01*
X132501340Y-46646512D01*
X132495702Y-46642139D01*
X132496408Y-46641228D01*
X132453860Y-46595652D01*
X132441363Y-46526909D01*
X132468015Y-46462322D01*
X132495922Y-46438145D01*
X132495702Y-46437861D01*
X132500938Y-46433799D01*
X132501558Y-46433262D01*
X132501865Y-46433081D01*
X132618081Y-46316865D01*
X132701744Y-46175398D01*
X132711764Y-46140908D01*
X132718593Y-46117405D01*
X132756199Y-46058519D01*
X132819672Y-46029313D01*
X132837669Y-46028000D01*
X134950501Y-46028000D01*
X135017540Y-46047685D01*
X135063295Y-46100489D01*
X135074501Y-46152000D01*
X135074501Y-46500018D01*
X135085000Y-46602796D01*
X135085001Y-46602799D01*
X135140185Y-46769331D01*
X135140187Y-46769336D01*
X135147931Y-46781891D01*
X135232288Y-46918656D01*
X135356344Y-47042712D01*
X135505666Y-47134814D01*
X135672203Y-47189999D01*
X135774991Y-47200500D01*
X136400008Y-47200499D01*
X136400016Y-47200498D01*
X136400019Y-47200498D01*
X136456302Y-47194748D01*
X136502797Y-47189999D01*
X136669334Y-47134814D01*
X136818656Y-47042712D01*
X136912319Y-46949049D01*
X136973642Y-46915564D01*
X137043334Y-46920548D01*
X137087681Y-46949048D01*
X137181344Y-47042712D01*
X137330666Y-47134814D01*
X137497203Y-47189999D01*
X137599991Y-47200500D01*
X138225008Y-47200499D01*
X138225016Y-47200498D01*
X138225019Y-47200498D01*
X138281302Y-47194748D01*
X138327797Y-47189999D01*
X138494334Y-47134814D01*
X138643656Y-47042712D01*
X138767712Y-46918656D01*
X138859814Y-46769334D01*
X138879311Y-46710493D01*
X138919084Y-46653051D01*
X138983600Y-46626228D01*
X138997017Y-46625500D01*
X142296252Y-46625500D01*
X142363291Y-46645185D01*
X142388400Y-46666526D01*
X142394126Y-46672885D01*
X142394130Y-46672889D01*
X142547265Y-46784148D01*
X142547270Y-46784151D01*
X142720192Y-46861142D01*
X142720197Y-46861144D01*
X142905354Y-46900500D01*
X142905355Y-46900500D01*
X143094644Y-46900500D01*
X143094646Y-46900500D01*
X143279803Y-46861144D01*
X143452730Y-46784151D01*
X143605871Y-46672888D01*
X143732533Y-46532216D01*
X143827179Y-46368284D01*
X143885674Y-46188256D01*
X143905460Y-46000000D01*
X143885674Y-45811744D01*
X143827179Y-45631716D01*
X143732533Y-45467784D01*
X143610696Y-45332471D01*
X143580467Y-45269481D01*
X143589092Y-45200146D01*
X143633833Y-45146480D01*
X143700486Y-45125522D01*
X143702847Y-45125500D01*
X152317257Y-45125500D01*
X152332877Y-45127224D01*
X152332904Y-45126939D01*
X152340660Y-45127671D01*
X152340667Y-45127673D01*
X152409814Y-45125500D01*
X152439350Y-45125500D01*
X152446228Y-45124630D01*
X152452041Y-45124172D01*
X152498627Y-45122709D01*
X152517869Y-45117117D01*
X152536912Y-45113174D01*
X152556792Y-45110664D01*
X152600122Y-45093507D01*
X152605646Y-45091617D01*
X152609396Y-45090527D01*
X152650390Y-45078618D01*
X152667629Y-45068422D01*
X152685103Y-45059862D01*
X152703727Y-45052488D01*
X152703727Y-45052487D01*
X152703732Y-45052486D01*
X152741449Y-45025082D01*
X152746305Y-45021892D01*
X152786420Y-44998170D01*
X152800589Y-44983999D01*
X152815379Y-44971368D01*
X152831587Y-44959594D01*
X152861299Y-44923676D01*
X152865212Y-44919376D01*
X154347771Y-43436817D01*
X154409094Y-43403333D01*
X154435452Y-43400499D01*
X155550002Y-43400499D01*
X155550008Y-43400499D01*
X155652797Y-43389999D01*
X155819334Y-43334814D01*
X155968656Y-43242712D01*
X156092712Y-43118656D01*
X156184814Y-42969334D01*
X156239999Y-42802797D01*
X156250500Y-42700009D01*
X156250499Y-41585451D01*
X156270184Y-41518413D01*
X156286813Y-41497776D01*
X156833788Y-40950801D01*
X156846042Y-40940986D01*
X156845859Y-40940764D01*
X156851866Y-40935792D01*
X156851877Y-40935786D01*
X156882775Y-40902882D01*
X156899227Y-40885364D01*
X156909671Y-40874918D01*
X156920120Y-40864471D01*
X156924379Y-40858978D01*
X156928152Y-40854561D01*
X156960062Y-40820582D01*
X156969713Y-40803024D01*
X156980396Y-40786761D01*
X156992673Y-40770936D01*
X157011185Y-40728153D01*
X157013738Y-40722941D01*
X157036197Y-40682092D01*
X157041180Y-40662680D01*
X157047481Y-40644280D01*
X157055437Y-40625896D01*
X157062729Y-40579852D01*
X157063906Y-40574171D01*
X157075500Y-40529019D01*
X157075500Y-40508982D01*
X157077027Y-40489582D01*
X157080160Y-40469804D01*
X157075775Y-40423415D01*
X157075500Y-40417577D01*
X157075500Y-38194377D01*
X157095185Y-38127338D01*
X157134406Y-38088837D01*
X157141707Y-38084334D01*
X157168656Y-38067712D01*
X157292712Y-37943656D01*
X157384814Y-37794334D01*
X157439999Y-37627797D01*
X157450500Y-37525009D01*
X157450499Y-36474992D01*
X157445849Y-36429476D01*
X157439999Y-36372203D01*
X157439998Y-36372200D01*
X157433223Y-36351755D01*
X157384814Y-36205666D01*
X157292712Y-36056344D01*
X157168656Y-35932288D01*
X157168653Y-35932285D01*
X157134401Y-35911158D01*
X157087678Y-35859210D01*
X157075500Y-35805621D01*
X157075500Y-35032742D01*
X157077224Y-35017122D01*
X157076939Y-35017096D01*
X157077671Y-35009340D01*
X157077673Y-35009333D01*
X157075500Y-34940185D01*
X157075500Y-34910650D01*
X157074631Y-34903772D01*
X157074172Y-34897943D01*
X157072709Y-34851372D01*
X157067122Y-34832144D01*
X157063174Y-34813084D01*
X157060663Y-34793204D01*
X157043512Y-34749887D01*
X157041619Y-34744358D01*
X157028618Y-34699609D01*
X157028616Y-34699606D01*
X157018423Y-34682371D01*
X157009861Y-34664894D01*
X157002487Y-34646270D01*
X157002486Y-34646268D01*
X156975079Y-34608545D01*
X156971888Y-34603686D01*
X156948172Y-34563583D01*
X156948165Y-34563574D01*
X156934006Y-34549415D01*
X156921368Y-34534619D01*
X156909594Y-34518413D01*
X156887336Y-34500000D01*
X156873688Y-34488709D01*
X156869376Y-34484786D01*
X156166771Y-33782181D01*
X156133286Y-33720858D01*
X156138270Y-33651166D01*
X156180142Y-33595233D01*
X156245606Y-33570816D01*
X156254452Y-33570500D01*
X163423001Y-33570500D01*
X163490040Y-33590185D01*
X163535795Y-33642989D01*
X163547001Y-33694500D01*
X163547001Y-33992876D01*
X163553408Y-34052483D01*
X163603702Y-34187328D01*
X163603706Y-34187335D01*
X163689952Y-34302544D01*
X163689955Y-34302547D01*
X163805164Y-34388793D01*
X163805171Y-34388797D01*
X163838887Y-34401372D01*
X163940017Y-34439091D01*
X163999627Y-34445500D01*
X164250501Y-34445499D01*
X164317539Y-34465183D01*
X164363294Y-34517987D01*
X164374500Y-34569499D01*
X164374500Y-35838132D01*
X164354815Y-35905171D01*
X164335616Y-35926346D01*
X164336451Y-35927181D01*
X164207289Y-36056342D01*
X164115187Y-36205663D01*
X164115185Y-36205668D01*
X164111901Y-36215578D01*
X164060001Y-36372203D01*
X164060001Y-36372204D01*
X164060000Y-36372204D01*
X164049500Y-36474983D01*
X164049500Y-37525001D01*
X164049501Y-37525019D01*
X164060000Y-37627796D01*
X164060001Y-37627799D01*
X164115185Y-37794331D01*
X164115187Y-37794336D01*
X164128780Y-37816374D01*
X164207096Y-37943345D01*
X164207289Y-37943657D01*
X164331345Y-38067713D01*
X164354994Y-38082299D01*
X164358291Y-38084333D01*
X164365594Y-38088837D01*
X164412320Y-38140784D01*
X164424500Y-38194377D01*
X164424500Y-40818272D01*
X164406039Y-40883368D01*
X164315189Y-41030659D01*
X164315185Y-41030666D01*
X164315186Y-41030666D01*
X164260001Y-41197203D01*
X164260001Y-41197204D01*
X164260000Y-41197204D01*
X164249500Y-41299983D01*
X164249500Y-42700001D01*
X164249501Y-42700018D01*
X164260000Y-42802796D01*
X164260001Y-42802799D01*
X164315185Y-42969331D01*
X164315187Y-42969336D01*
X164339753Y-43009164D01*
X164407288Y-43118656D01*
X164531344Y-43242712D01*
X164680666Y-43334814D01*
X164847203Y-43389999D01*
X164949991Y-43400500D01*
X165172180Y-43400499D01*
X165239217Y-43420183D01*
X165284972Y-43472987D01*
X165294916Y-43542145D01*
X165265891Y-43605701D01*
X165222615Y-43637778D01*
X165047267Y-43715850D01*
X165047265Y-43715851D01*
X164894129Y-43827111D01*
X164767466Y-43967785D01*
X164672821Y-44131715D01*
X164672818Y-44131722D01*
X164616783Y-44304181D01*
X164614326Y-44311744D01*
X164594540Y-44500000D01*
X164614326Y-44688256D01*
X164614327Y-44688259D01*
X164672818Y-44868277D01*
X164672821Y-44868284D01*
X164767467Y-45032216D01*
X164869185Y-45145185D01*
X164894129Y-45172888D01*
X165047265Y-45284148D01*
X165047270Y-45284151D01*
X165220192Y-45361142D01*
X165220197Y-45361144D01*
X165405354Y-45400500D01*
X165405355Y-45400500D01*
X165594644Y-45400500D01*
X165594646Y-45400500D01*
X165779803Y-45361144D01*
X165952730Y-45284151D01*
X166105871Y-45172888D01*
X166108788Y-45169647D01*
X166111600Y-45166526D01*
X166171087Y-45129879D01*
X166203748Y-45125500D01*
X167317257Y-45125500D01*
X167332877Y-45127224D01*
X167332904Y-45126939D01*
X167340660Y-45127671D01*
X167340667Y-45127673D01*
X167409814Y-45125500D01*
X167439350Y-45125500D01*
X167446228Y-45124630D01*
X167452041Y-45124172D01*
X167498627Y-45122709D01*
X167517869Y-45117117D01*
X167536912Y-45113174D01*
X167556792Y-45110664D01*
X167600122Y-45093507D01*
X167605646Y-45091617D01*
X167609396Y-45090527D01*
X167650390Y-45078618D01*
X167667629Y-45068422D01*
X167685103Y-45059862D01*
X167703727Y-45052488D01*
X167703727Y-45052487D01*
X167703732Y-45052486D01*
X167741449Y-45025082D01*
X167746305Y-45021892D01*
X167786420Y-44998170D01*
X167800589Y-44983999D01*
X167815379Y-44971368D01*
X167831587Y-44959594D01*
X167861299Y-44923676D01*
X167865212Y-44919376D01*
X169347771Y-43436817D01*
X169409094Y-43403333D01*
X169435452Y-43400499D01*
X171050002Y-43400499D01*
X171050008Y-43400499D01*
X171152797Y-43389999D01*
X171319334Y-43334814D01*
X171468656Y-43242712D01*
X171592712Y-43118656D01*
X171684814Y-42969334D01*
X171739999Y-42802797D01*
X171750500Y-42700009D01*
X171750499Y-41299992D01*
X171749716Y-41292331D01*
X171739999Y-41197203D01*
X171739998Y-41197200D01*
X171726073Y-41155176D01*
X171723671Y-41085347D01*
X171756096Y-41028493D01*
X171833788Y-40950801D01*
X171846042Y-40940986D01*
X171845859Y-40940764D01*
X171851866Y-40935792D01*
X171851877Y-40935786D01*
X171882775Y-40902882D01*
X171899227Y-40885364D01*
X171909671Y-40874918D01*
X171920120Y-40864471D01*
X171924379Y-40858978D01*
X171928152Y-40854561D01*
X171960062Y-40820582D01*
X171969713Y-40803024D01*
X171980396Y-40786761D01*
X171992673Y-40770936D01*
X172011185Y-40728153D01*
X172013738Y-40722941D01*
X172036197Y-40682092D01*
X172041180Y-40662680D01*
X172047481Y-40644280D01*
X172055437Y-40625896D01*
X172062729Y-40579852D01*
X172063906Y-40574171D01*
X172075500Y-40529019D01*
X172075500Y-40508982D01*
X172077027Y-40489582D01*
X172080160Y-40469804D01*
X172075775Y-40423415D01*
X172075500Y-40417577D01*
X172075500Y-38194377D01*
X172095185Y-38127338D01*
X172134406Y-38088837D01*
X172141707Y-38084334D01*
X172168656Y-38067712D01*
X172292712Y-37943656D01*
X172384814Y-37794334D01*
X172439999Y-37627797D01*
X172450500Y-37525009D01*
X172450499Y-36474992D01*
X172445849Y-36429476D01*
X172439999Y-36372203D01*
X172439998Y-36372200D01*
X172433223Y-36351755D01*
X172384814Y-36205666D01*
X172292712Y-36056344D01*
X172168656Y-35932288D01*
X172168655Y-35932288D01*
X172163549Y-35927181D01*
X172165435Y-35925294D01*
X172132212Y-35878375D01*
X172125500Y-35838132D01*
X172125500Y-34582737D01*
X172127224Y-34567123D01*
X172126938Y-34567096D01*
X172127672Y-34559333D01*
X172125500Y-34490203D01*
X172125500Y-34460651D01*
X172125500Y-34460650D01*
X172124629Y-34453759D01*
X172124172Y-34447945D01*
X172122709Y-34401372D01*
X172117122Y-34382144D01*
X172113174Y-34363084D01*
X172112926Y-34361120D01*
X172110664Y-34343208D01*
X172093507Y-34299875D01*
X172091619Y-34294359D01*
X172078619Y-34249612D01*
X172068418Y-34232363D01*
X172059860Y-34214894D01*
X172052486Y-34196268D01*
X172052483Y-34196264D01*
X172052483Y-34196263D01*
X172025098Y-34158571D01*
X172021890Y-34153687D01*
X171998172Y-34113582D01*
X171998163Y-34113571D01*
X171984005Y-34099413D01*
X171971370Y-34084620D01*
X171959593Y-34068412D01*
X171923693Y-34038713D01*
X171919381Y-34034790D01*
X171485812Y-33601220D01*
X171452327Y-33539898D01*
X171457311Y-33470206D01*
X171458587Y-33467057D01*
X171458981Y-33465909D01*
X171458983Y-33465905D01*
X171518095Y-33232476D01*
X171533000Y-33052600D01*
X171533000Y-32837400D01*
X171518095Y-32657524D01*
X171458983Y-32424095D01*
X171362255Y-32203578D01*
X171230551Y-32001990D01*
X171067463Y-31824829D01*
X170910505Y-31702664D01*
X170877441Y-31676929D01*
X170665665Y-31562321D01*
X170665656Y-31562318D01*
X170437916Y-31484134D01*
X170238800Y-31450908D01*
X170200399Y-31444500D01*
X169959601Y-31444500D01*
X169921200Y-31450908D01*
X169722083Y-31484134D01*
X169494343Y-31562318D01*
X169494334Y-31562321D01*
X169282558Y-31676929D01*
X169178520Y-31757906D01*
X169092537Y-31824829D01*
X169092534Y-31824831D01*
X169092534Y-31824832D01*
X168929450Y-32001988D01*
X168929446Y-32001994D01*
X168913507Y-32026389D01*
X168860359Y-32071744D01*
X168791127Y-32081165D01*
X168727793Y-32051661D01*
X168705892Y-32026385D01*
X168690154Y-32002296D01*
X168527126Y-31825202D01*
X168527116Y-31825193D01*
X168337168Y-31677350D01*
X168337159Y-31677344D01*
X168125468Y-31562784D01*
X168125454Y-31562778D01*
X167897791Y-31484619D01*
X167790000Y-31466633D01*
X167790000Y-32280347D01*
X167770315Y-32347386D01*
X167717511Y-32393141D01*
X167648353Y-32403085D01*
X167632547Y-32399749D01*
X167615598Y-32395000D01*
X167615596Y-32395000D01*
X167502378Y-32395000D01*
X167502376Y-32395000D01*
X167430884Y-32404826D01*
X167361789Y-32394453D01*
X167309270Y-32348371D01*
X167290000Y-32281981D01*
X167290000Y-31466633D01*
X167289999Y-31466633D01*
X167182208Y-31484619D01*
X166954545Y-31562778D01*
X166954531Y-31562784D01*
X166742840Y-31677344D01*
X166742838Y-31677345D01*
X166600252Y-31788325D01*
X166535258Y-31813967D01*
X166466718Y-31800400D01*
X166416393Y-31751932D01*
X166407907Y-31733801D01*
X166407208Y-31731928D01*
X166396296Y-31702669D01*
X166396295Y-31702668D01*
X166396293Y-31702664D01*
X166310047Y-31587455D01*
X166310044Y-31587452D01*
X166194835Y-31501206D01*
X166194828Y-31501202D01*
X166059982Y-31450908D01*
X166059983Y-31450908D01*
X166000383Y-31444501D01*
X166000381Y-31444500D01*
X166000373Y-31444500D01*
X166000364Y-31444500D01*
X163999629Y-31444500D01*
X163999623Y-31444501D01*
X163940016Y-31450908D01*
X163805171Y-31501202D01*
X163805164Y-31501206D01*
X163689955Y-31587452D01*
X163689952Y-31587455D01*
X163603706Y-31702664D01*
X163603702Y-31702671D01*
X163553408Y-31837517D01*
X163547001Y-31897116D01*
X163547000Y-31897135D01*
X163547000Y-32195500D01*
X163527315Y-32262539D01*
X163474511Y-32308294D01*
X163423000Y-32319500D01*
X155954116Y-32319500D01*
X155887077Y-32299815D01*
X155841322Y-32247011D01*
X155840560Y-32245309D01*
X155822257Y-32203583D01*
X155822256Y-32203581D01*
X155822255Y-32203578D01*
X155690551Y-32001990D01*
X155527463Y-31824829D01*
X155370505Y-31702664D01*
X155337441Y-31676929D01*
X155125665Y-31562321D01*
X155125656Y-31562318D01*
X154897916Y-31484134D01*
X154698800Y-31450908D01*
X154660399Y-31444500D01*
X154419601Y-31444500D01*
X154381200Y-31450908D01*
X154182083Y-31484134D01*
X153954343Y-31562318D01*
X153954334Y-31562321D01*
X153742558Y-31676929D01*
X153638520Y-31757906D01*
X153552537Y-31824829D01*
X153552534Y-31824831D01*
X153552534Y-31824832D01*
X153389450Y-32001988D01*
X153389446Y-32001994D01*
X153373507Y-32026389D01*
X153320359Y-32071744D01*
X153251127Y-32081165D01*
X153187793Y-32051661D01*
X153165892Y-32026385D01*
X153150154Y-32002296D01*
X152987126Y-31825202D01*
X152987116Y-31825193D01*
X152797168Y-31677350D01*
X152797159Y-31677344D01*
X152585468Y-31562784D01*
X152585454Y-31562778D01*
X152357791Y-31484619D01*
X152250000Y-31466633D01*
X152250000Y-32280347D01*
X152230315Y-32347386D01*
X152177511Y-32393141D01*
X152108353Y-32403085D01*
X152092547Y-32399749D01*
X152075598Y-32395000D01*
X152075596Y-32395000D01*
X151962378Y-32395000D01*
X151962376Y-32395000D01*
X151890884Y-32404826D01*
X151821789Y-32394453D01*
X151769270Y-32348371D01*
X151750000Y-32281981D01*
X151750000Y-31466633D01*
X151749999Y-31466633D01*
X151642208Y-31484619D01*
X151414545Y-31562778D01*
X151414531Y-31562784D01*
X151202840Y-31677344D01*
X151202838Y-31677345D01*
X151060252Y-31788325D01*
X150995258Y-31813967D01*
X150926718Y-31800400D01*
X150876393Y-31751932D01*
X150867907Y-31733801D01*
X150867208Y-31731928D01*
X150856296Y-31702669D01*
X150856295Y-31702668D01*
X150856293Y-31702664D01*
X150770047Y-31587455D01*
X150770044Y-31587452D01*
X150654835Y-31501206D01*
X150654828Y-31501202D01*
X150519982Y-31450908D01*
X150519983Y-31450908D01*
X150460383Y-31444501D01*
X150460381Y-31444500D01*
X150460373Y-31444500D01*
X150460364Y-31444500D01*
X148459629Y-31444500D01*
X148459623Y-31444501D01*
X148400016Y-31450908D01*
X148265171Y-31501202D01*
X148265164Y-31501206D01*
X148149955Y-31587452D01*
X148149952Y-31587455D01*
X148063706Y-31702664D01*
X148063702Y-31702671D01*
X148013408Y-31837517D01*
X148007001Y-31897116D01*
X148007000Y-31897135D01*
X148007000Y-33992870D01*
X148007001Y-33992876D01*
X148013408Y-34052483D01*
X148063702Y-34187328D01*
X148063706Y-34187335D01*
X148149952Y-34302544D01*
X148149955Y-34302547D01*
X148265164Y-34388793D01*
X148265171Y-34388797D01*
X148298887Y-34401372D01*
X148400017Y-34439091D01*
X148459627Y-34445500D01*
X148710501Y-34445499D01*
X148777539Y-34465183D01*
X148823294Y-34517987D01*
X148834500Y-34569499D01*
X148834500Y-35475500D01*
X148814815Y-35542539D01*
X148762011Y-35588294D01*
X148710502Y-35599500D01*
X148649999Y-35599500D01*
X148649980Y-35599501D01*
X148547203Y-35610000D01*
X148547200Y-35610001D01*
X148380668Y-35665185D01*
X148380663Y-35665187D01*
X148231342Y-35757289D01*
X148107289Y-35881342D01*
X148015187Y-36030663D01*
X148015185Y-36030668D01*
X148000832Y-36073983D01*
X147960001Y-36197203D01*
X147960001Y-36197204D01*
X147960000Y-36197204D01*
X147949500Y-36299983D01*
X147949500Y-37700001D01*
X147949501Y-37700018D01*
X147960000Y-37802796D01*
X147960001Y-37802799D01*
X148004799Y-37937989D01*
X148015186Y-37969334D01*
X148107288Y-38118656D01*
X148231344Y-38242712D01*
X148258339Y-38259363D01*
X148305064Y-38311308D01*
X148316287Y-38380271D01*
X148288445Y-38444353D01*
X148285395Y-38447871D01*
X148267470Y-38467778D01*
X148267465Y-38467785D01*
X148172821Y-38631715D01*
X148172818Y-38631722D01*
X148114327Y-38811740D01*
X148114326Y-38811744D01*
X148104398Y-38906204D01*
X148096490Y-38981451D01*
X148094540Y-39000000D01*
X148114326Y-39188256D01*
X148114327Y-39188259D01*
X148172818Y-39368277D01*
X148172821Y-39368284D01*
X148267467Y-39532216D01*
X148305540Y-39574500D01*
X148342650Y-39615715D01*
X148372880Y-39678706D01*
X148374500Y-39698687D01*
X148374500Y-39817255D01*
X148372775Y-39832872D01*
X148373061Y-39832899D01*
X148372326Y-39840665D01*
X148374500Y-39909814D01*
X148374500Y-39939343D01*
X148374501Y-39939360D01*
X148375368Y-39946231D01*
X148375826Y-39952050D01*
X148377290Y-39998624D01*
X148377291Y-39998627D01*
X148382880Y-40017867D01*
X148386824Y-40036911D01*
X148389336Y-40056792D01*
X148406490Y-40100119D01*
X148408382Y-40105647D01*
X148421381Y-40150388D01*
X148431580Y-40167634D01*
X148440138Y-40185103D01*
X148447514Y-40203732D01*
X148474898Y-40241423D01*
X148478106Y-40246307D01*
X148501827Y-40286416D01*
X148501833Y-40286424D01*
X148515990Y-40300580D01*
X148528628Y-40315376D01*
X148540405Y-40331586D01*
X148540406Y-40331587D01*
X148576309Y-40361288D01*
X148580620Y-40365210D01*
X148778591Y-40563181D01*
X148914340Y-40698930D01*
X148947825Y-40760253D01*
X148942841Y-40829945D01*
X148914340Y-40874292D01*
X148907289Y-40881342D01*
X148815187Y-41030663D01*
X148815185Y-41030666D01*
X148815186Y-41030666D01*
X148760001Y-41197203D01*
X148760001Y-41197204D01*
X148760000Y-41197204D01*
X148749500Y-41299983D01*
X148749500Y-42700001D01*
X148749501Y-42700018D01*
X148760000Y-42802796D01*
X148760001Y-42802799D01*
X148815185Y-42969331D01*
X148815187Y-42969336D01*
X148839753Y-43009164D01*
X148907288Y-43118656D01*
X149031344Y-43242712D01*
X149180666Y-43334814D01*
X149347203Y-43389999D01*
X149449991Y-43400500D01*
X151550008Y-43400499D01*
X151652797Y-43389999D01*
X151819334Y-43334814D01*
X151968656Y-43242712D01*
X152092712Y-43118656D01*
X152184814Y-42969334D01*
X152239999Y-42802797D01*
X152250500Y-42700009D01*
X152250499Y-41299992D01*
X152249716Y-41292331D01*
X152239999Y-41197203D01*
X152239998Y-41197200D01*
X152226837Y-41157482D01*
X152184814Y-41030666D01*
X152092712Y-40881344D01*
X151968656Y-40757288D01*
X151819334Y-40665186D01*
X151652797Y-40610001D01*
X151652795Y-40610000D01*
X151550016Y-40599500D01*
X151550009Y-40599500D01*
X150635452Y-40599500D01*
X150568413Y-40579815D01*
X150547771Y-40563181D01*
X149713528Y-39728937D01*
X149680043Y-39667614D01*
X149685027Y-39597922D01*
X149709056Y-39558288D01*
X149732533Y-39532216D01*
X149827179Y-39368284D01*
X149885674Y-39188256D01*
X149903438Y-39019234D01*
X149928776Y-38956202D01*
X149930113Y-38954477D01*
X149930120Y-38954471D01*
X149934388Y-38948968D01*
X149938155Y-38944557D01*
X149970062Y-38910582D01*
X149979713Y-38893024D01*
X149990396Y-38876761D01*
X150002673Y-38860936D01*
X150021185Y-38818153D01*
X150023738Y-38812941D01*
X150046197Y-38772092D01*
X150051180Y-38752680D01*
X150057481Y-38734280D01*
X150065437Y-38715896D01*
X150072729Y-38669852D01*
X150073906Y-38664171D01*
X150085500Y-38619019D01*
X150085500Y-38598982D01*
X150087027Y-38579582D01*
X150090160Y-38559804D01*
X150085775Y-38513415D01*
X150085500Y-38507577D01*
X150085500Y-37836382D01*
X150089813Y-37809677D01*
X150088582Y-37809414D01*
X150089999Y-37802795D01*
X150090863Y-37794336D01*
X150100500Y-37700009D01*
X150100500Y-37250000D01*
X150900001Y-37250000D01*
X150900001Y-37699986D01*
X150910494Y-37802697D01*
X150965641Y-37969119D01*
X150965643Y-37969124D01*
X151057684Y-38118345D01*
X151181654Y-38242315D01*
X151330875Y-38334356D01*
X151330880Y-38334358D01*
X151497302Y-38389505D01*
X151497309Y-38389506D01*
X151600019Y-38399999D01*
X151724999Y-38399999D01*
X151725000Y-38399998D01*
X151725000Y-37250000D01*
X152225000Y-37250000D01*
X152225000Y-38399999D01*
X152349972Y-38399999D01*
X152349986Y-38399998D01*
X152452697Y-38389505D01*
X152619119Y-38334358D01*
X152619124Y-38334356D01*
X152768345Y-38242315D01*
X152892315Y-38118345D01*
X152984356Y-37969124D01*
X152984358Y-37969119D01*
X153039505Y-37802697D01*
X153039506Y-37802690D01*
X153049999Y-37699986D01*
X153050000Y-37699973D01*
X153050000Y-37250000D01*
X153550001Y-37250000D01*
X153550001Y-37524986D01*
X153560494Y-37627697D01*
X153615641Y-37794119D01*
X153615643Y-37794124D01*
X153707684Y-37943345D01*
X153831654Y-38067315D01*
X153980875Y-38159356D01*
X153980880Y-38159358D01*
X154147302Y-38214505D01*
X154147309Y-38214506D01*
X154250019Y-38224999D01*
X154299999Y-38224998D01*
X154300000Y-38224998D01*
X154300000Y-37250000D01*
X153550001Y-37250000D01*
X153050000Y-37250000D01*
X152225000Y-37250000D01*
X151725000Y-37250000D01*
X150900001Y-37250000D01*
X150100500Y-37250000D01*
X150100499Y-36750000D01*
X150900000Y-36750000D01*
X151725000Y-36750000D01*
X151725000Y-35600000D01*
X152225000Y-35600000D01*
X152225000Y-36750000D01*
X153049999Y-36750000D01*
X153550000Y-36750000D01*
X154300000Y-36750000D01*
X154300000Y-35775000D01*
X154299999Y-35774999D01*
X154250029Y-35775000D01*
X154250011Y-35775001D01*
X154147302Y-35785494D01*
X153980880Y-35840641D01*
X153980875Y-35840643D01*
X153831654Y-35932684D01*
X153707684Y-36056654D01*
X153615643Y-36205875D01*
X153615641Y-36205880D01*
X153560494Y-36372302D01*
X153560493Y-36372309D01*
X153550000Y-36475013D01*
X153550000Y-36750000D01*
X153049999Y-36750000D01*
X153049999Y-36300028D01*
X153049998Y-36300013D01*
X153039505Y-36197302D01*
X152984358Y-36030880D01*
X152984356Y-36030875D01*
X152892315Y-35881654D01*
X152768345Y-35757684D01*
X152619124Y-35665643D01*
X152619119Y-35665641D01*
X152452697Y-35610494D01*
X152452690Y-35610493D01*
X152349986Y-35600000D01*
X152225000Y-35600000D01*
X151725000Y-35600000D01*
X151600027Y-35600000D01*
X151600012Y-35600001D01*
X151497302Y-35610494D01*
X151330880Y-35665641D01*
X151330875Y-35665643D01*
X151181654Y-35757684D01*
X151057684Y-35881654D01*
X150965643Y-36030875D01*
X150965641Y-36030880D01*
X150910494Y-36197302D01*
X150910493Y-36197309D01*
X150900000Y-36300013D01*
X150900000Y-36750000D01*
X150100499Y-36750000D01*
X150100499Y-36299992D01*
X150089999Y-36197203D01*
X150089999Y-36197202D01*
X150088582Y-36190584D01*
X150089805Y-36190322D01*
X150085500Y-36163616D01*
X150085500Y-34569499D01*
X150105185Y-34502460D01*
X150157989Y-34456705D01*
X150209500Y-34445499D01*
X150460371Y-34445499D01*
X150460372Y-34445499D01*
X150519983Y-34439091D01*
X150654831Y-34388796D01*
X150770046Y-34302546D01*
X150856296Y-34187331D01*
X150856297Y-34187328D01*
X150856298Y-34187327D01*
X150862308Y-34171209D01*
X150867907Y-34156197D01*
X150909776Y-34100264D01*
X150975240Y-34075844D01*
X151043513Y-34090694D01*
X151060252Y-34101675D01*
X151202831Y-34212649D01*
X151202840Y-34212655D01*
X151414531Y-34327215D01*
X151414545Y-34327221D01*
X151642207Y-34405379D01*
X151750000Y-34423366D01*
X151750000Y-33609652D01*
X151769685Y-33542613D01*
X151822489Y-33496858D01*
X151891647Y-33486914D01*
X151907447Y-33490248D01*
X151924404Y-33495000D01*
X151924406Y-33495000D01*
X152037622Y-33495000D01*
X152109116Y-33485173D01*
X152178210Y-33495545D01*
X152230729Y-33541627D01*
X152250000Y-33608018D01*
X152250000Y-34423365D01*
X152357792Y-34405379D01*
X152585454Y-34327221D01*
X152585468Y-34327215D01*
X152797159Y-34212655D01*
X152797168Y-34212649D01*
X152987116Y-34064806D01*
X152987126Y-34064797D01*
X153150154Y-33887702D01*
X153150155Y-33887701D01*
X153165891Y-33863616D01*
X153219036Y-33818258D01*
X153288267Y-33808833D01*
X153351604Y-33838333D01*
X153373510Y-33863614D01*
X153389446Y-33888007D01*
X153431664Y-33933868D01*
X153552537Y-34065171D01*
X153672538Y-34158571D01*
X153742017Y-34212649D01*
X153742561Y-34213072D01*
X153844190Y-34268071D01*
X153953478Y-34327215D01*
X153954336Y-34327679D01*
X154057467Y-34363084D01*
X154182083Y-34405865D01*
X154182085Y-34405865D01*
X154182087Y-34405866D01*
X154419601Y-34445500D01*
X154419602Y-34445500D01*
X154660398Y-34445500D01*
X154660399Y-34445500D01*
X154897913Y-34405866D01*
X154916535Y-34399472D01*
X154986330Y-34396319D01*
X155044481Y-34429071D01*
X155788181Y-35172771D01*
X155821666Y-35234094D01*
X155824500Y-35260452D01*
X155824500Y-35805621D01*
X155804815Y-35872660D01*
X155765599Y-35911158D01*
X155731346Y-35932285D01*
X155607288Y-36056343D01*
X155607283Y-36056349D01*
X155605241Y-36059661D01*
X155603247Y-36061453D01*
X155602807Y-36062011D01*
X155602711Y-36061935D01*
X155553291Y-36106383D01*
X155484328Y-36117602D01*
X155420247Y-36089755D01*
X155394168Y-36059656D01*
X155392319Y-36056659D01*
X155392316Y-36056655D01*
X155268345Y-35932684D01*
X155119124Y-35840643D01*
X155119119Y-35840641D01*
X154952697Y-35785494D01*
X154952690Y-35785493D01*
X154849986Y-35775000D01*
X154800000Y-35775000D01*
X154800000Y-38224999D01*
X154849972Y-38224999D01*
X154849986Y-38224998D01*
X154952697Y-38214505D01*
X155119119Y-38159358D01*
X155119124Y-38159356D01*
X155268345Y-38067315D01*
X155392318Y-37943342D01*
X155394165Y-37940348D01*
X155395969Y-37938724D01*
X155396798Y-37937677D01*
X155396976Y-37937818D01*
X155446110Y-37893621D01*
X155515073Y-37882396D01*
X155579156Y-37910236D01*
X155605242Y-37940339D01*
X155607288Y-37943656D01*
X155607289Y-37943657D01*
X155731345Y-38067713D01*
X155754994Y-38082299D01*
X155758291Y-38084333D01*
X155765594Y-38088837D01*
X155812320Y-38140784D01*
X155824500Y-38194377D01*
X155824500Y-40139546D01*
X155804815Y-40206585D01*
X155788181Y-40227227D01*
X155452227Y-40563181D01*
X155390904Y-40596666D01*
X155364546Y-40599500D01*
X153449998Y-40599500D01*
X153449981Y-40599501D01*
X153347203Y-40610000D01*
X153347200Y-40610001D01*
X153180668Y-40665185D01*
X153180663Y-40665187D01*
X153031342Y-40757289D01*
X152907289Y-40881342D01*
X152815187Y-41030663D01*
X152815185Y-41030666D01*
X152815186Y-41030666D01*
X152760001Y-41197203D01*
X152760001Y-41197204D01*
X152760000Y-41197204D01*
X152749500Y-41299983D01*
X152749500Y-42700001D01*
X152749501Y-42700018D01*
X152760000Y-42802796D01*
X152760001Y-42802799D01*
X152815185Y-42969331D01*
X152815188Y-42969338D01*
X152851798Y-43028693D01*
X152870237Y-43096085D01*
X152849314Y-43162749D01*
X152833939Y-43181469D01*
X152177228Y-43838181D01*
X152115905Y-43871666D01*
X152089547Y-43874500D01*
X138209452Y-43874500D01*
X138142413Y-43854815D01*
X138096658Y-43802011D01*
X138086714Y-43732853D01*
X138115739Y-43669297D01*
X138121771Y-43662819D01*
X138347771Y-43436818D01*
X138409094Y-43403333D01*
X138435452Y-43400499D01*
X139550002Y-43400499D01*
X139550008Y-43400499D01*
X139652797Y-43389999D01*
X139819334Y-43334814D01*
X139968656Y-43242712D01*
X140092712Y-43118656D01*
X140184814Y-42969334D01*
X140239999Y-42802797D01*
X140250500Y-42700009D01*
X140250499Y-41585451D01*
X140270184Y-41518413D01*
X140286813Y-41497776D01*
X141833788Y-39950801D01*
X141846042Y-39940986D01*
X141845859Y-39940764D01*
X141851866Y-39935792D01*
X141851877Y-39935786D01*
X141882775Y-39902882D01*
X141899227Y-39885364D01*
X141909671Y-39874918D01*
X141920120Y-39864471D01*
X141924379Y-39858978D01*
X141928152Y-39854561D01*
X141960062Y-39820582D01*
X141969715Y-39803020D01*
X141980389Y-39786770D01*
X141992673Y-39770936D01*
X142011180Y-39728167D01*
X142013749Y-39722924D01*
X142015953Y-39718913D01*
X142036197Y-39682092D01*
X142041177Y-39662691D01*
X142047478Y-39644288D01*
X142055438Y-39625896D01*
X142062730Y-39579849D01*
X142063911Y-39574152D01*
X142064214Y-39572973D01*
X142075500Y-39529019D01*
X142075500Y-39508982D01*
X142077027Y-39489582D01*
X142080160Y-39469804D01*
X142075775Y-39423415D01*
X142075500Y-39417577D01*
X142075500Y-38194377D01*
X142095185Y-38127338D01*
X142134406Y-38088837D01*
X142141707Y-38084334D01*
X142168656Y-38067712D01*
X142292712Y-37943656D01*
X142384814Y-37794334D01*
X142439999Y-37627797D01*
X142450500Y-37525009D01*
X142450499Y-36474992D01*
X142445849Y-36429476D01*
X142439999Y-36372203D01*
X142439998Y-36372200D01*
X142433223Y-36351755D01*
X142384814Y-36205666D01*
X142292712Y-36056344D01*
X142168656Y-35932288D01*
X142168655Y-35932288D01*
X142168653Y-35932285D01*
X142134401Y-35911158D01*
X142087678Y-35859210D01*
X142075500Y-35805621D01*
X142075500Y-34032742D01*
X142077224Y-34017122D01*
X142076939Y-34017096D01*
X142077671Y-34009340D01*
X142077673Y-34009333D01*
X142075500Y-33940185D01*
X142075500Y-33910650D01*
X142074631Y-33903772D01*
X142074172Y-33897943D01*
X142072709Y-33851372D01*
X142067122Y-33832144D01*
X142063174Y-33813084D01*
X142060663Y-33793204D01*
X142043512Y-33749887D01*
X142041619Y-33744358D01*
X142028618Y-33699609D01*
X142028616Y-33699606D01*
X142018423Y-33682371D01*
X142009861Y-33664894D01*
X142002487Y-33646270D01*
X142002486Y-33646268D01*
X141975079Y-33608545D01*
X141971888Y-33603686D01*
X141970430Y-33601221D01*
X141952449Y-33570816D01*
X141948172Y-33563583D01*
X141948165Y-33563574D01*
X141934006Y-33549415D01*
X141921368Y-33534619D01*
X141921343Y-33534584D01*
X141909594Y-33518413D01*
X141898468Y-33509209D01*
X141873688Y-33488709D01*
X141869376Y-33484786D01*
X141000803Y-32616212D01*
X140990980Y-32603950D01*
X140990759Y-32604134D01*
X140985786Y-32598123D01*
X140951649Y-32566066D01*
X140935364Y-32550773D01*
X140922696Y-32538105D01*
X140914472Y-32529880D01*
X140913198Y-32528757D01*
X140912893Y-32528301D01*
X140911715Y-32527123D01*
X140911948Y-32526889D01*
X140882654Y-32483085D01*
X140881043Y-32483792D01*
X140868304Y-32454749D01*
X140782255Y-32258578D01*
X140650551Y-32056990D01*
X140487463Y-31879829D01*
X140353358Y-31775451D01*
X140297441Y-31731929D01*
X140085665Y-31617321D01*
X140085656Y-31617318D01*
X139857916Y-31539134D01*
X139661766Y-31506403D01*
X139620399Y-31499500D01*
X139379601Y-31499500D01*
X139338234Y-31506403D01*
X139142083Y-31539134D01*
X138914343Y-31617318D01*
X138914334Y-31617321D01*
X138702558Y-31731929D01*
X138582722Y-31825202D01*
X138512537Y-31879829D01*
X138512534Y-31879831D01*
X138512534Y-31879832D01*
X138496623Y-31897116D01*
X138349449Y-32056990D01*
X138339810Y-32071744D01*
X138333808Y-32080931D01*
X138280661Y-32126287D01*
X138211430Y-32135710D01*
X138148094Y-32106207D01*
X138126192Y-32080931D01*
X138110551Y-32056990D01*
X137947463Y-31879829D01*
X137813358Y-31775451D01*
X137757441Y-31731929D01*
X137545665Y-31617321D01*
X137545656Y-31617318D01*
X137317916Y-31539134D01*
X137121766Y-31506403D01*
X137080399Y-31499500D01*
X136839601Y-31499500D01*
X136798234Y-31506403D01*
X136602083Y-31539134D01*
X136374343Y-31617318D01*
X136374334Y-31617321D01*
X136162559Y-31731929D01*
X136019656Y-31843155D01*
X135954662Y-31868797D01*
X135886122Y-31855230D01*
X135835797Y-31806762D01*
X135827312Y-31788633D01*
X135815855Y-31757915D01*
X135815850Y-31757906D01*
X135729690Y-31642812D01*
X135729687Y-31642809D01*
X135614593Y-31556649D01*
X135614586Y-31556645D01*
X135479879Y-31506403D01*
X135479872Y-31506401D01*
X135420344Y-31500000D01*
X134670000Y-31500000D01*
X134670000Y-32335347D01*
X134650315Y-32402386D01*
X134597511Y-32448141D01*
X134528353Y-32458085D01*
X134512547Y-32454749D01*
X134495598Y-32450000D01*
X134495596Y-32450000D01*
X134382378Y-32450000D01*
X134382376Y-32450000D01*
X134310884Y-32459826D01*
X134241789Y-32449453D01*
X134189270Y-32403371D01*
X134170000Y-32336981D01*
X134170000Y-31500000D01*
X133419655Y-31500000D01*
X133360127Y-31506401D01*
X133360120Y-31506403D01*
X133225413Y-31556645D01*
X133225406Y-31556649D01*
X133110312Y-31642809D01*
X133110309Y-31642812D01*
X133024149Y-31757906D01*
X133024145Y-31757913D01*
X132973903Y-31892620D01*
X132973901Y-31892627D01*
X132967500Y-31952155D01*
X132967500Y-32750000D01*
X133753044Y-32750000D01*
X133820083Y-32769685D01*
X133865838Y-32822489D01*
X133876755Y-32882463D01*
X133876441Y-32887045D01*
X133876441Y-32887047D01*
X133866123Y-33037886D01*
X133869181Y-33052600D01*
X133879191Y-33100772D01*
X133873557Y-33170414D01*
X133831166Y-33225955D01*
X133765477Y-33249761D01*
X133757784Y-33250000D01*
X132967500Y-33250000D01*
X132967500Y-34047844D01*
X132973901Y-34107372D01*
X132973903Y-34107379D01*
X133024145Y-34242086D01*
X133024149Y-34242093D01*
X133110309Y-34357187D01*
X133110312Y-34357190D01*
X133225406Y-34443350D01*
X133225413Y-34443354D01*
X133360120Y-34493596D01*
X133360127Y-34493598D01*
X133419655Y-34499999D01*
X133419672Y-34500000D01*
X134170000Y-34500000D01*
X134170000Y-33664652D01*
X134189685Y-33597613D01*
X134242489Y-33551858D01*
X134311647Y-33541914D01*
X134327447Y-33545248D01*
X134344404Y-33550000D01*
X134344406Y-33550000D01*
X134457622Y-33550000D01*
X134529116Y-33540173D01*
X134598210Y-33550545D01*
X134650729Y-33596627D01*
X134670000Y-33663018D01*
X134670000Y-34500000D01*
X135420328Y-34500000D01*
X135420344Y-34499999D01*
X135479872Y-34493598D01*
X135479879Y-34493596D01*
X135614586Y-34443354D01*
X135614593Y-34443350D01*
X135729687Y-34357190D01*
X135729690Y-34357187D01*
X135815850Y-34242093D01*
X135815855Y-34242084D01*
X135827312Y-34211367D01*
X135869182Y-34155433D01*
X135934646Y-34131015D01*
X136002920Y-34145866D01*
X136019655Y-34156844D01*
X136162558Y-34268070D01*
X136162560Y-34268071D01*
X136162562Y-34268073D01*
X136269517Y-34325953D01*
X136319108Y-34375172D01*
X136334500Y-34435008D01*
X136334500Y-35475500D01*
X136314815Y-35542539D01*
X136262011Y-35588294D01*
X136210500Y-35599500D01*
X135599998Y-35599500D01*
X135599980Y-35599501D01*
X135497203Y-35610000D01*
X135497200Y-35610001D01*
X135330668Y-35665185D01*
X135330663Y-35665187D01*
X135181342Y-35757289D01*
X135057289Y-35881342D01*
X134965187Y-36030663D01*
X134965185Y-36030668D01*
X134950832Y-36073983D01*
X134910001Y-36197203D01*
X134910001Y-36197204D01*
X134910000Y-36197204D01*
X134899500Y-36299983D01*
X134899500Y-37700001D01*
X134899501Y-37700018D01*
X134910000Y-37802796D01*
X134910001Y-37802799D01*
X134954799Y-37937989D01*
X134965186Y-37969334D01*
X135057288Y-38118656D01*
X135181344Y-38242712D01*
X135330666Y-38334814D01*
X135497203Y-38389999D01*
X135599991Y-38400500D01*
X136250500Y-38400499D01*
X136317539Y-38420183D01*
X136363294Y-38472987D01*
X136374500Y-38524499D01*
X136374500Y-39750500D01*
X136354815Y-39817539D01*
X136302011Y-39863294D01*
X136250500Y-39874500D01*
X135682743Y-39874500D01*
X135667122Y-39872775D01*
X135667095Y-39873061D01*
X135659333Y-39872326D01*
X135590172Y-39874500D01*
X135560649Y-39874500D01*
X135553778Y-39875367D01*
X135547959Y-39875825D01*
X135501374Y-39877289D01*
X135501368Y-39877290D01*
X135482126Y-39882880D01*
X135463087Y-39886823D01*
X135443217Y-39889334D01*
X135443203Y-39889337D01*
X135399883Y-39906488D01*
X135394358Y-39908380D01*
X135349613Y-39921380D01*
X135349610Y-39921381D01*
X135332366Y-39931579D01*
X135314905Y-39940133D01*
X135296274Y-39947510D01*
X135296262Y-39947517D01*
X135258570Y-39974902D01*
X135253687Y-39978109D01*
X135213580Y-40001829D01*
X135199414Y-40015995D01*
X135184624Y-40028627D01*
X135168414Y-40040404D01*
X135168411Y-40040407D01*
X135138710Y-40076309D01*
X135134777Y-40080631D01*
X134652227Y-40563181D01*
X134590904Y-40596666D01*
X134564546Y-40599500D01*
X133449998Y-40599500D01*
X133449981Y-40599501D01*
X133347203Y-40610000D01*
X133347200Y-40610001D01*
X133180668Y-40665185D01*
X133180663Y-40665187D01*
X133031342Y-40757289D01*
X132907289Y-40881342D01*
X132815187Y-41030663D01*
X132815185Y-41030666D01*
X132815186Y-41030666D01*
X132760001Y-41197203D01*
X132760001Y-41197204D01*
X132760000Y-41197204D01*
X132749500Y-41299983D01*
X132749500Y-42700001D01*
X132749502Y-42700021D01*
X132753371Y-42737900D01*
X132740601Y-42806593D01*
X132692719Y-42857476D01*
X132630013Y-42874500D01*
X128703748Y-42874500D01*
X128636709Y-42854815D01*
X128611600Y-42833474D01*
X128605873Y-42827114D01*
X128605869Y-42827110D01*
X128452734Y-42715851D01*
X128452729Y-42715848D01*
X128279807Y-42638857D01*
X128279802Y-42638855D01*
X128134000Y-42607865D01*
X128094646Y-42599500D01*
X127905354Y-42599500D01*
X127872897Y-42606398D01*
X127720197Y-42638855D01*
X127720192Y-42638857D01*
X127547270Y-42715848D01*
X127547265Y-42715851D01*
X127394129Y-42827111D01*
X127267466Y-42967785D01*
X127172821Y-43131715D01*
X127172818Y-43131722D01*
X127114812Y-43310247D01*
X127114326Y-43311744D01*
X127094540Y-43500000D01*
X127114326Y-43688256D01*
X127114327Y-43688259D01*
X127172818Y-43868277D01*
X127172821Y-43868284D01*
X127267467Y-44032216D01*
X127357063Y-44131722D01*
X127394129Y-44172888D01*
X127523865Y-44267147D01*
X127547270Y-44284151D01*
X127547273Y-44284152D01*
X127547454Y-44284257D01*
X127547541Y-44284348D01*
X127552527Y-44287971D01*
X127551864Y-44288883D01*
X127595667Y-44334827D01*
X127608887Y-44403434D01*
X127608770Y-44404603D01*
X127599991Y-44488135D01*
X127594540Y-44540000D01*
X127605054Y-44640040D01*
X127592486Y-44708768D01*
X127544754Y-44759792D01*
X127481734Y-44777000D01*
X126720243Y-44777000D01*
X126704622Y-44775275D01*
X126704595Y-44775561D01*
X126696833Y-44774826D01*
X126627672Y-44777000D01*
X126598149Y-44777000D01*
X126591278Y-44777867D01*
X126585459Y-44778325D01*
X126538874Y-44779789D01*
X126538868Y-44779790D01*
X126519626Y-44785380D01*
X126500587Y-44789323D01*
X126480717Y-44791834D01*
X126480703Y-44791837D01*
X126437383Y-44808988D01*
X126431858Y-44810880D01*
X126387113Y-44823880D01*
X126387110Y-44823881D01*
X126369866Y-44834079D01*
X126352405Y-44842633D01*
X126333774Y-44850010D01*
X126333762Y-44850017D01*
X126296070Y-44877402D01*
X126291187Y-44880609D01*
X126251080Y-44904329D01*
X126236914Y-44918495D01*
X126222124Y-44931127D01*
X126205914Y-44942904D01*
X126205911Y-44942907D01*
X126176210Y-44978809D01*
X126172277Y-44983131D01*
X125892196Y-45263212D01*
X125830873Y-45296697D01*
X125791912Y-45298889D01*
X125700010Y-45289500D01*
X124299998Y-45289500D01*
X124299981Y-45289501D01*
X124197203Y-45300000D01*
X124197200Y-45300001D01*
X124030668Y-45355185D01*
X124030663Y-45355187D01*
X123881342Y-45447289D01*
X123757289Y-45571342D01*
X123665187Y-45720663D01*
X123665185Y-45720668D01*
X123657565Y-45743664D01*
X123610001Y-45887203D01*
X123610001Y-45887204D01*
X123610000Y-45887204D01*
X123599500Y-45989983D01*
X123599500Y-46290500D01*
X123579815Y-46357539D01*
X123527011Y-46403294D01*
X123475500Y-46414500D01*
X119350452Y-46414500D01*
X119283413Y-46394815D01*
X119262771Y-46378181D01*
X117918605Y-45034015D01*
X117885120Y-44972692D01*
X117890104Y-44903000D01*
X117931976Y-44847067D01*
X117997440Y-44822650D01*
X118065713Y-44837502D01*
X118071383Y-44840796D01*
X118187704Y-44912544D01*
X118187707Y-44912545D01*
X118187713Y-44912549D01*
X118347315Y-44965436D01*
X118445826Y-44975500D01*
X118445831Y-44975500D01*
X118979169Y-44975500D01*
X118979174Y-44975500D01*
X119077685Y-44965436D01*
X119237287Y-44912549D01*
X119380391Y-44824281D01*
X119412672Y-44792000D01*
X119473995Y-44758515D01*
X119543687Y-44763499D01*
X119588034Y-44792000D01*
X119619919Y-44823885D01*
X119762922Y-44912091D01*
X119762927Y-44912093D01*
X119922416Y-44964942D01*
X120020856Y-44974999D01*
X120037500Y-44974998D01*
X120037500Y-44250000D01*
X120537500Y-44250000D01*
X120537500Y-44974999D01*
X120554136Y-44974999D01*
X120554152Y-44974998D01*
X120652583Y-44964943D01*
X120812072Y-44912093D01*
X120812077Y-44912091D01*
X120955080Y-44823885D01*
X121073885Y-44705080D01*
X121162091Y-44562077D01*
X121162093Y-44562072D01*
X121214942Y-44402583D01*
X121224999Y-44304150D01*
X121225000Y-44304137D01*
X121225000Y-44250000D01*
X122275001Y-44250000D01*
X122275001Y-44304152D01*
X122285056Y-44402583D01*
X122337906Y-44562072D01*
X122337908Y-44562077D01*
X122426114Y-44705080D01*
X122544919Y-44823885D01*
X122687922Y-44912091D01*
X122687927Y-44912093D01*
X122847416Y-44964942D01*
X122945856Y-44974999D01*
X122962500Y-44974998D01*
X122962500Y-44250000D01*
X122275001Y-44250000D01*
X121225000Y-44250000D01*
X120537500Y-44250000D01*
X120037500Y-44250000D01*
X120037500Y-43025000D01*
X120537500Y-43025000D01*
X120537500Y-43750000D01*
X121224999Y-43750000D01*
X122275000Y-43750000D01*
X122962500Y-43750000D01*
X122962499Y-43024999D01*
X122945856Y-43025000D01*
X122847415Y-43035057D01*
X122687927Y-43087906D01*
X122687922Y-43087908D01*
X122544919Y-43176114D01*
X122426114Y-43294919D01*
X122337908Y-43437922D01*
X122337906Y-43437927D01*
X122285057Y-43597416D01*
X122275000Y-43695849D01*
X122275000Y-43750000D01*
X121224999Y-43750000D01*
X121224999Y-43695864D01*
X121224998Y-43695847D01*
X121214943Y-43597416D01*
X121162093Y-43437927D01*
X121162091Y-43437922D01*
X121073885Y-43294919D01*
X120955080Y-43176114D01*
X120812077Y-43087908D01*
X120812072Y-43087906D01*
X120652583Y-43035057D01*
X120554150Y-43025000D01*
X120537500Y-43025000D01*
X120037500Y-43025000D01*
X120037500Y-43024999D01*
X120020856Y-43025000D01*
X119922415Y-43035057D01*
X119788504Y-43079431D01*
X119718675Y-43081833D01*
X119658634Y-43046101D01*
X119627441Y-42983581D01*
X119625500Y-42961725D01*
X119625500Y-42714188D01*
X119645185Y-42647149D01*
X119678377Y-42612613D01*
X119754469Y-42559333D01*
X119839139Y-42500047D01*
X120000047Y-42339139D01*
X120130568Y-42152734D01*
X120226739Y-41946496D01*
X120285635Y-41726692D01*
X120305468Y-41500001D01*
X122694532Y-41500001D01*
X122714364Y-41726686D01*
X122714366Y-41726697D01*
X122773258Y-41946488D01*
X122773261Y-41946497D01*
X122869431Y-42152732D01*
X122869432Y-42152734D01*
X122999954Y-42339141D01*
X123160858Y-42500045D01*
X123203861Y-42530156D01*
X123347266Y-42630568D01*
X123553504Y-42726739D01*
X123773308Y-42785635D01*
X123935230Y-42799801D01*
X123999998Y-42805468D01*
X124000000Y-42805468D01*
X124000002Y-42805468D01*
X124075563Y-42798857D01*
X124226692Y-42785635D01*
X124226699Y-42785632D01*
X124228957Y-42785235D01*
X124229971Y-42785348D01*
X124232086Y-42785163D01*
X124232123Y-42785587D01*
X124298397Y-42792973D01*
X124352630Y-42837025D01*
X124374437Y-42903404D01*
X124374500Y-42907349D01*
X124374500Y-42960867D01*
X124354815Y-43027906D01*
X124302011Y-43073661D01*
X124289505Y-43078572D01*
X124262717Y-43087448D01*
X124262709Y-43087452D01*
X124119612Y-43175716D01*
X124119607Y-43175719D01*
X124087327Y-43208000D01*
X124026003Y-43241485D01*
X123956312Y-43236499D01*
X123911967Y-43208000D01*
X123880080Y-43176114D01*
X123737077Y-43087908D01*
X123737072Y-43087906D01*
X123577583Y-43035057D01*
X123479150Y-43025000D01*
X123462500Y-43025000D01*
X123462500Y-44974999D01*
X123479136Y-44974999D01*
X123479152Y-44974998D01*
X123577583Y-44964943D01*
X123737072Y-44912093D01*
X123737077Y-44912091D01*
X123880080Y-44823885D01*
X123911966Y-44792000D01*
X123973289Y-44758515D01*
X124042981Y-44763499D01*
X124087328Y-44792000D01*
X124119608Y-44824280D01*
X124119612Y-44824283D01*
X124262704Y-44912544D01*
X124262707Y-44912545D01*
X124262713Y-44912549D01*
X124422315Y-44965436D01*
X124520826Y-44975500D01*
X124520831Y-44975500D01*
X125054169Y-44975500D01*
X125054174Y-44975500D01*
X125152685Y-44965436D01*
X125312287Y-44912549D01*
X125455391Y-44824281D01*
X125574281Y-44705391D01*
X125662549Y-44562287D01*
X125715436Y-44402685D01*
X125725500Y-44304174D01*
X125725500Y-43695826D01*
X125715436Y-43597315D01*
X125662549Y-43437713D01*
X125653010Y-43422248D01*
X125643961Y-43407576D01*
X125625500Y-43342480D01*
X125625500Y-42582742D01*
X125627224Y-42567122D01*
X125626939Y-42567095D01*
X125627673Y-42559333D01*
X125625500Y-42490172D01*
X125625500Y-42460656D01*
X125625500Y-42460650D01*
X125624631Y-42453779D01*
X125624173Y-42447952D01*
X125622710Y-42401373D01*
X125617119Y-42382130D01*
X125613173Y-42363078D01*
X125610664Y-42343208D01*
X125593504Y-42299867D01*
X125591624Y-42294379D01*
X125578618Y-42249610D01*
X125568422Y-42232370D01*
X125559861Y-42214894D01*
X125552487Y-42196270D01*
X125552486Y-42196268D01*
X125525079Y-42158545D01*
X125521888Y-42153686D01*
X125498172Y-42113583D01*
X125498165Y-42113574D01*
X125484006Y-42099415D01*
X125471368Y-42084619D01*
X125459594Y-42068413D01*
X125423688Y-42038709D01*
X125419365Y-42034775D01*
X125299411Y-41914820D01*
X125265928Y-41853499D01*
X125267319Y-41795048D01*
X125285635Y-41726692D01*
X125305468Y-41500000D01*
X125304925Y-41493798D01*
X125295554Y-41386687D01*
X125285635Y-41273308D01*
X125226739Y-41053504D01*
X125130568Y-40847266D01*
X125000047Y-40660861D01*
X125000045Y-40660858D01*
X124839141Y-40499954D01*
X124652734Y-40369432D01*
X124652732Y-40369431D01*
X124446497Y-40273261D01*
X124446488Y-40273258D01*
X124226697Y-40214366D01*
X124226693Y-40214365D01*
X124226692Y-40214365D01*
X124226691Y-40214364D01*
X124226686Y-40214364D01*
X124000002Y-40194532D01*
X123999998Y-40194532D01*
X123773313Y-40214364D01*
X123773302Y-40214366D01*
X123553511Y-40273258D01*
X123553502Y-40273261D01*
X123347267Y-40369431D01*
X123347265Y-40369432D01*
X123160858Y-40499954D01*
X122999954Y-40660858D01*
X122869432Y-40847265D01*
X122869431Y-40847267D01*
X122773261Y-41053502D01*
X122773258Y-41053511D01*
X122714366Y-41273302D01*
X122714364Y-41273313D01*
X122694532Y-41499998D01*
X122694532Y-41500001D01*
X120305468Y-41500001D01*
X120305468Y-41500000D01*
X120304925Y-41493798D01*
X120295554Y-41386687D01*
X120285635Y-41273308D01*
X120226739Y-41053504D01*
X120130568Y-40847266D01*
X120000047Y-40660861D01*
X120000045Y-40660858D01*
X119839141Y-40499954D01*
X119652734Y-40369432D01*
X119652732Y-40369431D01*
X119446497Y-40273261D01*
X119446488Y-40273258D01*
X119226697Y-40214366D01*
X119226693Y-40214365D01*
X119226692Y-40214365D01*
X119226691Y-40214364D01*
X119226686Y-40214364D01*
X119000002Y-40194532D01*
X118999998Y-40194532D01*
X118773313Y-40214364D01*
X118773302Y-40214366D01*
X118553511Y-40273258D01*
X118553502Y-40273261D01*
X118347267Y-40369431D01*
X118347265Y-40369432D01*
X118160858Y-40499954D01*
X117999954Y-40660858D01*
X117869432Y-40847265D01*
X117869431Y-40847267D01*
X117773261Y-41053502D01*
X117773258Y-41053511D01*
X117714366Y-41273302D01*
X117714364Y-41273313D01*
X117694532Y-41499998D01*
X117694532Y-41500001D01*
X117714364Y-41726686D01*
X117714366Y-41726697D01*
X117773258Y-41946488D01*
X117773261Y-41946497D01*
X117869431Y-42152732D01*
X117869432Y-42152734D01*
X117999954Y-42339141D01*
X118160858Y-42500045D01*
X118321623Y-42612613D01*
X118365248Y-42667189D01*
X118374500Y-42714188D01*
X118374500Y-42936015D01*
X118354815Y-43003054D01*
X118302011Y-43048809D01*
X118289508Y-43053719D01*
X118243067Y-43069108D01*
X118187715Y-43087450D01*
X118187704Y-43087455D01*
X118044612Y-43175716D01*
X118044608Y-43175719D01*
X117925719Y-43294608D01*
X117925716Y-43294612D01*
X117837455Y-43437704D01*
X117837450Y-43437715D01*
X117837380Y-43437927D01*
X117784564Y-43597315D01*
X117784564Y-43597316D01*
X117784563Y-43597316D01*
X117774500Y-43695818D01*
X117774500Y-44304181D01*
X117784563Y-44402683D01*
X117837450Y-44562284D01*
X117837452Y-44562289D01*
X117909204Y-44678616D01*
X117927644Y-44746008D01*
X117906722Y-44812672D01*
X117853080Y-44857442D01*
X117783749Y-44866103D01*
X117720741Y-44835907D01*
X117715984Y-44831394D01*
X115980675Y-43096085D01*
X112700803Y-39816212D01*
X112690980Y-39803950D01*
X112690759Y-39804134D01*
X112685786Y-39798123D01*
X112667159Y-39780631D01*
X112635364Y-39750773D01*
X112624919Y-39740328D01*
X112614475Y-39729883D01*
X112608986Y-39725625D01*
X112604561Y-39721847D01*
X112570582Y-39689938D01*
X112570580Y-39689936D01*
X112570577Y-39689935D01*
X112553029Y-39680288D01*
X112536763Y-39669604D01*
X112520933Y-39657325D01*
X112478168Y-39638818D01*
X112472922Y-39636248D01*
X112432093Y-39613803D01*
X112432092Y-39613802D01*
X112412693Y-39608822D01*
X112394281Y-39602518D01*
X112375898Y-39594562D01*
X112375892Y-39594560D01*
X112329874Y-39587272D01*
X112324152Y-39586087D01*
X112279021Y-39574500D01*
X112279019Y-39574500D01*
X112258984Y-39574500D01*
X112239586Y-39572973D01*
X112232162Y-39571797D01*
X112219805Y-39569840D01*
X112219804Y-39569840D01*
X112173416Y-39574225D01*
X112167578Y-39574500D01*
X109974499Y-39574500D01*
X109907460Y-39554815D01*
X109861705Y-39502011D01*
X109850499Y-39450500D01*
X109850499Y-39302129D01*
X109850498Y-39302123D01*
X109850497Y-39302116D01*
X109844091Y-39242517D01*
X109838388Y-39227227D01*
X109793797Y-39107671D01*
X109793793Y-39107664D01*
X109707547Y-38992455D01*
X109707544Y-38992452D01*
X109592335Y-38906206D01*
X109592328Y-38906202D01*
X109457482Y-38855908D01*
X109457483Y-38855908D01*
X109397883Y-38849501D01*
X109397881Y-38849500D01*
X109397873Y-38849500D01*
X109397864Y-38849500D01*
X107602129Y-38849500D01*
X107602123Y-38849501D01*
X107542516Y-38855908D01*
X107407671Y-38906202D01*
X107407664Y-38906206D01*
X107292455Y-38992452D01*
X107292452Y-38992455D01*
X107206206Y-39107664D01*
X107206202Y-39107671D01*
X107155908Y-39242517D01*
X107149501Y-39302116D01*
X107149501Y-39302123D01*
X107149500Y-39302135D01*
X107149500Y-41097870D01*
X107149501Y-41097876D01*
X107155908Y-41157483D01*
X107206202Y-41292328D01*
X107206206Y-41292335D01*
X107292452Y-41407544D01*
X107292455Y-41407547D01*
X107407664Y-41493793D01*
X107407671Y-41493797D01*
X107424305Y-41500001D01*
X107539598Y-41543002D01*
X107595531Y-41584873D01*
X107619949Y-41650337D01*
X107605098Y-41718610D01*
X107583947Y-41746865D01*
X107461886Y-41868926D01*
X107326400Y-42062420D01*
X107326399Y-42062422D01*
X107226570Y-42276507D01*
X107226567Y-42276513D01*
X107169364Y-42489999D01*
X107169364Y-42490000D01*
X107886653Y-42490000D01*
X107953692Y-42509685D01*
X107999447Y-42562489D01*
X108009391Y-42631647D01*
X108005631Y-42648933D01*
X108000000Y-42668111D01*
X108000000Y-42811888D01*
X108005631Y-42831067D01*
X108005630Y-42900936D01*
X107967855Y-42959714D01*
X107904299Y-42988738D01*
X107886653Y-42990000D01*
X107169364Y-42990000D01*
X107226567Y-43203486D01*
X107226570Y-43203492D01*
X107326399Y-43417578D01*
X107461894Y-43611082D01*
X107628917Y-43778105D01*
X107814595Y-43908119D01*
X107858219Y-43962696D01*
X107865412Y-44032195D01*
X107833890Y-44094549D01*
X107814595Y-44111269D01*
X107628594Y-44241508D01*
X107461505Y-44408597D01*
X107325965Y-44602169D01*
X107325964Y-44602171D01*
X107226098Y-44816335D01*
X107226094Y-44816344D01*
X107164938Y-45044586D01*
X107164936Y-45044596D01*
X107144341Y-45279999D01*
X107144341Y-45280000D01*
X106500500Y-45280000D01*
X106500500Y-35035436D01*
X106520185Y-34968397D01*
X106572989Y-34922642D01*
X106642147Y-34912698D01*
X106705703Y-34941723D01*
X106731887Y-34973436D01*
X106920621Y-35300335D01*
X106920627Y-35300343D01*
X107155476Y-35630143D01*
X107155487Y-35630156D01*
X107322986Y-35823458D01*
X108715946Y-34430499D01*
X108777269Y-34397014D01*
X108846961Y-34401998D01*
X108899814Y-34439923D01*
X108912166Y-34455104D01*
X108925031Y-34470918D01*
X108975430Y-34517987D01*
X109067876Y-34604327D01*
X109103435Y-34664471D01*
X109100832Y-34734292D01*
X109070920Y-34782631D01*
X107674929Y-36178623D01*
X107674929Y-36178624D01*
X107713673Y-36215567D01*
X107713685Y-36215578D01*
X108031968Y-36465877D01*
X108372594Y-36684782D01*
X108732485Y-36870319D01*
X109108383Y-37020806D01*
X109108395Y-37020810D01*
X109496882Y-37134880D01*
X109496899Y-37134884D01*
X109894460Y-37211508D01*
X109894472Y-37211510D01*
X110297554Y-37250000D01*
X110702446Y-37250000D01*
X111105527Y-37211510D01*
X111105539Y-37211508D01*
X111503100Y-37134884D01*
X111503117Y-37134880D01*
X111891604Y-37020810D01*
X111891616Y-37020806D01*
X112267507Y-36870322D01*
X112267511Y-36870320D01*
X112627406Y-36684782D01*
X112968031Y-36465877D01*
X113286304Y-36215585D01*
X113286323Y-36215568D01*
X113325070Y-36178623D01*
X111929078Y-34782631D01*
X111895593Y-34721308D01*
X111900577Y-34651616D01*
X111932121Y-34604328D01*
X112074969Y-34470918D01*
X112100183Y-34439925D01*
X112157758Y-34400345D01*
X112227594Y-34398175D01*
X112284052Y-34430499D01*
X113677012Y-35823459D01*
X113677013Y-35823458D01*
X113844503Y-35630168D01*
X113844523Y-35630143D01*
X114079372Y-35300343D01*
X114079378Y-35300335D01*
X114281831Y-34949675D01*
X114450033Y-34581365D01*
X114450043Y-34581340D01*
X114582465Y-34198733D01*
X114582468Y-34198722D01*
X114677928Y-33805231D01*
X114735552Y-33404450D01*
X114754818Y-32999999D01*
X114735552Y-32595549D01*
X114707130Y-32397870D01*
X117529500Y-32397870D01*
X117529501Y-32397876D01*
X117535908Y-32457483D01*
X117586202Y-32592328D01*
X117586206Y-32592335D01*
X117672452Y-32707544D01*
X117672455Y-32707547D01*
X117787664Y-32793793D01*
X117787671Y-32793797D01*
X117832618Y-32810561D01*
X117922517Y-32844091D01*
X117982127Y-32850500D01*
X118130500Y-32850499D01*
X118197539Y-32870183D01*
X118243294Y-32922987D01*
X118254500Y-32974499D01*
X118254500Y-35297255D01*
X118252775Y-35312872D01*
X118253061Y-35312899D01*
X118252326Y-35320666D01*
X118253764Y-35366415D01*
X118236194Y-35434039D01*
X118200949Y-35471882D01*
X118160868Y-35499947D01*
X118160865Y-35499949D01*
X117999951Y-35660862D01*
X117869432Y-35847265D01*
X117869431Y-35847267D01*
X117773261Y-36053502D01*
X117773258Y-36053511D01*
X117714366Y-36273302D01*
X117714364Y-36273313D01*
X117694532Y-36499998D01*
X117694532Y-36500001D01*
X117714364Y-36726686D01*
X117714366Y-36726697D01*
X117773258Y-36946488D01*
X117773261Y-36946497D01*
X117869431Y-37152732D01*
X117869432Y-37152734D01*
X117999954Y-37339141D01*
X118160858Y-37500045D01*
X118160861Y-37500047D01*
X118347266Y-37630568D01*
X118553504Y-37726739D01*
X118773308Y-37785635D01*
X118935230Y-37799801D01*
X118999998Y-37805468D01*
X119000000Y-37805468D01*
X119000002Y-37805468D01*
X119056672Y-37800509D01*
X119226692Y-37785635D01*
X119446496Y-37726739D01*
X119652734Y-37630568D01*
X119839139Y-37500047D01*
X120000047Y-37339139D01*
X120130568Y-37152734D01*
X120226739Y-36946496D01*
X120285635Y-36726692D01*
X120304085Y-36515806D01*
X120305468Y-36500001D01*
X120305468Y-36499998D01*
X120299298Y-36429476D01*
X120285635Y-36273308D01*
X120229065Y-36062183D01*
X120226741Y-36053511D01*
X120226738Y-36053502D01*
X120170399Y-35932684D01*
X120130568Y-35847266D01*
X120000047Y-35660861D01*
X120000045Y-35660858D01*
X119839141Y-35499954D01*
X119652734Y-35369432D01*
X119649052Y-35367306D01*
X119600836Y-35316739D01*
X119595766Y-35305581D01*
X119593506Y-35299874D01*
X119591622Y-35294372D01*
X119578618Y-35249610D01*
X119568422Y-35232370D01*
X119559861Y-35214894D01*
X119552487Y-35196270D01*
X119529180Y-35164190D01*
X119505701Y-35098384D01*
X119505499Y-35091306D01*
X119505500Y-32974499D01*
X119525185Y-32907459D01*
X119577989Y-32861705D01*
X119629500Y-32850499D01*
X119777871Y-32850499D01*
X119777872Y-32850499D01*
X119837483Y-32844091D01*
X119972331Y-32793796D01*
X120087546Y-32707546D01*
X120173796Y-32592331D01*
X120223002Y-32460401D01*
X120264872Y-32404468D01*
X120330337Y-32380050D01*
X120398610Y-32394901D01*
X120426865Y-32416053D01*
X120548917Y-32538105D01*
X120742421Y-32673600D01*
X120956507Y-32773429D01*
X120956516Y-32773433D01*
X121170000Y-32830634D01*
X121170000Y-32112301D01*
X121189685Y-32045262D01*
X121242489Y-31999507D01*
X121311647Y-31989563D01*
X121384237Y-32000000D01*
X121384238Y-32000000D01*
X121455762Y-32000000D01*
X121455763Y-32000000D01*
X121528353Y-31989563D01*
X121597512Y-31999507D01*
X121650315Y-32045262D01*
X121670000Y-32112301D01*
X121669999Y-32830633D01*
X121883483Y-32773433D01*
X121883492Y-32773429D01*
X122097578Y-32673600D01*
X122291082Y-32538105D01*
X122458105Y-32371082D01*
X122588119Y-32185405D01*
X122642696Y-32141781D01*
X122712195Y-32134588D01*
X122774549Y-32166110D01*
X122791269Y-32185405D01*
X122921505Y-32371401D01*
X123088599Y-32538495D01*
X123281624Y-32673653D01*
X123325248Y-32728228D01*
X123334500Y-32775226D01*
X123334500Y-35313819D01*
X123314815Y-35380858D01*
X123281624Y-35415394D01*
X123160856Y-35499956D01*
X122999954Y-35660858D01*
X122869432Y-35847265D01*
X122869431Y-35847267D01*
X122773261Y-36053502D01*
X122773258Y-36053511D01*
X122714366Y-36273302D01*
X122714364Y-36273313D01*
X122694532Y-36499998D01*
X122694532Y-36500001D01*
X122714364Y-36726686D01*
X122714366Y-36726697D01*
X122773258Y-36946488D01*
X122773261Y-36946497D01*
X122869431Y-37152732D01*
X122869432Y-37152734D01*
X122999954Y-37339141D01*
X123160858Y-37500045D01*
X123160861Y-37500047D01*
X123347266Y-37630568D01*
X123553504Y-37726739D01*
X123773308Y-37785635D01*
X123935230Y-37799801D01*
X123999998Y-37805468D01*
X124000000Y-37805468D01*
X124000002Y-37805468D01*
X124056673Y-37800509D01*
X124226692Y-37785635D01*
X124446496Y-37726739D01*
X124652734Y-37630568D01*
X124839139Y-37500047D01*
X125000047Y-37339139D01*
X125062462Y-37250000D01*
X131950001Y-37250000D01*
X131950001Y-37699986D01*
X131960494Y-37802697D01*
X132015641Y-37969119D01*
X132015643Y-37969124D01*
X132107684Y-38118345D01*
X132231654Y-38242315D01*
X132380875Y-38334356D01*
X132380880Y-38334358D01*
X132547302Y-38389505D01*
X132547309Y-38389506D01*
X132650019Y-38399999D01*
X132774999Y-38399999D01*
X132774999Y-38399998D01*
X132775000Y-37250000D01*
X133274999Y-37250000D01*
X133274999Y-38399998D01*
X133275000Y-38399999D01*
X133399972Y-38399999D01*
X133399986Y-38399998D01*
X133502697Y-38389505D01*
X133669119Y-38334358D01*
X133669124Y-38334356D01*
X133818345Y-38242315D01*
X133942315Y-38118345D01*
X134034356Y-37969124D01*
X134034358Y-37969119D01*
X134089505Y-37802697D01*
X134089506Y-37802690D01*
X134099999Y-37699986D01*
X134100000Y-37699973D01*
X134100000Y-37250000D01*
X133274999Y-37250000D01*
X132775000Y-37250000D01*
X131950001Y-37250000D01*
X125062462Y-37250000D01*
X125130568Y-37152734D01*
X125226739Y-36946496D01*
X125279390Y-36750000D01*
X131950000Y-36750000D01*
X132775000Y-36750000D01*
X132775000Y-35600000D01*
X133274999Y-35600000D01*
X133274999Y-36749999D01*
X133275001Y-36750000D01*
X134099998Y-36750000D01*
X134099999Y-36300028D01*
X134099998Y-36300013D01*
X134089505Y-36197302D01*
X134034358Y-36030880D01*
X134034356Y-36030875D01*
X133942315Y-35881654D01*
X133818345Y-35757684D01*
X133669124Y-35665643D01*
X133669119Y-35665641D01*
X133502697Y-35610494D01*
X133502690Y-35610493D01*
X133399986Y-35600000D01*
X133274999Y-35600000D01*
X132775000Y-35600000D01*
X132650027Y-35600000D01*
X132650012Y-35600001D01*
X132547302Y-35610494D01*
X132380880Y-35665641D01*
X132380875Y-35665643D01*
X132231654Y-35757684D01*
X132107684Y-35881654D01*
X132015643Y-36030875D01*
X132015641Y-36030880D01*
X131960494Y-36197302D01*
X131960493Y-36197309D01*
X131950000Y-36300013D01*
X131950000Y-36750000D01*
X125279390Y-36750000D01*
X125285635Y-36726692D01*
X125304085Y-36515806D01*
X125305468Y-36500001D01*
X125305468Y-36499998D01*
X125299298Y-36429476D01*
X125285635Y-36273308D01*
X125229065Y-36062183D01*
X125226741Y-36053511D01*
X125226738Y-36053502D01*
X125170399Y-35932684D01*
X125130568Y-35847266D01*
X125000047Y-35660861D01*
X125000045Y-35660858D01*
X124839141Y-35499954D01*
X124652734Y-35369432D01*
X124649052Y-35367306D01*
X124600836Y-35316739D01*
X124595759Y-35305563D01*
X124593502Y-35299864D01*
X124591613Y-35294342D01*
X124590409Y-35290193D01*
X124585500Y-35255648D01*
X124585500Y-32775226D01*
X124605185Y-32708187D01*
X124638374Y-32673654D01*
X124831401Y-32538495D01*
X124998495Y-32371401D01*
X125128730Y-32185405D01*
X125183307Y-32141781D01*
X125252805Y-32134587D01*
X125315160Y-32166110D01*
X125331879Y-32185405D01*
X125461890Y-32371078D01*
X125628917Y-32538105D01*
X125822421Y-32673600D01*
X126036507Y-32773429D01*
X126036516Y-32773433D01*
X126250000Y-32830634D01*
X126250000Y-32112301D01*
X126269685Y-32045262D01*
X126322489Y-31999507D01*
X126391647Y-31989563D01*
X126464237Y-32000000D01*
X126464238Y-32000000D01*
X126535762Y-32000000D01*
X126535763Y-32000000D01*
X126608353Y-31989563D01*
X126677512Y-31999507D01*
X126730315Y-32045262D01*
X126750000Y-32112301D01*
X126749999Y-32830633D01*
X126963483Y-32773433D01*
X126963492Y-32773429D01*
X127177578Y-32673600D01*
X127371082Y-32538105D01*
X127538105Y-32371082D01*
X127673600Y-32177578D01*
X127773429Y-31963492D01*
X127773432Y-31963486D01*
X127830636Y-31750000D01*
X127113347Y-31750000D01*
X127046308Y-31730315D01*
X127000553Y-31677511D01*
X126990609Y-31608353D01*
X126994369Y-31591067D01*
X127000000Y-31571888D01*
X127000000Y-31428111D01*
X126994369Y-31408933D01*
X126994370Y-31339064D01*
X127032145Y-31280286D01*
X127095701Y-31251262D01*
X127113347Y-31250000D01*
X127830636Y-31250000D01*
X127830635Y-31249999D01*
X127773432Y-31036513D01*
X127773429Y-31036507D01*
X127673600Y-30822422D01*
X127673599Y-30822420D01*
X127538113Y-30628926D01*
X127538108Y-30628920D01*
X127371082Y-30461894D01*
X127177578Y-30326399D01*
X126963492Y-30226570D01*
X126963486Y-30226567D01*
X126750000Y-30169364D01*
X126750000Y-30887698D01*
X126730315Y-30954737D01*
X126677511Y-31000492D01*
X126608355Y-31010436D01*
X126535766Y-31000000D01*
X126535763Y-31000000D01*
X126464237Y-31000000D01*
X126464233Y-31000000D01*
X126391645Y-31010436D01*
X126322487Y-31000492D01*
X126269684Y-30954736D01*
X126250000Y-30887698D01*
X126250000Y-30169364D01*
X126249999Y-30169364D01*
X126036513Y-30226567D01*
X126036507Y-30226570D01*
X125822422Y-30326399D01*
X125822420Y-30326400D01*
X125628926Y-30461886D01*
X125628920Y-30461891D01*
X125461891Y-30628920D01*
X125461890Y-30628922D01*
X125331880Y-30814595D01*
X125277303Y-30858219D01*
X125207804Y-30865412D01*
X125145450Y-30833890D01*
X125128730Y-30814594D01*
X124998494Y-30628597D01*
X124831402Y-30461506D01*
X124831395Y-30461501D01*
X124637834Y-30325967D01*
X124637830Y-30325965D01*
X124637828Y-30325964D01*
X124423663Y-30226097D01*
X124423659Y-30226096D01*
X124423655Y-30226094D01*
X124195413Y-30164938D01*
X124195403Y-30164936D01*
X123960001Y-30144341D01*
X123959999Y-30144341D01*
X123724596Y-30164936D01*
X123724586Y-30164938D01*
X123496344Y-30226094D01*
X123496335Y-30226098D01*
X123282171Y-30325964D01*
X123282169Y-30325965D01*
X123088597Y-30461505D01*
X122921508Y-30628594D01*
X122791269Y-30814595D01*
X122736692Y-30858219D01*
X122667193Y-30865412D01*
X122604839Y-30833890D01*
X122588119Y-30814594D01*
X122458113Y-30628926D01*
X122458108Y-30628920D01*
X122291082Y-30461894D01*
X122097578Y-30326399D01*
X121883492Y-30226570D01*
X121883486Y-30226567D01*
X121670000Y-30169364D01*
X121670000Y-30887698D01*
X121650315Y-30954737D01*
X121597511Y-31000492D01*
X121528355Y-31010436D01*
X121455766Y-31000000D01*
X121455763Y-31000000D01*
X121384237Y-31000000D01*
X121384233Y-31000000D01*
X121311645Y-31010436D01*
X121242487Y-31000492D01*
X121189684Y-30954736D01*
X121170000Y-30887698D01*
X121170000Y-30169364D01*
X121169999Y-30169364D01*
X120956513Y-30226567D01*
X120956507Y-30226570D01*
X120742422Y-30326399D01*
X120742420Y-30326400D01*
X120548926Y-30461886D01*
X120426865Y-30583947D01*
X120365542Y-30617431D01*
X120295850Y-30612447D01*
X120239917Y-30570575D01*
X120223002Y-30539598D01*
X120173797Y-30407671D01*
X120173793Y-30407664D01*
X120087547Y-30292455D01*
X120087544Y-30292452D01*
X119972335Y-30206206D01*
X119972328Y-30206202D01*
X119837482Y-30155908D01*
X119837483Y-30155908D01*
X119777883Y-30149501D01*
X119777881Y-30149500D01*
X119777873Y-30149500D01*
X119777864Y-30149500D01*
X117982129Y-30149500D01*
X117982123Y-30149501D01*
X117922516Y-30155908D01*
X117787671Y-30206202D01*
X117787664Y-30206206D01*
X117672455Y-30292452D01*
X117672452Y-30292455D01*
X117586206Y-30407664D01*
X117586202Y-30407671D01*
X117535908Y-30542517D01*
X117529501Y-30602116D01*
X117529500Y-30602135D01*
X117529500Y-32397870D01*
X114707130Y-32397870D01*
X114677928Y-32194768D01*
X114582468Y-31801277D01*
X114582465Y-31801266D01*
X114450043Y-31418659D01*
X114450033Y-31418634D01*
X114281831Y-31050324D01*
X114079378Y-30699664D01*
X114079372Y-30699656D01*
X113844523Y-30369856D01*
X113844512Y-30369843D01*
X113677012Y-30176540D01*
X112284052Y-31569499D01*
X112222729Y-31602984D01*
X112153037Y-31598000D01*
X112100184Y-31560074D01*
X112074972Y-31529086D01*
X112074973Y-31529086D01*
X112074969Y-31529082D01*
X111966856Y-31428111D01*
X111932122Y-31395671D01*
X111896563Y-31335527D01*
X111899166Y-31265706D01*
X111929078Y-31217367D01*
X113325069Y-29821375D01*
X113325069Y-29821374D01*
X113286326Y-29784432D01*
X113286314Y-29784421D01*
X112968031Y-29534122D01*
X112627406Y-29315217D01*
X112471255Y-29234716D01*
X112420688Y-29186500D01*
X112404215Y-29118600D01*
X112427067Y-29052573D01*
X112481989Y-29009382D01*
X112528075Y-29000500D01*
X175971925Y-29000500D01*
X176038964Y-29020185D01*
G37*
G04 #@! TD.AperFunction*
G04 #@! TA.AperFunction,Conductor*
G36*
X179784052Y-59930499D02*
G01*
X181177012Y-61323459D01*
X181177013Y-61323458D01*
X181344503Y-61130168D01*
X181344523Y-61130143D01*
X181579372Y-60800343D01*
X181579378Y-60800335D01*
X181768113Y-60473436D01*
X181818680Y-60425220D01*
X181887287Y-60411997D01*
X181952152Y-60437965D01*
X181992680Y-60494879D01*
X181999500Y-60535436D01*
X181999500Y-62375500D01*
X181979815Y-62442539D01*
X181927011Y-62488294D01*
X181875500Y-62499500D01*
X180028075Y-62499500D01*
X179961036Y-62479815D01*
X179915281Y-62427011D01*
X179905337Y-62357853D01*
X179934362Y-62294297D01*
X179971255Y-62265284D01*
X180127406Y-62184782D01*
X180468031Y-61965877D01*
X180786304Y-61715585D01*
X180786323Y-61715568D01*
X180825070Y-61678623D01*
X179429078Y-60282631D01*
X179395593Y-60221308D01*
X179400577Y-60151616D01*
X179432121Y-60104328D01*
X179574969Y-59970918D01*
X179600183Y-59939925D01*
X179657758Y-59900345D01*
X179727594Y-59898175D01*
X179784052Y-59930499D01*
G37*
G04 #@! TD.AperFunction*
G04 #@! TA.AperFunction,Conductor*
G36*
X181942539Y-29020185D02*
G01*
X181988294Y-29072989D01*
X181999500Y-29124500D01*
X181999500Y-30964563D01*
X181979815Y-31031602D01*
X181927011Y-31077357D01*
X181857853Y-31087301D01*
X181794297Y-31058276D01*
X181768113Y-31026563D01*
X181579378Y-30699664D01*
X181579372Y-30699656D01*
X181344523Y-30369856D01*
X181344512Y-30369843D01*
X181177012Y-30176540D01*
X179784052Y-31569499D01*
X179722729Y-31602984D01*
X179653037Y-31598000D01*
X179600184Y-31560074D01*
X179574972Y-31529086D01*
X179574973Y-31529086D01*
X179574969Y-31529082D01*
X179466856Y-31428111D01*
X179432122Y-31395671D01*
X179396563Y-31335527D01*
X179399166Y-31265706D01*
X179429078Y-31217367D01*
X180825069Y-29821375D01*
X180825069Y-29821374D01*
X180786326Y-29784432D01*
X180786314Y-29784421D01*
X180468031Y-29534122D01*
X180127406Y-29315217D01*
X179971255Y-29234716D01*
X179920688Y-29186500D01*
X179904215Y-29118600D01*
X179927067Y-29052573D01*
X179981989Y-29009382D01*
X180028075Y-29000500D01*
X181875500Y-29000500D01*
X181942539Y-29020185D01*
G37*
G04 #@! TD.AperFunction*
G04 #@! TA.AperFunction,Conductor*
G36*
X108538964Y-29020185D02*
G01*
X108584719Y-29072989D01*
X108594663Y-29142147D01*
X108565638Y-29205703D01*
X108528745Y-29234716D01*
X108372594Y-29315217D01*
X108031974Y-29534119D01*
X107713681Y-29784426D01*
X107674928Y-29821375D01*
X109070921Y-31217368D01*
X109104406Y-31278691D01*
X109099422Y-31348383D01*
X109067877Y-31395672D01*
X108925026Y-31529086D01*
X108899815Y-31560075D01*
X108842237Y-31599655D01*
X108772401Y-31601823D01*
X108715947Y-31569500D01*
X107322985Y-30176539D01*
X107155485Y-30369845D01*
X106920627Y-30699656D01*
X106920621Y-30699664D01*
X106731887Y-31026563D01*
X106681320Y-31074779D01*
X106612713Y-31088002D01*
X106547848Y-31062034D01*
X106507320Y-31005119D01*
X106500500Y-30964563D01*
X106500500Y-29124500D01*
X106520185Y-29057461D01*
X106572989Y-29011706D01*
X106624500Y-29000500D01*
X108471925Y-29000500D01*
X108538964Y-29020185D01*
G37*
G04 #@! TD.AperFunction*
G04 #@! TD*
M02*
