G04 #@! TF.GenerationSoftware,KiCad,Pcbnew,7.0.7*
G04 #@! TF.CreationDate,2023-09-05T10:46:26+02:00*
G04 #@! TF.ProjectId,lt15t3,6c743135-7433-42e6-9b69-6361645f7063,rev?*
G04 #@! TF.SameCoordinates,Original*
G04 #@! TF.FileFunction,Legend,Top*
G04 #@! TF.FilePolarity,Positive*
%FSLAX46Y46*%
G04 Gerber Fmt 4.6, Leading zero omitted, Abs format (unit mm)*
G04 Created by KiCad (PCBNEW 7.0.7) date 2023-09-05 10:46:26*
%MOMM*%
%LPD*%
G01*
G04 APERTURE LIST*
%ADD10C,0.125000*%
%ADD11C,0.150000*%
%ADD12C,0.120000*%
G04 APERTURE END LIST*
D10*
X140201283Y-58631833D02*
X140582236Y-58631833D01*
X140391759Y-58822309D02*
X140391759Y-58441357D01*
X140820331Y-58631833D02*
X141201284Y-58631833D01*
X141701284Y-58822309D02*
X141415570Y-58822309D01*
X141558427Y-58822309D02*
X141558427Y-58322309D01*
X141558427Y-58322309D02*
X141510808Y-58393738D01*
X141510808Y-58393738D02*
X141463189Y-58441357D01*
X141463189Y-58441357D02*
X141415570Y-58465166D01*
X142153664Y-58322309D02*
X141915569Y-58322309D01*
X141915569Y-58322309D02*
X141891760Y-58560404D01*
X141891760Y-58560404D02*
X141915569Y-58536595D01*
X141915569Y-58536595D02*
X141963188Y-58512785D01*
X141963188Y-58512785D02*
X142082236Y-58512785D01*
X142082236Y-58512785D02*
X142129855Y-58536595D01*
X142129855Y-58536595D02*
X142153664Y-58560404D01*
X142153664Y-58560404D02*
X142177474Y-58608023D01*
X142177474Y-58608023D02*
X142177474Y-58727071D01*
X142177474Y-58727071D02*
X142153664Y-58774690D01*
X142153664Y-58774690D02*
X142129855Y-58798500D01*
X142129855Y-58798500D02*
X142082236Y-58822309D01*
X142082236Y-58822309D02*
X141963188Y-58822309D01*
X141963188Y-58822309D02*
X141915569Y-58798500D01*
X141915569Y-58798500D02*
X141891760Y-58774690D01*
X142320331Y-58322309D02*
X142486997Y-58822309D01*
X142486997Y-58822309D02*
X142653664Y-58322309D01*
X143129854Y-58488976D02*
X143320330Y-58488976D01*
X143201282Y-58322309D02*
X143201282Y-58750880D01*
X143201282Y-58750880D02*
X143225092Y-58798500D01*
X143225092Y-58798500D02*
X143272711Y-58822309D01*
X143272711Y-58822309D02*
X143320330Y-58822309D01*
X143558425Y-58822309D02*
X143510806Y-58798500D01*
X143510806Y-58798500D02*
X143486996Y-58774690D01*
X143486996Y-58774690D02*
X143463187Y-58727071D01*
X143463187Y-58727071D02*
X143463187Y-58584214D01*
X143463187Y-58584214D02*
X143486996Y-58536595D01*
X143486996Y-58536595D02*
X143510806Y-58512785D01*
X143510806Y-58512785D02*
X143558425Y-58488976D01*
X143558425Y-58488976D02*
X143629853Y-58488976D01*
X143629853Y-58488976D02*
X143677472Y-58512785D01*
X143677472Y-58512785D02*
X143701282Y-58536595D01*
X143701282Y-58536595D02*
X143725091Y-58584214D01*
X143725091Y-58584214D02*
X143725091Y-58727071D01*
X143725091Y-58727071D02*
X143701282Y-58774690D01*
X143701282Y-58774690D02*
X143677472Y-58798500D01*
X143677472Y-58798500D02*
X143629853Y-58822309D01*
X143629853Y-58822309D02*
X143558425Y-58822309D01*
X144272710Y-58322309D02*
X144582234Y-58322309D01*
X144582234Y-58322309D02*
X144415567Y-58512785D01*
X144415567Y-58512785D02*
X144486996Y-58512785D01*
X144486996Y-58512785D02*
X144534615Y-58536595D01*
X144534615Y-58536595D02*
X144558424Y-58560404D01*
X144558424Y-58560404D02*
X144582234Y-58608023D01*
X144582234Y-58608023D02*
X144582234Y-58727071D01*
X144582234Y-58727071D02*
X144558424Y-58774690D01*
X144558424Y-58774690D02*
X144534615Y-58798500D01*
X144534615Y-58798500D02*
X144486996Y-58822309D01*
X144486996Y-58822309D02*
X144344139Y-58822309D01*
X144344139Y-58822309D02*
X144296520Y-58798500D01*
X144296520Y-58798500D02*
X144272710Y-58774690D01*
X144796519Y-58774690D02*
X144820329Y-58798500D01*
X144820329Y-58798500D02*
X144796519Y-58822309D01*
X144796519Y-58822309D02*
X144772710Y-58798500D01*
X144772710Y-58798500D02*
X144796519Y-58774690D01*
X144796519Y-58774690D02*
X144796519Y-58822309D01*
X144986995Y-58322309D02*
X145296519Y-58322309D01*
X145296519Y-58322309D02*
X145129852Y-58512785D01*
X145129852Y-58512785D02*
X145201281Y-58512785D01*
X145201281Y-58512785D02*
X145248900Y-58536595D01*
X145248900Y-58536595D02*
X145272709Y-58560404D01*
X145272709Y-58560404D02*
X145296519Y-58608023D01*
X145296519Y-58608023D02*
X145296519Y-58727071D01*
X145296519Y-58727071D02*
X145272709Y-58774690D01*
X145272709Y-58774690D02*
X145248900Y-58798500D01*
X145248900Y-58798500D02*
X145201281Y-58822309D01*
X145201281Y-58822309D02*
X145058424Y-58822309D01*
X145058424Y-58822309D02*
X145010805Y-58798500D01*
X145010805Y-58798500D02*
X144986995Y-58774690D01*
X145439376Y-58322309D02*
X145606042Y-58822309D01*
X145606042Y-58822309D02*
X145772709Y-58322309D01*
X146391756Y-58822309D02*
X146344137Y-58798500D01*
X146344137Y-58798500D02*
X146320327Y-58750880D01*
X146320327Y-58750880D02*
X146320327Y-58322309D01*
X146772708Y-58798500D02*
X146725089Y-58822309D01*
X146725089Y-58822309D02*
X146629851Y-58822309D01*
X146629851Y-58822309D02*
X146582232Y-58798500D01*
X146582232Y-58798500D02*
X146558423Y-58750880D01*
X146558423Y-58750880D02*
X146558423Y-58560404D01*
X146558423Y-58560404D02*
X146582232Y-58512785D01*
X146582232Y-58512785D02*
X146629851Y-58488976D01*
X146629851Y-58488976D02*
X146725089Y-58488976D01*
X146725089Y-58488976D02*
X146772708Y-58512785D01*
X146772708Y-58512785D02*
X146796518Y-58560404D01*
X146796518Y-58560404D02*
X146796518Y-58608023D01*
X146796518Y-58608023D02*
X146558423Y-58655642D01*
X146963184Y-58488976D02*
X147082232Y-58822309D01*
X147082232Y-58822309D02*
X147201279Y-58488976D01*
X147582231Y-58798500D02*
X147534612Y-58822309D01*
X147534612Y-58822309D02*
X147439374Y-58822309D01*
X147439374Y-58822309D02*
X147391755Y-58798500D01*
X147391755Y-58798500D02*
X147367946Y-58750880D01*
X147367946Y-58750880D02*
X147367946Y-58560404D01*
X147367946Y-58560404D02*
X147391755Y-58512785D01*
X147391755Y-58512785D02*
X147439374Y-58488976D01*
X147439374Y-58488976D02*
X147534612Y-58488976D01*
X147534612Y-58488976D02*
X147582231Y-58512785D01*
X147582231Y-58512785D02*
X147606041Y-58560404D01*
X147606041Y-58560404D02*
X147606041Y-58608023D01*
X147606041Y-58608023D02*
X147367946Y-58655642D01*
X147891755Y-58822309D02*
X147844136Y-58798500D01*
X147844136Y-58798500D02*
X147820326Y-58750880D01*
X147820326Y-58750880D02*
X147820326Y-58322309D01*
X148439374Y-58798500D02*
X148486993Y-58822309D01*
X148486993Y-58822309D02*
X148582231Y-58822309D01*
X148582231Y-58822309D02*
X148629850Y-58798500D01*
X148629850Y-58798500D02*
X148653659Y-58750880D01*
X148653659Y-58750880D02*
X148653659Y-58727071D01*
X148653659Y-58727071D02*
X148629850Y-58679452D01*
X148629850Y-58679452D02*
X148582231Y-58655642D01*
X148582231Y-58655642D02*
X148510802Y-58655642D01*
X148510802Y-58655642D02*
X148463183Y-58631833D01*
X148463183Y-58631833D02*
X148439374Y-58584214D01*
X148439374Y-58584214D02*
X148439374Y-58560404D01*
X148439374Y-58560404D02*
X148463183Y-58512785D01*
X148463183Y-58512785D02*
X148510802Y-58488976D01*
X148510802Y-58488976D02*
X148582231Y-58488976D01*
X148582231Y-58488976D02*
X148629850Y-58512785D01*
X148867945Y-58822309D02*
X148867945Y-58322309D01*
X149082231Y-58822309D02*
X149082231Y-58560404D01*
X149082231Y-58560404D02*
X149058421Y-58512785D01*
X149058421Y-58512785D02*
X149010802Y-58488976D01*
X149010802Y-58488976D02*
X148939374Y-58488976D01*
X148939374Y-58488976D02*
X148891755Y-58512785D01*
X148891755Y-58512785D02*
X148867945Y-58536595D01*
X149320326Y-58822309D02*
X149320326Y-58488976D01*
X149320326Y-58322309D02*
X149296517Y-58346119D01*
X149296517Y-58346119D02*
X149320326Y-58369928D01*
X149320326Y-58369928D02*
X149344136Y-58346119D01*
X149344136Y-58346119D02*
X149320326Y-58322309D01*
X149320326Y-58322309D02*
X149320326Y-58369928D01*
X149486993Y-58488976D02*
X149677469Y-58488976D01*
X149558421Y-58822309D02*
X149558421Y-58393738D01*
X149558421Y-58393738D02*
X149582231Y-58346119D01*
X149582231Y-58346119D02*
X149629850Y-58322309D01*
X149629850Y-58322309D02*
X149677469Y-58322309D01*
X149772707Y-58488976D02*
X149963183Y-58488976D01*
X149844135Y-58322309D02*
X149844135Y-58750880D01*
X149844135Y-58750880D02*
X149867945Y-58798500D01*
X149867945Y-58798500D02*
X149915564Y-58822309D01*
X149915564Y-58822309D02*
X149963183Y-58822309D01*
X150320325Y-58798500D02*
X150272706Y-58822309D01*
X150272706Y-58822309D02*
X150177468Y-58822309D01*
X150177468Y-58822309D02*
X150129849Y-58798500D01*
X150129849Y-58798500D02*
X150106040Y-58750880D01*
X150106040Y-58750880D02*
X150106040Y-58560404D01*
X150106040Y-58560404D02*
X150129849Y-58512785D01*
X150129849Y-58512785D02*
X150177468Y-58488976D01*
X150177468Y-58488976D02*
X150272706Y-58488976D01*
X150272706Y-58488976D02*
X150320325Y-58512785D01*
X150320325Y-58512785D02*
X150344135Y-58560404D01*
X150344135Y-58560404D02*
X150344135Y-58608023D01*
X150344135Y-58608023D02*
X150106040Y-58655642D01*
X150558420Y-58822309D02*
X150558420Y-58488976D01*
X150558420Y-58584214D02*
X150582230Y-58536595D01*
X150582230Y-58536595D02*
X150606039Y-58512785D01*
X150606039Y-58512785D02*
X150653658Y-58488976D01*
X150653658Y-58488976D02*
X150701277Y-58488976D01*
X150891754Y-58798500D02*
X150891754Y-58822309D01*
X150891754Y-58822309D02*
X150867944Y-58869928D01*
X150867944Y-58869928D02*
X150844135Y-58893738D01*
X151748896Y-58822309D02*
X151463182Y-58822309D01*
X151606039Y-58822309D02*
X151606039Y-58322309D01*
X151606039Y-58322309D02*
X151558420Y-58393738D01*
X151558420Y-58393738D02*
X151510801Y-58441357D01*
X151510801Y-58441357D02*
X151463182Y-58465166D01*
X152034610Y-58536595D02*
X151986991Y-58512785D01*
X151986991Y-58512785D02*
X151963181Y-58488976D01*
X151963181Y-58488976D02*
X151939372Y-58441357D01*
X151939372Y-58441357D02*
X151939372Y-58417547D01*
X151939372Y-58417547D02*
X151963181Y-58369928D01*
X151963181Y-58369928D02*
X151986991Y-58346119D01*
X151986991Y-58346119D02*
X152034610Y-58322309D01*
X152034610Y-58322309D02*
X152129848Y-58322309D01*
X152129848Y-58322309D02*
X152177467Y-58346119D01*
X152177467Y-58346119D02*
X152201276Y-58369928D01*
X152201276Y-58369928D02*
X152225086Y-58417547D01*
X152225086Y-58417547D02*
X152225086Y-58441357D01*
X152225086Y-58441357D02*
X152201276Y-58488976D01*
X152201276Y-58488976D02*
X152177467Y-58512785D01*
X152177467Y-58512785D02*
X152129848Y-58536595D01*
X152129848Y-58536595D02*
X152034610Y-58536595D01*
X152034610Y-58536595D02*
X151986991Y-58560404D01*
X151986991Y-58560404D02*
X151963181Y-58584214D01*
X151963181Y-58584214D02*
X151939372Y-58631833D01*
X151939372Y-58631833D02*
X151939372Y-58727071D01*
X151939372Y-58727071D02*
X151963181Y-58774690D01*
X151963181Y-58774690D02*
X151986991Y-58798500D01*
X151986991Y-58798500D02*
X152034610Y-58822309D01*
X152034610Y-58822309D02*
X152129848Y-58822309D01*
X152129848Y-58822309D02*
X152177467Y-58798500D01*
X152177467Y-58798500D02*
X152201276Y-58774690D01*
X152201276Y-58774690D02*
X152225086Y-58727071D01*
X152225086Y-58727071D02*
X152225086Y-58631833D01*
X152225086Y-58631833D02*
X152201276Y-58584214D01*
X152201276Y-58584214D02*
X152177467Y-58560404D01*
X152177467Y-58560404D02*
X152129848Y-58536595D01*
X152439371Y-58631833D02*
X152820324Y-58631833D01*
X153272705Y-58488976D02*
X153272705Y-58822309D01*
X153153657Y-58298500D02*
X153034610Y-58655642D01*
X153034610Y-58655642D02*
X153344133Y-58655642D01*
X153629847Y-58322309D02*
X153677466Y-58322309D01*
X153677466Y-58322309D02*
X153725085Y-58346119D01*
X153725085Y-58346119D02*
X153748895Y-58369928D01*
X153748895Y-58369928D02*
X153772704Y-58417547D01*
X153772704Y-58417547D02*
X153796514Y-58512785D01*
X153796514Y-58512785D02*
X153796514Y-58631833D01*
X153796514Y-58631833D02*
X153772704Y-58727071D01*
X153772704Y-58727071D02*
X153748895Y-58774690D01*
X153748895Y-58774690D02*
X153725085Y-58798500D01*
X153725085Y-58798500D02*
X153677466Y-58822309D01*
X153677466Y-58822309D02*
X153629847Y-58822309D01*
X153629847Y-58822309D02*
X153582228Y-58798500D01*
X153582228Y-58798500D02*
X153558419Y-58774690D01*
X153558419Y-58774690D02*
X153534609Y-58727071D01*
X153534609Y-58727071D02*
X153510800Y-58631833D01*
X153510800Y-58631833D02*
X153510800Y-58512785D01*
X153510800Y-58512785D02*
X153534609Y-58417547D01*
X153534609Y-58417547D02*
X153558419Y-58369928D01*
X153558419Y-58369928D02*
X153582228Y-58346119D01*
X153582228Y-58346119D02*
X153629847Y-58322309D01*
X153939371Y-58322309D02*
X154106037Y-58822309D01*
X154106037Y-58822309D02*
X154272704Y-58322309D01*
X154796513Y-58798500D02*
X154844132Y-58822309D01*
X154844132Y-58822309D02*
X154939370Y-58822309D01*
X154939370Y-58822309D02*
X154986989Y-58798500D01*
X154986989Y-58798500D02*
X155010798Y-58750880D01*
X155010798Y-58750880D02*
X155010798Y-58727071D01*
X155010798Y-58727071D02*
X154986989Y-58679452D01*
X154986989Y-58679452D02*
X154939370Y-58655642D01*
X154939370Y-58655642D02*
X154867941Y-58655642D01*
X154867941Y-58655642D02*
X154820322Y-58631833D01*
X154820322Y-58631833D02*
X154796513Y-58584214D01*
X154796513Y-58584214D02*
X154796513Y-58560404D01*
X154796513Y-58560404D02*
X154820322Y-58512785D01*
X154820322Y-58512785D02*
X154867941Y-58488976D01*
X154867941Y-58488976D02*
X154939370Y-58488976D01*
X154939370Y-58488976D02*
X154986989Y-58512785D01*
X155439370Y-58488976D02*
X155439370Y-58822309D01*
X155225084Y-58488976D02*
X155225084Y-58750880D01*
X155225084Y-58750880D02*
X155248894Y-58798500D01*
X155248894Y-58798500D02*
X155296513Y-58822309D01*
X155296513Y-58822309D02*
X155367941Y-58822309D01*
X155367941Y-58822309D02*
X155415560Y-58798500D01*
X155415560Y-58798500D02*
X155439370Y-58774690D01*
X155677465Y-58488976D02*
X155677465Y-58988976D01*
X155677465Y-58512785D02*
X155725084Y-58488976D01*
X155725084Y-58488976D02*
X155820322Y-58488976D01*
X155820322Y-58488976D02*
X155867941Y-58512785D01*
X155867941Y-58512785D02*
X155891751Y-58536595D01*
X155891751Y-58536595D02*
X155915560Y-58584214D01*
X155915560Y-58584214D02*
X155915560Y-58727071D01*
X155915560Y-58727071D02*
X155891751Y-58774690D01*
X155891751Y-58774690D02*
X155867941Y-58798500D01*
X155867941Y-58798500D02*
X155820322Y-58822309D01*
X155820322Y-58822309D02*
X155725084Y-58822309D01*
X155725084Y-58822309D02*
X155677465Y-58798500D01*
X156129846Y-58488976D02*
X156129846Y-58988976D01*
X156129846Y-58512785D02*
X156177465Y-58488976D01*
X156177465Y-58488976D02*
X156272703Y-58488976D01*
X156272703Y-58488976D02*
X156320322Y-58512785D01*
X156320322Y-58512785D02*
X156344132Y-58536595D01*
X156344132Y-58536595D02*
X156367941Y-58584214D01*
X156367941Y-58584214D02*
X156367941Y-58727071D01*
X156367941Y-58727071D02*
X156344132Y-58774690D01*
X156344132Y-58774690D02*
X156320322Y-58798500D01*
X156320322Y-58798500D02*
X156272703Y-58822309D01*
X156272703Y-58822309D02*
X156177465Y-58822309D01*
X156177465Y-58822309D02*
X156129846Y-58798500D01*
X156653656Y-58822309D02*
X156606037Y-58798500D01*
X156606037Y-58798500D02*
X156582227Y-58750880D01*
X156582227Y-58750880D02*
X156582227Y-58322309D01*
X156796513Y-58488976D02*
X156915561Y-58822309D01*
X157034608Y-58488976D02*
X156915561Y-58822309D01*
X156915561Y-58822309D02*
X156867942Y-58941357D01*
X156867942Y-58941357D02*
X156844132Y-58965166D01*
X156844132Y-58965166D02*
X156796513Y-58988976D01*
X140129855Y-59127309D02*
X140296521Y-59627309D01*
X140296521Y-59627309D02*
X140463188Y-59127309D01*
X140820330Y-59603500D02*
X140772711Y-59627309D01*
X140772711Y-59627309D02*
X140677473Y-59627309D01*
X140677473Y-59627309D02*
X140629854Y-59603500D01*
X140629854Y-59603500D02*
X140606045Y-59555880D01*
X140606045Y-59555880D02*
X140606045Y-59365404D01*
X140606045Y-59365404D02*
X140629854Y-59317785D01*
X140629854Y-59317785D02*
X140677473Y-59293976D01*
X140677473Y-59293976D02*
X140772711Y-59293976D01*
X140772711Y-59293976D02*
X140820330Y-59317785D01*
X140820330Y-59317785D02*
X140844140Y-59365404D01*
X140844140Y-59365404D02*
X140844140Y-59413023D01*
X140844140Y-59413023D02*
X140606045Y-59460642D01*
X141058425Y-59627309D02*
X141058425Y-59293976D01*
X141058425Y-59389214D02*
X141082235Y-59341595D01*
X141082235Y-59341595D02*
X141106044Y-59317785D01*
X141106044Y-59317785D02*
X141153663Y-59293976D01*
X141153663Y-59293976D02*
X141201282Y-59293976D01*
X141344140Y-59603500D02*
X141391759Y-59627309D01*
X141391759Y-59627309D02*
X141486997Y-59627309D01*
X141486997Y-59627309D02*
X141534616Y-59603500D01*
X141534616Y-59603500D02*
X141558425Y-59555880D01*
X141558425Y-59555880D02*
X141558425Y-59532071D01*
X141558425Y-59532071D02*
X141534616Y-59484452D01*
X141534616Y-59484452D02*
X141486997Y-59460642D01*
X141486997Y-59460642D02*
X141415568Y-59460642D01*
X141415568Y-59460642D02*
X141367949Y-59436833D01*
X141367949Y-59436833D02*
X141344140Y-59389214D01*
X141344140Y-59389214D02*
X141344140Y-59365404D01*
X141344140Y-59365404D02*
X141367949Y-59317785D01*
X141367949Y-59317785D02*
X141415568Y-59293976D01*
X141415568Y-59293976D02*
X141486997Y-59293976D01*
X141486997Y-59293976D02*
X141534616Y-59317785D01*
X141772711Y-59627309D02*
X141772711Y-59293976D01*
X141772711Y-59127309D02*
X141748902Y-59151119D01*
X141748902Y-59151119D02*
X141772711Y-59174928D01*
X141772711Y-59174928D02*
X141796521Y-59151119D01*
X141796521Y-59151119D02*
X141772711Y-59127309D01*
X141772711Y-59127309D02*
X141772711Y-59174928D01*
X142082235Y-59627309D02*
X142034616Y-59603500D01*
X142034616Y-59603500D02*
X142010806Y-59579690D01*
X142010806Y-59579690D02*
X141986997Y-59532071D01*
X141986997Y-59532071D02*
X141986997Y-59389214D01*
X141986997Y-59389214D02*
X142010806Y-59341595D01*
X142010806Y-59341595D02*
X142034616Y-59317785D01*
X142034616Y-59317785D02*
X142082235Y-59293976D01*
X142082235Y-59293976D02*
X142153663Y-59293976D01*
X142153663Y-59293976D02*
X142201282Y-59317785D01*
X142201282Y-59317785D02*
X142225092Y-59341595D01*
X142225092Y-59341595D02*
X142248901Y-59389214D01*
X142248901Y-59389214D02*
X142248901Y-59532071D01*
X142248901Y-59532071D02*
X142225092Y-59579690D01*
X142225092Y-59579690D02*
X142201282Y-59603500D01*
X142201282Y-59603500D02*
X142153663Y-59627309D01*
X142153663Y-59627309D02*
X142082235Y-59627309D01*
X142463187Y-59293976D02*
X142463187Y-59627309D01*
X142463187Y-59341595D02*
X142486997Y-59317785D01*
X142486997Y-59317785D02*
X142534616Y-59293976D01*
X142534616Y-59293976D02*
X142606044Y-59293976D01*
X142606044Y-59293976D02*
X142653663Y-59317785D01*
X142653663Y-59317785D02*
X142677473Y-59365404D01*
X142677473Y-59365404D02*
X142677473Y-59627309D01*
X142915568Y-59579690D02*
X142939378Y-59603500D01*
X142939378Y-59603500D02*
X142915568Y-59627309D01*
X142915568Y-59627309D02*
X142891759Y-59603500D01*
X142891759Y-59603500D02*
X142915568Y-59579690D01*
X142915568Y-59579690D02*
X142915568Y-59627309D01*
X142915568Y-59317785D02*
X142939378Y-59341595D01*
X142939378Y-59341595D02*
X142915568Y-59365404D01*
X142915568Y-59365404D02*
X142891759Y-59341595D01*
X142891759Y-59341595D02*
X142915568Y-59317785D01*
X142915568Y-59317785D02*
X142915568Y-59365404D01*
X143463187Y-59293976D02*
X143653663Y-59293976D01*
X143534615Y-59627309D02*
X143534615Y-59198738D01*
X143534615Y-59198738D02*
X143558425Y-59151119D01*
X143558425Y-59151119D02*
X143606044Y-59127309D01*
X143606044Y-59127309D02*
X143653663Y-59127309D01*
X143891758Y-59341595D02*
X143844139Y-59317785D01*
X143844139Y-59317785D02*
X143820329Y-59293976D01*
X143820329Y-59293976D02*
X143796520Y-59246357D01*
X143796520Y-59246357D02*
X143796520Y-59222547D01*
X143796520Y-59222547D02*
X143820329Y-59174928D01*
X143820329Y-59174928D02*
X143844139Y-59151119D01*
X143844139Y-59151119D02*
X143891758Y-59127309D01*
X143891758Y-59127309D02*
X143986996Y-59127309D01*
X143986996Y-59127309D02*
X144034615Y-59151119D01*
X144034615Y-59151119D02*
X144058424Y-59174928D01*
X144058424Y-59174928D02*
X144082234Y-59222547D01*
X144082234Y-59222547D02*
X144082234Y-59246357D01*
X144082234Y-59246357D02*
X144058424Y-59293976D01*
X144058424Y-59293976D02*
X144034615Y-59317785D01*
X144034615Y-59317785D02*
X143986996Y-59341595D01*
X143986996Y-59341595D02*
X143891758Y-59341595D01*
X143891758Y-59341595D02*
X143844139Y-59365404D01*
X143844139Y-59365404D02*
X143820329Y-59389214D01*
X143820329Y-59389214D02*
X143796520Y-59436833D01*
X143796520Y-59436833D02*
X143796520Y-59532071D01*
X143796520Y-59532071D02*
X143820329Y-59579690D01*
X143820329Y-59579690D02*
X143844139Y-59603500D01*
X143844139Y-59603500D02*
X143891758Y-59627309D01*
X143891758Y-59627309D02*
X143986996Y-59627309D01*
X143986996Y-59627309D02*
X144034615Y-59603500D01*
X144034615Y-59603500D02*
X144058424Y-59579690D01*
X144058424Y-59579690D02*
X144082234Y-59532071D01*
X144082234Y-59532071D02*
X144082234Y-59436833D01*
X144082234Y-59436833D02*
X144058424Y-59389214D01*
X144058424Y-59389214D02*
X144034615Y-59365404D01*
X144034615Y-59365404D02*
X143986996Y-59341595D01*
X144320329Y-59627309D02*
X144415567Y-59627309D01*
X144415567Y-59627309D02*
X144463186Y-59603500D01*
X144463186Y-59603500D02*
X144486995Y-59579690D01*
X144486995Y-59579690D02*
X144534614Y-59508261D01*
X144534614Y-59508261D02*
X144558424Y-59413023D01*
X144558424Y-59413023D02*
X144558424Y-59222547D01*
X144558424Y-59222547D02*
X144534614Y-59174928D01*
X144534614Y-59174928D02*
X144510805Y-59151119D01*
X144510805Y-59151119D02*
X144463186Y-59127309D01*
X144463186Y-59127309D02*
X144367948Y-59127309D01*
X144367948Y-59127309D02*
X144320329Y-59151119D01*
X144320329Y-59151119D02*
X144296519Y-59174928D01*
X144296519Y-59174928D02*
X144272710Y-59222547D01*
X144272710Y-59222547D02*
X144272710Y-59341595D01*
X144272710Y-59341595D02*
X144296519Y-59389214D01*
X144296519Y-59389214D02*
X144320329Y-59413023D01*
X144320329Y-59413023D02*
X144367948Y-59436833D01*
X144367948Y-59436833D02*
X144463186Y-59436833D01*
X144463186Y-59436833D02*
X144510805Y-59413023D01*
X144510805Y-59413023D02*
X144534614Y-59389214D01*
X144534614Y-59389214D02*
X144558424Y-59341595D01*
X144963185Y-59603500D02*
X144915566Y-59627309D01*
X144915566Y-59627309D02*
X144820328Y-59627309D01*
X144820328Y-59627309D02*
X144772709Y-59603500D01*
X144772709Y-59603500D02*
X144748900Y-59555880D01*
X144748900Y-59555880D02*
X144748900Y-59365404D01*
X144748900Y-59365404D02*
X144772709Y-59317785D01*
X144772709Y-59317785D02*
X144820328Y-59293976D01*
X144820328Y-59293976D02*
X144915566Y-59293976D01*
X144915566Y-59293976D02*
X144963185Y-59317785D01*
X144963185Y-59317785D02*
X144986995Y-59365404D01*
X144986995Y-59365404D02*
X144986995Y-59413023D01*
X144986995Y-59413023D02*
X144748900Y-59460642D01*
X145415566Y-59627309D02*
X145415566Y-59127309D01*
X145415566Y-59603500D02*
X145367947Y-59627309D01*
X145367947Y-59627309D02*
X145272709Y-59627309D01*
X145272709Y-59627309D02*
X145225090Y-59603500D01*
X145225090Y-59603500D02*
X145201280Y-59579690D01*
X145201280Y-59579690D02*
X145177471Y-59532071D01*
X145177471Y-59532071D02*
X145177471Y-59389214D01*
X145177471Y-59389214D02*
X145201280Y-59341595D01*
X145201280Y-59341595D02*
X145225090Y-59317785D01*
X145225090Y-59317785D02*
X145272709Y-59293976D01*
X145272709Y-59293976D02*
X145367947Y-59293976D01*
X145367947Y-59293976D02*
X145415566Y-59317785D01*
X145582233Y-59293976D02*
X145772709Y-59293976D01*
X145653661Y-59627309D02*
X145653661Y-59198738D01*
X145653661Y-59198738D02*
X145677471Y-59151119D01*
X145677471Y-59151119D02*
X145725090Y-59127309D01*
X145725090Y-59127309D02*
X145772709Y-59127309D01*
X146153661Y-59603500D02*
X146106042Y-59627309D01*
X146106042Y-59627309D02*
X146010804Y-59627309D01*
X146010804Y-59627309D02*
X145963185Y-59603500D01*
X145963185Y-59603500D02*
X145939375Y-59579690D01*
X145939375Y-59579690D02*
X145915566Y-59532071D01*
X145915566Y-59532071D02*
X145915566Y-59389214D01*
X145915566Y-59389214D02*
X145939375Y-59341595D01*
X145939375Y-59341595D02*
X145963185Y-59317785D01*
X145963185Y-59317785D02*
X146010804Y-59293976D01*
X146010804Y-59293976D02*
X146106042Y-59293976D01*
X146106042Y-59293976D02*
X146153661Y-59317785D01*
X146582232Y-59627309D02*
X146582232Y-59365404D01*
X146582232Y-59365404D02*
X146558422Y-59317785D01*
X146558422Y-59317785D02*
X146510803Y-59293976D01*
X146510803Y-59293976D02*
X146415565Y-59293976D01*
X146415565Y-59293976D02*
X146367946Y-59317785D01*
X146582232Y-59603500D02*
X146534613Y-59627309D01*
X146534613Y-59627309D02*
X146415565Y-59627309D01*
X146415565Y-59627309D02*
X146367946Y-59603500D01*
X146367946Y-59603500D02*
X146344137Y-59555880D01*
X146344137Y-59555880D02*
X146344137Y-59508261D01*
X146344137Y-59508261D02*
X146367946Y-59460642D01*
X146367946Y-59460642D02*
X146415565Y-59436833D01*
X146415565Y-59436833D02*
X146534613Y-59436833D01*
X146534613Y-59436833D02*
X146582232Y-59413023D01*
X146891756Y-59341595D02*
X146844137Y-59317785D01*
X146844137Y-59317785D02*
X146820327Y-59293976D01*
X146820327Y-59293976D02*
X146796518Y-59246357D01*
X146796518Y-59246357D02*
X146796518Y-59222547D01*
X146796518Y-59222547D02*
X146820327Y-59174928D01*
X146820327Y-59174928D02*
X146844137Y-59151119D01*
X146844137Y-59151119D02*
X146891756Y-59127309D01*
X146891756Y-59127309D02*
X146986994Y-59127309D01*
X146986994Y-59127309D02*
X147034613Y-59151119D01*
X147034613Y-59151119D02*
X147058422Y-59174928D01*
X147058422Y-59174928D02*
X147082232Y-59222547D01*
X147082232Y-59222547D02*
X147082232Y-59246357D01*
X147082232Y-59246357D02*
X147058422Y-59293976D01*
X147058422Y-59293976D02*
X147034613Y-59317785D01*
X147034613Y-59317785D02*
X146986994Y-59341595D01*
X146986994Y-59341595D02*
X146891756Y-59341595D01*
X146891756Y-59341595D02*
X146844137Y-59365404D01*
X146844137Y-59365404D02*
X146820327Y-59389214D01*
X146820327Y-59389214D02*
X146796518Y-59436833D01*
X146796518Y-59436833D02*
X146796518Y-59532071D01*
X146796518Y-59532071D02*
X146820327Y-59579690D01*
X146820327Y-59579690D02*
X146844137Y-59603500D01*
X146844137Y-59603500D02*
X146891756Y-59627309D01*
X146891756Y-59627309D02*
X146986994Y-59627309D01*
X146986994Y-59627309D02*
X147034613Y-59603500D01*
X147034613Y-59603500D02*
X147058422Y-59579690D01*
X147058422Y-59579690D02*
X147082232Y-59532071D01*
X147082232Y-59532071D02*
X147082232Y-59436833D01*
X147082232Y-59436833D02*
X147058422Y-59389214D01*
X147058422Y-59389214D02*
X147034613Y-59365404D01*
X147034613Y-59365404D02*
X146986994Y-59341595D01*
X147558422Y-59627309D02*
X147272708Y-59627309D01*
X147415565Y-59627309D02*
X147415565Y-59127309D01*
X147415565Y-59127309D02*
X147367946Y-59198738D01*
X147367946Y-59198738D02*
X147320327Y-59246357D01*
X147320327Y-59246357D02*
X147272708Y-59270166D01*
X147963183Y-59603500D02*
X147915564Y-59627309D01*
X147915564Y-59627309D02*
X147820326Y-59627309D01*
X147820326Y-59627309D02*
X147772707Y-59603500D01*
X147772707Y-59603500D02*
X147748898Y-59555880D01*
X147748898Y-59555880D02*
X147748898Y-59365404D01*
X147748898Y-59365404D02*
X147772707Y-59317785D01*
X147772707Y-59317785D02*
X147820326Y-59293976D01*
X147820326Y-59293976D02*
X147915564Y-59293976D01*
X147915564Y-59293976D02*
X147963183Y-59317785D01*
X147963183Y-59317785D02*
X147986993Y-59365404D01*
X147986993Y-59365404D02*
X147986993Y-59413023D01*
X147986993Y-59413023D02*
X147748898Y-59460642D01*
X148415564Y-59627309D02*
X148415564Y-59127309D01*
X148415564Y-59603500D02*
X148367945Y-59627309D01*
X148367945Y-59627309D02*
X148272707Y-59627309D01*
X148272707Y-59627309D02*
X148225088Y-59603500D01*
X148225088Y-59603500D02*
X148201278Y-59579690D01*
X148201278Y-59579690D02*
X148177469Y-59532071D01*
X148177469Y-59532071D02*
X148177469Y-59389214D01*
X148177469Y-59389214D02*
X148201278Y-59341595D01*
X148201278Y-59341595D02*
X148225088Y-59317785D01*
X148225088Y-59317785D02*
X148272707Y-59293976D01*
X148272707Y-59293976D02*
X148367945Y-59293976D01*
X148367945Y-59293976D02*
X148415564Y-59317785D01*
X148653659Y-59627309D02*
X148653659Y-59127309D01*
X148653659Y-59317785D02*
X148701278Y-59293976D01*
X148701278Y-59293976D02*
X148796516Y-59293976D01*
X148796516Y-59293976D02*
X148844135Y-59317785D01*
X148844135Y-59317785D02*
X148867945Y-59341595D01*
X148867945Y-59341595D02*
X148891754Y-59389214D01*
X148891754Y-59389214D02*
X148891754Y-59532071D01*
X148891754Y-59532071D02*
X148867945Y-59579690D01*
X148867945Y-59579690D02*
X148844135Y-59603500D01*
X148844135Y-59603500D02*
X148796516Y-59627309D01*
X148796516Y-59627309D02*
X148701278Y-59627309D01*
X148701278Y-59627309D02*
X148653659Y-59603500D01*
X149320326Y-59127309D02*
X149225088Y-59127309D01*
X149225088Y-59127309D02*
X149177469Y-59151119D01*
X149177469Y-59151119D02*
X149153659Y-59174928D01*
X149153659Y-59174928D02*
X149106040Y-59246357D01*
X149106040Y-59246357D02*
X149082231Y-59341595D01*
X149082231Y-59341595D02*
X149082231Y-59532071D01*
X149082231Y-59532071D02*
X149106040Y-59579690D01*
X149106040Y-59579690D02*
X149129850Y-59603500D01*
X149129850Y-59603500D02*
X149177469Y-59627309D01*
X149177469Y-59627309D02*
X149272707Y-59627309D01*
X149272707Y-59627309D02*
X149320326Y-59603500D01*
X149320326Y-59603500D02*
X149344135Y-59579690D01*
X149344135Y-59579690D02*
X149367945Y-59532071D01*
X149367945Y-59532071D02*
X149367945Y-59413023D01*
X149367945Y-59413023D02*
X149344135Y-59365404D01*
X149344135Y-59365404D02*
X149320326Y-59341595D01*
X149320326Y-59341595D02*
X149272707Y-59317785D01*
X149272707Y-59317785D02*
X149177469Y-59317785D01*
X149177469Y-59317785D02*
X149129850Y-59341595D01*
X149129850Y-59341595D02*
X149106040Y-59365404D01*
X149106040Y-59365404D02*
X149082231Y-59413023D01*
X149677468Y-59127309D02*
X149725087Y-59127309D01*
X149725087Y-59127309D02*
X149772706Y-59151119D01*
X149772706Y-59151119D02*
X149796516Y-59174928D01*
X149796516Y-59174928D02*
X149820325Y-59222547D01*
X149820325Y-59222547D02*
X149844135Y-59317785D01*
X149844135Y-59317785D02*
X149844135Y-59436833D01*
X149844135Y-59436833D02*
X149820325Y-59532071D01*
X149820325Y-59532071D02*
X149796516Y-59579690D01*
X149796516Y-59579690D02*
X149772706Y-59603500D01*
X149772706Y-59603500D02*
X149725087Y-59627309D01*
X149725087Y-59627309D02*
X149677468Y-59627309D01*
X149677468Y-59627309D02*
X149629849Y-59603500D01*
X149629849Y-59603500D02*
X149606040Y-59579690D01*
X149606040Y-59579690D02*
X149582230Y-59532071D01*
X149582230Y-59532071D02*
X149558421Y-59436833D01*
X149558421Y-59436833D02*
X149558421Y-59317785D01*
X149558421Y-59317785D02*
X149582230Y-59222547D01*
X149582230Y-59222547D02*
X149606040Y-59174928D01*
X149606040Y-59174928D02*
X149629849Y-59151119D01*
X149629849Y-59151119D02*
X149677468Y-59127309D01*
X150320325Y-59627309D02*
X150034611Y-59627309D01*
X150177468Y-59627309D02*
X150177468Y-59127309D01*
X150177468Y-59127309D02*
X150129849Y-59198738D01*
X150129849Y-59198738D02*
X150082230Y-59246357D01*
X150082230Y-59246357D02*
X150034611Y-59270166D01*
X150486991Y-59127309D02*
X150796515Y-59127309D01*
X150796515Y-59127309D02*
X150629848Y-59317785D01*
X150629848Y-59317785D02*
X150701277Y-59317785D01*
X150701277Y-59317785D02*
X150748896Y-59341595D01*
X150748896Y-59341595D02*
X150772705Y-59365404D01*
X150772705Y-59365404D02*
X150796515Y-59413023D01*
X150796515Y-59413023D02*
X150796515Y-59532071D01*
X150796515Y-59532071D02*
X150772705Y-59579690D01*
X150772705Y-59579690D02*
X150748896Y-59603500D01*
X150748896Y-59603500D02*
X150701277Y-59627309D01*
X150701277Y-59627309D02*
X150558420Y-59627309D01*
X150558420Y-59627309D02*
X150510801Y-59603500D01*
X150510801Y-59603500D02*
X150486991Y-59579690D01*
X151248895Y-59127309D02*
X151010800Y-59127309D01*
X151010800Y-59127309D02*
X150986991Y-59365404D01*
X150986991Y-59365404D02*
X151010800Y-59341595D01*
X151010800Y-59341595D02*
X151058419Y-59317785D01*
X151058419Y-59317785D02*
X151177467Y-59317785D01*
X151177467Y-59317785D02*
X151225086Y-59341595D01*
X151225086Y-59341595D02*
X151248895Y-59365404D01*
X151248895Y-59365404D02*
X151272705Y-59413023D01*
X151272705Y-59413023D02*
X151272705Y-59532071D01*
X151272705Y-59532071D02*
X151248895Y-59579690D01*
X151248895Y-59579690D02*
X151225086Y-59603500D01*
X151225086Y-59603500D02*
X151177467Y-59627309D01*
X151177467Y-59627309D02*
X151058419Y-59627309D01*
X151058419Y-59627309D02*
X151010800Y-59603500D01*
X151010800Y-59603500D02*
X150986991Y-59579690D01*
X151701276Y-59627309D02*
X151701276Y-59127309D01*
X151701276Y-59603500D02*
X151653657Y-59627309D01*
X151653657Y-59627309D02*
X151558419Y-59627309D01*
X151558419Y-59627309D02*
X151510800Y-59603500D01*
X151510800Y-59603500D02*
X151486990Y-59579690D01*
X151486990Y-59579690D02*
X151463181Y-59532071D01*
X151463181Y-59532071D02*
X151463181Y-59389214D01*
X151463181Y-59389214D02*
X151486990Y-59341595D01*
X151486990Y-59341595D02*
X151510800Y-59317785D01*
X151510800Y-59317785D02*
X151558419Y-59293976D01*
X151558419Y-59293976D02*
X151653657Y-59293976D01*
X151653657Y-59293976D02*
X151701276Y-59317785D01*
X152177466Y-59127309D02*
X151939371Y-59127309D01*
X151939371Y-59127309D02*
X151915562Y-59365404D01*
X151915562Y-59365404D02*
X151939371Y-59341595D01*
X151939371Y-59341595D02*
X151986990Y-59317785D01*
X151986990Y-59317785D02*
X152106038Y-59317785D01*
X152106038Y-59317785D02*
X152153657Y-59341595D01*
X152153657Y-59341595D02*
X152177466Y-59365404D01*
X152177466Y-59365404D02*
X152201276Y-59413023D01*
X152201276Y-59413023D02*
X152201276Y-59532071D01*
X152201276Y-59532071D02*
X152177466Y-59579690D01*
X152177466Y-59579690D02*
X152153657Y-59603500D01*
X152153657Y-59603500D02*
X152106038Y-59627309D01*
X152106038Y-59627309D02*
X151986990Y-59627309D01*
X151986990Y-59627309D02*
X151939371Y-59603500D01*
X151939371Y-59603500D02*
X151915562Y-59579690D01*
X152677466Y-59627309D02*
X152391752Y-59627309D01*
X152534609Y-59627309D02*
X152534609Y-59127309D01*
X152534609Y-59127309D02*
X152486990Y-59198738D01*
X152486990Y-59198738D02*
X152439371Y-59246357D01*
X152439371Y-59246357D02*
X152391752Y-59270166D01*
X152891751Y-59627309D02*
X152891751Y-59127309D01*
X152891751Y-59317785D02*
X152939370Y-59293976D01*
X152939370Y-59293976D02*
X153034608Y-59293976D01*
X153034608Y-59293976D02*
X153082227Y-59317785D01*
X153082227Y-59317785D02*
X153106037Y-59341595D01*
X153106037Y-59341595D02*
X153129846Y-59389214D01*
X153129846Y-59389214D02*
X153129846Y-59532071D01*
X153129846Y-59532071D02*
X153106037Y-59579690D01*
X153106037Y-59579690D02*
X153082227Y-59603500D01*
X153082227Y-59603500D02*
X153034608Y-59627309D01*
X153034608Y-59627309D02*
X152939370Y-59627309D01*
X152939370Y-59627309D02*
X152891751Y-59603500D01*
X153558418Y-59627309D02*
X153558418Y-59127309D01*
X153558418Y-59603500D02*
X153510799Y-59627309D01*
X153510799Y-59627309D02*
X153415561Y-59627309D01*
X153415561Y-59627309D02*
X153367942Y-59603500D01*
X153367942Y-59603500D02*
X153344132Y-59579690D01*
X153344132Y-59579690D02*
X153320323Y-59532071D01*
X153320323Y-59532071D02*
X153320323Y-59389214D01*
X153320323Y-59389214D02*
X153344132Y-59341595D01*
X153344132Y-59341595D02*
X153367942Y-59317785D01*
X153367942Y-59317785D02*
X153415561Y-59293976D01*
X153415561Y-59293976D02*
X153510799Y-59293976D01*
X153510799Y-59293976D02*
X153558418Y-59317785D01*
X154010799Y-59293976D02*
X154010799Y-59627309D01*
X153891751Y-59103500D02*
X153772704Y-59460642D01*
X153772704Y-59460642D02*
X154082227Y-59460642D01*
X154486989Y-59627309D02*
X154486989Y-59365404D01*
X154486989Y-59365404D02*
X154463179Y-59317785D01*
X154463179Y-59317785D02*
X154415560Y-59293976D01*
X154415560Y-59293976D02*
X154320322Y-59293976D01*
X154320322Y-59293976D02*
X154272703Y-59317785D01*
X154486989Y-59603500D02*
X154439370Y-59627309D01*
X154439370Y-59627309D02*
X154320322Y-59627309D01*
X154320322Y-59627309D02*
X154272703Y-59603500D01*
X154272703Y-59603500D02*
X154248894Y-59555880D01*
X154248894Y-59555880D02*
X154248894Y-59508261D01*
X154248894Y-59508261D02*
X154272703Y-59460642D01*
X154272703Y-59460642D02*
X154320322Y-59436833D01*
X154320322Y-59436833D02*
X154439370Y-59436833D01*
X154439370Y-59436833D02*
X154486989Y-59413023D01*
X154653656Y-59293976D02*
X154844132Y-59293976D01*
X154725084Y-59627309D02*
X154725084Y-59198738D01*
X154725084Y-59198738D02*
X154748894Y-59151119D01*
X154748894Y-59151119D02*
X154796513Y-59127309D01*
X154796513Y-59127309D02*
X154844132Y-59127309D01*
X155225084Y-59627309D02*
X155225084Y-59127309D01*
X155225084Y-59603500D02*
X155177465Y-59627309D01*
X155177465Y-59627309D02*
X155082227Y-59627309D01*
X155082227Y-59627309D02*
X155034608Y-59603500D01*
X155034608Y-59603500D02*
X155010798Y-59579690D01*
X155010798Y-59579690D02*
X154986989Y-59532071D01*
X154986989Y-59532071D02*
X154986989Y-59389214D01*
X154986989Y-59389214D02*
X155010798Y-59341595D01*
X155010798Y-59341595D02*
X155034608Y-59317785D01*
X155034608Y-59317785D02*
X155082227Y-59293976D01*
X155082227Y-59293976D02*
X155177465Y-59293976D01*
X155177465Y-59293976D02*
X155225084Y-59317785D01*
X155558417Y-59127309D02*
X155606036Y-59127309D01*
X155606036Y-59127309D02*
X155653655Y-59151119D01*
X155653655Y-59151119D02*
X155677465Y-59174928D01*
X155677465Y-59174928D02*
X155701274Y-59222547D01*
X155701274Y-59222547D02*
X155725084Y-59317785D01*
X155725084Y-59317785D02*
X155725084Y-59436833D01*
X155725084Y-59436833D02*
X155701274Y-59532071D01*
X155701274Y-59532071D02*
X155677465Y-59579690D01*
X155677465Y-59579690D02*
X155653655Y-59603500D01*
X155653655Y-59603500D02*
X155606036Y-59627309D01*
X155606036Y-59627309D02*
X155558417Y-59627309D01*
X155558417Y-59627309D02*
X155510798Y-59603500D01*
X155510798Y-59603500D02*
X155486989Y-59579690D01*
X155486989Y-59579690D02*
X155463179Y-59532071D01*
X155463179Y-59532071D02*
X155439370Y-59436833D01*
X155439370Y-59436833D02*
X155439370Y-59317785D01*
X155439370Y-59317785D02*
X155463179Y-59222547D01*
X155463179Y-59222547D02*
X155486989Y-59174928D01*
X155486989Y-59174928D02*
X155510798Y-59151119D01*
X155510798Y-59151119D02*
X155558417Y-59127309D01*
X155891750Y-59127309D02*
X156225083Y-59127309D01*
X156225083Y-59127309D02*
X156010798Y-59627309D01*
X156629845Y-59627309D02*
X156629845Y-59127309D01*
X156629845Y-59603500D02*
X156582226Y-59627309D01*
X156582226Y-59627309D02*
X156486988Y-59627309D01*
X156486988Y-59627309D02*
X156439369Y-59603500D01*
X156439369Y-59603500D02*
X156415559Y-59579690D01*
X156415559Y-59579690D02*
X156391750Y-59532071D01*
X156391750Y-59532071D02*
X156391750Y-59389214D01*
X156391750Y-59389214D02*
X156415559Y-59341595D01*
X156415559Y-59341595D02*
X156439369Y-59317785D01*
X156439369Y-59317785D02*
X156486988Y-59293976D01*
X156486988Y-59293976D02*
X156582226Y-59293976D01*
X156582226Y-59293976D02*
X156629845Y-59317785D01*
X157058416Y-59603500D02*
X157010797Y-59627309D01*
X157010797Y-59627309D02*
X156915559Y-59627309D01*
X156915559Y-59627309D02*
X156867940Y-59603500D01*
X156867940Y-59603500D02*
X156844131Y-59555880D01*
X156844131Y-59555880D02*
X156844131Y-59365404D01*
X156844131Y-59365404D02*
X156867940Y-59317785D01*
X156867940Y-59317785D02*
X156915559Y-59293976D01*
X156915559Y-59293976D02*
X157010797Y-59293976D01*
X157010797Y-59293976D02*
X157058416Y-59317785D01*
X157058416Y-59317785D02*
X157082226Y-59365404D01*
X157082226Y-59365404D02*
X157082226Y-59413023D01*
X157082226Y-59413023D02*
X156844131Y-59460642D01*
X157367940Y-59341595D02*
X157320321Y-59317785D01*
X157320321Y-59317785D02*
X157296511Y-59293976D01*
X157296511Y-59293976D02*
X157272702Y-59246357D01*
X157272702Y-59246357D02*
X157272702Y-59222547D01*
X157272702Y-59222547D02*
X157296511Y-59174928D01*
X157296511Y-59174928D02*
X157320321Y-59151119D01*
X157320321Y-59151119D02*
X157367940Y-59127309D01*
X157367940Y-59127309D02*
X157463178Y-59127309D01*
X157463178Y-59127309D02*
X157510797Y-59151119D01*
X157510797Y-59151119D02*
X157534606Y-59174928D01*
X157534606Y-59174928D02*
X157558416Y-59222547D01*
X157558416Y-59222547D02*
X157558416Y-59246357D01*
X157558416Y-59246357D02*
X157534606Y-59293976D01*
X157534606Y-59293976D02*
X157510797Y-59317785D01*
X157510797Y-59317785D02*
X157463178Y-59341595D01*
X157463178Y-59341595D02*
X157367940Y-59341595D01*
X157367940Y-59341595D02*
X157320321Y-59365404D01*
X157320321Y-59365404D02*
X157296511Y-59389214D01*
X157296511Y-59389214D02*
X157272702Y-59436833D01*
X157272702Y-59436833D02*
X157272702Y-59532071D01*
X157272702Y-59532071D02*
X157296511Y-59579690D01*
X157296511Y-59579690D02*
X157320321Y-59603500D01*
X157320321Y-59603500D02*
X157367940Y-59627309D01*
X157367940Y-59627309D02*
X157463178Y-59627309D01*
X157463178Y-59627309D02*
X157510797Y-59603500D01*
X157510797Y-59603500D02*
X157534606Y-59579690D01*
X157534606Y-59579690D02*
X157558416Y-59532071D01*
X157558416Y-59532071D02*
X157558416Y-59436833D01*
X157558416Y-59436833D02*
X157534606Y-59389214D01*
X157534606Y-59389214D02*
X157510797Y-59365404D01*
X157510797Y-59365404D02*
X157463178Y-59341595D01*
X157986987Y-59127309D02*
X157891749Y-59127309D01*
X157891749Y-59127309D02*
X157844130Y-59151119D01*
X157844130Y-59151119D02*
X157820320Y-59174928D01*
X157820320Y-59174928D02*
X157772701Y-59246357D01*
X157772701Y-59246357D02*
X157748892Y-59341595D01*
X157748892Y-59341595D02*
X157748892Y-59532071D01*
X157748892Y-59532071D02*
X157772701Y-59579690D01*
X157772701Y-59579690D02*
X157796511Y-59603500D01*
X157796511Y-59603500D02*
X157844130Y-59627309D01*
X157844130Y-59627309D02*
X157939368Y-59627309D01*
X157939368Y-59627309D02*
X157986987Y-59603500D01*
X157986987Y-59603500D02*
X158010796Y-59579690D01*
X158010796Y-59579690D02*
X158034606Y-59532071D01*
X158034606Y-59532071D02*
X158034606Y-59413023D01*
X158034606Y-59413023D02*
X158010796Y-59365404D01*
X158010796Y-59365404D02*
X157986987Y-59341595D01*
X157986987Y-59341595D02*
X157939368Y-59317785D01*
X157939368Y-59317785D02*
X157844130Y-59317785D01*
X157844130Y-59317785D02*
X157796511Y-59341595D01*
X157796511Y-59341595D02*
X157772701Y-59365404D01*
X157772701Y-59365404D02*
X157748892Y-59413023D01*
X158463177Y-59603500D02*
X158415558Y-59627309D01*
X158415558Y-59627309D02*
X158320320Y-59627309D01*
X158320320Y-59627309D02*
X158272701Y-59603500D01*
X158272701Y-59603500D02*
X158248891Y-59579690D01*
X158248891Y-59579690D02*
X158225082Y-59532071D01*
X158225082Y-59532071D02*
X158225082Y-59389214D01*
X158225082Y-59389214D02*
X158248891Y-59341595D01*
X158248891Y-59341595D02*
X158272701Y-59317785D01*
X158272701Y-59317785D02*
X158320320Y-59293976D01*
X158320320Y-59293976D02*
X158415558Y-59293976D01*
X158415558Y-59293976D02*
X158463177Y-59317785D01*
X158915557Y-59127309D02*
X158677462Y-59127309D01*
X158677462Y-59127309D02*
X158653653Y-59365404D01*
X158653653Y-59365404D02*
X158677462Y-59341595D01*
X158677462Y-59341595D02*
X158725081Y-59317785D01*
X158725081Y-59317785D02*
X158844129Y-59317785D01*
X158844129Y-59317785D02*
X158891748Y-59341595D01*
X158891748Y-59341595D02*
X158915557Y-59365404D01*
X158915557Y-59365404D02*
X158939367Y-59413023D01*
X158939367Y-59413023D02*
X158939367Y-59532071D01*
X158939367Y-59532071D02*
X158915557Y-59579690D01*
X158915557Y-59579690D02*
X158891748Y-59603500D01*
X158891748Y-59603500D02*
X158844129Y-59627309D01*
X158844129Y-59627309D02*
X158725081Y-59627309D01*
X158725081Y-59627309D02*
X158677462Y-59603500D01*
X158677462Y-59603500D02*
X158653653Y-59579690D01*
X159415557Y-59627309D02*
X159129843Y-59627309D01*
X159272700Y-59627309D02*
X159272700Y-59127309D01*
X159272700Y-59127309D02*
X159225081Y-59198738D01*
X159225081Y-59198738D02*
X159177462Y-59246357D01*
X159177462Y-59246357D02*
X159129843Y-59270166D01*
X159653652Y-59627309D02*
X159748890Y-59627309D01*
X159748890Y-59627309D02*
X159796509Y-59603500D01*
X159796509Y-59603500D02*
X159820318Y-59579690D01*
X159820318Y-59579690D02*
X159867937Y-59508261D01*
X159867937Y-59508261D02*
X159891747Y-59413023D01*
X159891747Y-59413023D02*
X159891747Y-59222547D01*
X159891747Y-59222547D02*
X159867937Y-59174928D01*
X159867937Y-59174928D02*
X159844128Y-59151119D01*
X159844128Y-59151119D02*
X159796509Y-59127309D01*
X159796509Y-59127309D02*
X159701271Y-59127309D01*
X159701271Y-59127309D02*
X159653652Y-59151119D01*
X159653652Y-59151119D02*
X159629842Y-59174928D01*
X159629842Y-59174928D02*
X159606033Y-59222547D01*
X159606033Y-59222547D02*
X159606033Y-59341595D01*
X159606033Y-59341595D02*
X159629842Y-59389214D01*
X159629842Y-59389214D02*
X159653652Y-59413023D01*
X159653652Y-59413023D02*
X159701271Y-59436833D01*
X159701271Y-59436833D02*
X159796509Y-59436833D01*
X159796509Y-59436833D02*
X159844128Y-59413023D01*
X159844128Y-59413023D02*
X159867937Y-59389214D01*
X159867937Y-59389214D02*
X159891747Y-59341595D01*
X160034604Y-59293976D02*
X160225080Y-59293976D01*
X160106032Y-59627309D02*
X160106032Y-59198738D01*
X160106032Y-59198738D02*
X160129842Y-59151119D01*
X160129842Y-59151119D02*
X160177461Y-59127309D01*
X160177461Y-59127309D02*
X160225080Y-59127309D01*
X160391746Y-59627309D02*
X160391746Y-59127309D01*
X160391746Y-59317785D02*
X160439365Y-59293976D01*
X160439365Y-59293976D02*
X160534603Y-59293976D01*
X160534603Y-59293976D02*
X160582222Y-59317785D01*
X160582222Y-59317785D02*
X160606032Y-59341595D01*
X160606032Y-59341595D02*
X160629841Y-59389214D01*
X160629841Y-59389214D02*
X160629841Y-59532071D01*
X160629841Y-59532071D02*
X160606032Y-59579690D01*
X160606032Y-59579690D02*
X160582222Y-59603500D01*
X160582222Y-59603500D02*
X160534603Y-59627309D01*
X160534603Y-59627309D02*
X160439365Y-59627309D01*
X160439365Y-59627309D02*
X160391746Y-59603500D01*
X160772699Y-59293976D02*
X160963175Y-59293976D01*
X160844127Y-59627309D02*
X160844127Y-59198738D01*
X160844127Y-59198738D02*
X160867937Y-59151119D01*
X160867937Y-59151119D02*
X160915556Y-59127309D01*
X160915556Y-59127309D02*
X160963175Y-59127309D01*
X140201283Y-60432309D02*
X140201283Y-59932309D01*
X140415569Y-60432309D02*
X140415569Y-60170404D01*
X140415569Y-60170404D02*
X140391759Y-60122785D01*
X140391759Y-60122785D02*
X140344140Y-60098976D01*
X140344140Y-60098976D02*
X140272712Y-60098976D01*
X140272712Y-60098976D02*
X140225093Y-60122785D01*
X140225093Y-60122785D02*
X140201283Y-60146595D01*
X140582236Y-60098976D02*
X140772712Y-60098976D01*
X140653664Y-59932309D02*
X140653664Y-60360880D01*
X140653664Y-60360880D02*
X140677474Y-60408500D01*
X140677474Y-60408500D02*
X140725093Y-60432309D01*
X140725093Y-60432309D02*
X140772712Y-60432309D01*
X140867950Y-60098976D02*
X141058426Y-60098976D01*
X140939378Y-59932309D02*
X140939378Y-60360880D01*
X140939378Y-60360880D02*
X140963188Y-60408500D01*
X140963188Y-60408500D02*
X141010807Y-60432309D01*
X141010807Y-60432309D02*
X141058426Y-60432309D01*
X141225092Y-60098976D02*
X141225092Y-60598976D01*
X141225092Y-60122785D02*
X141272711Y-60098976D01*
X141272711Y-60098976D02*
X141367949Y-60098976D01*
X141367949Y-60098976D02*
X141415568Y-60122785D01*
X141415568Y-60122785D02*
X141439378Y-60146595D01*
X141439378Y-60146595D02*
X141463187Y-60194214D01*
X141463187Y-60194214D02*
X141463187Y-60337071D01*
X141463187Y-60337071D02*
X141439378Y-60384690D01*
X141439378Y-60384690D02*
X141415568Y-60408500D01*
X141415568Y-60408500D02*
X141367949Y-60432309D01*
X141367949Y-60432309D02*
X141272711Y-60432309D01*
X141272711Y-60432309D02*
X141225092Y-60408500D01*
X141653664Y-60408500D02*
X141701283Y-60432309D01*
X141701283Y-60432309D02*
X141796521Y-60432309D01*
X141796521Y-60432309D02*
X141844140Y-60408500D01*
X141844140Y-60408500D02*
X141867949Y-60360880D01*
X141867949Y-60360880D02*
X141867949Y-60337071D01*
X141867949Y-60337071D02*
X141844140Y-60289452D01*
X141844140Y-60289452D02*
X141796521Y-60265642D01*
X141796521Y-60265642D02*
X141725092Y-60265642D01*
X141725092Y-60265642D02*
X141677473Y-60241833D01*
X141677473Y-60241833D02*
X141653664Y-60194214D01*
X141653664Y-60194214D02*
X141653664Y-60170404D01*
X141653664Y-60170404D02*
X141677473Y-60122785D01*
X141677473Y-60122785D02*
X141725092Y-60098976D01*
X141725092Y-60098976D02*
X141796521Y-60098976D01*
X141796521Y-60098976D02*
X141844140Y-60122785D01*
X142082235Y-60384690D02*
X142106045Y-60408500D01*
X142106045Y-60408500D02*
X142082235Y-60432309D01*
X142082235Y-60432309D02*
X142058426Y-60408500D01*
X142058426Y-60408500D02*
X142082235Y-60384690D01*
X142082235Y-60384690D02*
X142082235Y-60432309D01*
X142082235Y-60122785D02*
X142106045Y-60146595D01*
X142106045Y-60146595D02*
X142082235Y-60170404D01*
X142082235Y-60170404D02*
X142058426Y-60146595D01*
X142058426Y-60146595D02*
X142082235Y-60122785D01*
X142082235Y-60122785D02*
X142082235Y-60170404D01*
X142677473Y-59908500D02*
X142248902Y-60551357D01*
X143201283Y-59908500D02*
X142772712Y-60551357D01*
X143582236Y-60098976D02*
X143582236Y-60503738D01*
X143582236Y-60503738D02*
X143558426Y-60551357D01*
X143558426Y-60551357D02*
X143534617Y-60575166D01*
X143534617Y-60575166D02*
X143486998Y-60598976D01*
X143486998Y-60598976D02*
X143415569Y-60598976D01*
X143415569Y-60598976D02*
X143367950Y-60575166D01*
X143582236Y-60408500D02*
X143534617Y-60432309D01*
X143534617Y-60432309D02*
X143439379Y-60432309D01*
X143439379Y-60432309D02*
X143391760Y-60408500D01*
X143391760Y-60408500D02*
X143367950Y-60384690D01*
X143367950Y-60384690D02*
X143344141Y-60337071D01*
X143344141Y-60337071D02*
X143344141Y-60194214D01*
X143344141Y-60194214D02*
X143367950Y-60146595D01*
X143367950Y-60146595D02*
X143391760Y-60122785D01*
X143391760Y-60122785D02*
X143439379Y-60098976D01*
X143439379Y-60098976D02*
X143534617Y-60098976D01*
X143534617Y-60098976D02*
X143582236Y-60122785D01*
X143820331Y-60432309D02*
X143820331Y-60098976D01*
X143820331Y-59932309D02*
X143796522Y-59956119D01*
X143796522Y-59956119D02*
X143820331Y-59979928D01*
X143820331Y-59979928D02*
X143844141Y-59956119D01*
X143844141Y-59956119D02*
X143820331Y-59932309D01*
X143820331Y-59932309D02*
X143820331Y-59979928D01*
X143986998Y-60098976D02*
X144177474Y-60098976D01*
X144058426Y-59932309D02*
X144058426Y-60360880D01*
X144058426Y-60360880D02*
X144082236Y-60408500D01*
X144082236Y-60408500D02*
X144129855Y-60432309D01*
X144129855Y-60432309D02*
X144177474Y-60432309D01*
X144344140Y-60432309D02*
X144344140Y-59932309D01*
X144558426Y-60432309D02*
X144558426Y-60170404D01*
X144558426Y-60170404D02*
X144534616Y-60122785D01*
X144534616Y-60122785D02*
X144486997Y-60098976D01*
X144486997Y-60098976D02*
X144415569Y-60098976D01*
X144415569Y-60098976D02*
X144367950Y-60122785D01*
X144367950Y-60122785D02*
X144344140Y-60146595D01*
X145010807Y-60098976D02*
X145010807Y-60432309D01*
X144796521Y-60098976D02*
X144796521Y-60360880D01*
X144796521Y-60360880D02*
X144820331Y-60408500D01*
X144820331Y-60408500D02*
X144867950Y-60432309D01*
X144867950Y-60432309D02*
X144939378Y-60432309D01*
X144939378Y-60432309D02*
X144986997Y-60408500D01*
X144986997Y-60408500D02*
X145010807Y-60384690D01*
X145248902Y-60432309D02*
X145248902Y-59932309D01*
X145248902Y-60122785D02*
X145296521Y-60098976D01*
X145296521Y-60098976D02*
X145391759Y-60098976D01*
X145391759Y-60098976D02*
X145439378Y-60122785D01*
X145439378Y-60122785D02*
X145463188Y-60146595D01*
X145463188Y-60146595D02*
X145486997Y-60194214D01*
X145486997Y-60194214D02*
X145486997Y-60337071D01*
X145486997Y-60337071D02*
X145463188Y-60384690D01*
X145463188Y-60384690D02*
X145439378Y-60408500D01*
X145439378Y-60408500D02*
X145391759Y-60432309D01*
X145391759Y-60432309D02*
X145296521Y-60432309D01*
X145296521Y-60432309D02*
X145248902Y-60408500D01*
X145701283Y-60384690D02*
X145725093Y-60408500D01*
X145725093Y-60408500D02*
X145701283Y-60432309D01*
X145701283Y-60432309D02*
X145677474Y-60408500D01*
X145677474Y-60408500D02*
X145701283Y-60384690D01*
X145701283Y-60384690D02*
X145701283Y-60432309D01*
X146153664Y-60408500D02*
X146106045Y-60432309D01*
X146106045Y-60432309D02*
X146010807Y-60432309D01*
X146010807Y-60432309D02*
X145963188Y-60408500D01*
X145963188Y-60408500D02*
X145939378Y-60384690D01*
X145939378Y-60384690D02*
X145915569Y-60337071D01*
X145915569Y-60337071D02*
X145915569Y-60194214D01*
X145915569Y-60194214D02*
X145939378Y-60146595D01*
X145939378Y-60146595D02*
X145963188Y-60122785D01*
X145963188Y-60122785D02*
X146010807Y-60098976D01*
X146010807Y-60098976D02*
X146106045Y-60098976D01*
X146106045Y-60098976D02*
X146153664Y-60122785D01*
X146439378Y-60432309D02*
X146391759Y-60408500D01*
X146391759Y-60408500D02*
X146367949Y-60384690D01*
X146367949Y-60384690D02*
X146344140Y-60337071D01*
X146344140Y-60337071D02*
X146344140Y-60194214D01*
X146344140Y-60194214D02*
X146367949Y-60146595D01*
X146367949Y-60146595D02*
X146391759Y-60122785D01*
X146391759Y-60122785D02*
X146439378Y-60098976D01*
X146439378Y-60098976D02*
X146510806Y-60098976D01*
X146510806Y-60098976D02*
X146558425Y-60122785D01*
X146558425Y-60122785D02*
X146582235Y-60146595D01*
X146582235Y-60146595D02*
X146606044Y-60194214D01*
X146606044Y-60194214D02*
X146606044Y-60337071D01*
X146606044Y-60337071D02*
X146582235Y-60384690D01*
X146582235Y-60384690D02*
X146558425Y-60408500D01*
X146558425Y-60408500D02*
X146510806Y-60432309D01*
X146510806Y-60432309D02*
X146439378Y-60432309D01*
X146820330Y-60432309D02*
X146820330Y-60098976D01*
X146820330Y-60146595D02*
X146844140Y-60122785D01*
X146844140Y-60122785D02*
X146891759Y-60098976D01*
X146891759Y-60098976D02*
X146963187Y-60098976D01*
X146963187Y-60098976D02*
X147010806Y-60122785D01*
X147010806Y-60122785D02*
X147034616Y-60170404D01*
X147034616Y-60170404D02*
X147034616Y-60432309D01*
X147034616Y-60170404D02*
X147058425Y-60122785D01*
X147058425Y-60122785D02*
X147106044Y-60098976D01*
X147106044Y-60098976D02*
X147177473Y-60098976D01*
X147177473Y-60098976D02*
X147225092Y-60122785D01*
X147225092Y-60122785D02*
X147248902Y-60170404D01*
X147248902Y-60170404D02*
X147248902Y-60432309D01*
X147844140Y-59908500D02*
X147415569Y-60551357D01*
X147939379Y-60098976D02*
X148129855Y-60098976D01*
X148010807Y-59932309D02*
X148010807Y-60360880D01*
X148010807Y-60360880D02*
X148034617Y-60408500D01*
X148034617Y-60408500D02*
X148082236Y-60432309D01*
X148082236Y-60432309D02*
X148129855Y-60432309D01*
X148272712Y-60408500D02*
X148320331Y-60432309D01*
X148320331Y-60432309D02*
X148415569Y-60432309D01*
X148415569Y-60432309D02*
X148463188Y-60408500D01*
X148463188Y-60408500D02*
X148486997Y-60360880D01*
X148486997Y-60360880D02*
X148486997Y-60337071D01*
X148486997Y-60337071D02*
X148463188Y-60289452D01*
X148463188Y-60289452D02*
X148415569Y-60265642D01*
X148415569Y-60265642D02*
X148344140Y-60265642D01*
X148344140Y-60265642D02*
X148296521Y-60241833D01*
X148296521Y-60241833D02*
X148272712Y-60194214D01*
X148272712Y-60194214D02*
X148272712Y-60170404D01*
X148272712Y-60170404D02*
X148296521Y-60122785D01*
X148296521Y-60122785D02*
X148344140Y-60098976D01*
X148344140Y-60098976D02*
X148415569Y-60098976D01*
X148415569Y-60098976D02*
X148463188Y-60122785D01*
X148701283Y-60098976D02*
X148701283Y-60598976D01*
X148701283Y-60122785D02*
X148748902Y-60098976D01*
X148748902Y-60098976D02*
X148844140Y-60098976D01*
X148844140Y-60098976D02*
X148891759Y-60122785D01*
X148891759Y-60122785D02*
X148915569Y-60146595D01*
X148915569Y-60146595D02*
X148939378Y-60194214D01*
X148939378Y-60194214D02*
X148939378Y-60337071D01*
X148939378Y-60337071D02*
X148915569Y-60384690D01*
X148915569Y-60384690D02*
X148891759Y-60408500D01*
X148891759Y-60408500D02*
X148844140Y-60432309D01*
X148844140Y-60432309D02*
X148748902Y-60432309D01*
X148748902Y-60432309D02*
X148701283Y-60408500D01*
X149129855Y-60408500D02*
X149177474Y-60432309D01*
X149177474Y-60432309D02*
X149272712Y-60432309D01*
X149272712Y-60432309D02*
X149320331Y-60408500D01*
X149320331Y-60408500D02*
X149344140Y-60360880D01*
X149344140Y-60360880D02*
X149344140Y-60337071D01*
X149344140Y-60337071D02*
X149320331Y-60289452D01*
X149320331Y-60289452D02*
X149272712Y-60265642D01*
X149272712Y-60265642D02*
X149201283Y-60265642D01*
X149201283Y-60265642D02*
X149153664Y-60241833D01*
X149153664Y-60241833D02*
X149129855Y-60194214D01*
X149129855Y-60194214D02*
X149129855Y-60170404D01*
X149129855Y-60170404D02*
X149153664Y-60122785D01*
X149153664Y-60122785D02*
X149201283Y-60098976D01*
X149201283Y-60098976D02*
X149272712Y-60098976D01*
X149272712Y-60098976D02*
X149320331Y-60122785D01*
X149558426Y-60098976D02*
X149558426Y-60598976D01*
X149558426Y-60122785D02*
X149606045Y-60098976D01*
X149606045Y-60098976D02*
X149701283Y-60098976D01*
X149701283Y-60098976D02*
X149748902Y-60122785D01*
X149748902Y-60122785D02*
X149772712Y-60146595D01*
X149772712Y-60146595D02*
X149796521Y-60194214D01*
X149796521Y-60194214D02*
X149796521Y-60337071D01*
X149796521Y-60337071D02*
X149772712Y-60384690D01*
X149772712Y-60384690D02*
X149748902Y-60408500D01*
X149748902Y-60408500D02*
X149701283Y-60432309D01*
X149701283Y-60432309D02*
X149606045Y-60432309D01*
X149606045Y-60432309D02*
X149558426Y-60408500D01*
X150010807Y-60432309D02*
X150010807Y-60098976D01*
X150010807Y-59932309D02*
X149986998Y-59956119D01*
X149986998Y-59956119D02*
X150010807Y-59979928D01*
X150010807Y-59979928D02*
X150034617Y-59956119D01*
X150034617Y-59956119D02*
X150010807Y-59932309D01*
X150010807Y-59932309D02*
X150010807Y-59979928D01*
X150606045Y-59908500D02*
X150177474Y-60551357D01*
X151010807Y-60432309D02*
X150772712Y-60432309D01*
X150772712Y-60432309D02*
X150772712Y-59932309D01*
X151367950Y-60408500D02*
X151320331Y-60432309D01*
X151320331Y-60432309D02*
X151225093Y-60432309D01*
X151225093Y-60432309D02*
X151177474Y-60408500D01*
X151177474Y-60408500D02*
X151153665Y-60360880D01*
X151153665Y-60360880D02*
X151153665Y-60170404D01*
X151153665Y-60170404D02*
X151177474Y-60122785D01*
X151177474Y-60122785D02*
X151225093Y-60098976D01*
X151225093Y-60098976D02*
X151320331Y-60098976D01*
X151320331Y-60098976D02*
X151367950Y-60122785D01*
X151367950Y-60122785D02*
X151391760Y-60170404D01*
X151391760Y-60170404D02*
X151391760Y-60218023D01*
X151391760Y-60218023D02*
X151153665Y-60265642D01*
X151558426Y-60098976D02*
X151677474Y-60432309D01*
X151677474Y-60432309D02*
X151796521Y-60098976D01*
X152177473Y-60408500D02*
X152129854Y-60432309D01*
X152129854Y-60432309D02*
X152034616Y-60432309D01*
X152034616Y-60432309D02*
X151986997Y-60408500D01*
X151986997Y-60408500D02*
X151963188Y-60360880D01*
X151963188Y-60360880D02*
X151963188Y-60170404D01*
X151963188Y-60170404D02*
X151986997Y-60122785D01*
X151986997Y-60122785D02*
X152034616Y-60098976D01*
X152034616Y-60098976D02*
X152129854Y-60098976D01*
X152129854Y-60098976D02*
X152177473Y-60122785D01*
X152177473Y-60122785D02*
X152201283Y-60170404D01*
X152201283Y-60170404D02*
X152201283Y-60218023D01*
X152201283Y-60218023D02*
X151963188Y-60265642D01*
X152486997Y-60432309D02*
X152439378Y-60408500D01*
X152439378Y-60408500D02*
X152415568Y-60360880D01*
X152415568Y-60360880D02*
X152415568Y-59932309D01*
X152606045Y-59932309D02*
X152891759Y-59932309D01*
X152748902Y-60432309D02*
X152748902Y-59932309D01*
X153058425Y-60432309D02*
X153058425Y-60098976D01*
X153058425Y-60194214D02*
X153082235Y-60146595D01*
X153082235Y-60146595D02*
X153106044Y-60122785D01*
X153106044Y-60122785D02*
X153153663Y-60098976D01*
X153153663Y-60098976D02*
X153201282Y-60098976D01*
X153582235Y-60432309D02*
X153582235Y-60170404D01*
X153582235Y-60170404D02*
X153558425Y-60122785D01*
X153558425Y-60122785D02*
X153510806Y-60098976D01*
X153510806Y-60098976D02*
X153415568Y-60098976D01*
X153415568Y-60098976D02*
X153367949Y-60122785D01*
X153582235Y-60408500D02*
X153534616Y-60432309D01*
X153534616Y-60432309D02*
X153415568Y-60432309D01*
X153415568Y-60432309D02*
X153367949Y-60408500D01*
X153367949Y-60408500D02*
X153344140Y-60360880D01*
X153344140Y-60360880D02*
X153344140Y-60313261D01*
X153344140Y-60313261D02*
X153367949Y-60265642D01*
X153367949Y-60265642D02*
X153415568Y-60241833D01*
X153415568Y-60241833D02*
X153534616Y-60241833D01*
X153534616Y-60241833D02*
X153582235Y-60218023D01*
X153820330Y-60098976D02*
X153820330Y-60432309D01*
X153820330Y-60146595D02*
X153844140Y-60122785D01*
X153844140Y-60122785D02*
X153891759Y-60098976D01*
X153891759Y-60098976D02*
X153963187Y-60098976D01*
X153963187Y-60098976D02*
X154010806Y-60122785D01*
X154010806Y-60122785D02*
X154034616Y-60170404D01*
X154034616Y-60170404D02*
X154034616Y-60432309D01*
X154248902Y-60408500D02*
X154296521Y-60432309D01*
X154296521Y-60432309D02*
X154391759Y-60432309D01*
X154391759Y-60432309D02*
X154439378Y-60408500D01*
X154439378Y-60408500D02*
X154463187Y-60360880D01*
X154463187Y-60360880D02*
X154463187Y-60337071D01*
X154463187Y-60337071D02*
X154439378Y-60289452D01*
X154439378Y-60289452D02*
X154391759Y-60265642D01*
X154391759Y-60265642D02*
X154320330Y-60265642D01*
X154320330Y-60265642D02*
X154272711Y-60241833D01*
X154272711Y-60241833D02*
X154248902Y-60194214D01*
X154248902Y-60194214D02*
X154248902Y-60170404D01*
X154248902Y-60170404D02*
X154272711Y-60122785D01*
X154272711Y-60122785D02*
X154320330Y-60098976D01*
X154320330Y-60098976D02*
X154391759Y-60098976D01*
X154391759Y-60098976D02*
X154439378Y-60122785D01*
X154748902Y-60432309D02*
X154701283Y-60408500D01*
X154701283Y-60408500D02*
X154677473Y-60360880D01*
X154677473Y-60360880D02*
X154677473Y-59932309D01*
X155153664Y-60432309D02*
X155153664Y-60170404D01*
X155153664Y-60170404D02*
X155129854Y-60122785D01*
X155129854Y-60122785D02*
X155082235Y-60098976D01*
X155082235Y-60098976D02*
X154986997Y-60098976D01*
X154986997Y-60098976D02*
X154939378Y-60122785D01*
X155153664Y-60408500D02*
X155106045Y-60432309D01*
X155106045Y-60432309D02*
X154986997Y-60432309D01*
X154986997Y-60432309D02*
X154939378Y-60408500D01*
X154939378Y-60408500D02*
X154915569Y-60360880D01*
X154915569Y-60360880D02*
X154915569Y-60313261D01*
X154915569Y-60313261D02*
X154939378Y-60265642D01*
X154939378Y-60265642D02*
X154986997Y-60241833D01*
X154986997Y-60241833D02*
X155106045Y-60241833D01*
X155106045Y-60241833D02*
X155153664Y-60218023D01*
X155320331Y-60098976D02*
X155510807Y-60098976D01*
X155391759Y-59932309D02*
X155391759Y-60360880D01*
X155391759Y-60360880D02*
X155415569Y-60408500D01*
X155415569Y-60408500D02*
X155463188Y-60432309D01*
X155463188Y-60432309D02*
X155510807Y-60432309D01*
X155748902Y-60432309D02*
X155701283Y-60408500D01*
X155701283Y-60408500D02*
X155677473Y-60384690D01*
X155677473Y-60384690D02*
X155653664Y-60337071D01*
X155653664Y-60337071D02*
X155653664Y-60194214D01*
X155653664Y-60194214D02*
X155677473Y-60146595D01*
X155677473Y-60146595D02*
X155701283Y-60122785D01*
X155701283Y-60122785D02*
X155748902Y-60098976D01*
X155748902Y-60098976D02*
X155820330Y-60098976D01*
X155820330Y-60098976D02*
X155867949Y-60122785D01*
X155867949Y-60122785D02*
X155891759Y-60146595D01*
X155891759Y-60146595D02*
X155915568Y-60194214D01*
X155915568Y-60194214D02*
X155915568Y-60337071D01*
X155915568Y-60337071D02*
X155891759Y-60384690D01*
X155891759Y-60384690D02*
X155867949Y-60408500D01*
X155867949Y-60408500D02*
X155820330Y-60432309D01*
X155820330Y-60432309D02*
X155748902Y-60432309D01*
X156129854Y-60432309D02*
X156129854Y-60098976D01*
X156129854Y-60194214D02*
X156153664Y-60146595D01*
X156153664Y-60146595D02*
X156177473Y-60122785D01*
X156177473Y-60122785D02*
X156225092Y-60098976D01*
X156225092Y-60098976D02*
X156272711Y-60098976D01*
X156701283Y-60432309D02*
X156415569Y-60432309D01*
X156558426Y-60432309D02*
X156558426Y-59932309D01*
X156558426Y-59932309D02*
X156510807Y-60003738D01*
X156510807Y-60003738D02*
X156463188Y-60051357D01*
X156463188Y-60051357D02*
X156415569Y-60075166D01*
X157153663Y-59932309D02*
X156915568Y-59932309D01*
X156915568Y-59932309D02*
X156891759Y-60170404D01*
X156891759Y-60170404D02*
X156915568Y-60146595D01*
X156915568Y-60146595D02*
X156963187Y-60122785D01*
X156963187Y-60122785D02*
X157082235Y-60122785D01*
X157082235Y-60122785D02*
X157129854Y-60146595D01*
X157129854Y-60146595D02*
X157153663Y-60170404D01*
X157153663Y-60170404D02*
X157177473Y-60218023D01*
X157177473Y-60218023D02*
X157177473Y-60337071D01*
X157177473Y-60337071D02*
X157153663Y-60384690D01*
X157153663Y-60384690D02*
X157129854Y-60408500D01*
X157129854Y-60408500D02*
X157082235Y-60432309D01*
X157082235Y-60432309D02*
X156963187Y-60432309D01*
X156963187Y-60432309D02*
X156915568Y-60408500D01*
X156915568Y-60408500D02*
X156891759Y-60384690D01*
X157320330Y-60098976D02*
X157510806Y-60098976D01*
X157391758Y-59932309D02*
X157391758Y-60360880D01*
X157391758Y-60360880D02*
X157415568Y-60408500D01*
X157415568Y-60408500D02*
X157463187Y-60432309D01*
X157463187Y-60432309D02*
X157510806Y-60432309D01*
X157748901Y-60432309D02*
X157701282Y-60408500D01*
X157701282Y-60408500D02*
X157677472Y-60384690D01*
X157677472Y-60384690D02*
X157653663Y-60337071D01*
X157653663Y-60337071D02*
X157653663Y-60194214D01*
X157653663Y-60194214D02*
X157677472Y-60146595D01*
X157677472Y-60146595D02*
X157701282Y-60122785D01*
X157701282Y-60122785D02*
X157748901Y-60098976D01*
X157748901Y-60098976D02*
X157820329Y-60098976D01*
X157820329Y-60098976D02*
X157867948Y-60122785D01*
X157867948Y-60122785D02*
X157891758Y-60146595D01*
X157891758Y-60146595D02*
X157915567Y-60194214D01*
X157915567Y-60194214D02*
X157915567Y-60337071D01*
X157915567Y-60337071D02*
X157891758Y-60384690D01*
X157891758Y-60384690D02*
X157867948Y-60408500D01*
X157867948Y-60408500D02*
X157820329Y-60432309D01*
X157820329Y-60432309D02*
X157748901Y-60432309D01*
X158082234Y-59932309D02*
X158391758Y-59932309D01*
X158391758Y-59932309D02*
X158225091Y-60122785D01*
X158225091Y-60122785D02*
X158296520Y-60122785D01*
X158296520Y-60122785D02*
X158344139Y-60146595D01*
X158344139Y-60146595D02*
X158367948Y-60170404D01*
X158367948Y-60170404D02*
X158391758Y-60218023D01*
X158391758Y-60218023D02*
X158391758Y-60337071D01*
X158391758Y-60337071D02*
X158367948Y-60384690D01*
X158367948Y-60384690D02*
X158344139Y-60408500D01*
X158344139Y-60408500D02*
X158296520Y-60432309D01*
X158296520Y-60432309D02*
X158153663Y-60432309D01*
X158153663Y-60432309D02*
X158106044Y-60408500D01*
X158106044Y-60408500D02*
X158082234Y-60384690D01*
X158534615Y-59932309D02*
X158701281Y-60432309D01*
X158701281Y-60432309D02*
X158867948Y-59932309D01*
X128036811Y-34543880D02*
X128084430Y-34567690D01*
X128084430Y-34567690D02*
X128155859Y-34567690D01*
X128155859Y-34567690D02*
X128227287Y-34543880D01*
X128227287Y-34543880D02*
X128274906Y-34496261D01*
X128274906Y-34496261D02*
X128298716Y-34448642D01*
X128298716Y-34448642D02*
X128322525Y-34353404D01*
X128322525Y-34353404D02*
X128322525Y-34281976D01*
X128322525Y-34281976D02*
X128298716Y-34186738D01*
X128298716Y-34186738D02*
X128274906Y-34139119D01*
X128274906Y-34139119D02*
X128227287Y-34091500D01*
X128227287Y-34091500D02*
X128155859Y-34067690D01*
X128155859Y-34067690D02*
X128108240Y-34067690D01*
X128108240Y-34067690D02*
X128036811Y-34091500D01*
X128036811Y-34091500D02*
X128013002Y-34115309D01*
X128013002Y-34115309D02*
X128013002Y-34281976D01*
X128013002Y-34281976D02*
X128108240Y-34281976D01*
X127798716Y-34067690D02*
X127798716Y-34567690D01*
X127798716Y-34567690D02*
X127513002Y-34067690D01*
X127513002Y-34067690D02*
X127513002Y-34567690D01*
X127274906Y-34067690D02*
X127274906Y-34567690D01*
X127274906Y-34567690D02*
X127155858Y-34567690D01*
X127155858Y-34567690D02*
X127084430Y-34543880D01*
X127084430Y-34543880D02*
X127036811Y-34496261D01*
X127036811Y-34496261D02*
X127013001Y-34448642D01*
X127013001Y-34448642D02*
X126989192Y-34353404D01*
X126989192Y-34353404D02*
X126989192Y-34281976D01*
X126989192Y-34281976D02*
X127013001Y-34186738D01*
X127013001Y-34186738D02*
X127036811Y-34139119D01*
X127036811Y-34139119D02*
X127084430Y-34091500D01*
X127084430Y-34091500D02*
X127155858Y-34067690D01*
X127155858Y-34067690D02*
X127274906Y-34067690D01*
X126274906Y-33901023D02*
X126274906Y-34615309D01*
X125608240Y-34567690D02*
X125441574Y-34067690D01*
X125441574Y-34067690D02*
X125274907Y-34567690D01*
X125132050Y-34091500D02*
X125060622Y-34067690D01*
X125060622Y-34067690D02*
X124941574Y-34067690D01*
X124941574Y-34067690D02*
X124893955Y-34091500D01*
X124893955Y-34091500D02*
X124870146Y-34115309D01*
X124870146Y-34115309D02*
X124846336Y-34162928D01*
X124846336Y-34162928D02*
X124846336Y-34210547D01*
X124846336Y-34210547D02*
X124870146Y-34258166D01*
X124870146Y-34258166D02*
X124893955Y-34281976D01*
X124893955Y-34281976D02*
X124941574Y-34305785D01*
X124941574Y-34305785D02*
X125036812Y-34329595D01*
X125036812Y-34329595D02*
X125084431Y-34353404D01*
X125084431Y-34353404D02*
X125108241Y-34377214D01*
X125108241Y-34377214D02*
X125132050Y-34424833D01*
X125132050Y-34424833D02*
X125132050Y-34472452D01*
X125132050Y-34472452D02*
X125108241Y-34520071D01*
X125108241Y-34520071D02*
X125084431Y-34543880D01*
X125084431Y-34543880D02*
X125036812Y-34567690D01*
X125036812Y-34567690D02*
X124917765Y-34567690D01*
X124917765Y-34567690D02*
X124846336Y-34543880D01*
X124655860Y-34091500D02*
X124584432Y-34067690D01*
X124584432Y-34067690D02*
X124465384Y-34067690D01*
X124465384Y-34067690D02*
X124417765Y-34091500D01*
X124417765Y-34091500D02*
X124393956Y-34115309D01*
X124393956Y-34115309D02*
X124370146Y-34162928D01*
X124370146Y-34162928D02*
X124370146Y-34210547D01*
X124370146Y-34210547D02*
X124393956Y-34258166D01*
X124393956Y-34258166D02*
X124417765Y-34281976D01*
X124417765Y-34281976D02*
X124465384Y-34305785D01*
X124465384Y-34305785D02*
X124560622Y-34329595D01*
X124560622Y-34329595D02*
X124608241Y-34353404D01*
X124608241Y-34353404D02*
X124632051Y-34377214D01*
X124632051Y-34377214D02*
X124655860Y-34424833D01*
X124655860Y-34424833D02*
X124655860Y-34472452D01*
X124655860Y-34472452D02*
X124632051Y-34520071D01*
X124632051Y-34520071D02*
X124608241Y-34543880D01*
X124608241Y-34543880D02*
X124560622Y-34567690D01*
X124560622Y-34567690D02*
X124441575Y-34567690D01*
X124441575Y-34567690D02*
X124370146Y-34543880D01*
X124013004Y-33877214D02*
X124036813Y-33901023D01*
X124036813Y-33901023D02*
X124084432Y-33972452D01*
X124084432Y-33972452D02*
X124108242Y-34020071D01*
X124108242Y-34020071D02*
X124132051Y-34091500D01*
X124132051Y-34091500D02*
X124155861Y-34210547D01*
X124155861Y-34210547D02*
X124155861Y-34305785D01*
X124155861Y-34305785D02*
X124132051Y-34424833D01*
X124132051Y-34424833D02*
X124108242Y-34496261D01*
X124108242Y-34496261D02*
X124084432Y-34543880D01*
X124084432Y-34543880D02*
X124036813Y-34615309D01*
X124036813Y-34615309D02*
X124013004Y-34639119D01*
X123822528Y-34258166D02*
X123441576Y-34258166D01*
X123251099Y-33877214D02*
X123227289Y-33901023D01*
X123227289Y-33901023D02*
X123179670Y-33972452D01*
X123179670Y-33972452D02*
X123155861Y-34020071D01*
X123155861Y-34020071D02*
X123132051Y-34091500D01*
X123132051Y-34091500D02*
X123108242Y-34210547D01*
X123108242Y-34210547D02*
X123108242Y-34305785D01*
X123108242Y-34305785D02*
X123132051Y-34424833D01*
X123132051Y-34424833D02*
X123155861Y-34496261D01*
X123155861Y-34496261D02*
X123179670Y-34543880D01*
X123179670Y-34543880D02*
X123227289Y-34615309D01*
X123227289Y-34615309D02*
X123251099Y-34639119D01*
X122370147Y-33901023D02*
X122370147Y-34615309D01*
X121370148Y-34543880D02*
X121417767Y-34567690D01*
X121417767Y-34567690D02*
X121489196Y-34567690D01*
X121489196Y-34567690D02*
X121560624Y-34543880D01*
X121560624Y-34543880D02*
X121608243Y-34496261D01*
X121608243Y-34496261D02*
X121632053Y-34448642D01*
X121632053Y-34448642D02*
X121655862Y-34353404D01*
X121655862Y-34353404D02*
X121655862Y-34281976D01*
X121655862Y-34281976D02*
X121632053Y-34186738D01*
X121632053Y-34186738D02*
X121608243Y-34139119D01*
X121608243Y-34139119D02*
X121560624Y-34091500D01*
X121560624Y-34091500D02*
X121489196Y-34067690D01*
X121489196Y-34067690D02*
X121441577Y-34067690D01*
X121441577Y-34067690D02*
X121370148Y-34091500D01*
X121370148Y-34091500D02*
X121346339Y-34115309D01*
X121346339Y-34115309D02*
X121346339Y-34281976D01*
X121346339Y-34281976D02*
X121441577Y-34281976D01*
X121132053Y-34067690D02*
X121132053Y-34567690D01*
X121132053Y-34567690D02*
X120846339Y-34067690D01*
X120846339Y-34067690D02*
X120846339Y-34567690D01*
X120608243Y-34067690D02*
X120608243Y-34567690D01*
X120608243Y-34567690D02*
X120489195Y-34567690D01*
X120489195Y-34567690D02*
X120417767Y-34543880D01*
X120417767Y-34543880D02*
X120370148Y-34496261D01*
X120370148Y-34496261D02*
X120346338Y-34448642D01*
X120346338Y-34448642D02*
X120322529Y-34353404D01*
X120322529Y-34353404D02*
X120322529Y-34281976D01*
X120322529Y-34281976D02*
X120346338Y-34186738D01*
X120346338Y-34186738D02*
X120370148Y-34139119D01*
X120370148Y-34139119D02*
X120417767Y-34091500D01*
X120417767Y-34091500D02*
X120489195Y-34067690D01*
X120489195Y-34067690D02*
X120608243Y-34067690D01*
X119608243Y-33901023D02*
X119608243Y-34615309D01*
X118941577Y-34567690D02*
X118774911Y-34067690D01*
X118774911Y-34067690D02*
X118608244Y-34567690D01*
X118155864Y-34115309D02*
X118179673Y-34091500D01*
X118179673Y-34091500D02*
X118251102Y-34067690D01*
X118251102Y-34067690D02*
X118298721Y-34067690D01*
X118298721Y-34067690D02*
X118370149Y-34091500D01*
X118370149Y-34091500D02*
X118417768Y-34139119D01*
X118417768Y-34139119D02*
X118441578Y-34186738D01*
X118441578Y-34186738D02*
X118465387Y-34281976D01*
X118465387Y-34281976D02*
X118465387Y-34353404D01*
X118465387Y-34353404D02*
X118441578Y-34448642D01*
X118441578Y-34448642D02*
X118417768Y-34496261D01*
X118417768Y-34496261D02*
X118370149Y-34543880D01*
X118370149Y-34543880D02*
X118298721Y-34567690D01*
X118298721Y-34567690D02*
X118251102Y-34567690D01*
X118251102Y-34567690D02*
X118179673Y-34543880D01*
X118179673Y-34543880D02*
X118155864Y-34520071D01*
X117655864Y-34115309D02*
X117679673Y-34091500D01*
X117679673Y-34091500D02*
X117751102Y-34067690D01*
X117751102Y-34067690D02*
X117798721Y-34067690D01*
X117798721Y-34067690D02*
X117870149Y-34091500D01*
X117870149Y-34091500D02*
X117917768Y-34139119D01*
X117917768Y-34139119D02*
X117941578Y-34186738D01*
X117941578Y-34186738D02*
X117965387Y-34281976D01*
X117965387Y-34281976D02*
X117965387Y-34353404D01*
X117965387Y-34353404D02*
X117941578Y-34448642D01*
X117941578Y-34448642D02*
X117917768Y-34496261D01*
X117917768Y-34496261D02*
X117870149Y-34543880D01*
X117870149Y-34543880D02*
X117798721Y-34567690D01*
X117798721Y-34567690D02*
X117751102Y-34567690D01*
X117751102Y-34567690D02*
X117679673Y-34543880D01*
X117679673Y-34543880D02*
X117655864Y-34520071D01*
X117298721Y-33877214D02*
X117322530Y-33901023D01*
X117322530Y-33901023D02*
X117370149Y-33972452D01*
X117370149Y-33972452D02*
X117393959Y-34020071D01*
X117393959Y-34020071D02*
X117417768Y-34091500D01*
X117417768Y-34091500D02*
X117441578Y-34210547D01*
X117441578Y-34210547D02*
X117441578Y-34305785D01*
X117441578Y-34305785D02*
X117417768Y-34424833D01*
X117417768Y-34424833D02*
X117393959Y-34496261D01*
X117393959Y-34496261D02*
X117370149Y-34543880D01*
X117370149Y-34543880D02*
X117322530Y-34615309D01*
X117322530Y-34615309D02*
X117298721Y-34639119D01*
X117108245Y-34258166D02*
X116727293Y-34258166D01*
X116917769Y-34067690D02*
X116917769Y-34448642D01*
X116536816Y-33877214D02*
X116513006Y-33901023D01*
X116513006Y-33901023D02*
X116465387Y-33972452D01*
X116465387Y-33972452D02*
X116441578Y-34020071D01*
X116441578Y-34020071D02*
X116417768Y-34091500D01*
X116417768Y-34091500D02*
X116393959Y-34210547D01*
X116393959Y-34210547D02*
X116393959Y-34305785D01*
X116393959Y-34305785D02*
X116417768Y-34424833D01*
X116417768Y-34424833D02*
X116441578Y-34496261D01*
X116441578Y-34496261D02*
X116465387Y-34543880D01*
X116465387Y-34543880D02*
X116513006Y-34615309D01*
X116513006Y-34615309D02*
X116536816Y-34639119D01*
X111567690Y-40701283D02*
X112067690Y-40701283D01*
X111567690Y-40939378D02*
X112067690Y-40939378D01*
X112067690Y-40939378D02*
X111567690Y-41225092D01*
X111567690Y-41225092D02*
X112067690Y-41225092D01*
X111567690Y-41725093D02*
X111567690Y-41439379D01*
X111567690Y-41582236D02*
X112067690Y-41582236D01*
X112067690Y-41582236D02*
X111996261Y-41534617D01*
X111996261Y-41534617D02*
X111948642Y-41486998D01*
X111948642Y-41486998D02*
X111924833Y-41439379D01*
X111401023Y-42058426D02*
X112115309Y-42058426D01*
X112043880Y-42677473D02*
X112067690Y-42629854D01*
X112067690Y-42629854D02*
X112067690Y-42558425D01*
X112067690Y-42558425D02*
X112043880Y-42486997D01*
X112043880Y-42486997D02*
X111996261Y-42439378D01*
X111996261Y-42439378D02*
X111948642Y-42415568D01*
X111948642Y-42415568D02*
X111853404Y-42391759D01*
X111853404Y-42391759D02*
X111781976Y-42391759D01*
X111781976Y-42391759D02*
X111686738Y-42415568D01*
X111686738Y-42415568D02*
X111639119Y-42439378D01*
X111639119Y-42439378D02*
X111591500Y-42486997D01*
X111591500Y-42486997D02*
X111567690Y-42558425D01*
X111567690Y-42558425D02*
X111567690Y-42606044D01*
X111567690Y-42606044D02*
X111591500Y-42677473D01*
X111591500Y-42677473D02*
X111615309Y-42701282D01*
X111615309Y-42701282D02*
X111781976Y-42701282D01*
X111781976Y-42701282D02*
X111781976Y-42606044D01*
X111567690Y-42915568D02*
X112067690Y-42915568D01*
X112067690Y-42915568D02*
X111567690Y-43201282D01*
X111567690Y-43201282D02*
X112067690Y-43201282D01*
X111567690Y-43439378D02*
X112067690Y-43439378D01*
X112067690Y-43439378D02*
X112067690Y-43558426D01*
X112067690Y-43558426D02*
X112043880Y-43629854D01*
X112043880Y-43629854D02*
X111996261Y-43677473D01*
X111996261Y-43677473D02*
X111948642Y-43701283D01*
X111948642Y-43701283D02*
X111853404Y-43725092D01*
X111853404Y-43725092D02*
X111781976Y-43725092D01*
X111781976Y-43725092D02*
X111686738Y-43701283D01*
X111686738Y-43701283D02*
X111639119Y-43677473D01*
X111639119Y-43677473D02*
X111591500Y-43629854D01*
X111591500Y-43629854D02*
X111567690Y-43558426D01*
X111567690Y-43558426D02*
X111567690Y-43439378D01*
X111401023Y-44058426D02*
X112115309Y-44058426D01*
X111567690Y-44415568D02*
X112067690Y-44415568D01*
X111567690Y-44653663D02*
X112067690Y-44653663D01*
X112067690Y-44653663D02*
X111567690Y-44939377D01*
X111567690Y-44939377D02*
X112067690Y-44939377D01*
X112020071Y-45153664D02*
X112043880Y-45177473D01*
X112043880Y-45177473D02*
X112067690Y-45225092D01*
X112067690Y-45225092D02*
X112067690Y-45344140D01*
X112067690Y-45344140D02*
X112043880Y-45391759D01*
X112043880Y-45391759D02*
X112020071Y-45415568D01*
X112020071Y-45415568D02*
X111972452Y-45439378D01*
X111972452Y-45439378D02*
X111924833Y-45439378D01*
X111924833Y-45439378D02*
X111853404Y-45415568D01*
X111853404Y-45415568D02*
X111567690Y-45129854D01*
X111567690Y-45129854D02*
X111567690Y-45439378D01*
X111401023Y-45772711D02*
X112115309Y-45772711D01*
X112043880Y-46391758D02*
X112067690Y-46344139D01*
X112067690Y-46344139D02*
X112067690Y-46272710D01*
X112067690Y-46272710D02*
X112043880Y-46201282D01*
X112043880Y-46201282D02*
X111996261Y-46153663D01*
X111996261Y-46153663D02*
X111948642Y-46129853D01*
X111948642Y-46129853D02*
X111853404Y-46106044D01*
X111853404Y-46106044D02*
X111781976Y-46106044D01*
X111781976Y-46106044D02*
X111686738Y-46129853D01*
X111686738Y-46129853D02*
X111639119Y-46153663D01*
X111639119Y-46153663D02*
X111591500Y-46201282D01*
X111591500Y-46201282D02*
X111567690Y-46272710D01*
X111567690Y-46272710D02*
X111567690Y-46320329D01*
X111567690Y-46320329D02*
X111591500Y-46391758D01*
X111591500Y-46391758D02*
X111615309Y-46415567D01*
X111615309Y-46415567D02*
X111781976Y-46415567D01*
X111781976Y-46415567D02*
X111781976Y-46320329D01*
X111567690Y-46629853D02*
X112067690Y-46629853D01*
X112067690Y-46629853D02*
X111567690Y-46915567D01*
X111567690Y-46915567D02*
X112067690Y-46915567D01*
X111567690Y-47153663D02*
X112067690Y-47153663D01*
X112067690Y-47153663D02*
X112067690Y-47272711D01*
X112067690Y-47272711D02*
X112043880Y-47344139D01*
X112043880Y-47344139D02*
X111996261Y-47391758D01*
X111996261Y-47391758D02*
X111948642Y-47415568D01*
X111948642Y-47415568D02*
X111853404Y-47439377D01*
X111853404Y-47439377D02*
X111781976Y-47439377D01*
X111781976Y-47439377D02*
X111686738Y-47415568D01*
X111686738Y-47415568D02*
X111639119Y-47391758D01*
X111639119Y-47391758D02*
X111591500Y-47344139D01*
X111591500Y-47344139D02*
X111567690Y-47272711D01*
X111567690Y-47272711D02*
X111567690Y-47153663D01*
X176956119Y-46536811D02*
X176932309Y-46584430D01*
X176932309Y-46584430D02*
X176932309Y-46655859D01*
X176932309Y-46655859D02*
X176956119Y-46727287D01*
X176956119Y-46727287D02*
X177003738Y-46774906D01*
X177003738Y-46774906D02*
X177051357Y-46798716D01*
X177051357Y-46798716D02*
X177146595Y-46822525D01*
X177146595Y-46822525D02*
X177218023Y-46822525D01*
X177218023Y-46822525D02*
X177313261Y-46798716D01*
X177313261Y-46798716D02*
X177360880Y-46774906D01*
X177360880Y-46774906D02*
X177408500Y-46727287D01*
X177408500Y-46727287D02*
X177432309Y-46655859D01*
X177432309Y-46655859D02*
X177432309Y-46608240D01*
X177432309Y-46608240D02*
X177408500Y-46536811D01*
X177408500Y-46536811D02*
X177384690Y-46513002D01*
X177384690Y-46513002D02*
X177218023Y-46513002D01*
X177218023Y-46513002D02*
X177218023Y-46608240D01*
X177432309Y-46298716D02*
X176932309Y-46298716D01*
X176932309Y-46298716D02*
X177432309Y-46013002D01*
X177432309Y-46013002D02*
X176932309Y-46013002D01*
X177432309Y-45774906D02*
X176932309Y-45774906D01*
X176932309Y-45774906D02*
X176932309Y-45655858D01*
X176932309Y-45655858D02*
X176956119Y-45584430D01*
X176956119Y-45584430D02*
X177003738Y-45536811D01*
X177003738Y-45536811D02*
X177051357Y-45513001D01*
X177051357Y-45513001D02*
X177146595Y-45489192D01*
X177146595Y-45489192D02*
X177218023Y-45489192D01*
X177218023Y-45489192D02*
X177313261Y-45513001D01*
X177313261Y-45513001D02*
X177360880Y-45536811D01*
X177360880Y-45536811D02*
X177408500Y-45584430D01*
X177408500Y-45584430D02*
X177432309Y-45655858D01*
X177432309Y-45655858D02*
X177432309Y-45774906D01*
X177598976Y-45155858D02*
X176884690Y-45155858D01*
X176932309Y-44703478D02*
X176932309Y-44608240D01*
X176932309Y-44608240D02*
X176956119Y-44560621D01*
X176956119Y-44560621D02*
X177003738Y-44513002D01*
X177003738Y-44513002D02*
X177098976Y-44489192D01*
X177098976Y-44489192D02*
X177265642Y-44489192D01*
X177265642Y-44489192D02*
X177360880Y-44513002D01*
X177360880Y-44513002D02*
X177408500Y-44560621D01*
X177408500Y-44560621D02*
X177432309Y-44608240D01*
X177432309Y-44608240D02*
X177432309Y-44703478D01*
X177432309Y-44703478D02*
X177408500Y-44751097D01*
X177408500Y-44751097D02*
X177360880Y-44798716D01*
X177360880Y-44798716D02*
X177265642Y-44822525D01*
X177265642Y-44822525D02*
X177098976Y-44822525D01*
X177098976Y-44822525D02*
X177003738Y-44798716D01*
X177003738Y-44798716D02*
X176956119Y-44751097D01*
X176956119Y-44751097D02*
X176932309Y-44703478D01*
X176979928Y-44298715D02*
X176956119Y-44274906D01*
X176956119Y-44274906D02*
X176932309Y-44227287D01*
X176932309Y-44227287D02*
X176932309Y-44108239D01*
X176932309Y-44108239D02*
X176956119Y-44060620D01*
X176956119Y-44060620D02*
X176979928Y-44036811D01*
X176979928Y-44036811D02*
X177027547Y-44013001D01*
X177027547Y-44013001D02*
X177075166Y-44013001D01*
X177075166Y-44013001D02*
X177146595Y-44036811D01*
X177146595Y-44036811D02*
X177432309Y-44322525D01*
X177432309Y-44322525D02*
X177432309Y-44013001D01*
X177598976Y-43679668D02*
X176884690Y-43679668D01*
X176956119Y-43060621D02*
X176932309Y-43108240D01*
X176932309Y-43108240D02*
X176932309Y-43179669D01*
X176932309Y-43179669D02*
X176956119Y-43251097D01*
X176956119Y-43251097D02*
X177003738Y-43298716D01*
X177003738Y-43298716D02*
X177051357Y-43322526D01*
X177051357Y-43322526D02*
X177146595Y-43346335D01*
X177146595Y-43346335D02*
X177218023Y-43346335D01*
X177218023Y-43346335D02*
X177313261Y-43322526D01*
X177313261Y-43322526D02*
X177360880Y-43298716D01*
X177360880Y-43298716D02*
X177408500Y-43251097D01*
X177408500Y-43251097D02*
X177432309Y-43179669D01*
X177432309Y-43179669D02*
X177432309Y-43132050D01*
X177432309Y-43132050D02*
X177408500Y-43060621D01*
X177408500Y-43060621D02*
X177384690Y-43036812D01*
X177384690Y-43036812D02*
X177218023Y-43036812D01*
X177218023Y-43036812D02*
X177218023Y-43132050D01*
X177432309Y-42822526D02*
X176932309Y-42822526D01*
X176932309Y-42822526D02*
X177432309Y-42536812D01*
X177432309Y-42536812D02*
X176932309Y-42536812D01*
X177432309Y-42298716D02*
X176932309Y-42298716D01*
X176932309Y-42298716D02*
X176932309Y-42179668D01*
X176932309Y-42179668D02*
X176956119Y-42108240D01*
X176956119Y-42108240D02*
X177003738Y-42060621D01*
X177003738Y-42060621D02*
X177051357Y-42036811D01*
X177051357Y-42036811D02*
X177146595Y-42013002D01*
X177146595Y-42013002D02*
X177218023Y-42013002D01*
X177218023Y-42013002D02*
X177313261Y-42036811D01*
X177313261Y-42036811D02*
X177360880Y-42060621D01*
X177360880Y-42060621D02*
X177408500Y-42108240D01*
X177408500Y-42108240D02*
X177432309Y-42179668D01*
X177432309Y-42179668D02*
X177432309Y-42298716D01*
X177598976Y-41679668D02*
X176884690Y-41679668D01*
X176932309Y-41227288D02*
X176932309Y-41132050D01*
X176932309Y-41132050D02*
X176956119Y-41084431D01*
X176956119Y-41084431D02*
X177003738Y-41036812D01*
X177003738Y-41036812D02*
X177098976Y-41013002D01*
X177098976Y-41013002D02*
X177265642Y-41013002D01*
X177265642Y-41013002D02*
X177360880Y-41036812D01*
X177360880Y-41036812D02*
X177408500Y-41084431D01*
X177408500Y-41084431D02*
X177432309Y-41132050D01*
X177432309Y-41132050D02*
X177432309Y-41227288D01*
X177432309Y-41227288D02*
X177408500Y-41274907D01*
X177408500Y-41274907D02*
X177360880Y-41322526D01*
X177360880Y-41322526D02*
X177265642Y-41346335D01*
X177265642Y-41346335D02*
X177098976Y-41346335D01*
X177098976Y-41346335D02*
X177003738Y-41322526D01*
X177003738Y-41322526D02*
X176956119Y-41274907D01*
X176956119Y-41274907D02*
X176932309Y-41227288D01*
X177432309Y-40536811D02*
X177432309Y-40822525D01*
X177432309Y-40679668D02*
X176932309Y-40679668D01*
X176932309Y-40679668D02*
X177003738Y-40727287D01*
X177003738Y-40727287D02*
X177051357Y-40774906D01*
X177051357Y-40774906D02*
X177075166Y-40822525D01*
D11*
X176666666Y-28704819D02*
X176333333Y-28228628D01*
X176095238Y-28704819D02*
X176095238Y-27704819D01*
X176095238Y-27704819D02*
X176476190Y-27704819D01*
X176476190Y-27704819D02*
X176571428Y-27752438D01*
X176571428Y-27752438D02*
X176619047Y-27800057D01*
X176619047Y-27800057D02*
X176666666Y-27895295D01*
X176666666Y-27895295D02*
X176666666Y-28038152D01*
X176666666Y-28038152D02*
X176619047Y-28133390D01*
X176619047Y-28133390D02*
X176571428Y-28181009D01*
X176571428Y-28181009D02*
X176476190Y-28228628D01*
X176476190Y-28228628D02*
X176095238Y-28228628D01*
X177095238Y-28181009D02*
X177428571Y-28181009D01*
X177571428Y-28704819D02*
X177095238Y-28704819D01*
X177095238Y-28704819D02*
X177095238Y-27704819D01*
X177095238Y-27704819D02*
X177571428Y-27704819D01*
X178333333Y-28181009D02*
X178000000Y-28181009D01*
X178000000Y-28704819D02*
X178000000Y-27704819D01*
X178000000Y-27704819D02*
X178476190Y-27704819D01*
X179000000Y-27704819D02*
X179000000Y-27942914D01*
X178761905Y-27847676D02*
X179000000Y-27942914D01*
X179000000Y-27942914D02*
X179238095Y-27847676D01*
X178857143Y-28133390D02*
X179000000Y-27942914D01*
X179000000Y-27942914D02*
X179142857Y-28133390D01*
X179761905Y-27704819D02*
X179761905Y-27942914D01*
X179523810Y-27847676D02*
X179761905Y-27942914D01*
X179761905Y-27942914D02*
X180000000Y-27847676D01*
X179619048Y-28133390D02*
X179761905Y-27942914D01*
X179761905Y-27942914D02*
X179904762Y-28133390D01*
X122954819Y-57778094D02*
X121954819Y-57778094D01*
X121954819Y-57778094D02*
X121954819Y-57539999D01*
X121954819Y-57539999D02*
X122002438Y-57397142D01*
X122002438Y-57397142D02*
X122097676Y-57301904D01*
X122097676Y-57301904D02*
X122192914Y-57254285D01*
X122192914Y-57254285D02*
X122383390Y-57206666D01*
X122383390Y-57206666D02*
X122526247Y-57206666D01*
X122526247Y-57206666D02*
X122716723Y-57254285D01*
X122716723Y-57254285D02*
X122811961Y-57301904D01*
X122811961Y-57301904D02*
X122907200Y-57397142D01*
X122907200Y-57397142D02*
X122954819Y-57539999D01*
X122954819Y-57539999D02*
X122954819Y-57778094D01*
X122954819Y-56254285D02*
X122954819Y-56825713D01*
X122954819Y-56539999D02*
X121954819Y-56539999D01*
X121954819Y-56539999D02*
X122097676Y-56635237D01*
X122097676Y-56635237D02*
X122192914Y-56730475D01*
X122192914Y-56730475D02*
X122240533Y-56825713D01*
X135359580Y-51706666D02*
X135407200Y-51754285D01*
X135407200Y-51754285D02*
X135454819Y-51897142D01*
X135454819Y-51897142D02*
X135454819Y-51992380D01*
X135454819Y-51992380D02*
X135407200Y-52135237D01*
X135407200Y-52135237D02*
X135311961Y-52230475D01*
X135311961Y-52230475D02*
X135216723Y-52278094D01*
X135216723Y-52278094D02*
X135026247Y-52325713D01*
X135026247Y-52325713D02*
X134883390Y-52325713D01*
X134883390Y-52325713D02*
X134692914Y-52278094D01*
X134692914Y-52278094D02*
X134597676Y-52230475D01*
X134597676Y-52230475D02*
X134502438Y-52135237D01*
X134502438Y-52135237D02*
X134454819Y-51992380D01*
X134454819Y-51992380D02*
X134454819Y-51897142D01*
X134454819Y-51897142D02*
X134502438Y-51754285D01*
X134502438Y-51754285D02*
X134550057Y-51706666D01*
X135454819Y-50754285D02*
X135454819Y-51325713D01*
X135454819Y-51039999D02*
X134454819Y-51039999D01*
X134454819Y-51039999D02*
X134597676Y-51135237D01*
X134597676Y-51135237D02*
X134692914Y-51230475D01*
X134692914Y-51230475D02*
X134740533Y-51325713D01*
X140333333Y-39359580D02*
X140285714Y-39407200D01*
X140285714Y-39407200D02*
X140142857Y-39454819D01*
X140142857Y-39454819D02*
X140047619Y-39454819D01*
X140047619Y-39454819D02*
X139904762Y-39407200D01*
X139904762Y-39407200D02*
X139809524Y-39311961D01*
X139809524Y-39311961D02*
X139761905Y-39216723D01*
X139761905Y-39216723D02*
X139714286Y-39026247D01*
X139714286Y-39026247D02*
X139714286Y-38883390D01*
X139714286Y-38883390D02*
X139761905Y-38692914D01*
X139761905Y-38692914D02*
X139809524Y-38597676D01*
X139809524Y-38597676D02*
X139904762Y-38502438D01*
X139904762Y-38502438D02*
X140047619Y-38454819D01*
X140047619Y-38454819D02*
X140142857Y-38454819D01*
X140142857Y-38454819D02*
X140285714Y-38502438D01*
X140285714Y-38502438D02*
X140333333Y-38550057D01*
X140904762Y-38883390D02*
X140809524Y-38835771D01*
X140809524Y-38835771D02*
X140761905Y-38788152D01*
X140761905Y-38788152D02*
X140714286Y-38692914D01*
X140714286Y-38692914D02*
X140714286Y-38645295D01*
X140714286Y-38645295D02*
X140761905Y-38550057D01*
X140761905Y-38550057D02*
X140809524Y-38502438D01*
X140809524Y-38502438D02*
X140904762Y-38454819D01*
X140904762Y-38454819D02*
X141095238Y-38454819D01*
X141095238Y-38454819D02*
X141190476Y-38502438D01*
X141190476Y-38502438D02*
X141238095Y-38550057D01*
X141238095Y-38550057D02*
X141285714Y-38645295D01*
X141285714Y-38645295D02*
X141285714Y-38692914D01*
X141285714Y-38692914D02*
X141238095Y-38788152D01*
X141238095Y-38788152D02*
X141190476Y-38835771D01*
X141190476Y-38835771D02*
X141095238Y-38883390D01*
X141095238Y-38883390D02*
X140904762Y-38883390D01*
X140904762Y-38883390D02*
X140809524Y-38931009D01*
X140809524Y-38931009D02*
X140761905Y-38978628D01*
X140761905Y-38978628D02*
X140714286Y-39073866D01*
X140714286Y-39073866D02*
X140714286Y-39264342D01*
X140714286Y-39264342D02*
X140761905Y-39359580D01*
X140761905Y-39359580D02*
X140809524Y-39407200D01*
X140809524Y-39407200D02*
X140904762Y-39454819D01*
X140904762Y-39454819D02*
X141095238Y-39454819D01*
X141095238Y-39454819D02*
X141190476Y-39407200D01*
X141190476Y-39407200D02*
X141238095Y-39359580D01*
X141238095Y-39359580D02*
X141285714Y-39264342D01*
X141285714Y-39264342D02*
X141285714Y-39073866D01*
X141285714Y-39073866D02*
X141238095Y-38978628D01*
X141238095Y-38978628D02*
X141190476Y-38931009D01*
X141190476Y-38931009D02*
X141095238Y-38883390D01*
X150333333Y-39359580D02*
X150285714Y-39407200D01*
X150285714Y-39407200D02*
X150142857Y-39454819D01*
X150142857Y-39454819D02*
X150047619Y-39454819D01*
X150047619Y-39454819D02*
X149904762Y-39407200D01*
X149904762Y-39407200D02*
X149809524Y-39311961D01*
X149809524Y-39311961D02*
X149761905Y-39216723D01*
X149761905Y-39216723D02*
X149714286Y-39026247D01*
X149714286Y-39026247D02*
X149714286Y-38883390D01*
X149714286Y-38883390D02*
X149761905Y-38692914D01*
X149761905Y-38692914D02*
X149809524Y-38597676D01*
X149809524Y-38597676D02*
X149904762Y-38502438D01*
X149904762Y-38502438D02*
X150047619Y-38454819D01*
X150047619Y-38454819D02*
X150142857Y-38454819D01*
X150142857Y-38454819D02*
X150285714Y-38502438D01*
X150285714Y-38502438D02*
X150333333Y-38550057D01*
X151238095Y-38454819D02*
X150761905Y-38454819D01*
X150761905Y-38454819D02*
X150714286Y-38931009D01*
X150714286Y-38931009D02*
X150761905Y-38883390D01*
X150761905Y-38883390D02*
X150857143Y-38835771D01*
X150857143Y-38835771D02*
X151095238Y-38835771D01*
X151095238Y-38835771D02*
X151190476Y-38883390D01*
X151190476Y-38883390D02*
X151238095Y-38931009D01*
X151238095Y-38931009D02*
X151285714Y-39026247D01*
X151285714Y-39026247D02*
X151285714Y-39264342D01*
X151285714Y-39264342D02*
X151238095Y-39359580D01*
X151238095Y-39359580D02*
X151190476Y-39407200D01*
X151190476Y-39407200D02*
X151095238Y-39454819D01*
X151095238Y-39454819D02*
X150857143Y-39454819D01*
X150857143Y-39454819D02*
X150761905Y-39407200D01*
X150761905Y-39407200D02*
X150714286Y-39359580D01*
X116004819Y-31833333D02*
X116719104Y-31833333D01*
X116719104Y-31833333D02*
X116861961Y-31880952D01*
X116861961Y-31880952D02*
X116957200Y-31976190D01*
X116957200Y-31976190D02*
X117004819Y-32119047D01*
X117004819Y-32119047D02*
X117004819Y-32214285D01*
X117004819Y-30833333D02*
X117004819Y-31404761D01*
X117004819Y-31119047D02*
X116004819Y-31119047D01*
X116004819Y-31119047D02*
X116147676Y-31214285D01*
X116147676Y-31214285D02*
X116242914Y-31309523D01*
X116242914Y-31309523D02*
X116290533Y-31404761D01*
X132854819Y-47301904D02*
X133664342Y-47301904D01*
X133664342Y-47301904D02*
X133759580Y-47254285D01*
X133759580Y-47254285D02*
X133807200Y-47206666D01*
X133807200Y-47206666D02*
X133854819Y-47111428D01*
X133854819Y-47111428D02*
X133854819Y-46920952D01*
X133854819Y-46920952D02*
X133807200Y-46825714D01*
X133807200Y-46825714D02*
X133759580Y-46778095D01*
X133759580Y-46778095D02*
X133664342Y-46730476D01*
X133664342Y-46730476D02*
X132854819Y-46730476D01*
X132950057Y-46301904D02*
X132902438Y-46254285D01*
X132902438Y-46254285D02*
X132854819Y-46159047D01*
X132854819Y-46159047D02*
X132854819Y-45920952D01*
X132854819Y-45920952D02*
X132902438Y-45825714D01*
X132902438Y-45825714D02*
X132950057Y-45778095D01*
X132950057Y-45778095D02*
X133045295Y-45730476D01*
X133045295Y-45730476D02*
X133140533Y-45730476D01*
X133140533Y-45730476D02*
X133283390Y-45778095D01*
X133283390Y-45778095D02*
X133854819Y-46349523D01*
X133854819Y-46349523D02*
X133854819Y-45730476D01*
X138804819Y-51626666D02*
X138328628Y-51959999D01*
X138804819Y-52198094D02*
X137804819Y-52198094D01*
X137804819Y-52198094D02*
X137804819Y-51817142D01*
X137804819Y-51817142D02*
X137852438Y-51721904D01*
X137852438Y-51721904D02*
X137900057Y-51674285D01*
X137900057Y-51674285D02*
X137995295Y-51626666D01*
X137995295Y-51626666D02*
X138138152Y-51626666D01*
X138138152Y-51626666D02*
X138233390Y-51674285D01*
X138233390Y-51674285D02*
X138281009Y-51721904D01*
X138281009Y-51721904D02*
X138328628Y-51817142D01*
X138328628Y-51817142D02*
X138328628Y-52198094D01*
X137804819Y-51293332D02*
X137804819Y-50626666D01*
X137804819Y-50626666D02*
X138804819Y-51055237D01*
X167261905Y-39954819D02*
X167261905Y-38954819D01*
X167261905Y-38954819D02*
X167500000Y-38954819D01*
X167500000Y-38954819D02*
X167642857Y-39002438D01*
X167642857Y-39002438D02*
X167738095Y-39097676D01*
X167738095Y-39097676D02*
X167785714Y-39192914D01*
X167785714Y-39192914D02*
X167833333Y-39383390D01*
X167833333Y-39383390D02*
X167833333Y-39526247D01*
X167833333Y-39526247D02*
X167785714Y-39716723D01*
X167785714Y-39716723D02*
X167738095Y-39811961D01*
X167738095Y-39811961D02*
X167642857Y-39907200D01*
X167642857Y-39907200D02*
X167500000Y-39954819D01*
X167500000Y-39954819D02*
X167261905Y-39954819D01*
X168738095Y-38954819D02*
X168261905Y-38954819D01*
X168261905Y-38954819D02*
X168214286Y-39431009D01*
X168214286Y-39431009D02*
X168261905Y-39383390D01*
X168261905Y-39383390D02*
X168357143Y-39335771D01*
X168357143Y-39335771D02*
X168595238Y-39335771D01*
X168595238Y-39335771D02*
X168690476Y-39383390D01*
X168690476Y-39383390D02*
X168738095Y-39431009D01*
X168738095Y-39431009D02*
X168785714Y-39526247D01*
X168785714Y-39526247D02*
X168785714Y-39764342D01*
X168785714Y-39764342D02*
X168738095Y-39859580D01*
X168738095Y-39859580D02*
X168690476Y-39907200D01*
X168690476Y-39907200D02*
X168595238Y-39954819D01*
X168595238Y-39954819D02*
X168357143Y-39954819D01*
X168357143Y-39954819D02*
X168261905Y-39907200D01*
X168261905Y-39907200D02*
X168214286Y-39859580D01*
X135039580Y-60706666D02*
X135087200Y-60754285D01*
X135087200Y-60754285D02*
X135134819Y-60897142D01*
X135134819Y-60897142D02*
X135134819Y-60992380D01*
X135134819Y-60992380D02*
X135087200Y-61135237D01*
X135087200Y-61135237D02*
X134991961Y-61230475D01*
X134991961Y-61230475D02*
X134896723Y-61278094D01*
X134896723Y-61278094D02*
X134706247Y-61325713D01*
X134706247Y-61325713D02*
X134563390Y-61325713D01*
X134563390Y-61325713D02*
X134372914Y-61278094D01*
X134372914Y-61278094D02*
X134277676Y-61230475D01*
X134277676Y-61230475D02*
X134182438Y-61135237D01*
X134182438Y-61135237D02*
X134134819Y-60992380D01*
X134134819Y-60992380D02*
X134134819Y-60897142D01*
X134134819Y-60897142D02*
X134182438Y-60754285D01*
X134182438Y-60754285D02*
X134230057Y-60706666D01*
X134134819Y-60373332D02*
X134134819Y-59754285D01*
X134134819Y-59754285D02*
X134515771Y-60087618D01*
X134515771Y-60087618D02*
X134515771Y-59944761D01*
X134515771Y-59944761D02*
X134563390Y-59849523D01*
X134563390Y-59849523D02*
X134611009Y-59801904D01*
X134611009Y-59801904D02*
X134706247Y-59754285D01*
X134706247Y-59754285D02*
X134944342Y-59754285D01*
X134944342Y-59754285D02*
X135039580Y-59801904D01*
X135039580Y-59801904D02*
X135087200Y-59849523D01*
X135087200Y-59849523D02*
X135134819Y-59944761D01*
X135134819Y-59944761D02*
X135134819Y-60230475D01*
X135134819Y-60230475D02*
X135087200Y-60325713D01*
X135087200Y-60325713D02*
X135039580Y-60373332D01*
X129179580Y-60706666D02*
X129227200Y-60754285D01*
X129227200Y-60754285D02*
X129274819Y-60897142D01*
X129274819Y-60897142D02*
X129274819Y-60992380D01*
X129274819Y-60992380D02*
X129227200Y-61135237D01*
X129227200Y-61135237D02*
X129131961Y-61230475D01*
X129131961Y-61230475D02*
X129036723Y-61278094D01*
X129036723Y-61278094D02*
X128846247Y-61325713D01*
X128846247Y-61325713D02*
X128703390Y-61325713D01*
X128703390Y-61325713D02*
X128512914Y-61278094D01*
X128512914Y-61278094D02*
X128417676Y-61230475D01*
X128417676Y-61230475D02*
X128322438Y-61135237D01*
X128322438Y-61135237D02*
X128274819Y-60992380D01*
X128274819Y-60992380D02*
X128274819Y-60897142D01*
X128274819Y-60897142D02*
X128322438Y-60754285D01*
X128322438Y-60754285D02*
X128370057Y-60706666D01*
X128608152Y-59849523D02*
X129274819Y-59849523D01*
X128227200Y-60087618D02*
X128941485Y-60325713D01*
X128941485Y-60325713D02*
X128941485Y-59706666D01*
X135761905Y-44954819D02*
X135761905Y-43954819D01*
X135761905Y-43954819D02*
X136000000Y-43954819D01*
X136000000Y-43954819D02*
X136142857Y-44002438D01*
X136142857Y-44002438D02*
X136238095Y-44097676D01*
X136238095Y-44097676D02*
X136285714Y-44192914D01*
X136285714Y-44192914D02*
X136333333Y-44383390D01*
X136333333Y-44383390D02*
X136333333Y-44526247D01*
X136333333Y-44526247D02*
X136285714Y-44716723D01*
X136285714Y-44716723D02*
X136238095Y-44811961D01*
X136238095Y-44811961D02*
X136142857Y-44907200D01*
X136142857Y-44907200D02*
X136000000Y-44954819D01*
X136000000Y-44954819D02*
X135761905Y-44954819D01*
X137190476Y-43954819D02*
X137000000Y-43954819D01*
X137000000Y-43954819D02*
X136904762Y-44002438D01*
X136904762Y-44002438D02*
X136857143Y-44050057D01*
X136857143Y-44050057D02*
X136761905Y-44192914D01*
X136761905Y-44192914D02*
X136714286Y-44383390D01*
X136714286Y-44383390D02*
X136714286Y-44764342D01*
X136714286Y-44764342D02*
X136761905Y-44859580D01*
X136761905Y-44859580D02*
X136809524Y-44907200D01*
X136809524Y-44907200D02*
X136904762Y-44954819D01*
X136904762Y-44954819D02*
X137095238Y-44954819D01*
X137095238Y-44954819D02*
X137190476Y-44907200D01*
X137190476Y-44907200D02*
X137238095Y-44859580D01*
X137238095Y-44859580D02*
X137285714Y-44764342D01*
X137285714Y-44764342D02*
X137285714Y-44526247D01*
X137285714Y-44526247D02*
X137238095Y-44431009D01*
X137238095Y-44431009D02*
X137190476Y-44383390D01*
X137190476Y-44383390D02*
X137095238Y-44335771D01*
X137095238Y-44335771D02*
X136904762Y-44335771D01*
X136904762Y-44335771D02*
X136809524Y-44383390D01*
X136809524Y-44383390D02*
X136761905Y-44431009D01*
X136761905Y-44431009D02*
X136714286Y-44526247D01*
X118761905Y-43024819D02*
X118761905Y-42024819D01*
X118761905Y-42024819D02*
X119000000Y-42024819D01*
X119000000Y-42024819D02*
X119142857Y-42072438D01*
X119142857Y-42072438D02*
X119238095Y-42167676D01*
X119238095Y-42167676D02*
X119285714Y-42262914D01*
X119285714Y-42262914D02*
X119333333Y-42453390D01*
X119333333Y-42453390D02*
X119333333Y-42596247D01*
X119333333Y-42596247D02*
X119285714Y-42786723D01*
X119285714Y-42786723D02*
X119238095Y-42881961D01*
X119238095Y-42881961D02*
X119142857Y-42977200D01*
X119142857Y-42977200D02*
X119000000Y-43024819D01*
X119000000Y-43024819D02*
X118761905Y-43024819D01*
X119666667Y-42024819D02*
X120285714Y-42024819D01*
X120285714Y-42024819D02*
X119952381Y-42405771D01*
X119952381Y-42405771D02*
X120095238Y-42405771D01*
X120095238Y-42405771D02*
X120190476Y-42453390D01*
X120190476Y-42453390D02*
X120238095Y-42501009D01*
X120238095Y-42501009D02*
X120285714Y-42596247D01*
X120285714Y-42596247D02*
X120285714Y-42834342D01*
X120285714Y-42834342D02*
X120238095Y-42929580D01*
X120238095Y-42929580D02*
X120190476Y-42977200D01*
X120190476Y-42977200D02*
X120095238Y-43024819D01*
X120095238Y-43024819D02*
X119809524Y-43024819D01*
X119809524Y-43024819D02*
X119714286Y-42977200D01*
X119714286Y-42977200D02*
X119666667Y-42929580D01*
X129179580Y-51706666D02*
X129227200Y-51754285D01*
X129227200Y-51754285D02*
X129274819Y-51897142D01*
X129274819Y-51897142D02*
X129274819Y-51992380D01*
X129274819Y-51992380D02*
X129227200Y-52135237D01*
X129227200Y-52135237D02*
X129131961Y-52230475D01*
X129131961Y-52230475D02*
X129036723Y-52278094D01*
X129036723Y-52278094D02*
X128846247Y-52325713D01*
X128846247Y-52325713D02*
X128703390Y-52325713D01*
X128703390Y-52325713D02*
X128512914Y-52278094D01*
X128512914Y-52278094D02*
X128417676Y-52230475D01*
X128417676Y-52230475D02*
X128322438Y-52135237D01*
X128322438Y-52135237D02*
X128274819Y-51992380D01*
X128274819Y-51992380D02*
X128274819Y-51897142D01*
X128274819Y-51897142D02*
X128322438Y-51754285D01*
X128322438Y-51754285D02*
X128370057Y-51706666D01*
X128370057Y-51325713D02*
X128322438Y-51278094D01*
X128322438Y-51278094D02*
X128274819Y-51182856D01*
X128274819Y-51182856D02*
X128274819Y-50944761D01*
X128274819Y-50944761D02*
X128322438Y-50849523D01*
X128322438Y-50849523D02*
X128370057Y-50801904D01*
X128370057Y-50801904D02*
X128465295Y-50754285D01*
X128465295Y-50754285D02*
X128560533Y-50754285D01*
X128560533Y-50754285D02*
X128703390Y-50801904D01*
X128703390Y-50801904D02*
X129274819Y-51373332D01*
X129274819Y-51373332D02*
X129274819Y-50754285D01*
X122954819Y-49778094D02*
X121954819Y-49778094D01*
X121954819Y-49778094D02*
X121954819Y-49539999D01*
X121954819Y-49539999D02*
X122002438Y-49397142D01*
X122002438Y-49397142D02*
X122097676Y-49301904D01*
X122097676Y-49301904D02*
X122192914Y-49254285D01*
X122192914Y-49254285D02*
X122383390Y-49206666D01*
X122383390Y-49206666D02*
X122526247Y-49206666D01*
X122526247Y-49206666D02*
X122716723Y-49254285D01*
X122716723Y-49254285D02*
X122811961Y-49301904D01*
X122811961Y-49301904D02*
X122907200Y-49397142D01*
X122907200Y-49397142D02*
X122954819Y-49539999D01*
X122954819Y-49539999D02*
X122954819Y-49778094D01*
X122050057Y-48825713D02*
X122002438Y-48778094D01*
X122002438Y-48778094D02*
X121954819Y-48682856D01*
X121954819Y-48682856D02*
X121954819Y-48444761D01*
X121954819Y-48444761D02*
X122002438Y-48349523D01*
X122002438Y-48349523D02*
X122050057Y-48301904D01*
X122050057Y-48301904D02*
X122145295Y-48254285D01*
X122145295Y-48254285D02*
X122240533Y-48254285D01*
X122240533Y-48254285D02*
X122383390Y-48301904D01*
X122383390Y-48301904D02*
X122954819Y-48873332D01*
X122954819Y-48873332D02*
X122954819Y-48254285D01*
X166954819Y-51666666D02*
X166478628Y-51999999D01*
X166954819Y-52238094D02*
X165954819Y-52238094D01*
X165954819Y-52238094D02*
X165954819Y-51857142D01*
X165954819Y-51857142D02*
X166002438Y-51761904D01*
X166002438Y-51761904D02*
X166050057Y-51714285D01*
X166050057Y-51714285D02*
X166145295Y-51666666D01*
X166145295Y-51666666D02*
X166288152Y-51666666D01*
X166288152Y-51666666D02*
X166383390Y-51714285D01*
X166383390Y-51714285D02*
X166431009Y-51761904D01*
X166431009Y-51761904D02*
X166478628Y-51857142D01*
X166478628Y-51857142D02*
X166478628Y-52238094D01*
X165954819Y-51333332D02*
X165954819Y-50714285D01*
X165954819Y-50714285D02*
X166335771Y-51047618D01*
X166335771Y-51047618D02*
X166335771Y-50904761D01*
X166335771Y-50904761D02*
X166383390Y-50809523D01*
X166383390Y-50809523D02*
X166431009Y-50761904D01*
X166431009Y-50761904D02*
X166526247Y-50714285D01*
X166526247Y-50714285D02*
X166764342Y-50714285D01*
X166764342Y-50714285D02*
X166859580Y-50761904D01*
X166859580Y-50761904D02*
X166907200Y-50809523D01*
X166907200Y-50809523D02*
X166954819Y-50904761D01*
X166954819Y-50904761D02*
X166954819Y-51190475D01*
X166954819Y-51190475D02*
X166907200Y-51285713D01*
X166907200Y-51285713D02*
X166859580Y-51333332D01*
X151761905Y-39954819D02*
X151761905Y-38954819D01*
X151761905Y-38954819D02*
X152000000Y-38954819D01*
X152000000Y-38954819D02*
X152142857Y-39002438D01*
X152142857Y-39002438D02*
X152238095Y-39097676D01*
X152238095Y-39097676D02*
X152285714Y-39192914D01*
X152285714Y-39192914D02*
X152333333Y-39383390D01*
X152333333Y-39383390D02*
X152333333Y-39526247D01*
X152333333Y-39526247D02*
X152285714Y-39716723D01*
X152285714Y-39716723D02*
X152238095Y-39811961D01*
X152238095Y-39811961D02*
X152142857Y-39907200D01*
X152142857Y-39907200D02*
X152000000Y-39954819D01*
X152000000Y-39954819D02*
X151761905Y-39954819D01*
X152809524Y-39954819D02*
X153000000Y-39954819D01*
X153000000Y-39954819D02*
X153095238Y-39907200D01*
X153095238Y-39907200D02*
X153142857Y-39859580D01*
X153142857Y-39859580D02*
X153238095Y-39716723D01*
X153238095Y-39716723D02*
X153285714Y-39526247D01*
X153285714Y-39526247D02*
X153285714Y-39145295D01*
X153285714Y-39145295D02*
X153238095Y-39050057D01*
X153238095Y-39050057D02*
X153190476Y-39002438D01*
X153190476Y-39002438D02*
X153095238Y-38954819D01*
X153095238Y-38954819D02*
X152904762Y-38954819D01*
X152904762Y-38954819D02*
X152809524Y-39002438D01*
X152809524Y-39002438D02*
X152761905Y-39050057D01*
X152761905Y-39050057D02*
X152714286Y-39145295D01*
X152714286Y-39145295D02*
X152714286Y-39383390D01*
X152714286Y-39383390D02*
X152761905Y-39478628D01*
X152761905Y-39478628D02*
X152809524Y-39526247D01*
X152809524Y-39526247D02*
X152904762Y-39573866D01*
X152904762Y-39573866D02*
X153095238Y-39573866D01*
X153095238Y-39573866D02*
X153190476Y-39526247D01*
X153190476Y-39526247D02*
X153238095Y-39478628D01*
X153238095Y-39478628D02*
X153285714Y-39383390D01*
X169857142Y-39039580D02*
X169809523Y-39087200D01*
X169809523Y-39087200D02*
X169666666Y-39134819D01*
X169666666Y-39134819D02*
X169571428Y-39134819D01*
X169571428Y-39134819D02*
X169428571Y-39087200D01*
X169428571Y-39087200D02*
X169333333Y-38991961D01*
X169333333Y-38991961D02*
X169285714Y-38896723D01*
X169285714Y-38896723D02*
X169238095Y-38706247D01*
X169238095Y-38706247D02*
X169238095Y-38563390D01*
X169238095Y-38563390D02*
X169285714Y-38372914D01*
X169285714Y-38372914D02*
X169333333Y-38277676D01*
X169333333Y-38277676D02*
X169428571Y-38182438D01*
X169428571Y-38182438D02*
X169571428Y-38134819D01*
X169571428Y-38134819D02*
X169666666Y-38134819D01*
X169666666Y-38134819D02*
X169809523Y-38182438D01*
X169809523Y-38182438D02*
X169857142Y-38230057D01*
X170809523Y-39134819D02*
X170238095Y-39134819D01*
X170523809Y-39134819D02*
X170523809Y-38134819D01*
X170523809Y-38134819D02*
X170428571Y-38277676D01*
X170428571Y-38277676D02*
X170333333Y-38372914D01*
X170333333Y-38372914D02*
X170238095Y-38420533D01*
X171428571Y-38134819D02*
X171523809Y-38134819D01*
X171523809Y-38134819D02*
X171619047Y-38182438D01*
X171619047Y-38182438D02*
X171666666Y-38230057D01*
X171666666Y-38230057D02*
X171714285Y-38325295D01*
X171714285Y-38325295D02*
X171761904Y-38515771D01*
X171761904Y-38515771D02*
X171761904Y-38753866D01*
X171761904Y-38753866D02*
X171714285Y-38944342D01*
X171714285Y-38944342D02*
X171666666Y-39039580D01*
X171666666Y-39039580D02*
X171619047Y-39087200D01*
X171619047Y-39087200D02*
X171523809Y-39134819D01*
X171523809Y-39134819D02*
X171428571Y-39134819D01*
X171428571Y-39134819D02*
X171333333Y-39087200D01*
X171333333Y-39087200D02*
X171285714Y-39039580D01*
X171285714Y-39039580D02*
X171238095Y-38944342D01*
X171238095Y-38944342D02*
X171190476Y-38753866D01*
X171190476Y-38753866D02*
X171190476Y-38515771D01*
X171190476Y-38515771D02*
X171238095Y-38325295D01*
X171238095Y-38325295D02*
X171285714Y-38230057D01*
X171285714Y-38230057D02*
X171333333Y-38182438D01*
X171333333Y-38182438D02*
X171428571Y-38134819D01*
X123931009Y-39333333D02*
X123931009Y-39666666D01*
X124454819Y-39666666D02*
X123454819Y-39666666D01*
X123454819Y-39666666D02*
X123454819Y-39190476D01*
X124454819Y-38285714D02*
X124454819Y-38857142D01*
X124454819Y-38571428D02*
X123454819Y-38571428D01*
X123454819Y-38571428D02*
X123597676Y-38666666D01*
X123597676Y-38666666D02*
X123692914Y-38761904D01*
X123692914Y-38761904D02*
X123740533Y-38857142D01*
X157738095Y-31954819D02*
X157738095Y-32764342D01*
X157738095Y-32764342D02*
X157785714Y-32859580D01*
X157785714Y-32859580D02*
X157833333Y-32907200D01*
X157833333Y-32907200D02*
X157928571Y-32954819D01*
X157928571Y-32954819D02*
X158119047Y-32954819D01*
X158119047Y-32954819D02*
X158214285Y-32907200D01*
X158214285Y-32907200D02*
X158261904Y-32859580D01*
X158261904Y-32859580D02*
X158309523Y-32764342D01*
X158309523Y-32764342D02*
X158309523Y-31954819D01*
X158690476Y-31954819D02*
X159309523Y-31954819D01*
X159309523Y-31954819D02*
X158976190Y-32335771D01*
X158976190Y-32335771D02*
X159119047Y-32335771D01*
X159119047Y-32335771D02*
X159214285Y-32383390D01*
X159214285Y-32383390D02*
X159261904Y-32431009D01*
X159261904Y-32431009D02*
X159309523Y-32526247D01*
X159309523Y-32526247D02*
X159309523Y-32764342D01*
X159309523Y-32764342D02*
X159261904Y-32859580D01*
X159261904Y-32859580D02*
X159214285Y-32907200D01*
X159214285Y-32907200D02*
X159119047Y-32954819D01*
X159119047Y-32954819D02*
X158833333Y-32954819D01*
X158833333Y-32954819D02*
X158738095Y-32907200D01*
X158738095Y-32907200D02*
X158690476Y-32859580D01*
X136745833Y-53804819D02*
X136412500Y-53328628D01*
X136174405Y-53804819D02*
X136174405Y-52804819D01*
X136174405Y-52804819D02*
X136555357Y-52804819D01*
X136555357Y-52804819D02*
X136650595Y-52852438D01*
X136650595Y-52852438D02*
X136698214Y-52900057D01*
X136698214Y-52900057D02*
X136745833Y-52995295D01*
X136745833Y-52995295D02*
X136745833Y-53138152D01*
X136745833Y-53138152D02*
X136698214Y-53233390D01*
X136698214Y-53233390D02*
X136650595Y-53281009D01*
X136650595Y-53281009D02*
X136555357Y-53328628D01*
X136555357Y-53328628D02*
X136174405Y-53328628D01*
X137698214Y-53804819D02*
X137126786Y-53804819D01*
X137412500Y-53804819D02*
X137412500Y-52804819D01*
X137412500Y-52804819D02*
X137317262Y-52947676D01*
X137317262Y-52947676D02*
X137222024Y-53042914D01*
X137222024Y-53042914D02*
X137126786Y-53090533D01*
X159954819Y-53126666D02*
X159478628Y-53459999D01*
X159954819Y-53698094D02*
X158954819Y-53698094D01*
X158954819Y-53698094D02*
X158954819Y-53317142D01*
X158954819Y-53317142D02*
X159002438Y-53221904D01*
X159002438Y-53221904D02*
X159050057Y-53174285D01*
X159050057Y-53174285D02*
X159145295Y-53126666D01*
X159145295Y-53126666D02*
X159288152Y-53126666D01*
X159288152Y-53126666D02*
X159383390Y-53174285D01*
X159383390Y-53174285D02*
X159431009Y-53221904D01*
X159431009Y-53221904D02*
X159478628Y-53317142D01*
X159478628Y-53317142D02*
X159478628Y-53698094D01*
X159383390Y-52555237D02*
X159335771Y-52650475D01*
X159335771Y-52650475D02*
X159288152Y-52698094D01*
X159288152Y-52698094D02*
X159192914Y-52745713D01*
X159192914Y-52745713D02*
X159145295Y-52745713D01*
X159145295Y-52745713D02*
X159050057Y-52698094D01*
X159050057Y-52698094D02*
X159002438Y-52650475D01*
X159002438Y-52650475D02*
X158954819Y-52555237D01*
X158954819Y-52555237D02*
X158954819Y-52364761D01*
X158954819Y-52364761D02*
X159002438Y-52269523D01*
X159002438Y-52269523D02*
X159050057Y-52221904D01*
X159050057Y-52221904D02*
X159145295Y-52174285D01*
X159145295Y-52174285D02*
X159192914Y-52174285D01*
X159192914Y-52174285D02*
X159288152Y-52221904D01*
X159288152Y-52221904D02*
X159335771Y-52269523D01*
X159335771Y-52269523D02*
X159383390Y-52364761D01*
X159383390Y-52364761D02*
X159383390Y-52555237D01*
X159383390Y-52555237D02*
X159431009Y-52650475D01*
X159431009Y-52650475D02*
X159478628Y-52698094D01*
X159478628Y-52698094D02*
X159573866Y-52745713D01*
X159573866Y-52745713D02*
X159764342Y-52745713D01*
X159764342Y-52745713D02*
X159859580Y-52698094D01*
X159859580Y-52698094D02*
X159907200Y-52650475D01*
X159907200Y-52650475D02*
X159954819Y-52555237D01*
X159954819Y-52555237D02*
X159954819Y-52364761D01*
X159954819Y-52364761D02*
X159907200Y-52269523D01*
X159907200Y-52269523D02*
X159859580Y-52221904D01*
X159859580Y-52221904D02*
X159764342Y-52174285D01*
X159764342Y-52174285D02*
X159573866Y-52174285D01*
X159573866Y-52174285D02*
X159478628Y-52221904D01*
X159478628Y-52221904D02*
X159431009Y-52269523D01*
X159431009Y-52269523D02*
X159383390Y-52364761D01*
X179666666Y-37324819D02*
X179666666Y-38039104D01*
X179666666Y-38039104D02*
X179619047Y-38181961D01*
X179619047Y-38181961D02*
X179523809Y-38277200D01*
X179523809Y-38277200D02*
X179380952Y-38324819D01*
X179380952Y-38324819D02*
X179285714Y-38324819D01*
X180095238Y-37420057D02*
X180142857Y-37372438D01*
X180142857Y-37372438D02*
X180238095Y-37324819D01*
X180238095Y-37324819D02*
X180476190Y-37324819D01*
X180476190Y-37324819D02*
X180571428Y-37372438D01*
X180571428Y-37372438D02*
X180619047Y-37420057D01*
X180619047Y-37420057D02*
X180666666Y-37515295D01*
X180666666Y-37515295D02*
X180666666Y-37610533D01*
X180666666Y-37610533D02*
X180619047Y-37753390D01*
X180619047Y-37753390D02*
X180047619Y-38324819D01*
X180047619Y-38324819D02*
X180666666Y-38324819D01*
X108166666Y-37324819D02*
X108166666Y-38039104D01*
X108166666Y-38039104D02*
X108119047Y-38181961D01*
X108119047Y-38181961D02*
X108023809Y-38277200D01*
X108023809Y-38277200D02*
X107880952Y-38324819D01*
X107880952Y-38324819D02*
X107785714Y-38324819D01*
X108547619Y-37324819D02*
X109166666Y-37324819D01*
X109166666Y-37324819D02*
X108833333Y-37705771D01*
X108833333Y-37705771D02*
X108976190Y-37705771D01*
X108976190Y-37705771D02*
X109071428Y-37753390D01*
X109071428Y-37753390D02*
X109119047Y-37801009D01*
X109119047Y-37801009D02*
X109166666Y-37896247D01*
X109166666Y-37896247D02*
X109166666Y-38134342D01*
X109166666Y-38134342D02*
X109119047Y-38229580D01*
X109119047Y-38229580D02*
X109071428Y-38277200D01*
X109071428Y-38277200D02*
X108976190Y-38324819D01*
X108976190Y-38324819D02*
X108690476Y-38324819D01*
X108690476Y-38324819D02*
X108595238Y-38277200D01*
X108595238Y-38277200D02*
X108547619Y-38229580D01*
X155333333Y-39039580D02*
X155285714Y-39087200D01*
X155285714Y-39087200D02*
X155142857Y-39134819D01*
X155142857Y-39134819D02*
X155047619Y-39134819D01*
X155047619Y-39134819D02*
X154904762Y-39087200D01*
X154904762Y-39087200D02*
X154809524Y-38991961D01*
X154809524Y-38991961D02*
X154761905Y-38896723D01*
X154761905Y-38896723D02*
X154714286Y-38706247D01*
X154714286Y-38706247D02*
X154714286Y-38563390D01*
X154714286Y-38563390D02*
X154761905Y-38372914D01*
X154761905Y-38372914D02*
X154809524Y-38277676D01*
X154809524Y-38277676D02*
X154904762Y-38182438D01*
X154904762Y-38182438D02*
X155047619Y-38134819D01*
X155047619Y-38134819D02*
X155142857Y-38134819D01*
X155142857Y-38134819D02*
X155285714Y-38182438D01*
X155285714Y-38182438D02*
X155333333Y-38230057D01*
X155666667Y-38134819D02*
X156333333Y-38134819D01*
X156333333Y-38134819D02*
X155904762Y-39134819D01*
X166954819Y-55626666D02*
X166478628Y-55959999D01*
X166954819Y-56198094D02*
X165954819Y-56198094D01*
X165954819Y-56198094D02*
X165954819Y-55817142D01*
X165954819Y-55817142D02*
X166002438Y-55721904D01*
X166002438Y-55721904D02*
X166050057Y-55674285D01*
X166050057Y-55674285D02*
X166145295Y-55626666D01*
X166145295Y-55626666D02*
X166288152Y-55626666D01*
X166288152Y-55626666D02*
X166383390Y-55674285D01*
X166383390Y-55674285D02*
X166431009Y-55721904D01*
X166431009Y-55721904D02*
X166478628Y-55817142D01*
X166478628Y-55817142D02*
X166478628Y-56198094D01*
X166288152Y-54769523D02*
X166954819Y-54769523D01*
X165907200Y-55007618D02*
X166621485Y-55245713D01*
X166621485Y-55245713D02*
X166621485Y-54626666D01*
X158261905Y-47454819D02*
X158261905Y-46454819D01*
X158261905Y-46454819D02*
X158500000Y-46454819D01*
X158500000Y-46454819D02*
X158642857Y-46502438D01*
X158642857Y-46502438D02*
X158738095Y-46597676D01*
X158738095Y-46597676D02*
X158785714Y-46692914D01*
X158785714Y-46692914D02*
X158833333Y-46883390D01*
X158833333Y-46883390D02*
X158833333Y-47026247D01*
X158833333Y-47026247D02*
X158785714Y-47216723D01*
X158785714Y-47216723D02*
X158738095Y-47311961D01*
X158738095Y-47311961D02*
X158642857Y-47407200D01*
X158642857Y-47407200D02*
X158500000Y-47454819D01*
X158500000Y-47454819D02*
X158261905Y-47454819D01*
X159404762Y-46883390D02*
X159309524Y-46835771D01*
X159309524Y-46835771D02*
X159261905Y-46788152D01*
X159261905Y-46788152D02*
X159214286Y-46692914D01*
X159214286Y-46692914D02*
X159214286Y-46645295D01*
X159214286Y-46645295D02*
X159261905Y-46550057D01*
X159261905Y-46550057D02*
X159309524Y-46502438D01*
X159309524Y-46502438D02*
X159404762Y-46454819D01*
X159404762Y-46454819D02*
X159595238Y-46454819D01*
X159595238Y-46454819D02*
X159690476Y-46502438D01*
X159690476Y-46502438D02*
X159738095Y-46550057D01*
X159738095Y-46550057D02*
X159785714Y-46645295D01*
X159785714Y-46645295D02*
X159785714Y-46692914D01*
X159785714Y-46692914D02*
X159738095Y-46788152D01*
X159738095Y-46788152D02*
X159690476Y-46835771D01*
X159690476Y-46835771D02*
X159595238Y-46883390D01*
X159595238Y-46883390D02*
X159404762Y-46883390D01*
X159404762Y-46883390D02*
X159309524Y-46931009D01*
X159309524Y-46931009D02*
X159261905Y-46978628D01*
X159261905Y-46978628D02*
X159214286Y-47073866D01*
X159214286Y-47073866D02*
X159214286Y-47264342D01*
X159214286Y-47264342D02*
X159261905Y-47359580D01*
X159261905Y-47359580D02*
X159309524Y-47407200D01*
X159309524Y-47407200D02*
X159404762Y-47454819D01*
X159404762Y-47454819D02*
X159595238Y-47454819D01*
X159595238Y-47454819D02*
X159690476Y-47407200D01*
X159690476Y-47407200D02*
X159738095Y-47359580D01*
X159738095Y-47359580D02*
X159785714Y-47264342D01*
X159785714Y-47264342D02*
X159785714Y-47073866D01*
X159785714Y-47073866D02*
X159738095Y-46978628D01*
X159738095Y-46978628D02*
X159690476Y-46931009D01*
X159690476Y-46931009D02*
X159595238Y-46883390D01*
X118931009Y-39333333D02*
X118931009Y-39666666D01*
X119454819Y-39666666D02*
X118454819Y-39666666D01*
X118454819Y-39666666D02*
X118454819Y-39190476D01*
X118550057Y-38857142D02*
X118502438Y-38809523D01*
X118502438Y-38809523D02*
X118454819Y-38714285D01*
X118454819Y-38714285D02*
X118454819Y-38476190D01*
X118454819Y-38476190D02*
X118502438Y-38380952D01*
X118502438Y-38380952D02*
X118550057Y-38333333D01*
X118550057Y-38333333D02*
X118645295Y-38285714D01*
X118645295Y-38285714D02*
X118740533Y-38285714D01*
X118740533Y-38285714D02*
X118883390Y-38333333D01*
X118883390Y-38333333D02*
X119454819Y-38904761D01*
X119454819Y-38904761D02*
X119454819Y-38285714D01*
X166333333Y-39359580D02*
X166285714Y-39407200D01*
X166285714Y-39407200D02*
X166142857Y-39454819D01*
X166142857Y-39454819D02*
X166047619Y-39454819D01*
X166047619Y-39454819D02*
X165904762Y-39407200D01*
X165904762Y-39407200D02*
X165809524Y-39311961D01*
X165809524Y-39311961D02*
X165761905Y-39216723D01*
X165761905Y-39216723D02*
X165714286Y-39026247D01*
X165714286Y-39026247D02*
X165714286Y-38883390D01*
X165714286Y-38883390D02*
X165761905Y-38692914D01*
X165761905Y-38692914D02*
X165809524Y-38597676D01*
X165809524Y-38597676D02*
X165904762Y-38502438D01*
X165904762Y-38502438D02*
X166047619Y-38454819D01*
X166047619Y-38454819D02*
X166142857Y-38454819D01*
X166142857Y-38454819D02*
X166285714Y-38502438D01*
X166285714Y-38502438D02*
X166333333Y-38550057D01*
X166809524Y-39454819D02*
X167000000Y-39454819D01*
X167000000Y-39454819D02*
X167095238Y-39407200D01*
X167095238Y-39407200D02*
X167142857Y-39359580D01*
X167142857Y-39359580D02*
X167238095Y-39216723D01*
X167238095Y-39216723D02*
X167285714Y-39026247D01*
X167285714Y-39026247D02*
X167285714Y-38645295D01*
X167285714Y-38645295D02*
X167238095Y-38550057D01*
X167238095Y-38550057D02*
X167190476Y-38502438D01*
X167190476Y-38502438D02*
X167095238Y-38454819D01*
X167095238Y-38454819D02*
X166904762Y-38454819D01*
X166904762Y-38454819D02*
X166809524Y-38502438D01*
X166809524Y-38502438D02*
X166761905Y-38550057D01*
X166761905Y-38550057D02*
X166714286Y-38645295D01*
X166714286Y-38645295D02*
X166714286Y-38883390D01*
X166714286Y-38883390D02*
X166761905Y-38978628D01*
X166761905Y-38978628D02*
X166809524Y-39026247D01*
X166809524Y-39026247D02*
X166904762Y-39073866D01*
X166904762Y-39073866D02*
X167095238Y-39073866D01*
X167095238Y-39073866D02*
X167190476Y-39026247D01*
X167190476Y-39026247D02*
X167238095Y-38978628D01*
X167238095Y-38978628D02*
X167285714Y-38883390D01*
X142738095Y-32454819D02*
X142738095Y-33264342D01*
X142738095Y-33264342D02*
X142785714Y-33359580D01*
X142785714Y-33359580D02*
X142833333Y-33407200D01*
X142833333Y-33407200D02*
X142928571Y-33454819D01*
X142928571Y-33454819D02*
X143119047Y-33454819D01*
X143119047Y-33454819D02*
X143214285Y-33407200D01*
X143214285Y-33407200D02*
X143261904Y-33359580D01*
X143261904Y-33359580D02*
X143309523Y-33264342D01*
X143309523Y-33264342D02*
X143309523Y-32454819D01*
X144214285Y-32788152D02*
X144214285Y-33454819D01*
X143976190Y-32407200D02*
X143738095Y-33121485D01*
X143738095Y-33121485D02*
X144357142Y-33121485D01*
X132854819Y-56801904D02*
X133664342Y-56801904D01*
X133664342Y-56801904D02*
X133759580Y-56754285D01*
X133759580Y-56754285D02*
X133807200Y-56706666D01*
X133807200Y-56706666D02*
X133854819Y-56611428D01*
X133854819Y-56611428D02*
X133854819Y-56420952D01*
X133854819Y-56420952D02*
X133807200Y-56325714D01*
X133807200Y-56325714D02*
X133759580Y-56278095D01*
X133759580Y-56278095D02*
X133664342Y-56230476D01*
X133664342Y-56230476D02*
X132854819Y-56230476D01*
X133854819Y-55230476D02*
X133854819Y-55801904D01*
X133854819Y-55516190D02*
X132854819Y-55516190D01*
X132854819Y-55516190D02*
X132997676Y-55611428D01*
X132997676Y-55611428D02*
X133092914Y-55706666D01*
X133092914Y-55706666D02*
X133140533Y-55801904D01*
X156804819Y-53126666D02*
X156328628Y-53459999D01*
X156804819Y-53698094D02*
X155804819Y-53698094D01*
X155804819Y-53698094D02*
X155804819Y-53317142D01*
X155804819Y-53317142D02*
X155852438Y-53221904D01*
X155852438Y-53221904D02*
X155900057Y-53174285D01*
X155900057Y-53174285D02*
X155995295Y-53126666D01*
X155995295Y-53126666D02*
X156138152Y-53126666D01*
X156138152Y-53126666D02*
X156233390Y-53174285D01*
X156233390Y-53174285D02*
X156281009Y-53221904D01*
X156281009Y-53221904D02*
X156328628Y-53317142D01*
X156328628Y-53317142D02*
X156328628Y-53698094D01*
X155804819Y-52269523D02*
X155804819Y-52459999D01*
X155804819Y-52459999D02*
X155852438Y-52555237D01*
X155852438Y-52555237D02*
X155900057Y-52602856D01*
X155900057Y-52602856D02*
X156042914Y-52698094D01*
X156042914Y-52698094D02*
X156233390Y-52745713D01*
X156233390Y-52745713D02*
X156614342Y-52745713D01*
X156614342Y-52745713D02*
X156709580Y-52698094D01*
X156709580Y-52698094D02*
X156757200Y-52650475D01*
X156757200Y-52650475D02*
X156804819Y-52555237D01*
X156804819Y-52555237D02*
X156804819Y-52364761D01*
X156804819Y-52364761D02*
X156757200Y-52269523D01*
X156757200Y-52269523D02*
X156709580Y-52221904D01*
X156709580Y-52221904D02*
X156614342Y-52174285D01*
X156614342Y-52174285D02*
X156376247Y-52174285D01*
X156376247Y-52174285D02*
X156281009Y-52221904D01*
X156281009Y-52221904D02*
X156233390Y-52269523D01*
X156233390Y-52269523D02*
X156185771Y-52364761D01*
X156185771Y-52364761D02*
X156185771Y-52555237D01*
X156185771Y-52555237D02*
X156233390Y-52650475D01*
X156233390Y-52650475D02*
X156281009Y-52698094D01*
X156281009Y-52698094D02*
X156376247Y-52745713D01*
X149738095Y-51454819D02*
X149738095Y-52264342D01*
X149738095Y-52264342D02*
X149785714Y-52359580D01*
X149785714Y-52359580D02*
X149833333Y-52407200D01*
X149833333Y-52407200D02*
X149928571Y-52454819D01*
X149928571Y-52454819D02*
X150119047Y-52454819D01*
X150119047Y-52454819D02*
X150214285Y-52407200D01*
X150214285Y-52407200D02*
X150261904Y-52359580D01*
X150261904Y-52359580D02*
X150309523Y-52264342D01*
X150309523Y-52264342D02*
X150309523Y-51454819D01*
X151214285Y-51454819D02*
X151023809Y-51454819D01*
X151023809Y-51454819D02*
X150928571Y-51502438D01*
X150928571Y-51502438D02*
X150880952Y-51550057D01*
X150880952Y-51550057D02*
X150785714Y-51692914D01*
X150785714Y-51692914D02*
X150738095Y-51883390D01*
X150738095Y-51883390D02*
X150738095Y-52264342D01*
X150738095Y-52264342D02*
X150785714Y-52359580D01*
X150785714Y-52359580D02*
X150833333Y-52407200D01*
X150833333Y-52407200D02*
X150928571Y-52454819D01*
X150928571Y-52454819D02*
X151119047Y-52454819D01*
X151119047Y-52454819D02*
X151214285Y-52407200D01*
X151214285Y-52407200D02*
X151261904Y-52359580D01*
X151261904Y-52359580D02*
X151309523Y-52264342D01*
X151309523Y-52264342D02*
X151309523Y-52026247D01*
X151309523Y-52026247D02*
X151261904Y-51931009D01*
X151261904Y-51931009D02*
X151214285Y-51883390D01*
X151214285Y-51883390D02*
X151119047Y-51835771D01*
X151119047Y-51835771D02*
X150928571Y-51835771D01*
X150928571Y-51835771D02*
X150833333Y-51883390D01*
X150833333Y-51883390D02*
X150785714Y-51931009D01*
X150785714Y-51931009D02*
X150738095Y-52026247D01*
X134333333Y-39359580D02*
X134285714Y-39407200D01*
X134285714Y-39407200D02*
X134142857Y-39454819D01*
X134142857Y-39454819D02*
X134047619Y-39454819D01*
X134047619Y-39454819D02*
X133904762Y-39407200D01*
X133904762Y-39407200D02*
X133809524Y-39311961D01*
X133809524Y-39311961D02*
X133761905Y-39216723D01*
X133761905Y-39216723D02*
X133714286Y-39026247D01*
X133714286Y-39026247D02*
X133714286Y-38883390D01*
X133714286Y-38883390D02*
X133761905Y-38692914D01*
X133761905Y-38692914D02*
X133809524Y-38597676D01*
X133809524Y-38597676D02*
X133904762Y-38502438D01*
X133904762Y-38502438D02*
X134047619Y-38454819D01*
X134047619Y-38454819D02*
X134142857Y-38454819D01*
X134142857Y-38454819D02*
X134285714Y-38502438D01*
X134285714Y-38502438D02*
X134333333Y-38550057D01*
X135190476Y-38454819D02*
X135000000Y-38454819D01*
X135000000Y-38454819D02*
X134904762Y-38502438D01*
X134904762Y-38502438D02*
X134857143Y-38550057D01*
X134857143Y-38550057D02*
X134761905Y-38692914D01*
X134761905Y-38692914D02*
X134714286Y-38883390D01*
X134714286Y-38883390D02*
X134714286Y-39264342D01*
X134714286Y-39264342D02*
X134761905Y-39359580D01*
X134761905Y-39359580D02*
X134809524Y-39407200D01*
X134809524Y-39407200D02*
X134904762Y-39454819D01*
X134904762Y-39454819D02*
X135095238Y-39454819D01*
X135095238Y-39454819D02*
X135190476Y-39407200D01*
X135190476Y-39407200D02*
X135238095Y-39359580D01*
X135238095Y-39359580D02*
X135285714Y-39264342D01*
X135285714Y-39264342D02*
X135285714Y-39026247D01*
X135285714Y-39026247D02*
X135238095Y-38931009D01*
X135238095Y-38931009D02*
X135190476Y-38883390D01*
X135190476Y-38883390D02*
X135095238Y-38835771D01*
X135095238Y-38835771D02*
X134904762Y-38835771D01*
X134904762Y-38835771D02*
X134809524Y-38883390D01*
X134809524Y-38883390D02*
X134761905Y-38931009D01*
X134761905Y-38931009D02*
X134714286Y-39026247D01*
X171738095Y-34954819D02*
X171738095Y-35764342D01*
X171738095Y-35764342D02*
X171785714Y-35859580D01*
X171785714Y-35859580D02*
X171833333Y-35907200D01*
X171833333Y-35907200D02*
X171928571Y-35954819D01*
X171928571Y-35954819D02*
X172119047Y-35954819D01*
X172119047Y-35954819D02*
X172214285Y-35907200D01*
X172214285Y-35907200D02*
X172261904Y-35859580D01*
X172261904Y-35859580D02*
X172309523Y-35764342D01*
X172309523Y-35764342D02*
X172309523Y-34954819D01*
X173261904Y-34954819D02*
X172785714Y-34954819D01*
X172785714Y-34954819D02*
X172738095Y-35431009D01*
X172738095Y-35431009D02*
X172785714Y-35383390D01*
X172785714Y-35383390D02*
X172880952Y-35335771D01*
X172880952Y-35335771D02*
X173119047Y-35335771D01*
X173119047Y-35335771D02*
X173214285Y-35383390D01*
X173214285Y-35383390D02*
X173261904Y-35431009D01*
X173261904Y-35431009D02*
X173309523Y-35526247D01*
X173309523Y-35526247D02*
X173309523Y-35764342D01*
X173309523Y-35764342D02*
X173261904Y-35859580D01*
X173261904Y-35859580D02*
X173214285Y-35907200D01*
X173214285Y-35907200D02*
X173119047Y-35954819D01*
X173119047Y-35954819D02*
X172880952Y-35954819D01*
X172880952Y-35954819D02*
X172785714Y-35907200D01*
X172785714Y-35907200D02*
X172738095Y-35859580D01*
X123261905Y-43024819D02*
X123261905Y-42024819D01*
X123261905Y-42024819D02*
X123500000Y-42024819D01*
X123500000Y-42024819D02*
X123642857Y-42072438D01*
X123642857Y-42072438D02*
X123738095Y-42167676D01*
X123738095Y-42167676D02*
X123785714Y-42262914D01*
X123785714Y-42262914D02*
X123833333Y-42453390D01*
X123833333Y-42453390D02*
X123833333Y-42596247D01*
X123833333Y-42596247D02*
X123785714Y-42786723D01*
X123785714Y-42786723D02*
X123738095Y-42881961D01*
X123738095Y-42881961D02*
X123642857Y-42977200D01*
X123642857Y-42977200D02*
X123500000Y-43024819D01*
X123500000Y-43024819D02*
X123261905Y-43024819D01*
X124690476Y-42358152D02*
X124690476Y-43024819D01*
X124452381Y-41977200D02*
X124214286Y-42691485D01*
X124214286Y-42691485D02*
X124833333Y-42691485D01*
X141804819Y-51626666D02*
X141328628Y-51959999D01*
X141804819Y-52198094D02*
X140804819Y-52198094D01*
X140804819Y-52198094D02*
X140804819Y-51817142D01*
X140804819Y-51817142D02*
X140852438Y-51721904D01*
X140852438Y-51721904D02*
X140900057Y-51674285D01*
X140900057Y-51674285D02*
X140995295Y-51626666D01*
X140995295Y-51626666D02*
X141138152Y-51626666D01*
X141138152Y-51626666D02*
X141233390Y-51674285D01*
X141233390Y-51674285D02*
X141281009Y-51721904D01*
X141281009Y-51721904D02*
X141328628Y-51817142D01*
X141328628Y-51817142D02*
X141328628Y-52198094D01*
X140804819Y-50721904D02*
X140804819Y-51198094D01*
X140804819Y-51198094D02*
X141281009Y-51245713D01*
X141281009Y-51245713D02*
X141233390Y-51198094D01*
X141233390Y-51198094D02*
X141185771Y-51102856D01*
X141185771Y-51102856D02*
X141185771Y-50864761D01*
X141185771Y-50864761D02*
X141233390Y-50769523D01*
X141233390Y-50769523D02*
X141281009Y-50721904D01*
X141281009Y-50721904D02*
X141376247Y-50674285D01*
X141376247Y-50674285D02*
X141614342Y-50674285D01*
X141614342Y-50674285D02*
X141709580Y-50721904D01*
X141709580Y-50721904D02*
X141757200Y-50769523D01*
X141757200Y-50769523D02*
X141804819Y-50864761D01*
X141804819Y-50864761D02*
X141804819Y-51102856D01*
X141804819Y-51102856D02*
X141757200Y-51198094D01*
X141757200Y-51198094D02*
X141709580Y-51245713D01*
X153357142Y-46859580D02*
X153309523Y-46907200D01*
X153309523Y-46907200D02*
X153166666Y-46954819D01*
X153166666Y-46954819D02*
X153071428Y-46954819D01*
X153071428Y-46954819D02*
X152928571Y-46907200D01*
X152928571Y-46907200D02*
X152833333Y-46811961D01*
X152833333Y-46811961D02*
X152785714Y-46716723D01*
X152785714Y-46716723D02*
X152738095Y-46526247D01*
X152738095Y-46526247D02*
X152738095Y-46383390D01*
X152738095Y-46383390D02*
X152785714Y-46192914D01*
X152785714Y-46192914D02*
X152833333Y-46097676D01*
X152833333Y-46097676D02*
X152928571Y-46002438D01*
X152928571Y-46002438D02*
X153071428Y-45954819D01*
X153071428Y-45954819D02*
X153166666Y-45954819D01*
X153166666Y-45954819D02*
X153309523Y-46002438D01*
X153309523Y-46002438D02*
X153357142Y-46050057D01*
X154309523Y-46954819D02*
X153738095Y-46954819D01*
X154023809Y-46954819D02*
X154023809Y-45954819D01*
X154023809Y-45954819D02*
X153928571Y-46097676D01*
X153928571Y-46097676D02*
X153833333Y-46192914D01*
X153833333Y-46192914D02*
X153738095Y-46240533D01*
X155261904Y-46954819D02*
X154690476Y-46954819D01*
X154976190Y-46954819D02*
X154976190Y-45954819D01*
X154976190Y-45954819D02*
X154880952Y-46097676D01*
X154880952Y-46097676D02*
X154785714Y-46192914D01*
X154785714Y-46192914D02*
X154690476Y-46240533D01*
X136833333Y-48454819D02*
X136500000Y-47978628D01*
X136261905Y-48454819D02*
X136261905Y-47454819D01*
X136261905Y-47454819D02*
X136642857Y-47454819D01*
X136642857Y-47454819D02*
X136738095Y-47502438D01*
X136738095Y-47502438D02*
X136785714Y-47550057D01*
X136785714Y-47550057D02*
X136833333Y-47645295D01*
X136833333Y-47645295D02*
X136833333Y-47788152D01*
X136833333Y-47788152D02*
X136785714Y-47883390D01*
X136785714Y-47883390D02*
X136738095Y-47931009D01*
X136738095Y-47931009D02*
X136642857Y-47978628D01*
X136642857Y-47978628D02*
X136261905Y-47978628D01*
X137214286Y-47550057D02*
X137261905Y-47502438D01*
X137261905Y-47502438D02*
X137357143Y-47454819D01*
X137357143Y-47454819D02*
X137595238Y-47454819D01*
X137595238Y-47454819D02*
X137690476Y-47502438D01*
X137690476Y-47502438D02*
X137738095Y-47550057D01*
X137738095Y-47550057D02*
X137785714Y-47645295D01*
X137785714Y-47645295D02*
X137785714Y-47740533D01*
X137785714Y-47740533D02*
X137738095Y-47883390D01*
X137738095Y-47883390D02*
X137166667Y-48454819D01*
X137166667Y-48454819D02*
X137785714Y-48454819D01*
D12*
G04 #@! TO.C,D1*
X123350000Y-60550000D02*
X126650000Y-60550000D01*
X123350000Y-60550000D02*
X123350000Y-55040000D01*
X126650000Y-60550000D02*
X126650000Y-55040000D01*
G04 #@! TO.C,C1*
X132265000Y-51801252D02*
X132265000Y-51278748D01*
X133735000Y-51801252D02*
X133735000Y-51278748D01*
G04 #@! TO.C,C8*
X140238748Y-36265000D02*
X140761252Y-36265000D01*
X140238748Y-37735000D02*
X140761252Y-37735000D01*
G04 #@! TO.C,C5*
X149788748Y-36090000D02*
X151211252Y-36090000D01*
X149788748Y-37910000D02*
X151211252Y-37910000D01*
G04 #@! TO.C,J1*
X117550000Y-32830000D02*
X117550000Y-31500000D01*
X118880000Y-32830000D02*
X117550000Y-32830000D01*
X120150000Y-32830000D02*
X127830000Y-32830000D01*
X120150000Y-32830000D02*
X120150000Y-30170000D01*
X127830000Y-32830000D02*
X127830000Y-30170000D01*
X120150000Y-30170000D02*
X127830000Y-30170000D01*
G04 #@! TO.C,U2*
X132560000Y-46540000D02*
X132560000Y-44740000D01*
X132560000Y-46540000D02*
X132560000Y-47340000D01*
X129440000Y-46540000D02*
X129440000Y-45740000D01*
X129440000Y-46540000D02*
X129440000Y-47340000D01*
G04 #@! TO.C,R7*
X139265000Y-51687064D02*
X139265000Y-51232936D01*
X140735000Y-51687064D02*
X140735000Y-51232936D01*
G04 #@! TO.C,D5*
X164490000Y-40350000D02*
X164490000Y-43650000D01*
X164490000Y-40350000D02*
X170000000Y-40350000D01*
X164490000Y-43650000D02*
X170000000Y-43650000D01*
G04 #@! TO.C,C3*
X133735000Y-60278748D02*
X133735000Y-60801252D01*
X132265000Y-60278748D02*
X132265000Y-60801252D01*
G04 #@! TO.C,C4*
X129765000Y-60801252D02*
X129765000Y-60278748D01*
X131235000Y-60801252D02*
X131235000Y-60278748D01*
G04 #@! TO.C,D6*
X140010000Y-43650000D02*
X140010000Y-40350000D01*
X140010000Y-43650000D02*
X134500000Y-43650000D01*
X140010000Y-40350000D02*
X134500000Y-40350000D01*
G04 #@! TO.C,D3*
X118015000Y-43265000D02*
X118015000Y-44735000D01*
X118015000Y-44735000D02*
X120300000Y-44735000D01*
X120300000Y-43265000D02*
X118015000Y-43265000D01*
G04 #@! TO.C,C2*
X129765000Y-51801252D02*
X129765000Y-51278748D01*
X131235000Y-51801252D02*
X131235000Y-51278748D01*
G04 #@! TO.C,D2*
X123350000Y-52550000D02*
X126650000Y-52550000D01*
X123350000Y-52550000D02*
X123350000Y-47040000D01*
X126650000Y-52550000D02*
X126650000Y-47040000D01*
G04 #@! TO.C,R3*
X163765000Y-51687064D02*
X163765000Y-51232936D01*
X165235000Y-51687064D02*
X165235000Y-51232936D01*
G04 #@! TO.C,D9*
X148990000Y-40350000D02*
X148990000Y-43650000D01*
X148990000Y-40350000D02*
X154500000Y-40350000D01*
X148990000Y-43650000D02*
X154500000Y-43650000D01*
G04 #@! TO.C,C10*
X170761252Y-37735000D02*
X170238748Y-37735000D01*
X170761252Y-36265000D02*
X170238748Y-36265000D01*
G04 #@! TO.C,F1*
X125721000Y-36330000D02*
X125055000Y-36330000D01*
X125721000Y-36330000D02*
X125721000Y-41670000D01*
X122945000Y-36330000D02*
X122279000Y-36330000D01*
X122279000Y-36330000D02*
X122279000Y-41670000D01*
X125721000Y-41670000D02*
X125055000Y-41670000D01*
X122945000Y-41670000D02*
X122279000Y-41670000D01*
G04 #@! TO.C,U3*
X146880000Y-29675000D02*
X146880000Y-34316000D01*
X146880000Y-29675000D02*
X157120000Y-29675000D01*
X146880000Y-31185000D02*
X157120000Y-31185000D01*
X146880000Y-34316000D02*
X157120000Y-34316000D01*
X150150000Y-29675000D02*
X150150000Y-31185000D01*
X153851000Y-29675000D02*
X153851000Y-31185000D01*
X157120000Y-29675000D02*
X157120000Y-34316000D01*
G04 #@! TO.C,R1*
X136685436Y-54265000D02*
X137139564Y-54265000D01*
X136685436Y-55735000D02*
X137139564Y-55735000D01*
G04 #@! TO.C,R8*
X160265000Y-53187064D02*
X160265000Y-52732936D01*
X161735000Y-53187064D02*
X161735000Y-52732936D01*
G04 #@! TO.C,J2*
X178670000Y-38870000D02*
X180000000Y-38870000D01*
X178670000Y-40200000D02*
X178670000Y-38870000D01*
X178670000Y-41470000D02*
X178670000Y-49150000D01*
X178670000Y-41470000D02*
X181330000Y-41470000D01*
X178670000Y-49150000D02*
X181330000Y-49150000D01*
X181330000Y-41470000D02*
X181330000Y-49150000D01*
G04 #@! TO.C,J3*
X107170000Y-38870000D02*
X108500000Y-38870000D01*
X107170000Y-40200000D02*
X107170000Y-38870000D01*
X107170000Y-41470000D02*
X107170000Y-49150000D01*
X107170000Y-41470000D02*
X109830000Y-41470000D01*
X107170000Y-49150000D02*
X109830000Y-49150000D01*
X109830000Y-41470000D02*
X109830000Y-49150000D01*
G04 #@! TO.C,C7*
X155761252Y-37735000D02*
X155238748Y-37735000D01*
X155761252Y-36265000D02*
X155238748Y-36265000D01*
G04 #@! TO.C,R4*
X163765000Y-55687064D02*
X163765000Y-55232936D01*
X165235000Y-55687064D02*
X165235000Y-55232936D01*
G04 #@! TO.C,D8*
X157315000Y-48000000D02*
X157315000Y-49920000D01*
X157315000Y-49920000D02*
X160000000Y-49920000D01*
X160000000Y-48000000D02*
X157315000Y-48000000D01*
G04 #@! TO.C,F2*
X120721000Y-36330000D02*
X120055000Y-36330000D01*
X120721000Y-36330000D02*
X120721000Y-41670000D01*
X117945000Y-36330000D02*
X117279000Y-36330000D01*
X117279000Y-36330000D02*
X117279000Y-41670000D01*
X120721000Y-41670000D02*
X120055000Y-41670000D01*
X117945000Y-41670000D02*
X117279000Y-41670000D01*
G04 #@! TO.C,C9*
X165738748Y-36265000D02*
X166261252Y-36265000D01*
X165738748Y-37735000D02*
X166261252Y-37735000D01*
G04 #@! TO.C,U4*
X131840000Y-29730000D02*
X131840000Y-34371000D01*
X131840000Y-29730000D02*
X142080000Y-29730000D01*
X131840000Y-31240000D02*
X142080000Y-31240000D01*
X131840000Y-34371000D02*
X142080000Y-34371000D01*
X135110000Y-29730000D02*
X135110000Y-31240000D01*
X138811000Y-29730000D02*
X138811000Y-31240000D01*
X142080000Y-29730000D02*
X142080000Y-34371000D01*
G04 #@! TO.C,U1*
X132560000Y-56040000D02*
X132560000Y-54240000D01*
X132560000Y-56040000D02*
X132560000Y-56840000D01*
X129440000Y-56040000D02*
X129440000Y-55240000D01*
X129440000Y-56040000D02*
X129440000Y-56840000D01*
G04 #@! TO.C,R6*
X157265000Y-53187064D02*
X157265000Y-52732936D01*
X158735000Y-53187064D02*
X158735000Y-52732936D01*
D11*
G04 #@! TO.C,U6*
X147750000Y-50205000D02*
X147750000Y-50410000D01*
X147750000Y-50205000D02*
X153250000Y-50205000D01*
X147750000Y-50410000D02*
X146000000Y-50410000D01*
X147750000Y-55715000D02*
X147750000Y-55415000D01*
X147750000Y-55715000D02*
X153250000Y-55715000D01*
X153250000Y-50205000D02*
X153250000Y-50505000D01*
X153250000Y-55715000D02*
X153250000Y-55415000D01*
D12*
G04 #@! TO.C,C6*
X133788748Y-36090000D02*
X135211252Y-36090000D01*
X133788748Y-37910000D02*
X135211252Y-37910000D01*
G04 #@! TO.C,U5*
X162420000Y-29675000D02*
X162420000Y-34316000D01*
X162420000Y-29675000D02*
X172660000Y-29675000D01*
X162420000Y-31185000D02*
X172660000Y-31185000D01*
X162420000Y-34316000D02*
X172660000Y-34316000D01*
X165690000Y-29675000D02*
X165690000Y-31185000D01*
X169391000Y-29675000D02*
X169391000Y-31185000D01*
X172660000Y-29675000D02*
X172660000Y-34316000D01*
G04 #@! TO.C,D4*
X122515000Y-43265000D02*
X122515000Y-44735000D01*
X122515000Y-44735000D02*
X124800000Y-44735000D01*
X124800000Y-43265000D02*
X122515000Y-43265000D01*
G04 #@! TO.C,R5*
X142265000Y-51687064D02*
X142265000Y-51232936D01*
X143735000Y-51687064D02*
X143735000Y-51232936D01*
G04 #@! TO.C,C11*
X154261252Y-49195000D02*
X153738748Y-49195000D01*
X154261252Y-47725000D02*
X153738748Y-47725000D01*
G04 #@! TO.C,R2*
X136772936Y-45265000D02*
X137227064Y-45265000D01*
X136772936Y-46735000D02*
X137227064Y-46735000D01*
G04 #@! TD*
M02*
