G04 #@! TF.GenerationSoftware,KiCad,Pcbnew,7.0.7*
G04 #@! TF.CreationDate,2023-09-04T18:07:58+02:00*
G04 #@! TF.ProjectId,lt15t3,6c743135-7433-42e6-9b69-6361645f7063,rev?*
G04 #@! TF.SameCoordinates,Original*
G04 #@! TF.FileFunction,Paste,Top*
G04 #@! TF.FilePolarity,Positive*
%FSLAX46Y46*%
G04 Gerber Fmt 4.6, Leading zero omitted, Abs format (unit mm)*
G04 Created by KiCad (PCBNEW 7.0.7) date 2023-09-04 18:07:58*
%MOMM*%
%LPD*%
G01*
G04 APERTURE LIST*
G04 Aperture macros list*
%AMRoundRect*
0 Rectangle with rounded corners*
0 $1 Rounding radius*
0 $2 $3 $4 $5 $6 $7 $8 $9 X,Y pos of 4 corners*
0 Add a 4 corners polygon primitive as box body*
4,1,4,$2,$3,$4,$5,$6,$7,$8,$9,$2,$3,0*
0 Add four circle primitives for the rounded corners*
1,1,$1+$1,$2,$3*
1,1,$1+$1,$4,$5*
1,1,$1+$1,$6,$7*
1,1,$1+$1,$8,$9*
0 Add four rect primitives between the rounded corners*
20,1,$1+$1,$2,$3,$4,$5,0*
20,1,$1+$1,$4,$5,$6,$7,0*
20,1,$1+$1,$6,$7,$8,$9,0*
20,1,$1+$1,$8,$9,$2,$3,0*%
G04 Aperture macros list end*
%ADD10RoundRect,0.250000X-1.000000X-0.650000X1.000000X-0.650000X1.000000X0.650000X-1.000000X0.650000X0*%
%ADD11RoundRect,0.250000X1.000000X0.650000X-1.000000X0.650000X-1.000000X-0.650000X1.000000X-0.650000X0*%
%ADD12R,1.700000X0.650000*%
%ADD13RoundRect,0.150000X-0.150000X0.512500X-0.150000X-0.512500X0.150000X-0.512500X0.150000X0.512500X0*%
%ADD14RoundRect,0.250000X0.450000X-0.262500X0.450000X0.262500X-0.450000X0.262500X-0.450000X-0.262500X0*%
%ADD15RoundRect,0.250000X-0.262500X-0.450000X0.262500X-0.450000X0.262500X0.450000X-0.262500X0.450000X0*%
%ADD16RoundRect,0.243750X-0.243750X-0.456250X0.243750X-0.456250X0.243750X0.456250X-0.243750X0.456250X0*%
%ADD17RoundRect,0.218750X-0.218750X-0.256250X0.218750X-0.256250X0.218750X0.256250X-0.218750X0.256250X0*%
%ADD18RoundRect,0.250000X0.650000X-1.000000X0.650000X1.000000X-0.650000X1.000000X-0.650000X-1.000000X0*%
%ADD19RoundRect,0.250000X0.250000X0.475000X-0.250000X0.475000X-0.250000X-0.475000X0.250000X-0.475000X0*%
%ADD20RoundRect,0.250000X-0.250000X-0.475000X0.250000X-0.475000X0.250000X0.475000X-0.250000X0.475000X0*%
%ADD21RoundRect,0.250000X-0.325000X-0.650000X0.325000X-0.650000X0.325000X0.650000X-0.325000X0.650000X0*%
%ADD22RoundRect,0.250000X0.475000X-0.250000X0.475000X0.250000X-0.475000X0.250000X-0.475000X-0.250000X0*%
%ADD23RoundRect,0.250000X-0.475000X0.250000X-0.475000X-0.250000X0.475000X-0.250000X0.475000X0.250000X0*%
G04 APERTURE END LIST*
D10*
G04 #@! TO.C,D9*
X150500000Y-42000000D03*
X154500000Y-42000000D03*
G04 #@! TD*
D11*
G04 #@! TO.C,D6*
X138500000Y-42000000D03*
X134500000Y-42000000D03*
G04 #@! TD*
D10*
G04 #@! TO.C,D5*
X166000000Y-42000000D03*
X170000000Y-42000000D03*
G04 #@! TD*
D12*
G04 #@! TO.C,U6*
X146850000Y-51055000D03*
X146850000Y-52325000D03*
X146850000Y-53595000D03*
X146850000Y-54865000D03*
X154150000Y-54865000D03*
X154150000Y-53595000D03*
X154150000Y-52325000D03*
X154150000Y-51055000D03*
G04 #@! TD*
D13*
G04 #@! TO.C,U2*
X131950000Y-45402500D03*
X131000000Y-45402500D03*
X130050000Y-45402500D03*
X130050000Y-47677500D03*
X131950000Y-47677500D03*
G04 #@! TD*
G04 #@! TO.C,U1*
X131950000Y-54902500D03*
X131000000Y-54902500D03*
X130050000Y-54902500D03*
X130050000Y-57177500D03*
X131950000Y-57177500D03*
G04 #@! TD*
D14*
G04 #@! TO.C,R8*
X161000000Y-53872500D03*
X161000000Y-52047500D03*
G04 #@! TD*
G04 #@! TO.C,R7*
X140000000Y-52372500D03*
X140000000Y-50547500D03*
G04 #@! TD*
G04 #@! TO.C,R6*
X158000000Y-53872500D03*
X158000000Y-52047500D03*
G04 #@! TD*
G04 #@! TO.C,R5*
X143000000Y-50547500D03*
X143000000Y-52372500D03*
G04 #@! TD*
G04 #@! TO.C,R4*
X164500000Y-56372500D03*
X164500000Y-54547500D03*
G04 #@! TD*
G04 #@! TO.C,R3*
X164500000Y-52372500D03*
X164500000Y-50547500D03*
G04 #@! TD*
D15*
G04 #@! TO.C,R2*
X136087500Y-46000000D03*
X137912500Y-46000000D03*
G04 #@! TD*
G04 #@! TO.C,R1*
X136000000Y-55000000D03*
X137825000Y-55000000D03*
G04 #@! TD*
D16*
G04 #@! TO.C,D8*
X158062500Y-48960000D03*
X159937500Y-48960000D03*
G04 #@! TD*
D17*
G04 #@! TO.C,D4*
X123212500Y-44000000D03*
X124787500Y-44000000D03*
G04 #@! TD*
G04 #@! TO.C,D3*
X118712500Y-44000000D03*
X120287500Y-44000000D03*
G04 #@! TD*
D18*
G04 #@! TO.C,D2*
X125000000Y-51040000D03*
X125000000Y-47040000D03*
G04 #@! TD*
G04 #@! TO.C,D1*
X125000000Y-59040000D03*
X125000000Y-55040000D03*
G04 #@! TD*
D19*
G04 #@! TO.C,C11*
X154950000Y-48460000D03*
X153050000Y-48460000D03*
G04 #@! TD*
G04 #@! TO.C,C10*
X171450000Y-37000000D03*
X169550000Y-37000000D03*
G04 #@! TD*
D20*
G04 #@! TO.C,C9*
X165050000Y-37000000D03*
X166950000Y-37000000D03*
G04 #@! TD*
G04 #@! TO.C,C8*
X139550000Y-37000000D03*
X141450000Y-37000000D03*
G04 #@! TD*
D19*
G04 #@! TO.C,C7*
X156450000Y-37000000D03*
X154550000Y-37000000D03*
G04 #@! TD*
D21*
G04 #@! TO.C,C6*
X133025000Y-37000000D03*
X135975000Y-37000000D03*
G04 #@! TD*
G04 #@! TO.C,C5*
X149025000Y-37000000D03*
X151975000Y-37000000D03*
G04 #@! TD*
D22*
G04 #@! TO.C,C4*
X130500000Y-61490000D03*
X130500000Y-59590000D03*
G04 #@! TD*
D23*
G04 #@! TO.C,C3*
X133000000Y-59590000D03*
X133000000Y-61490000D03*
G04 #@! TD*
D22*
G04 #@! TO.C,C2*
X130500000Y-52490000D03*
X130500000Y-50590000D03*
G04 #@! TD*
G04 #@! TO.C,C1*
X133000000Y-52490000D03*
X133000000Y-50590000D03*
G04 #@! TD*
M02*
